<svg width="68" height="74" viewBox="0 0 68 74" fill="none" xmlns="http://www.w3.org/2000/svg">
<g id="Highlight_05">
<path id="Vector" fill-rule="evenodd" clip-rule="evenodd" d="M22.4259 68.5287C16.0259 66.7327 9.32534 65.8267 2.82534 64.9967C1.42534 64.8227 0.125535 65.7937 0.0255346 67.1617C-0.174465 68.5307 0.826121 69.7827 2.12612 69.9567C8.42612 70.7557 14.9255 71.6107 21.0255 73.3397C22.3255 73.7147 23.7261 72.9427 24.1261 71.6147C24.5261 70.2877 23.7259 68.9047 22.4259 68.5287Z" fill="black"/>
<path id="Vector_2" fill-rule="evenodd" clip-rule="evenodd" d="M41.8251 43.0654C31.5251 32.5544 19.9251 23.3964 9.8251 12.6034C8.9251 11.5954 7.3251 11.5414 6.3251 12.4824C5.3251 13.4244 5.22549 15.0084 6.22549 16.0164C16.3255 26.8404 27.9255 36.0284 38.2255 46.5704C39.2255 47.5544 40.8251 47.5684 41.8251 46.6004C42.7251 45.6334 42.8251 44.0494 41.8251 43.0654Z" fill="black"/>
<path id="Vector_3" fill-rule="evenodd" clip-rule="evenodd" d="M61.1264 2.63576C61.4264 8.65176 61.7259 14.6678 62.0259 20.6848C62.0259 22.0628 63.2264 23.1268 64.6264 23.0598C66.0264 22.9918 67.0259 21.8188 67.0259 20.4398C66.7259 14.4138 66.4264 8.38876 66.1264 2.36376C66.0264 0.985757 64.8262 -0.0712432 63.4262 0.00375683C62.1262 0.0787568 61.0264 1.25876 61.1264 2.63576Z" fill="black"/>
</g>
</svg>
