<svg width="133" height="58" viewBox="0 0 133 58" fill="none" xmlns="http://www.w3.org/2000/svg">
<path d="M50.75 16.4115V19.5936H59.4203V20.7065H44.3276V23.4069H59.4203V35.3431H46.6083V38.5251H59.4203V43.0099H25.6953V33.3105H36.0515V29.9935H25.6953V26.8115H29.8881V24.5235H25.6953V15.2949H59.4203V16.4115H50.75Z" fill="#EC912A"/>
<path d="M58.8689 16.4115V15.2949H82.4166V16.4042H59.9782V16.4115H58.8689Z" fill="#EC912A"/>
<path d="M59.9782 19.5938H58.8689V20.7067H59.9782V19.5938Z" fill="#EC912A"/>
<path d="M59.9782 23.4082H58.8689V35.3444H59.9782V23.4082Z" fill="#EC912A"/>
<path d="M97.2793 48.856L95.8051 49.7062L81.8655 57.7562V43.0174H58.8689V38.5254H59.9782V41.9081H82.9712V55.8367L95.2541 48.7465L96.7247 47.8963L97.2793 48.856Z" fill="#EC912A"/>
<path d="M100.071 47.2441V40.8435H101.18V45.3246L117.101 36.1289L117.656 37.0886L100.071 47.2441Z" fill="#EC912A"/>
<path d="M122.013 25.0202L82.9716 2.47607V10.5625H90.1166V11.6718H81.866V0.556641L122.568 24.0605L122.013 25.0202Z" fill="#EC912A"/>
<path d="M108.15 20.6443L107.581 21.5967L106.129 20.721L98.2904 16.01H87.2957V20.7027H59.4238V19.5934H86.1863V14.9043H98.5969L106.694 19.7722L108.15 20.6443Z" fill="#EC912A"/>
<path d="M84.8873 39.6421H58.3984V38.5364H84.4457L95.2653 28.2715L130.286 28.6036L130.275 29.7092L95.7032 29.3845L84.8873 39.6421Z" fill="#EC912A"/>
<path d="M109.654 21.122C109.654 21.4757 109.549 21.8214 109.353 22.1154C109.156 22.4095 108.877 22.6387 108.55 22.774C108.223 22.9093 107.864 22.9447 107.517 22.8758C107.17 22.8068 106.852 22.6365 106.602 22.3864C106.352 22.1363 106.181 21.8177 106.112 21.4709C106.043 21.124 106.079 20.7645 106.214 20.4378C106.349 20.1111 106.579 19.8318 106.873 19.6353C107.167 19.4389 107.512 19.334 107.866 19.334C108.101 19.334 108.333 19.3802 108.55 19.4701C108.767 19.56 108.964 19.6917 109.13 19.8577C109.296 20.0237 109.428 20.2208 109.518 20.4378C109.608 20.6547 109.654 20.8872 109.654 21.122Z" fill="#EC912A"/>
<path d="M98.7871 22.4941C99.7746 22.4941 100.575 21.6935 100.575 20.706C100.575 19.7185 99.7746 18.918 98.7871 18.918C97.7996 18.918 96.999 19.7185 96.999 20.706C96.999 21.6935 97.7996 22.4941 98.7871 22.4941Z" fill="#EC912A"/>
<path d="M117.758 25.0422C117.759 25.396 117.655 25.7421 117.459 26.0366C117.263 26.3311 116.984 26.5609 116.657 26.6968C116.331 26.8327 115.971 26.8686 115.624 26.8C115.277 26.7314 114.958 26.5614 114.707 26.3115C114.457 26.0616 114.286 25.743 114.217 25.3961C114.148 25.0491 114.183 24.6894 114.318 24.3625C114.453 24.0355 114.683 23.756 114.977 23.5594C115.271 23.3628 115.617 23.2578 115.97 23.2578C116.444 23.2578 116.898 23.4457 117.233 23.7802C117.569 24.1148 117.758 24.5686 117.758 25.0422Z" fill="#EC912A"/>
<path d="M125.348 25.3489C125.349 25.7027 125.245 26.0487 125.049 26.3433C124.853 26.6378 124.574 26.8675 124.247 27.0034C123.92 27.1393 123.561 27.1752 123.214 27.1067C122.867 27.0381 122.548 26.8681 122.297 26.6182C122.047 26.3682 121.876 26.0496 121.807 25.7027C121.738 25.3557 121.773 24.996 121.908 24.6691C122.043 24.3422 122.272 24.0627 122.567 23.8661C122.861 23.6694 123.206 23.5645 123.56 23.5645C124.034 23.5645 124.488 23.7523 124.823 24.0869C125.159 24.4214 125.347 24.8753 125.348 25.3489Z" fill="#EC912A"/>
<path d="M98.7868 48.3743C98.7875 48.7282 98.6832 49.0744 98.487 49.369C98.2908 49.6636 98.0116 49.8934 97.6847 50.0292C97.3578 50.1649 96.998 50.2007 96.6508 50.1318C96.3036 50.0629 95.9847 49.8925 95.7344 49.6423C95.4841 49.392 95.3138 49.073 95.2449 48.7258C95.176 48.3787 95.2117 48.0188 95.3475 47.692C95.4833 47.3651 95.713 47.0859 96.0076 46.8897C96.3022 46.6935 96.6484 46.5891 97.0024 46.5898C97.4757 46.5898 97.9295 46.7778 98.2642 47.1125C98.5988 47.4471 98.7868 47.901 98.7868 48.3743Z" fill="#EC912A"/>
<path d="M89.0363 48.5342C89.0363 48.888 88.9314 49.2338 88.7347 49.5279C88.5381 49.822 88.2586 50.0512 87.9317 50.1865C87.6047 50.3217 87.245 50.3569 86.8981 50.2876C86.5511 50.2183 86.2325 50.0476 85.9826 49.7972C85.7327 49.5468 85.5627 49.2278 85.4941 48.8807C85.4255 48.5337 85.4615 48.174 85.5974 47.8474C85.7333 47.5207 85.963 47.2417 86.2575 47.0457C86.5521 46.8496 86.8981 46.7454 87.2519 46.7461C87.4866 46.7461 87.7189 46.7924 87.9356 46.8823C88.1524 46.9722 88.3492 47.1039 88.515 47.27C88.6807 47.4361 88.8121 47.6333 88.9015 47.8502C88.991 48.0671 89.0368 48.2995 89.0363 48.5342Z" fill="#EC912A"/>
<path d="M125.348 32.6203C125.349 32.9741 125.245 33.3202 125.049 33.6147C124.853 33.9093 124.574 34.139 124.247 34.2749C123.92 34.4108 123.561 34.4467 123.214 34.3781C122.867 34.3096 122.548 34.1396 122.297 33.8896C122.047 33.6397 121.876 33.3211 121.807 32.9742C121.738 32.6272 121.773 32.2675 121.908 31.9406C122.043 31.6136 122.272 31.3342 122.567 31.1375C122.861 30.9409 123.206 30.8359 123.56 30.8359C124.034 30.8359 124.488 31.0238 124.823 31.3584C125.159 31.6929 125.347 32.1468 125.348 32.6203Z" fill="#EC912A"/>
<path d="M102.414 40.8762C102.414 41.23 102.31 41.5761 102.114 41.8706C101.918 42.1651 101.639 42.3949 101.312 42.5308C100.986 42.6667 100.626 42.7026 100.279 42.634C99.932 42.5654 99.6131 42.3954 99.3626 42.1455C99.1122 41.8956 98.9416 41.577 98.8723 41.23C98.803 40.8831 98.8382 40.5234 98.9734 40.1964C99.1086 39.8695 99.3378 39.59 99.6319 39.3934C99.9261 39.1968 100.272 39.0918 100.626 39.0918C101.099 39.0918 101.554 39.2797 101.889 39.6142C102.224 39.9488 102.413 40.4026 102.414 40.8762Z" fill="#EC912A"/>
<path d="M119.546 36.3252C119.546 36.6788 119.441 37.0245 119.245 37.3186C119.049 37.6126 118.769 37.8418 118.443 37.9771C118.116 38.1125 117.756 38.1479 117.409 38.0789C117.063 38.0099 116.744 37.8396 116.494 37.5895C116.244 37.3395 116.074 37.0209 116.005 36.674C115.936 36.3272 115.971 35.9676 116.106 35.6409C116.242 35.3142 116.471 35.0349 116.765 34.8385C117.059 34.642 117.405 34.5371 117.758 34.5371C118.232 34.5371 118.687 34.7255 119.023 35.0608C119.358 35.3961 119.546 35.8509 119.546 36.3252Z" fill="#EC912A"/>
<path d="M132.07 29.1555C132.071 29.5093 131.967 29.8554 131.771 30.1499C131.575 30.4444 131.296 30.6742 130.969 30.8101C130.642 30.946 130.283 30.9819 129.936 30.9133C129.589 30.8447 129.27 30.6747 129.019 30.4248C128.769 30.1749 128.598 29.8563 128.529 29.5093C128.459 29.1624 128.495 28.8027 128.63 28.4757C128.765 28.1488 128.994 27.8693 129.288 27.6727C129.583 27.4761 129.928 27.3711 130.282 27.3711C130.756 27.3711 131.21 27.559 131.545 27.8935C131.88 28.2281 132.069 28.6819 132.07 29.1555Z" fill="#EC912A"/>
<path d="M84.2048 15.8545C84.2048 16.2083 84.0998 16.5541 83.9032 16.8482C83.7065 17.1424 83.4271 17.3715 83.1001 17.5068C82.7732 17.642 82.4135 17.6772 82.0665 17.6079C81.7196 17.5386 81.401 17.368 81.1511 17.1175C80.9012 16.8671 80.7312 16.5482 80.6626 16.2011C80.594 15.854 80.6299 15.4943 80.7658 15.1677C80.9017 14.841 81.1315 14.562 81.426 14.366C81.7205 14.1699 82.0666 14.0657 82.4204 14.0664C82.655 14.0664 82.8873 14.1127 83.1041 14.2026C83.3208 14.2925 83.5177 14.4243 83.6834 14.5903C83.8492 14.7564 83.9805 14.9536 84.07 15.1705C84.1595 15.3874 84.2053 15.6198 84.2048 15.8545Z" fill="#EC912A"/>
<path d="M81.0373 29.2285C82.0248 29.2285 82.8254 28.4279 82.8254 27.4404C82.8254 26.4529 82.0248 25.6523 81.0373 25.6523C80.0498 25.6523 79.2493 26.4529 79.2493 27.4404C79.2493 28.4279 80.0498 29.2285 81.0373 29.2285Z" fill="#EC912A"/>
<path d="M91.9045 11.2412C91.9045 11.595 91.7995 11.9408 91.6029 12.235C91.4063 12.5291 91.1268 12.7583 90.7998 12.8935C90.4729 13.0287 90.1132 13.0639 89.7663 12.9946C89.4193 12.9253 89.1007 12.7547 88.8508 12.5042C88.6009 12.2538 88.4309 11.9349 88.3623 11.5878C88.2937 11.2407 88.3296 10.8811 88.4655 10.5544C88.6014 10.2277 88.8312 9.94873 89.1257 9.75269C89.4202 9.55666 89.7663 9.45241 90.1201 9.45313C90.3547 9.45313 90.5871 9.4994 90.8038 9.58931C91.0205 9.67921 91.2174 9.81097 91.3831 9.97706C91.5489 10.1431 91.6802 10.3403 91.7697 10.5572C91.8592 10.7741 91.905 11.0066 91.9045 11.2412Z" fill="#EC912A"/>
<path d="M89.7734 24.5232H59.4238V23.4139H89.3173L92.4519 20.2793H98.3561V21.3886H92.908L89.7734 24.5232Z" fill="#EC912A"/>
<path d="M114.496 24.4902V25.5996H92.9775L83.2271 35.3427H58.8511V34.2333H82.7709L92.514 24.4902H114.496Z" fill="#EC912A"/>
<path d="M25.6952 21.8242H0.651367V24.5246H25.6952V21.8242Z" fill="#EC912A"/>
<path d="M25.6948 40.3145H14.4009V43.0148H25.6948V40.3145Z" fill="#EC912A"/>
<path d="M25.699 15.2949H18.4482V17.9953H25.699V15.2949Z" fill="#EC912A"/>
<path d="M16.1491 15.2949H13.4487V17.9953H16.1491V15.2949Z" fill="#EC912A"/>
<path d="M12.0402 40.3145H9.33984V43.0148H12.0402V40.3145Z" fill="#EC912A"/>
<path d="M36.0513 33.3105H21.7358V36.4926H36.0513V33.3105Z" fill="#EC912A"/>
<path d="M25.6954 26.8164H15.7334V29.9948H25.6954V26.8164Z" fill="#EC912A"/>
<path d="M13.3683 26.8164H10.1899V29.9948H13.3683V26.8164Z" fill="#EC912A"/>
<path d="M80.2129 26.8164H59.5371V27.9257H80.2129V26.8164Z" fill="#EC912A"/>
<path d="M62.7117 30.9424C62.7117 30.5887 62.8165 30.243 63.013 29.949C63.2095 29.6549 63.4887 29.4257 63.8155 29.2904C64.1422 29.1551 64.5017 29.1197 64.8486 29.1887C65.1954 29.2576 65.514 29.4279 65.7641 29.678C66.0141 29.9281 66.1844 30.2467 66.2534 30.5935C66.3224 30.9404 66.287 31.2999 66.1517 31.6266C66.0164 31.9533 65.7872 32.2326 65.4931 32.4291C65.1991 32.6256 64.8534 32.7304 64.4997 32.7304C64.2649 32.7304 64.0324 32.6842 63.8155 32.5943C63.5985 32.5045 63.4014 32.3727 63.2354 32.2067C63.0693 32.0407 62.9376 31.8436 62.8478 31.6266C62.7579 31.4097 62.7117 31.1772 62.7117 30.9424Z" fill="#EC912A"/>
<path d="M86.6717 30.4609H65.9958V31.5703H86.6717V30.4609Z" fill="#EC912A"/>
<path d="M88.1423 43.0064L84.4458 39.3099L85.2304 38.529L88.1423 41.4373L97.5096 32.0664H123.561V33.1757H97.9694L88.1423 43.0064Z" fill="#EC912A"/>
<path d="M87.6422 48.9282L86.8577 48.1436L99.6478 35.3535H108.015L112.131 39.4733L111.347 40.2543L107.555 36.4628H100.108L87.6422 48.9282Z" fill="#EC912A"/>
</svg>
