<svg width="269" height="268" viewBox="0 0 269 268" fill="none" xmlns="http://www.w3.org/2000/svg">
<g clip-path="url(#clip0_554_5298)">
<path fill-rule="evenodd" clip-rule="evenodd" d="M92.9008 48.0348C111.299 53.5475 127.844 69.0587 140.464 88.7898C159.316 118.273 169.419 157.15 164.088 185.737C163.971 186.325 163.401 186.737 162.819 186.656C162.223 186.574 161.84 186.035 161.951 185.439C167.196 157.295 157.18 119.034 138.607 90.0042C126.277 70.7179 110.171 55.4868 92.183 50.1062C91.6112 49.9374 91.3163 49.3379 91.5132 48.7624C91.7086 48.2015 92.329 47.8661 92.9008 48.0348Z" fill="#EC912A"/>
<path fill-rule="evenodd" clip-rule="evenodd" d="M167.622 219.62C169.863 202.943 170.137 188.155 178.928 172.242C179.231 171.71 179.891 171.487 180.414 171.763C180.938 172.024 181.124 172.676 180.829 173.201C171.158 190.712 172.019 206.851 168.907 225.715C168.735 226.733 167.963 226.838 167.777 226.848C167.502 226.867 167.065 226.81 166.782 226.307C166.727 226.208 166.647 225.997 166.578 225.684C166.461 225.081 166.327 223.83 166.211 223.279C165.864 221.691 165.478 220.122 165.13 218.534C164.137 213.994 163.097 209.481 161.721 205.063C156.602 188.528 152.523 174.97 136.592 166.765C136.061 166.496 135.882 165.852 136.178 165.312C136.473 164.787 137.139 164.572 137.655 164.841C154.139 173.323 158.509 187.245 163.809 204.343C165.193 208.82 166.256 213.394 167.259 217.979C167.375 218.53 167.499 219.075 167.622 219.62Z" fill="#EC912A"/>
</g>
<defs>
<clipPath id="clip0_554_5298">
<rect width="195" height="186" fill="white" transform="matrix(-0.766044 0.642788 0.642788 0.766044 149.379 0)"/>
</clipPath>
</defs>
</svg>
