<svg width="73" height="186" viewBox="0 0 73 186" fill="none" xmlns="http://www.w3.org/2000/svg">
<path fill-rule="evenodd" clip-rule="evenodd" d="M60.8169 0.493885C71.8 16.5429 74.6149 39.0602 71.4758 62.2872C66.7809 96.9908 48.8224 133.266 25.4421 151.738C24.9553 152.113 24.225 152.062 23.8156 151.626C23.3951 151.18 23.4504 150.521 23.9373 150.136C46.9525 131.948 64.5679 96.2 69.182 62.0236C72.2547 39.3238 69.6025 17.3033 58.8584 1.61923C58.5154 1.12245 58.6813 0.473652 59.2235 0.159363C59.7546 -0.144788 60.4738 -0.00289529 60.8169 0.493885Z" fill="#EC912A"/>
<path fill-rule="evenodd" clip-rule="evenodd" d="M5.58819 179.966C18.5342 168.631 28.6477 157.479 46.3074 150.939C46.9049 150.727 47.5799 150.98 47.8122 151.527C48.0556 152.065 47.7679 152.683 47.1815 152.896C27.7514 160.094 17.6379 173.011 2.53424 185.461C1.71544 186.13 1.0294 185.714 0.874496 185.602C0.642128 185.44 0.332294 185.116 0.442944 184.548C0.465073 184.437 0.542641 184.224 0.697552 183.94C1.00737 183.402 1.73759 182.358 2.01422 181.861C2.79984 180.422 3.54115 178.972 4.32677 177.532C6.57296 173.416 8.7639 169.29 10.6228 165.022C17.6048 149.064 23.4249 136.056 16.2105 119.531C15.9671 118.983 16.2549 118.375 16.8524 118.152C17.4388 117.939 18.1138 118.203 18.3462 118.74C25.815 135.833 19.9837 149.307 12.7694 165.812C10.8772 170.131 8.66423 174.318 6.39591 178.475C6.11929 178.972 5.85375 179.469 5.58819 179.966Z" fill="#EC912A"/>
</svg>
