<svg width="1440" height="404" viewBox="0 0 1440 404" fill="none" xmlns="http://www.w3.org/2000/svg">
<path d="M-32 0H1535C1557.63 0 1568.94 0 1575.97 7.02944C1583 14.0589 1583 25.3726 1583 48V356C1583 378.627 1583 389.941 1575.97 396.971C1568.94 404 1557.63 404 1535 404H16C-6.62741 404 -17.9411 404 -24.9706 396.971C-32 389.941 -32 378.627 -32 356V0Z" fill="white"/>
<path d="M-32 0H1535C1557.63 0 1568.94 0 1575.97 7.02944C1583 14.0589 1583 25.3726 1583 48V356C1583 378.627 1583 389.941 1575.97 396.971C1568.94 404 1557.63 404 1535 404H16C-6.62741 404 -17.9411 404 -24.9706 396.971C-32 389.941 -32 378.627 -32 356V0Z" fill="url(#paint0_linear_547_1787)" fill-opacity="0.2"/>
<defs>
<linearGradient id="paint0_linear_547_1787" x1="641" y1="966.009" x2="1032.76" y2="-119.961" gradientUnits="userSpaceOnUse">
<stop stop-color="#EC912A"/>
<stop offset="1" stop-color="#EC912A" stop-opacity="0"/>
</linearGradient>
</defs>
</svg>
