<svg width="307" height="265" viewBox="0 0 307 265" fill="none" xmlns="http://www.w3.org/2000/svg">
<path d="M232.866 117.791C232.866 117.791 232.866 117.334 232.819 116.445C232.819 116.001 232.789 115.45 232.771 114.792C232.754 114.134 232.736 113.37 232.653 112.505C232.57 111.639 232.511 110.673 232.422 109.607C232.333 108.54 232.143 107.384 231.989 106.128C231.572 103.239 231.011 100.373 230.306 97.541C229.418 94.0027 228.294 90.5281 226.94 87.1406C225.34 83.0999 223.412 79.1973 221.174 75.472C215.718 66.3655 208.581 58.3794 200.142 51.9392C189.897 44.136 177.967 38.839 165.308 36.472C154.577 34.4918 143.563 34.6166 132.88 36.8394C131.031 37.2661 129.17 37.6631 127.333 38.232C125.496 38.8009 123.659 39.3758 121.816 40.0099C114.325 42.7381 107.266 46.5302 100.855 51.2696C97.5625 53.7345 94.4421 56.4213 91.5155 59.3114C88.5705 62.2956 85.8397 65.4839 83.3433 68.8525C80.8136 72.2885 78.5586 75.9187 76.5994 79.7092C76.1194 80.6751 75.5801 81.6115 75.1534 82.6011L73.82 85.5642L72.6348 88.5925L72.2674 89.3451L72.0066 90.1155L71.4851 91.6682L70.9577 93.2208L70.5073 94.8031C70.2288 95.8579 69.8732 96.901 69.6539 97.9795C69.4347 99.0581 69.1621 100.125 68.9132 101.203C68.6643 102.282 68.528 103.378 68.3205 104.469C66.8785 113.287 66.8785 122.282 68.3205 131.101C69.0209 135.448 70.0753 139.731 71.4733 143.907L71.9948 145.454L72.2674 146.236L72.5696 146.995L73.7548 150.029L75.0882 152.992C75.3016 153.49 75.5445 153.97 75.7934 154.45L76.5342 155.884C78.4919 159.677 80.7469 163.309 83.2782 166.747C85.7745 170.117 88.5053 173.307 91.4503 176.294C94.3797 179.181 97.5 181.867 100.79 184.335C104.035 186.721 107.443 188.877 110.989 190.789C114.466 192.635 118.063 194.244 121.757 195.607C123.6 196.2 125.413 196.887 127.274 197.385C129.135 197.883 130.978 198.345 132.821 198.772C143.505 201.002 154.522 201.128 165.255 199.145C177.919 196.775 189.854 191.476 200.106 183.672C208.545 177.231 215.683 169.245 221.138 160.139C223.373 156.411 225.3 152.506 226.898 148.464C227.254 147.534 227.657 146.633 227.953 145.727C228.25 144.82 228.546 143.949 228.854 143.066C229.162 142.183 229.37 141.335 229.619 140.506C229.867 139.676 230.116 138.864 230.294 138.058C230.999 135.228 231.561 132.364 231.977 129.477C232.131 128.221 232.303 127.065 232.41 125.998C232.516 124.932 232.57 123.966 232.641 123.1C232.712 122.235 232.742 121.477 232.759 120.819C232.777 120.161 232.795 119.634 232.807 119.16C232.807 118.271 232.854 117.82 232.854 117.82C232.854 117.82 232.854 118.271 232.854 119.16C232.854 119.61 232.854 120.161 232.854 120.819C232.854 121.477 232.854 122.241 232.748 123.106C232.641 123.972 232.617 124.938 232.534 126.004C232.451 127.071 232.268 128.233 232.113 129.489C231.709 132.381 231.157 135.251 230.46 138.088C230.282 138.894 230.016 139.7 229.79 140.541C229.565 141.383 229.34 142.248 229.032 143.107L228.131 145.774C227.841 146.687 227.438 147.581 227.082 148.524C225.489 152.574 223.567 156.486 221.334 160.222C215.875 169.353 208.727 177.362 200.272 183.82C189.992 191.663 178.017 196.988 165.308 199.37C154.541 201.364 143.489 201.246 132.767 199.02C130.918 198.594 129.046 198.197 127.203 197.628C125.36 197.059 123.517 196.478 121.662 195.85C117.957 194.485 114.348 192.874 110.858 191.026C107.301 189.107 103.881 186.942 100.624 184.549C93.9063 179.589 87.9782 173.641 83.0411 166.907C80.5013 163.455 78.2365 159.809 76.2675 156.002L75.5268 154.562C75.2779 154.082 75.0349 153.596 74.8215 153.099L73.4763 150.136C73.0812 149.124 72.6861 148.111 72.2911 147.095L71.9948 146.331L71.7281 145.555L71.2066 143.996C69.8019 139.805 68.7435 135.506 68.042 131.142C66.596 122.29 66.596 113.262 68.042 104.409L68.6346 101.132C68.8835 100.054 69.1305 98.9771 69.3754 97.9025C69.6006 96.818 69.968 95.7691 70.2406 94.7083L70.691 93.126L71.2125 91.5615L71.7399 90.0088L72.0066 89.2325L72.3029 88.468C72.698 87.4527 73.0931 86.4393 73.4882 85.4279L74.8334 82.4648C75.2601 81.4692 75.7994 80.5329 76.2794 79.561C78.2498 75.7573 80.5145 72.1135 83.053 68.6628C85.5678 65.2936 88.3164 62.1054 91.2785 59.1217C94.2149 56.2238 97.3453 53.529 100.648 51.0562C103.905 48.6627 107.325 46.4984 110.882 44.5789C114.371 42.7311 117.981 41.1195 121.686 39.7551C123.54 39.1624 125.36 38.475 127.227 37.9772C129.093 37.4794 130.942 37.0172 132.791 36.5846C143.511 34.359 154.561 34.2402 165.326 36.2349C178.034 38.6179 190.007 43.9412 200.29 51.7792C208.743 58.2449 215.887 66.2617 221.34 75.4009C223.575 79.1383 225.499 83.0529 227.094 87.105C228.452 90.5022 229.581 93.9867 230.472 97.535C231.168 100.373 231.72 103.245 232.125 106.14C232.279 107.396 232.445 108.558 232.546 109.624C232.647 110.691 232.7 111.657 232.759 112.522C232.819 113.388 232.854 114.152 232.866 114.81C232.878 115.468 232.866 116.025 232.866 116.469C232.866 117.34 232.866 117.791 232.866 117.791Z" fill="#2A3337"/>
<path d="M40.0171 87.2124C40.0171 87.2124 40.0171 87.1709 40.0171 87.0761C40.0171 86.9813 40.0171 86.8509 40.0645 86.6731C40.1001 86.3175 40.183 85.7901 40.2897 85.1027C40.5268 83.7219 40.9594 81.707 41.6705 79.1469C43.7862 71.9298 46.7921 65.0042 50.619 58.5298C50.9212 58.0202 51.2116 57.4987 51.5316 56.9712C51.8516 56.4438 52.1539 55.9105 52.5035 55.3949L54.5836 52.1829C55.3184 51.1043 56.1066 50.0317 56.8889 48.9294C57.6711 47.8272 58.5245 46.7308 59.3956 45.6345C61.0846 43.3885 63.0343 41.2255 64.9958 38.9617L68.1189 35.6312L68.919 34.7896L69.7664 33.9837L71.4731 32.354C76.3048 27.8111 81.4821 23.6502 86.9582 19.9091C89.8146 17.9712 92.7836 16.0808 95.9067 14.3385C99.0538 12.5339 102.305 10.9172 105.643 9.49683L105.809 9.43164L105.851 9.6035C106.171 10.8302 106.52 12.1577 106.864 13.4851C107.326 15.263 107.789 17.0408 108.227 18.7061L108.263 18.8364L108.138 18.8839C98.5618 22.8615 89.6799 28.3386 81.8261 35.1097C74.9939 41.0859 68.9376 47.8947 63.7988 55.3771C59.6421 61.4328 56.0552 67.8605 53.0843 74.5778C51.8102 77.4698 50.7612 80.1662 49.9256 82.6196C49.5108 83.8463 49.1315 84.9901 48.8293 86.1101C48.6693 86.6553 48.5389 87.1887 48.4086 87.7043C48.2781 88.1887 48.1967 88.685 48.1656 89.1858V89.2747H48.0945L42.0616 87.7695L40.509 87.3783L39.9934 87.242C39.9934 87.242 40.183 87.2776 40.5327 87.3605L42.1031 87.728L48.1241 89.1621L48.053 89.2391C48.0709 88.7165 48.1485 88.1975 48.2841 87.6924C48.4085 87.1768 48.5389 86.6376 48.6989 86.0864C48.9952 84.9842 49.3686 83.8167 49.7775 82.59C50.6012 80.1306 51.6383 77.4224 52.9065 74.5186C55.8541 67.7782 59.4253 61.3282 63.5736 55.2527C68.7112 47.7409 74.7739 40.9057 81.6187 34.9082C89.4996 28.0927 98.4207 22.5828 108.043 18.5875L107.955 18.7713C107.516 17.0942 107.054 15.3282 106.592 13.5503C106.242 12.2229 105.898 10.8954 105.578 9.66869L105.78 9.76943C102.454 11.1843 99.2152 12.793 96.0785 14.5874C92.9673 16.3297 90.0042 18.2142 87.1478 20.1461C81.6834 23.893 76.5144 28.0535 71.6865 32.591L69.9857 34.2148L69.1382 35.0148L68.3382 35.8504L65.1914 39.1394C63.2299 41.3973 61.2861 43.5485 59.5912 45.7886C58.7201 46.8849 57.8548 47.9576 57.0904 49.0717C56.3259 50.1858 55.514 51.2406 54.7792 52.3133C54.0443 53.3859 53.3747 54.4704 52.6932 55.5134C52.3435 56.029 52.0294 56.5564 51.7213 57.0838C51.4131 57.6113 51.1286 58.1268 50.8027 58.6365C46.9696 65.0993 43.9425 72.0073 41.789 79.2062C41.0601 81.7544 40.6038 83.7693 40.3549 85.1323C40.2364 85.8197 40.1475 86.3472 40.1001 86.7027L40.0408 87.0998C40.0345 87.1376 40.0266 87.1752 40.0171 87.2124Z" fill="white"/>
<path d="M248.724 116.529C248.724 116.529 248.724 115.99 248.671 114.929C248.671 114.401 248.635 113.744 248.612 112.961C248.588 112.179 248.57 111.267 248.476 110.235C248.381 109.204 248.304 108.055 248.203 106.786C248.102 105.518 247.871 104.137 247.687 102.638C247.267 99.675 246.615 96.226 245.684 92.4155C245.465 91.4613 245.151 90.5013 244.878 89.4998C244.742 89.002 244.594 88.4983 244.452 87.9886C244.375 87.7338 244.303 87.479 244.232 87.2182C244.161 86.9575 244.061 86.7086 243.972 86.4478L242.893 83.2833C242.543 82.1988 242.063 81.1321 241.643 80.0179C239.735 75.2048 237.438 70.5551 234.774 66.1152C228.278 55.2623 219.774 45.7453 209.718 38.0726C197.507 28.7763 183.291 22.4647 168.206 19.6423C155.419 17.2838 142.297 17.4327 129.567 20.0808C127.369 20.5905 125.146 21.0646 122.96 21.7342C120.773 22.4039 118.58 23.1032 116.382 23.838C107.456 27.0916 99.0449 31.6143 91.4087 37.2667C87.4875 40.2022 83.771 43.4019 80.2854 46.8433C76.7766 50.3985 73.5229 54.1967 70.5487 58.2097C69.8139 59.2349 69.0849 60.2661 68.3501 61.2972C67.6152 62.3284 66.9811 63.4306 66.2937 64.4974C65.6063 65.5641 64.99 66.6841 64.344 67.7804L63.3899 69.4398L62.5069 71.1465L61.6298 72.8591C61.3335 73.4518 61.0372 74.0029 60.7883 74.5955L59.2297 78.1157C58.7556 79.3009 58.2756 80.5217 57.8015 81.7306L57.446 82.6314L57.1319 83.5559L56.5393 85.4048L55.9111 87.2538L55.3777 89.1383L54.8444 91.0228L54.5777 91.9651L54.3584 92.9251C54.0621 94.1992 53.7658 95.4793 53.4754 96.7653L52.711 100.653C51.8871 105.902 51.4553 111.204 51.4191 116.517C51.4553 121.832 51.8871 127.137 52.711 132.387C52.948 133.683 53.1811 134.981 53.4103 136.281C53.7006 137.561 54.0029 138.841 54.2873 140.115C54.5718 141.389 54.9688 142.646 55.3066 143.908L55.84 145.792L56.4682 147.641L57.0904 149.49L57.4045 150.415L57.7601 151.315L59.1823 154.93C59.7157 156.116 60.249 157.301 60.7765 158.456L61.1794 159.334L61.618 160.187L62.495 161.9L63.378 163.606L64.3322 165.272C64.9781 166.368 65.5707 167.5 66.2819 168.555C66.993 169.61 67.6508 170.694 68.3382 171.755L70.5309 174.842C73.5074 178.857 76.763 182.657 80.2735 186.215C83.7614 189.658 87.4798 192.859 91.4028 195.797C99.037 201.453 107.448 205.976 116.376 209.226C118.574 209.961 120.737 210.749 122.954 211.33C125.14 211.999 127.363 212.473 129.561 212.983C133.919 213.899 138.335 214.515 142.777 214.826C151.278 215.462 159.826 214.99 168.206 213.422C183.306 210.609 197.536 204.295 209.754 194.985C219.808 187.311 228.311 177.794 234.81 166.943C237.473 162.503 239.768 157.854 241.672 153.04C242.099 151.926 242.573 150.859 242.929 149.775L244.001 146.61C244.185 146.095 244.345 145.585 244.481 145.069C244.618 144.554 244.772 144.056 244.914 143.558C245.181 142.563 245.506 141.603 245.714 140.642C246.644 136.838 247.296 133.413 247.717 130.42C247.901 128.921 248.102 127.546 248.233 126.272C248.363 124.997 248.422 123.848 248.505 122.817C248.588 121.785 248.624 120.879 248.641 120.097C248.659 119.314 248.683 118.656 248.701 118.129C248.73 117.068 248.754 116.523 248.754 116.523C248.754 116.523 248.754 117.068 248.754 118.129C248.754 118.656 248.754 119.314 248.713 120.097C248.671 120.879 248.713 121.791 248.588 122.823C248.464 123.854 248.428 125.009 248.333 126.277C248.238 127.546 248.013 128.926 247.83 130.426C247.345 133.87 246.687 137.288 245.856 140.666C245.643 141.626 245.329 142.586 245.056 143.588C244.914 144.086 244.772 144.589 244.629 145.105C244.487 145.62 244.333 146.13 244.155 146.646L243.083 149.816C242.733 150.907 242.253 151.973 241.832 153.093C239.932 157.917 237.641 162.576 234.982 167.026C228.486 177.907 219.979 187.452 209.914 195.151C197.671 204.493 183.408 210.836 168.271 213.67C155.449 216.049 142.287 215.908 129.52 213.256C127.315 212.746 125.087 212.272 122.894 211.596C120.672 211.004 118.503 210.227 116.299 209.493C107.337 206.232 98.8939 201.693 91.231 196.016C83.2315 190.111 76.1724 183.028 70.2939 175.008L68.119 171.927L66.0507 168.715C65.3396 167.66 64.747 166.522 64.0951 165.42L63.1351 163.754L62.2521 162.042L61.375 160.323L60.9305 159.464L60.5335 158.587L58.9334 155.031C58.4593 153.846 57.9793 152.619 57.5052 151.41L57.1437 150.498L56.8296 149.573L56.237 147.724L55.6089 145.863L55.0696 143.973C54.7318 142.711 54.311 141.46 54.0503 140.174C53.7895 138.888 53.4577 137.608 53.1673 136.322C52.8769 135.036 52.6991 133.721 52.468 132.417C50.7415 121.877 50.7415 111.127 52.468 100.588L53.1614 96.6823L54.0503 92.8362L54.2696 91.8702L54.5362 90.928L55.0696 89.0316L55.6089 87.1471L56.237 85.2863L56.8296 83.4373L57.1437 82.5129L57.5052 81.6002C57.9793 80.415 58.4593 79.1883 58.9334 77.9794L60.5335 74.4237C60.7883 73.831 61.0787 73.2384 61.375 72.6814L62.258 70.9687L63.141 69.2561L64.0951 67.5908C64.747 66.4885 65.3396 65.3507 66.0507 64.2959L68.119 61.0839L70.3176 57.9904C76.1902 49.9874 83.2413 42.9203 91.231 37.0296C98.8919 31.3599 107.331 26.8251 116.287 23.5654C118.491 22.8306 120.66 22.0365 122.883 21.4616C125.075 20.786 127.303 20.312 129.508 19.8023C133.889 18.8931 138.326 18.2794 142.788 17.9652C151.31 17.3393 159.876 17.8274 168.271 19.4171C183.394 22.2503 197.642 28.589 209.873 37.9245C219.937 45.624 228.445 55.1691 234.94 66.05C237.587 70.4946 239.867 75.1483 241.755 79.9646C242.176 81.0787 242.65 82.1514 243.006 83.2358C243.361 84.3203 243.729 85.3752 244.072 86.4123C244.161 86.6671 244.244 86.9219 244.333 87.1827L244.552 87.9531C244.695 88.4627 244.837 88.9664 244.979 89.4642C245.252 90.4657 245.572 91.4258 245.773 92.3858C246.608 95.7631 247.269 99.1811 247.753 102.626C247.936 104.126 248.132 105.506 248.256 106.775C248.381 108.043 248.434 109.198 248.511 110.229C248.588 111.261 248.624 112.167 248.635 112.95C248.647 113.732 248.665 114.396 248.677 114.923C248.724 116.013 248.724 116.529 248.724 116.529Z" fill="white"/>
<path d="M159.773 4.54271C159.737 4.54271 159.773 4.19306 159.589 3.59452C159.356 2.75447 158.849 2.01621 158.149 1.49666C157.637 1.11644 157.039 0.869677 156.408 0.778631C155.776 0.687585 155.133 0.755127 154.534 0.975162C153.823 1.23086 153.204 1.69307 152.756 2.30262C152.284 2.95453 152.027 3.73769 152.021 4.54271C152.026 5.25156 152.228 5.94508 152.605 6.54577C152.981 7.14645 153.517 7.63064 154.153 7.94421C154.789 8.25778 155.499 8.38838 156.205 8.32142C156.91 8.25446 157.584 7.99258 158.149 7.56504C158.849 7.04549 159.356 6.30724 159.589 5.46718C159.749 4.87457 159.737 4.519 159.773 4.519C159.78 4.60378 159.78 4.68905 159.773 4.77383C159.77 5.01703 159.742 5.25929 159.69 5.49681C159.487 6.3863 158.983 7.17801 158.262 7.7369C157.724 8.15236 157.09 8.42464 156.418 8.52828C155.746 8.63192 155.059 8.56353 154.421 8.32952C153.67 8.07612 153.012 7.60345 152.531 6.97243C152.012 6.27336 151.731 5.42554 151.731 4.55456C151.731 3.68357 152.012 2.83576 152.531 2.13669C152.852 1.70114 153.256 1.33416 153.721 1.05737C154.186 0.780582 154.701 0.599579 155.237 0.525025C155.772 0.45047 156.317 0.483873 156.84 0.623263C157.363 0.762654 157.852 1.00522 158.279 1.33666C159 1.89555 159.505 2.68725 159.708 3.57674C159.76 3.81432 159.787 4.05655 159.791 4.29973C159.792 4.38108 159.786 4.46236 159.773 4.54271Z" fill="white"/>
<path d="M51.6324 108.553H51.3183H50.4057L46.9745 108.594L34.9266 108.654H34.8555L34.814 108.594L28.1708 99.4148C25.1188 95.1836 22.2446 91.219 19.8742 87.8707L19.9809 87.924L9.96565 87.8707L7.16258 87.8292H6.42181C6.33704 87.8367 6.25177 87.8367 6.16699 87.8292C6.25138 87.8155 6.33742 87.8155 6.42181 87.8292H7.16258L9.96565 87.7877L19.9809 87.7344H20.046L20.0875 87.7877L28.4138 99.2785L35.0333 108.47L34.9207 108.411L46.9685 108.464L50.3998 108.506H51.3124C51.4208 108.507 51.5284 108.523 51.6324 108.553Z" fill="white"/>
<path d="M6.39226 87.8349C6.39226 87.8349 6.39226 87.9001 6.39226 88.0304C6.39876 88.2297 6.37883 88.429 6.333 88.6231C6.18437 89.3291 5.78946 89.9593 5.21888 90.4009C4.79466 90.7325 4.29352 90.9514 3.76201 91.0374C3.23051 91.1234 2.68589 91.0736 2.17877 90.8928C1.57209 90.6832 1.04452 90.2922 0.667595 89.7727C0.256255 89.2182 0.0341797 88.5461 0.0341797 87.8556C0.0341797 87.1652 0.256255 86.493 0.667595 85.9385C1.04452 85.419 1.57209 85.028 2.17877 84.8185C2.68589 84.6376 3.23051 84.5878 3.76201 84.6738C4.29352 84.7598 4.79466 84.9788 5.21888 85.3103C5.78946 85.752 6.18437 86.3821 6.333 87.0882C6.37883 87.2822 6.39876 87.4815 6.39226 87.6808C6.39226 87.8112 6.39226 87.8823 6.39226 87.8823C6.39226 87.8823 6.39226 87.6038 6.23818 87.1415C6.05002 86.4871 5.65239 85.9126 5.10628 85.5059C4.66606 85.1757 4.14259 84.9747 3.59454 84.9253C3.04648 84.8758 2.49549 84.98 2.00331 85.2261C1.51112 85.4722 1.09719 85.8505 0.807895 86.3186C0.518597 86.7867 0.36536 87.3261 0.36536 87.8764C0.36536 88.4266 0.518597 88.966 0.807895 89.4341C1.09719 89.9022 1.51112 90.2805 2.00331 90.5266C2.49549 90.7727 3.04648 90.8769 3.59454 90.8275C4.14259 90.778 4.66606 90.577 5.10628 90.2468C5.65197 89.8423 6.04966 89.2697 6.23818 88.6171C6.36855 88.1075 6.36262 87.8289 6.39226 87.8349Z" fill="white"/>
<path d="M300.549 164.164C300.549 164.164 300.549 164.098 300.549 163.968C300.543 163.769 300.563 163.57 300.608 163.375C300.762 162.67 301.158 162.041 301.728 161.598C302.065 161.333 302.452 161.139 302.866 161.027C303.28 160.915 303.712 160.887 304.137 160.946C304.562 161.005 304.97 161.148 305.338 161.368C305.706 161.588 306.026 161.88 306.279 162.226C306.579 162.631 306.779 163.1 306.865 163.596C306.95 164.092 306.918 164.602 306.771 165.083C306.624 165.565 306.366 166.005 306.019 166.37C305.671 166.734 305.243 167.011 304.768 167.18C304.261 167.36 303.717 167.409 303.185 167.323C302.654 167.237 302.153 167.019 301.728 166.688C301.159 166.244 300.763 165.615 300.608 164.91C300.562 164.716 300.542 164.517 300.549 164.318C300.549 164.187 300.549 164.116 300.549 164.116C300.549 164.116 300.549 164.395 300.703 164.857C300.891 165.51 301.289 166.082 301.835 166.487C302.174 166.744 302.566 166.925 302.982 167.017C303.398 167.11 303.829 167.111 304.246 167.022C304.662 166.933 305.055 166.754 305.396 166.5C305.738 166.245 306.02 165.919 306.225 165.545C306.429 165.171 306.55 164.757 306.58 164.332C306.61 163.907 306.547 163.48 306.397 163.082C306.247 162.683 306.013 162.321 305.71 162.021C305.408 161.721 305.044 161.489 304.644 161.343C304.179 161.173 303.679 161.121 303.189 161.192C302.699 161.262 302.234 161.452 301.835 161.746C301.289 162.15 300.891 162.723 300.703 163.375C300.572 163.891 300.578 164.164 300.549 164.164Z" fill="white"/>
<path d="M240.955 157.432C241.022 157.46 241.085 157.496 241.145 157.538L241.672 157.882L243.687 159.215L250.976 164.128H250.911L269.756 164.093L291.606 164.14L298.231 164.187L300.009 164.217H300.477C300.528 164.208 300.58 164.208 300.631 164.217H300.477H300.009H298.231L291.606 164.27L269.756 164.312L250.911 164.282H250.869L243.64 159.281L241.66 157.894L241.151 157.521C241.008 157.497 240.949 157.438 240.955 157.432Z" fill="white"/>
<path d="M196.248 218.666C196.248 218.666 196.207 218.666 196.118 218.737L195.715 218.921L194.162 219.585C193.481 219.863 192.657 220.225 191.685 220.604L188.355 221.789C187.122 222.24 185.735 222.637 184.266 223.111C182.796 223.585 181.19 223.97 179.525 224.438C176.147 225.256 172.413 226.056 168.443 226.649C162.966 227.498 157.426 227.872 151.885 227.769H151.767V227.644C151.767 223.905 151.808 220.811 151.82 218.619C151.82 217.558 151.82 216.717 151.856 216.112C151.856 215.843 151.856 215.624 151.856 215.454C151.828 215.45 151.802 215.435 151.785 215.413C151.767 215.39 151.759 215.362 151.761 215.334C151.763 215.306 151.776 215.28 151.797 215.26C151.818 215.241 151.845 215.23 151.873 215.23C151.902 215.23 151.929 215.241 151.95 215.26C151.971 215.28 151.983 215.306 151.986 215.334C151.988 215.362 151.979 215.39 151.962 215.413C151.944 215.435 151.919 215.45 151.891 215.454C151.891 215.626 151.891 215.845 151.891 216.112C151.891 216.705 151.891 217.558 151.921 218.619C151.921 220.811 151.956 223.905 151.98 227.644L151.856 227.52C157.38 227.578 162.9 227.181 168.36 226.335C172.313 225.742 176.064 224.954 179.412 224.148C181.083 223.692 182.683 223.3 184.153 222.85C185.623 222.4 187.01 222.009 188.242 221.57L191.584 220.385C192.562 220.023 193.362 219.68 194.073 219.419L195.65 218.826L196.065 218.678L196.248 218.666Z" fill="white"/>
<path d="M251.237 215.252C251.189 215.28 251.137 215.3 251.083 215.311L250.632 215.453L248.896 215.963L242.49 217.776L221.322 223.655L219.763 224.082L219.662 224.112L219.603 224.029C214.584 217.539 210.08 211.726 206.82 207.506L203.01 202.534L201.991 201.177L201.73 200.816C201.699 200.778 201.673 200.736 201.653 200.691L201.754 200.798L202.038 201.142L203.105 202.463L206.992 207.388L219.828 223.869L219.662 223.815L221.221 223.389L242.413 217.593L248.849 215.874L250.627 215.424L251.089 215.311C251.135 215.285 251.185 215.265 251.237 215.252Z" fill="white"/>
<path d="M151.885 4.54226C151.731 4.57003 151.574 4.58391 151.417 4.58375L150.066 4.63708L147.927 4.7082L146.593 4.74968L145.1 4.8445L141.674 5.06969L137.757 5.46674C136.376 5.60304 134.942 5.84009 133.449 6.02973C131.956 6.21936 130.421 6.5453 128.844 6.80605C123.475 7.81825 118.195 9.26099 113.057 11.1203C111.084 11.8374 109.531 12.5189 108.458 12.993L107.238 13.5856C107.098 13.6599 106.954 13.7233 106.805 13.7752C106.938 13.6674 107.081 13.5722 107.232 13.4908C107.498 13.3367 107.907 13.1352 108.417 12.8685C109.478 12.3589 111.024 11.6477 112.992 10.8951C118.123 8.97147 123.411 7.49626 128.797 6.48604C130.379 6.21936 131.914 5.89343 133.413 5.71564C134.913 5.53786 136.376 5.29488 137.739 5.16451L141.668 4.79709L145.1 4.60745L146.599 4.53041H147.932H150.072H151.429C151.581 4.52092 151.734 4.52489 151.885 4.54226Z" fill="white"/>
<path d="M150.208 195.276C108.198 195.276 74.0156 160.312 74.0156 117.335C74.0156 74.3588 108.198 39.3945 150.208 39.3945C192.219 39.3945 226.401 74.3588 226.401 117.335C226.401 160.312 192.225 195.276 150.208 195.276ZM150.208 40.0109C108.524 39.9871 74.6379 74.6848 74.6379 117.335C74.6379 159.986 108.553 194.683 150.238 194.683C191.922 194.683 225.808 159.986 225.808 117.335C225.808 74.6848 191.899 39.9871 150.208 39.9871V40.0109Z" fill="white"/>
<path d="M146.013 195.086C145.663 194.742 111.125 160.121 111.125 115.563C111.125 92.2729 121.704 72.8173 130.575 60.6035C140.187 47.3704 149.93 39.536 150.025 39.459L150.398 39.9212C150.297 39.9983 140.608 47.7912 131.043 60.965C122.231 73.1077 111.718 92.4388 111.718 115.563C111.718 159.861 146.09 194.321 146.428 194.665L146.013 195.086Z" fill="white"/>
<path d="M149.141 88.1064C128.5 88.1064 109.436 81.8306 90.8931 68.9234L91.2309 68.4375C109.679 81.2735 128.625 87.5138 149.141 87.5138C174.179 87.5138 196.064 77.8542 210.015 69.7353L210.311 70.245C196.296 78.3994 174.31 88.1064 149.141 88.1064Z" fill="white"/>
<path d="M209.991 165.342C196.592 156.18 175.234 145.264 149.544 145.264C124.062 145.264 101.774 154.93 87.5746 163.043L87.2783 162.527C101.543 154.385 123.92 144.678 149.544 144.678C175.371 144.678 196.841 155.653 210.311 164.856L209.991 165.342Z" fill="white"/>
<path d="M154.238 195.086L153.823 194.665C154.167 194.321 188.532 159.861 188.532 115.563C188.532 92.4506 178.014 73.0958 169.195 60.9472C159.631 47.7852 149.953 39.9983 149.858 39.9212L150.226 39.459C150.321 39.536 160.063 47.3704 169.675 60.6035C178.565 72.8173 189.125 92.2729 189.125 115.563C189.125 160.115 154.587 194.742 154.238 195.086Z" fill="white"/>
<path d="M226.703 113.371H73.3755V113.964H226.703V113.371Z" fill="white"/>
<path d="M250.259 180.342L239.912 172.383L236.872 176.513L246.822 184.626L250.259 180.342Z" fill="white"/>
<path d="M244.902 187.17L234.97 178.695L231.722 182.672L241.252 191.277L244.902 187.17Z" fill="white"/>
<path d="M239.219 193.676L229.761 184.68L226.306 188.467L235.462 197.694L239.219 193.676Z" fill="white"/>
<path d="M233.382 199.726L224.487 190.422L220.854 194.049L229.465 203.572L233.382 199.726Z" fill="white"/>
<path d="M216.913 27.2524L216.8 27.1575L216.504 26.8672L215.372 25.7234C214.88 25.2315 214.305 24.5974 213.559 23.9456L212.373 22.8848C211.959 22.5055 211.526 22.1025 211.034 21.6995C210.05 20.9291 209.031 20.0224 207.822 19.1869L205.985 17.8594L203.97 16.5438C200.959 14.6258 197.825 12.9075 194.589 11.3999C191.049 9.7408 187.388 8.35402 183.637 7.25159L183.798 7.17455L179.323 17.6816C178.778 18.938 178.34 19.9395 178.031 20.6447L177.682 21.4269C177.646 21.5188 177.601 21.6063 177.545 21.6877C177.568 21.5921 177.6 21.4988 177.64 21.4092C177.717 21.2077 177.818 20.941 177.948 20.6091C178.245 19.8861 178.654 18.8787 179.169 17.6046C180.242 15.0089 181.753 11.3643 183.543 7.05602L183.59 6.9375L183.703 6.97306C187.48 8.05962 191.164 9.44682 194.719 11.1214C197.968 12.6334 201.11 14.3639 204.124 16.3008L206.139 17.6342L207.976 18.9854C209.161 19.8269 210.199 20.7632 211.176 21.5277C211.662 21.9188 212.095 22.3277 212.504 22.7129L213.689 23.7974C214.43 24.4552 214.993 25.1012 215.467 25.6108L216.557 26.796L216.83 27.1042C216.865 27.2049 216.919 27.2464 216.913 27.2524Z" fill="white"/>
<path d="M196.716 5.19531L190.429 16.6328L197.427 20.5559L204.284 9.45029L196.716 5.19531Z" fill="white"/>
<path d="M204.284 9.44922L197.428 20.5548L201.843 23.1564L208.901 12.4301L204.284 9.44922Z" fill="white"/>
<path d="M211.58 14.0723L204.13 24.7927L208.403 27.6313L216.125 17.1716L211.58 14.0723Z" fill="white"/>
<path d="M218.454 18.9199L210.614 29.1307L214.744 32.1649L222.851 22.2089L218.454 18.9199Z" fill="white"/>
<path d="M34.7845 126.917L47.8339 126.538L47.5791 121.418L34.583 121.424L34.7845 126.917Z" fill="white"/>
<path d="M34.6008 118.515L47.4724 118.752L47.4606 113.62L34.6305 113.021L34.6008 118.515Z" fill="white"/>
<path d="M251.243 218.347C252.952 218.347 254.337 216.962 254.337 215.254C254.337 213.545 252.952 212.16 251.243 212.16C249.535 212.16 248.15 213.545 248.15 215.254C248.15 216.962 249.535 218.347 251.243 218.347Z" fill="white"/>
<path d="M248.15 215.252C248.15 215.252 248.15 215.187 248.15 215.057C248.144 214.858 248.164 214.658 248.209 214.464C248.363 213.759 248.759 213.13 249.329 212.686C249.752 212.353 250.253 212.133 250.785 212.047C251.317 211.96 251.862 212.011 252.369 212.195C252.974 212.404 253.5 212.796 253.874 213.315C254.287 213.867 254.512 214.539 254.514 215.229C254.511 215.92 254.289 216.592 253.88 217.149C253.626 217.494 253.306 217.784 252.938 218.003C252.57 218.222 252.161 218.365 251.737 218.423C251.313 218.482 250.881 218.455 250.468 218.344C250.054 218.233 249.667 218.04 249.329 217.777C248.759 217.334 248.362 216.705 248.209 215.999C248.163 215.805 248.143 215.606 248.15 215.407C248.15 215.276 248.15 215.205 248.15 215.205C248.15 215.205 248.15 215.484 248.304 215.946C248.489 216.601 248.888 217.177 249.436 217.581C249.876 217.912 250.399 218.113 250.947 218.162C251.495 218.211 252.046 218.107 252.539 217.861C253.031 217.615 253.445 217.237 253.734 216.769C254.023 216.301 254.177 215.761 254.177 215.211C254.177 214.661 254.023 214.121 253.734 213.653C253.445 213.185 253.031 212.807 252.539 212.561C252.046 212.315 251.495 212.21 250.947 212.26C250.399 212.309 249.876 212.51 249.436 212.841C248.888 213.243 248.49 213.816 248.304 214.47C248.173 214.98 248.179 215.258 248.15 215.252Z" fill="white"/>
<path d="M91.5869 62.9101C94.0743 62.9101 96.0908 60.8936 96.0908 58.4062C96.0908 55.9188 94.0743 53.9023 91.5869 53.9023C89.0995 53.9023 87.083 55.9188 87.083 58.4062C87.083 60.8936 89.0995 62.9101 91.5869 62.9101Z" fill="white"/>
<path d="M48.8777 132.679C48.877 135.018 49.7612 137.271 51.3526 138.984C52.9441 140.698 55.1249 141.747 57.4574 141.919V141.947H109.945C112.75 141.954 115.45 140.878 117.481 138.943C119.513 137.009 120.72 134.365 120.851 131.563C120.982 128.761 120.026 126.016 118.184 123.901C116.342 121.785 113.754 120.462 110.96 120.207C110.808 115.964 109.189 111.904 106.378 108.72C103.567 105.537 99.7394 103.427 95.547 102.75C91.3546 102.073 87.0572 102.872 83.3876 105.009C79.7179 107.146 76.9032 110.49 75.4233 114.471C73.9129 113.706 72.2428 113.31 70.5497 113.314C67.7774 113.315 65.1095 114.372 63.0899 116.272C61.0702 118.171 59.8507 120.769 59.6798 123.536C59.1823 123.451 58.6784 123.41 58.1738 123.411C56.9545 123.408 55.7467 123.646 54.6193 124.11C53.492 124.575 52.4672 125.257 51.6038 126.118C50.7404 126.978 50.0551 128.001 49.5874 129.127C49.1196 130.253 48.8784 131.46 48.8777 132.679Z" fill="#EC912A"/>
<path opacity="0.1" d="M48.8777 132.679C48.877 135.018 49.7612 137.271 51.3526 138.984C52.9441 140.698 55.1249 141.747 57.4574 141.919V141.947H109.945C112.75 141.954 115.45 140.878 117.481 138.943C119.513 137.009 120.72 134.365 120.851 131.563C120.982 128.761 120.026 126.016 118.184 123.901C116.342 121.785 113.754 120.462 110.96 120.207C110.808 115.964 109.189 111.904 106.378 108.72C103.567 105.537 99.7394 103.427 95.547 102.75C91.3546 102.073 87.0572 102.872 83.3876 105.009C79.7179 107.146 76.9032 110.49 75.4233 114.471C73.9129 113.706 72.2428 113.31 70.5497 113.314C67.7774 113.315 65.1095 114.372 63.0899 116.272C61.0702 118.171 59.8507 120.769 59.6798 123.536C59.1823 123.451 58.6784 123.41 58.1738 123.411C56.9545 123.408 55.7467 123.646 54.6193 124.11C53.492 124.575 52.4672 125.257 51.6038 126.118C50.7404 126.978 50.0551 128.001 49.5874 129.127C49.1196 130.253 48.8784 131.46 48.8777 132.679Z" fill="#2A3337"/>
<path d="M43.8403 132.679C43.8397 135.017 44.7238 137.27 46.3153 138.984C47.9067 140.698 50.0876 141.746 52.42 141.918V141.946H104.908C107.758 142.024 110.525 140.98 112.615 139.04C114.705 137.099 115.95 134.417 116.084 131.569C116.217 128.72 115.229 125.933 113.33 123.806C111.431 121.678 108.774 120.38 105.929 120.19C105.789 115.934 104.174 111.86 101.36 108.664C98.5467 105.468 94.7095 103.35 90.5059 102.672C86.3023 101.994 81.9938 102.798 78.3181 104.948C74.6425 107.097 71.8284 110.457 70.3578 114.453C68.8491 113.689 67.181 113.293 65.4898 113.297C62.7165 113.296 60.0472 114.353 58.0264 116.252C56.0055 118.151 54.7852 120.75 54.6143 123.518C54.1167 123.433 53.6129 123.392 53.1082 123.394C51.8899 123.395 50.6837 123.635 49.5585 124.102C48.4333 124.57 47.4112 125.254 46.5505 126.116C45.6898 126.978 45.0075 128.002 44.5425 129.128C44.0774 130.254 43.8389 131.46 43.8403 132.679Z" fill="#EC912A"/>
<path d="M78.5655 141.946H77.8152L68.5474 129.294V122.164H69.1397V129.097L78.5655 141.946Z" fill="white"/>
<path d="M68.8402 120.19C68.541 120.151 68.2386 120.232 67.9995 120.416C67.7605 120.6 67.6043 120.872 67.5654 121.171C67.5265 121.47 67.6081 121.773 67.7921 122.012C67.9762 122.251 68.2477 122.407 68.5469 122.446C68.642 122.475 68.7408 122.49 68.8402 122.491C68.9416 122.491 69.0424 122.476 69.1392 122.446C69.4384 122.406 69.7096 122.249 69.8931 122.01C70.0767 121.77 70.1575 121.467 70.1179 121.168C70.0782 120.869 69.9213 120.598 69.6817 120.414C69.4421 120.231 69.1394 120.15 68.8402 120.19ZM68.8402 121.882C68.7207 121.849 68.6152 121.778 68.54 121.68C68.4648 121.582 68.4241 121.461 68.4241 121.337C68.4241 121.214 68.4648 121.093 68.54 120.995C68.6152 120.896 68.7207 120.826 68.8402 120.793C68.9239 120.77 69.0117 120.767 69.0967 120.784C69.1818 120.801 69.2619 120.837 69.3308 120.889C69.3996 120.942 69.4554 121.01 69.4938 121.088C69.5323 121.165 69.5522 121.251 69.5522 121.337C69.5522 121.424 69.5323 121.51 69.4938 121.587C69.4554 121.665 69.3996 121.733 69.3308 121.786C69.2619 121.838 69.1818 121.874 69.0967 121.891C69.0117 121.908 68.9239 121.905 68.8402 121.882Z" fill="white"/>
<path d="M74.3739 141.946H73.6406L65.5122 130.851V128.809H66.1045V130.653L74.3739 141.946Z" fill="white"/>
<path d="M65.8113 126.84C65.5121 126.84 65.2251 126.959 65.0135 127.17C64.802 127.382 64.6831 127.669 64.6831 127.968C64.6827 128.219 64.7656 128.462 64.9188 128.66C65.072 128.858 65.2867 129 65.5292 129.063C65.6261 129.092 65.7269 129.107 65.8282 129.108C65.9277 129.107 66.0265 129.092 66.1215 129.063C66.363 128.999 66.5765 128.857 66.7286 128.659C66.8807 128.461 66.9628 128.218 66.962 127.968C66.962 127.818 66.9321 127.67 66.874 127.531C66.8159 127.393 66.7308 127.267 66.6236 127.162C66.5165 127.057 66.3894 126.975 66.2499 126.919C66.1105 126.864 65.9613 126.837 65.8113 126.84ZM65.8113 128.532C65.6997 128.532 65.5906 128.499 65.4979 128.437C65.4051 128.375 65.3328 128.287 65.2901 128.184C65.2474 128.081 65.2363 127.968 65.258 127.858C65.2798 127.749 65.3335 127.648 65.4124 127.569C65.4913 127.49 65.5918 127.437 65.7012 127.415C65.8107 127.393 65.9241 127.404 66.0271 127.447C66.1302 127.49 66.2183 127.562 66.2803 127.655C66.3423 127.748 66.3754 127.857 66.3754 127.968C66.3739 128.117 66.3138 128.259 66.2082 128.363C66.1025 128.468 65.9599 128.527 65.8113 128.527V128.532Z" fill="white"/>
<path d="M81.5549 114.205H80.9626V141.947H81.5549V114.205Z" fill="white"/>
<path d="M81.256 112.225C80.9568 112.186 80.6544 112.267 80.4153 112.451C80.1762 112.636 80.0201 112.907 79.9812 113.206C79.9423 113.505 80.0238 113.808 80.2079 114.047C80.392 114.286 80.6635 114.442 80.9627 114.481C81.0577 114.51 81.1565 114.525 81.256 114.526C81.3574 114.526 81.4581 114.511 81.555 114.481C81.8542 114.441 82.1254 114.285 82.3089 114.045C82.4924 113.805 82.5733 113.503 82.5336 113.203C82.494 112.904 82.3371 112.633 82.0975 112.449C81.8579 112.266 81.5552 112.185 81.256 112.225ZM81.256 113.917C81.1388 113.883 81.0359 113.812 80.9627 113.714C80.8894 113.616 80.8499 113.497 80.8499 113.375C80.8499 113.253 80.8894 113.135 80.9627 113.037C81.0359 112.939 81.1388 112.868 81.256 112.834C81.3401 112.809 81.4287 112.805 81.5148 112.82C81.601 112.836 81.6823 112.872 81.7524 112.924C81.8224 112.977 81.8793 113.045 81.9185 113.123C81.9576 113.201 81.978 113.288 81.978 113.375C81.978 113.463 81.9576 113.549 81.9185 113.628C81.8793 113.706 81.8224 113.774 81.7524 113.827C81.6823 113.879 81.601 113.915 81.5148 113.93C81.4287 113.946 81.3401 113.941 81.256 113.917Z" fill="white"/>
<path d="M90.8398 122.684V129.633L85.3174 140.057V141.947H84.7195V139.911L90.2475 129.492V122.684H90.8398Z" fill="white"/>
<path d="M90.5407 120.703C90.3925 120.684 90.242 120.694 90.0978 120.733C89.9535 120.772 89.8184 120.839 89.7 120.93C89.4609 121.114 89.3047 121.386 89.2658 121.685C89.2269 121.984 89.3085 122.286 89.4926 122.525C89.6766 122.764 89.9481 122.921 90.2473 122.96C90.3422 122.99 90.4412 123.005 90.5407 123.005C90.642 123.004 90.7426 122.989 90.8396 122.96C91.1388 122.92 91.41 122.763 91.5936 122.523C91.7771 122.284 91.858 121.981 91.8183 121.682C91.7787 121.383 91.6218 121.111 91.3822 120.928C91.1426 120.744 90.8399 120.664 90.5407 120.703ZM90.5407 122.395C90.4187 122.365 90.3104 122.294 90.2331 122.195C90.1557 122.096 90.1137 121.974 90.1137 121.848C90.1137 121.723 90.1557 121.6 90.2331 121.501C90.3104 121.402 90.4187 121.332 90.5407 121.301C90.6626 121.332 90.7709 121.402 90.8482 121.501C90.9256 121.6 90.9676 121.723 90.9676 121.848C90.9676 121.974 90.9256 122.096 90.8482 122.195C90.7709 122.294 90.6626 122.365 90.5407 122.395Z" fill="white"/>
<path d="M94.8388 126.959V129.655L89.5703 138.974V141.947H88.978V138.816L94.2353 129.497V126.959H94.8388Z" fill="white"/>
<path d="M94.5343 124.979C94.2351 124.939 93.9324 125.02 93.6928 125.204C93.4532 125.387 93.2963 125.658 93.2567 125.958C93.217 126.257 93.2979 126.56 93.4814 126.799C93.665 127.039 93.9362 127.196 94.2354 127.235C94.3323 127.265 94.433 127.28 94.5343 127.28C94.6375 127.279 94.74 127.264 94.839 127.235C95.1382 127.195 95.4091 127.037 95.5921 126.797C95.7751 126.557 95.8552 126.254 95.8148 125.955C95.7744 125.656 95.6168 125.385 95.3767 125.202C95.1365 125.019 94.8336 124.939 94.5343 124.979ZM94.5343 126.671C94.4228 126.671 94.3137 126.638 94.221 126.576C94.1282 126.514 94.0559 126.426 94.0132 126.323C93.9705 126.22 93.9593 126.107 93.9811 125.997C94.0029 125.888 94.0566 125.787 94.1355 125.708C94.2144 125.629 94.3149 125.576 94.4243 125.554C94.5337 125.532 94.6471 125.543 94.7502 125.586C94.8533 125.629 94.9414 125.701 95.0034 125.794C95.0653 125.887 95.0984 125.996 95.0984 126.107C95.0969 126.256 95.0368 126.398 94.9312 126.502C94.8256 126.607 94.683 126.666 94.5343 126.666V126.671Z" fill="white"/>
<path d="M177.559 264.529L113.499 264.496C105.792 264.496 99.5466 258.533 99.5513 251.189L99.5795 98.1028C99.5795 90.7547 105.835 84.7961 113.546 84.8008L177.606 84.8385C185.313 84.8385 191.559 90.7971 191.554 98.1405L191.526 251.227C191.507 258.58 185.256 264.534 177.559 264.529Z" fill="#2A3337"/>
<path d="M177.088 90.2227H164.677H128.407H113.15C107.752 90.2227 103.371 94.3866 103.371 99.535L103.338 248.957C103.338 254.1 107.714 258.274 113.108 258.274L177.06 258.311C182.458 258.311 186.839 254.143 186.839 248.999L186.872 99.5727C186.872 94.396 182.501 90.2274 177.088 90.2227Z" fill="white"/>
<path d="M162.136 117.256C162.136 120.568 163.387 123.757 165.641 126.184C167.894 128.61 170.982 130.094 174.284 130.338V130.378H248.599C252.571 130.388 256.393 128.864 259.27 126.125C262.146 123.386 263.855 119.643 264.04 115.676C264.226 111.708 262.873 107.822 260.264 104.827C257.656 101.832 253.992 99.9591 250.037 99.598C249.821 93.5892 247.528 87.8411 243.549 83.3338C239.569 78.8266 234.149 75.8391 228.214 74.8809C222.278 73.9227 216.193 75.053 210.998 78.0791C205.802 81.1053 201.817 85.8398 199.721 91.4756C197.583 90.3925 195.218 89.8314 192.821 89.8384C188.896 89.8391 185.118 91.3364 182.259 94.0253C179.399 96.7142 177.673 100.392 177.431 104.31C176.726 104.191 176.013 104.132 175.298 104.134C173.572 104.13 171.862 104.466 170.266 105.124C168.67 105.781 167.219 106.747 165.996 107.966C164.774 109.185 163.804 110.633 163.141 112.227C162.479 113.821 162.138 115.53 162.136 117.256Z" fill="#EC912A"/>
<path opacity="0.1" d="M162.136 117.256C162.136 120.568 163.387 123.757 165.641 126.184C167.894 128.61 170.982 130.094 174.284 130.338V130.378H248.599C252.571 130.388 256.393 128.864 259.27 126.125C262.146 123.386 263.855 119.643 264.04 115.676C264.226 111.708 262.873 107.822 260.264 104.827C257.656 101.832 253.992 99.9591 250.037 99.598C249.821 93.5892 247.528 87.8411 243.549 83.3338C239.569 78.8266 234.149 75.8391 228.214 74.8809C222.278 73.9227 216.193 75.053 210.998 78.0791C205.802 81.1053 201.817 85.8398 199.721 91.4756C197.583 90.3925 195.218 89.8314 192.821 89.8384C188.896 89.8391 185.118 91.3364 182.259 94.0253C179.399 96.7142 177.673 100.392 177.431 104.31C176.726 104.191 176.013 104.132 175.298 104.134C173.572 104.13 171.862 104.466 170.266 105.124C168.67 105.781 167.219 106.747 165.996 107.966C164.774 109.185 163.804 110.633 163.141 112.227C162.479 113.821 162.138 115.53 162.136 117.256Z" fill="#2A3337"/>
<path d="M155.005 117.257C155.004 120.568 156.256 123.757 158.509 126.184C160.762 128.61 163.85 130.095 167.152 130.339V130.379H241.468C245.503 130.488 249.421 129.01 252.38 126.263C255.338 123.516 257.102 119.718 257.291 115.685C257.48 111.652 256.08 107.706 253.392 104.694C250.704 101.681 246.942 99.8433 242.913 99.5743C242.715 93.549 240.428 87.7799 236.445 83.255C232.461 78.7301 227.028 75.7309 221.077 74.771C215.125 73.8112 209.025 74.9503 203.82 77.9935C198.616 81.0366 194.632 85.7943 192.55 91.4519C190.413 90.37 188.052 89.809 185.657 89.8147C181.731 89.8133 177.951 91.3098 175.09 93.9989C172.229 96.688 170.501 100.367 170.259 104.286C169.555 104.167 168.841 104.108 168.127 104.111C166.402 104.112 164.694 104.453 163.101 105.114C161.508 105.775 160.06 106.744 158.842 107.965C157.623 109.186 156.657 110.635 155.999 112.229C155.34 113.823 155.003 115.532 155.005 117.257Z" fill="#EC912A"/>
<path d="M204.17 130.378H203.108L189.986 112.464V102.369H190.824V112.185L204.17 130.378Z" fill="white"/>
<path d="M190.401 99.5745C189.977 99.5194 189.549 99.6349 189.211 99.8955C188.872 100.156 188.651 100.541 188.596 100.964C188.541 101.388 188.656 101.816 188.917 102.154C189.178 102.493 189.562 102.714 189.986 102.769C190.12 102.81 190.26 102.832 190.401 102.833C190.544 102.833 190.687 102.812 190.824 102.769C191.248 102.713 191.632 102.491 191.892 102.152C192.152 101.812 192.266 101.384 192.21 100.96C192.154 100.537 191.932 100.153 191.592 99.8927C191.253 99.6328 190.825 99.5184 190.401 99.5745ZM190.401 101.97C190.232 101.925 190.082 101.824 189.976 101.685C189.869 101.546 189.812 101.375 189.812 101.2C189.812 101.024 189.869 100.854 189.976 100.715C190.082 100.575 190.232 100.475 190.401 100.429C190.519 100.397 190.644 100.392 190.764 100.416C190.885 100.44 190.998 100.491 191.095 100.565C191.193 100.64 191.272 100.736 191.326 100.846C191.381 100.956 191.409 101.077 191.409 101.2C191.409 101.323 191.381 101.444 191.326 101.554C191.272 101.664 191.193 101.76 191.095 101.834C190.998 101.909 190.885 101.96 190.764 101.984C190.644 102.007 190.519 102.003 190.401 101.97Z" fill="white"/>
<path d="M198.236 130.378H197.198L185.689 114.668V111.777H186.528V114.389L198.236 130.378Z" fill="white"/>
<path d="M186.112 108.991C185.689 108.991 185.282 109.159 184.983 109.458C184.683 109.758 184.515 110.164 184.515 110.588C184.514 110.942 184.632 111.287 184.849 111.568C185.065 111.848 185.37 112.049 185.713 112.137C185.85 112.179 185.993 112.201 186.136 112.201C186.277 112.201 186.417 112.179 186.551 112.137C186.893 112.047 187.196 111.846 187.411 111.566C187.626 111.285 187.743 110.941 187.741 110.588C187.742 110.375 187.699 110.165 187.617 109.969C187.535 109.773 187.414 109.596 187.262 109.447C187.111 109.298 186.931 109.181 186.733 109.103C186.536 109.024 186.325 108.986 186.112 108.991ZM186.112 111.387C185.954 111.387 185.8 111.34 185.669 111.252C185.537 111.164 185.435 111.039 185.374 110.893C185.314 110.748 185.298 110.587 185.329 110.432C185.36 110.277 185.436 110.135 185.547 110.023C185.659 109.911 185.801 109.835 185.956 109.805C186.111 109.774 186.272 109.79 186.418 109.85C186.564 109.91 186.689 110.013 186.776 110.144C186.864 110.275 186.911 110.43 186.911 110.588C186.909 110.798 186.824 110.999 186.674 111.147C186.525 111.296 186.323 111.379 186.112 111.379V111.387Z" fill="white"/>
<path d="M208.403 91.0996H207.564V130.378H208.403V91.0996Z" fill="white"/>
<path d="M207.979 88.2972C207.556 88.2421 207.128 88.3576 206.789 88.6182C206.451 88.8788 206.229 89.2632 206.174 89.6868C206.119 90.1105 206.235 90.5386 206.495 90.8771C206.756 91.2156 207.14 91.4367 207.564 91.4918C207.699 91.5331 207.838 91.5546 207.979 91.5557C208.123 91.5559 208.266 91.5343 208.403 91.4918C208.826 91.4357 209.21 91.2136 209.47 90.8743C209.73 90.5351 209.844 90.1065 209.788 89.6828C209.732 89.2592 209.51 88.8752 209.171 88.6154C208.832 88.3555 208.403 88.241 207.979 88.2972ZM207.979 90.6931C207.813 90.6448 207.668 90.5439 207.564 90.4056C207.46 90.2674 207.404 90.0992 207.404 89.9264C207.404 89.7536 207.46 89.5855 207.564 89.4472C207.668 89.309 207.813 89.2081 207.979 89.1597C208.098 89.125 208.224 89.1185 208.346 89.1407C208.468 89.1628 208.583 89.2131 208.682 89.2875C208.781 89.3619 208.862 89.4584 208.917 89.5693C208.973 89.6802 209.002 89.8025 209.002 89.9264C209.002 90.0504 208.973 90.1727 208.917 90.2836C208.862 90.3945 208.781 90.491 208.682 90.5654C208.583 90.6398 208.468 90.69 208.346 90.7122C208.224 90.7344 208.098 90.7279 207.979 90.6931Z" fill="white"/>
<path d="M221.549 103.104V112.943L213.73 127.702V130.378H212.883V127.495L220.71 112.743V103.104H221.549Z" fill="white"/>
<path d="M221.126 100.301C220.916 100.274 220.703 100.288 220.498 100.343C220.294 100.398 220.103 100.493 219.935 100.622C219.597 100.883 219.376 101.267 219.321 101.691C219.266 102.114 219.381 102.543 219.642 102.881C219.902 103.22 220.287 103.441 220.71 103.496C220.845 103.538 220.985 103.56 221.126 103.56C221.269 103.559 221.411 103.537 221.549 103.496C221.972 103.44 222.356 103.217 222.616 102.878C222.876 102.539 222.991 102.11 222.935 101.687C222.878 101.263 222.656 100.879 222.317 100.619C221.978 100.359 221.549 100.245 221.126 100.301ZM221.126 102.697C220.953 102.654 220.8 102.554 220.69 102.414C220.581 102.273 220.521 102.1 220.521 101.922C220.521 101.744 220.581 101.571 220.69 101.431C220.8 101.291 220.953 101.191 221.126 101.148C221.298 101.191 221.452 101.291 221.561 101.431C221.671 101.571 221.73 101.744 221.73 101.922C221.73 102.1 221.671 102.273 221.561 102.414C221.452 102.554 221.298 102.654 221.126 102.697Z" fill="white"/>
<path d="M227.211 109.158V112.976L219.752 126.17V130.379H218.913V125.946L226.357 112.752V109.158H227.211Z" fill="white"/>
<path d="M226.78 106.354C226.356 106.298 225.928 106.413 225.588 106.673C225.249 106.932 225.027 107.316 224.971 107.74C224.915 108.164 225.029 108.592 225.289 108.931C225.549 109.271 225.933 109.493 226.356 109.549C226.494 109.591 226.636 109.612 226.78 109.613C226.926 109.611 227.071 109.59 227.211 109.549C227.635 109.492 228.018 109.269 228.277 108.929C228.536 108.589 228.65 108.16 228.593 107.736C228.535 107.312 228.312 106.929 227.972 106.67C227.632 106.411 227.203 106.297 226.78 106.354ZM226.78 108.75C226.622 108.75 226.467 108.703 226.336 108.616C226.205 108.528 226.102 108.403 226.042 108.257C225.981 108.111 225.966 107.951 225.996 107.796C226.027 107.641 226.103 107.499 226.215 107.387C226.327 107.275 226.469 107.199 226.624 107.168C226.779 107.138 226.939 107.153 227.085 107.214C227.231 107.274 227.356 107.377 227.444 107.508C227.532 107.639 227.578 107.794 227.578 107.952C227.576 108.162 227.491 108.363 227.342 108.511C227.192 108.659 226.99 108.742 226.78 108.742V108.75Z" fill="white"/>
<path d="M135.005 200.833L122.1 206.994L124.632 238.744L124.339 259.131L164.281 259.155L164.062 241.566L165.197 234.469L170.534 206.994L155.458 200.436L152.434 198.398L137.401 198.434L135.005 200.833Z" fill="#C7C7C7"/>
<g opacity="0.2">
<path d="M124.274 251.143C124.94 251.987 126.205 252.032 127.259 251.81C130.814 251.102 134.039 248.551 137.626 248.978C139.922 249.256 142.158 250.755 144.38 250.118C145.147 249.899 145.84 249.431 146.628 249.321C147.783 249.162 148.879 249.784 149.913 250.32C154.305 252.593 159.215 253.681 164.157 253.474L166.174 248.101L148.106 243.415L133.625 242.586L124.288 248.042L124.274 251.143Z" fill="#2A3337"/>
</g>
<path d="M143.595 259.131C143.553 259.131 143.769 248.136 144.08 234.579C144.391 221.022 144.673 210.024 144.72 210.027C144.768 210.03 144.545 221.019 144.234 234.582C143.923 248.145 143.639 259.134 143.595 259.131Z" fill="#2A3337"/>
<path d="M169.968 206.994C169.968 206.994 173.369 207.915 175.158 215.308C175.913 218.419 179.844 244.336 179.305 247.944C178.765 251.551 173.315 255.215 165.161 254.084C160.662 253.459 152.916 249.505 152.916 249.505L158.891 241.54H164.631L166.9 239.84L165.069 232.817C165.069 232.817 168.635 209.272 169.968 206.994Z" fill="#C7C7C7"/>
<path d="M175.158 240.196C175.143 240.222 174.728 239.947 174.014 239.603C173.09 239.127 172.086 238.825 171.052 238.715C170.486 238.671 169.916 238.703 169.358 238.812L168.985 238.898C168.866 238.931 168.754 238.972 168.641 239.005C168.44 239.072 168.242 239.151 168.049 239.239C167.326 239.571 166.923 239.87 166.906 239.831C166.989 239.75 167.082 239.677 167.181 239.615C167.441 239.433 167.716 239.271 168.001 239.132C168.199 239.034 168.403 238.949 168.612 238.878C168.724 238.839 168.84 238.792 168.961 238.759L169.34 238.664C169.911 238.544 170.495 238.506 171.076 238.552C172.127 238.658 173.146 238.975 174.071 239.485C174.351 239.634 174.623 239.798 174.885 239.976C174.984 240.038 175.076 240.112 175.158 240.196Z" fill="#2A3337"/>
<path d="M160.845 241.567C160.928 241.549 161.013 241.542 161.097 241.546L161.799 241.525L164.314 241.499H164.278L166.55 240.035L166.529 240.053C166.683 239.873 166.84 239.677 167.024 239.499C167.349 239.161 167.708 238.857 168.096 238.593C169.068 237.92 170.184 237.485 171.354 237.322C171.845 237.252 172.341 237.235 172.835 237.269C173.01 237.284 173.132 237.307 173.235 237.319C173.283 237.322 173.33 237.332 173.374 237.349C173.194 237.353 173.013 237.347 172.832 237.331C171.611 237.296 170.399 237.551 169.296 238.075C168.909 238.257 168.538 238.472 168.188 238.717C167.809 238.977 167.457 239.274 167.139 239.606C166.962 239.781 166.808 239.973 166.657 240.148L164.349 241.626H164.328L161.814 241.599L161.112 241.582C161.023 241.584 160.933 241.579 160.845 241.567Z" fill="#2A3337"/>
<path d="M144.72 210.026C144.724 210.04 144.724 210.054 144.72 210.068C144.719 210.077 144.716 210.087 144.711 210.095C144.706 210.103 144.699 210.11 144.691 210.115C144.678 210.12 144.665 210.123 144.652 210.123C144.639 210.123 144.626 210.12 144.614 210.115C144.467 210.049 144.333 209.957 144.22 209.843C143.788 209.435 143.381 209.003 142.999 208.548C142.004 207.399 140.677 205.728 139.19 203.759H139.3C139.154 203.959 139.034 204.177 138.941 204.407C138.832 204.644 138.731 204.893 138.645 205.142C138.447 205.645 138.257 206.167 138.074 206.697C137.76 207.621 137.457 208.527 137.253 209.389L137.209 209.573L137.114 209.413C136.028 207.558 135.338 205.499 135.085 203.365C135.011 202.744 134.976 202.12 134.981 201.496C134.981 201.276 134.981 201.108 135.002 200.995C135.002 200.937 135.007 200.878 135.017 200.82C135.024 200.878 135.024 200.937 135.017 200.995C135.017 201.108 135.017 201.276 135.017 201.496C135.031 202.117 135.079 202.737 135.162 203.353C135.446 205.466 136.151 207.5 137.235 209.336L137.096 209.357C137.303 208.468 137.603 207.58 137.919 206.647C138.103 206.113 138.293 205.589 138.494 205.086C138.595 204.834 138.696 204.588 138.805 204.345C138.905 204.097 139.037 203.864 139.199 203.652L139.255 203.587L139.312 203.661C140.793 205.636 142.102 207.316 143.073 208.477C143.559 209.069 143.962 209.511 144.258 209.795C144.364 209.913 144.488 210.013 144.625 210.091C144.676 210.112 144.708 210.091 144.714 210.062C144.72 210.032 144.714 210.023 144.72 210.026Z" fill="#2A3337"/>
<path d="M155.457 200.436C155.469 200.488 155.474 200.542 155.472 200.595C155.472 200.702 155.472 200.856 155.472 201.061C155.472 201.463 155.449 202.056 155.383 202.79C155.265 204.271 154.915 206.315 154.545 208.673L154.519 208.848L154.412 208.705C153.882 208.003 153.369 207.224 152.839 206.401C152.424 205.767 152.016 205.151 151.586 204.579L151.69 204.594C149.643 206.075 147.804 207.31 146.604 208.347C145.997 208.851 145.526 209.274 145.206 209.57L144.842 209.911C144.801 209.953 144.758 209.991 144.711 210.026C144.711 210.026 144.744 209.976 144.821 209.893C144.898 209.81 145.017 209.686 145.171 209.532C145.467 209.236 145.941 208.788 146.542 208.27C147.727 207.213 149.557 205.957 151.604 204.47L151.663 204.428L151.708 204.488C152.14 205.062 152.555 205.672 152.969 206.318C153.497 207.13 154.006 207.918 154.53 208.617L154.397 208.649C154.779 206.28 155.144 204.251 155.286 202.781C155.363 202.05 155.404 201.463 155.419 201.058C155.419 200.856 155.419 200.702 155.419 200.595C155.426 200.541 155.439 200.487 155.457 200.436Z" fill="#2A3337"/>
<path d="M163.135 222.81C163.135 222.852 160.786 222.671 157.898 222.407C155.01 222.144 152.67 221.895 152.676 221.85C152.682 221.806 155.022 221.99 157.913 222.253C160.804 222.517 163.138 222.766 163.135 222.81Z" fill="#2A3337"/>
<path d="M137.182 187.102C136.32 184.558 135.47 181.996 135.058 179.345C134.647 176.694 134.697 173.921 135.6 171.395C135.737 171.01 136.915 168.433 137.318 168.471C137.614 168.498 136.895 170.894 137.043 171.137C138.471 173.506 138.885 176.397 138.696 179.167C138.487 181.858 137.979 184.517 137.182 187.096" fill="#2A3337"/>
<path d="M159.038 175.82C158.919 172.798 157.666 169.931 155.53 167.791C153.393 165.65 150.529 164.393 147.507 164.268L146.885 164.244C140.153 164.36 136.492 170.138 136.791 176.865L137.419 199.127L144.711 209.234L152.412 200.866C152.412 198.97 152.412 198.399 152.427 198.399C152.442 198.399 158.923 197.661 159.269 191.21C159.444 188.094 159.266 181.649 159.038 175.82Z" fill="#EC912A"/>
<path d="M152.433 198.398C152.433 198.398 148.355 198.469 144.14 195.566C144.14 195.566 145.962 200.501 152.433 200.187V198.398Z" fill="#EC912A"/>
<path d="M156.026 181.596C156.017 181.836 155.915 182.063 155.741 182.229C155.568 182.394 155.336 182.486 155.096 182.485C154.979 182.488 154.862 182.468 154.752 182.426C154.643 182.384 154.542 182.321 154.457 182.24C154.372 182.159 154.304 182.062 154.256 181.955C154.209 181.847 154.183 181.731 154.181 181.614C154.19 181.374 154.291 181.147 154.464 180.981C154.637 180.815 154.868 180.723 155.108 180.725C155.226 180.721 155.343 180.741 155.453 180.782C155.563 180.824 155.664 180.887 155.75 180.968C155.835 181.049 155.903 181.147 155.951 181.254C155.999 181.362 156.024 181.478 156.026 181.596Z" fill="#2A3337"/>
<path d="M157.549 178.612C157.427 178.728 156.752 178.183 155.772 178.144C154.791 178.106 154.033 178.571 153.929 178.44C153.879 178.384 154.003 178.171 154.332 177.954C154.774 177.675 155.291 177.538 155.813 177.563C156.329 177.584 156.824 177.767 157.229 178.088C157.513 178.34 157.605 178.562 157.549 178.612Z" fill="#2A3337"/>
<path d="M147.185 181.596C147.176 181.836 147.075 182.062 146.901 182.228C146.728 182.394 146.497 182.486 146.258 182.485C146.14 182.488 146.023 182.468 145.913 182.426C145.804 182.384 145.703 182.321 145.618 182.24C145.533 182.159 145.465 182.062 145.418 181.955C145.37 181.847 145.345 181.731 145.342 181.614C145.351 181.375 145.452 181.148 145.624 180.982C145.797 180.816 146.027 180.724 146.266 180.725C146.384 180.721 146.501 180.741 146.611 180.782C146.722 180.824 146.822 180.887 146.908 180.968C146.993 181.049 147.062 181.147 147.109 181.254C147.157 181.362 147.182 181.478 147.185 181.596Z" fill="#2A3337"/>
<path d="M148.029 178.612C147.907 178.728 147.232 178.183 146.252 178.144C145.271 178.106 144.513 178.571 144.409 178.44C144.359 178.384 144.483 178.171 144.812 177.954C145.254 177.675 145.771 177.538 146.293 177.563C146.809 177.584 147.304 177.767 147.709 178.088C147.99 178.34 148.085 178.562 148.029 178.612Z" fill="#2A3337"/>
<path d="M151.059 186.21C151.059 186.154 151.678 186.071 152.682 185.985C152.937 185.97 153.18 185.928 153.227 185.757C153.26 185.497 153.213 185.233 153.091 185.001L152.421 183.041C151.494 180.253 150.834 177.964 150.94 177.928C151.047 177.893 151.897 180.12 152.821 182.91C153.046 183.597 153.257 184.252 153.461 184.88C153.606 185.192 153.637 185.545 153.55 185.878C153.51 185.966 153.45 186.044 153.375 186.105C153.3 186.166 153.212 186.209 153.118 186.231C152.976 186.264 152.831 186.279 152.685 186.275C151.684 186.287 151.062 186.266 151.059 186.21Z" fill="#2A3337"/>
<path d="M148.026 176.432C147.893 176.684 147.049 176.397 146.006 176.346C144.963 176.296 144.084 176.456 143.992 176.195C143.953 176.068 144.143 175.846 144.522 175.65C145.011 175.416 145.552 175.314 146.092 175.354C146.628 175.379 147.147 175.547 147.597 175.84C147.937 176.071 148.088 176.314 148.026 176.432Z" fill="#2A3337"/>
<path d="M157.715 174.872C157.501 175.091 156.699 174.837 155.727 174.798C154.756 174.76 153.929 174.905 153.748 174.662C153.668 174.546 153.802 174.324 154.169 174.12C154.673 173.876 155.23 173.764 155.789 173.794C156.347 173.823 156.89 173.993 157.365 174.289C157.7 174.528 157.806 174.762 157.715 174.872Z" fill="#2A3337"/>
<path d="M137.123 181.664C137.013 181.613 132.742 180.183 132.7 184.587C132.659 188.991 137.102 188.141 137.111 188.008C137.12 187.875 137.123 181.664 137.123 181.664Z" fill="#EC912A"/>
<path d="M135.778 186.323C135.758 186.323 135.701 186.376 135.571 186.436C135.381 186.514 135.168 186.514 134.979 186.436C134.513 186.261 134.128 185.514 134.114 184.718C134.106 184.339 134.184 183.963 134.342 183.619C134.384 183.479 134.46 183.352 134.564 183.248C134.667 183.145 134.794 183.069 134.934 183.026C135.023 183.005 135.117 183.014 135.199 183.054C135.282 183.093 135.348 183.16 135.387 183.243C135.444 183.367 135.414 183.456 135.438 183.462C135.461 183.468 135.535 183.388 135.5 183.207C135.476 183.097 135.416 182.999 135.328 182.929C135.207 182.836 135.056 182.794 134.904 182.81C134.723 182.845 134.553 182.925 134.411 183.044C134.269 183.163 134.159 183.316 134.093 183.488C133.902 183.869 133.806 184.291 133.814 184.718C133.835 185.606 134.282 186.444 134.919 186.637C135.038 186.672 135.162 186.68 135.284 186.661C135.406 186.642 135.522 186.597 135.624 186.527C135.769 186.43 135.793 186.332 135.778 186.323Z" fill="#EC912A"/>
<path d="M156.183 168.497C156.897 168.103 154.753 165.787 152.996 164.99C150.33 163.782 146.287 163.038 143.838 163.731C140.876 164.567 138.438 166.033 136.957 168.713C135.476 171.394 134.919 174.522 135.002 177.599C135.029 178.532 135.124 179.507 135.624 180.298C136.24 181.275 137.422 181.891 137.372 183.239C137.355 183.483 137.387 183.727 137.465 183.958C137.543 184.19 137.667 184.403 137.828 184.587C138.636 185.449 139.626 184.64 140.082 183.831C141.053 182.102 141.163 180.034 141.249 178.052C141.311 176.643 141.367 175.203 140.973 173.849C140.757 173.112 140.411 172.416 140.236 171.669C140.061 170.923 140.082 170.073 140.55 169.463C140.658 169.331 140.778 169.21 140.908 169.101C141.524 168.564 142.273 168.2 143.076 168.048C143.879 167.895 144.708 167.959 145.479 168.234C147.967 169.122 152.214 170.431 153.325 169.587C154.924 168.376 155.307 167.582 155.307 167.582L156.183 168.497Z" fill="#2A3337"/>
<path d="M147.943 186.828C148.097 186.828 148.103 187.832 148.974 188.549C149.845 189.266 150.926 189.141 150.935 189.29C150.95 189.355 150.695 189.488 150.239 189.503C149.644 189.515 149.064 189.317 148.601 188.943C148.158 188.583 147.872 188.064 147.804 187.498C147.763 187.068 147.866 186.828 147.943 186.828Z" fill="#2A3337"/>
<path d="M122.097 206.994C122.097 206.994 118.282 210.081 117.295 214.603C116.309 219.126 110.892 239.94 110.755 243.009C110.619 246.077 110.755 252.615 116.427 252.748C122.1 252.881 136.456 246.264 136.456 246.264L133.717 237.971L124.765 238.216L122.097 206.994Z" fill="#C7C7C7"/>
<path d="M133.719 237.959C133.647 237.976 133.574 237.986 133.5 237.989L132.872 238.036L130.553 238.187L127.114 238.388L125.085 238.504C124.362 238.529 123.64 238.601 122.926 238.717C122.552 238.777 122.171 238.777 121.797 238.717C121.433 238.673 121.081 238.608 120.734 238.575C120.065 238.531 119.392 238.59 118.741 238.75C117.634 239.035 116.611 239.578 115.755 240.334C115.173 240.841 114.661 241.422 114.233 242.064C114.078 242.289 113.969 242.47 113.898 242.594C113.864 242.661 113.824 242.723 113.776 242.781C113.8 242.711 113.832 242.643 113.871 242.58C113.964 242.391 114.067 242.208 114.182 242.032C114.597 241.373 115.101 240.775 115.681 240.254C116.545 239.475 117.583 238.913 118.708 238.616C119.374 238.448 120.063 238.385 120.749 238.427C121.104 238.46 121.457 238.525 121.818 238.569C122.175 238.624 122.539 238.624 122.896 238.569C123.618 238.45 124.348 238.379 125.079 238.356L127.108 238.252L130.547 238.08L132.869 237.98L133.5 237.959C133.573 237.954 133.646 237.954 133.719 237.959Z" fill="#2A3337"/>
<path d="M125.011 238.199C124.995 238.132 124.985 238.065 124.982 237.997C124.967 237.846 124.946 237.654 124.922 237.405C124.875 236.88 124.804 236.152 124.721 235.263C124.546 233.453 124.277 230.959 123.972 228.202C123.667 225.444 123.415 222.965 123.282 221.143C123.208 220.237 123.154 219.505 123.128 218.996C123.128 218.756 123.107 218.561 123.098 218.404C123.094 218.336 123.094 218.267 123.098 218.199C123.117 218.265 123.128 218.332 123.13 218.401C123.145 218.549 123.163 218.741 123.187 218.993C123.237 219.514 123.305 220.243 123.391 221.135C123.563 222.941 123.835 225.438 124.138 228.196C124.44 230.954 124.694 233.45 124.843 235.26C124.917 236.167 124.967 236.901 124.997 237.408C124.997 237.651 125.017 237.843 125.023 238C125.027 238.066 125.023 238.133 125.011 238.199Z" fill="#2A3337"/>
<path d="M135.914 246.51C135.871 246.542 135.826 246.571 135.778 246.596L135.372 246.815C135.02 247.004 134.501 247.259 133.853 247.561C132.558 248.154 130.737 248.942 128.69 249.697C126.643 250.452 124.762 251.059 123.385 251.45C122.698 251.649 122.138 251.791 121.75 251.886L121.3 251.986C121.248 252.002 121.194 252.01 121.14 252.01C121.189 251.986 121.241 251.968 121.294 251.957L121.735 251.827C122.117 251.717 122.674 251.557 123.355 251.347C124.721 250.929 126.593 250.31 128.637 249.552C130.68 248.793 132.487 248.041 133.808 247.464C134.46 247.167 134.993 246.933 135.346 246.762L135.763 246.566C135.81 246.54 135.861 246.521 135.914 246.51Z" fill="#2A3337"/>
<path d="M168.271 213.508C168.275 213.532 168.275 213.557 168.271 213.582C168.271 213.638 168.271 213.709 168.25 213.795C168.229 213.997 168.2 214.272 168.164 214.619C168.087 215.332 167.963 216.363 167.803 217.637C167.483 220.184 167 223.7 166.405 227.571C165.809 231.443 165.22 234.944 164.799 237.476C164.58 238.732 164.4 239.751 164.275 240.471C164.213 240.814 164.163 241.087 164.124 241.282C164.106 241.368 164.092 241.439 164.083 241.496C164.079 241.52 164.072 241.544 164.062 241.567C164.057 241.542 164.057 241.517 164.062 241.493C164.062 241.433 164.08 241.365 164.092 241.279C164.121 241.078 164.163 240.805 164.213 240.462C164.329 239.739 164.488 238.717 164.687 237.458C165.093 234.923 165.658 231.422 166.251 227.548C166.843 223.673 167.347 220.166 167.711 217.634C167.883 216.372 168.022 215.347 168.12 214.622C168.167 214.278 168.206 214.002 168.235 213.804C168.235 213.718 168.259 213.647 168.268 213.591C168.264 213.563 168.265 213.535 168.271 213.508Z" fill="#2A3337"/>
<path d="M168.159 254.344C168.105 254.351 168.05 254.351 167.996 254.344L167.528 254.302C167.122 254.264 166.538 254.187 165.819 254.071C163.943 253.763 162.092 253.321 160.28 252.75C159.219 252.413 158.206 252.048 157.318 251.69C156.429 251.331 155.632 250.97 154.981 250.644C154.652 250.487 154.359 250.333 154.092 250.197C153.826 250.061 153.615 249.942 153.44 249.839L153.035 249.602C152.986 249.576 152.94 249.545 152.898 249.51C152.952 249.526 153.004 249.548 153.052 249.575L153.47 249.785C153.648 249.883 153.87 249.993 154.131 250.12C154.391 250.247 154.685 250.395 155.019 250.543C155.674 250.857 156.471 251.195 157.362 251.556C158.254 251.918 159.252 252.267 160.309 252.602C162.115 253.17 163.955 253.625 165.819 253.962C166.535 254.092 167.116 254.187 167.519 254.243L167.981 254.314C168.041 254.314 168.101 254.324 168.159 254.344Z" fill="#2A3337"/>
<g opacity="0.2">
<path d="M154.468 208.819C153.417 207.549 152.712 205.916 151.82 204.533C149.252 206.092 146.867 207.935 144.711 210.028C146.785 208.843 148.858 207.75 150.875 206.473L154.622 211.325C154.699 209.757 154.778 208.189 154.859 206.621L154.468 208.819Z" fill="#2A3337"/>
</g>
<g opacity="0.2">
<path d="M165.392 233.519C165.436 233.311 165.481 233.095 165.525 232.879L165.268 233.519H165.392Z" fill="#2A3337"/>
</g>
<g opacity="0.2">
<path d="M167.898 215.963C167.223 221.176 166.606 227.639 165.528 232.879C166.565 230.281 167.575 227.663 168.147 224.929C168.763 221.967 168.849 218.833 167.898 215.963Z" fill="#2A3337"/>
</g>
<path d="M134.703 232.816C134.703 232.816 132.896 233.741 132.63 234.487C132.478 234.989 132.478 235.525 132.63 236.027L133.607 239.241V242.585C133.607 242.585 134.392 245.982 135.138 246.329C135.885 246.676 137.212 246.625 138.1 245.227C138.607 244.433 139.006 243.574 139.285 242.674L140.825 236.291L141.267 233.033L137.084 235.189L135.9 236.812L134.744 234.97C134.744 234.97 135.686 234.046 135.612 233.471C135.538 232.896 134.703 232.816 134.703 232.816Z" fill="#EC912A"/>
<path d="M133.725 235.228C133.725 235.183 133.971 235.186 134.253 235.127C134.534 235.068 134.753 234.97 134.777 235.009C134.801 235.047 134.596 235.213 134.285 235.278C133.974 235.343 133.716 235.266 133.725 235.228Z" fill="#EC912A"/>
<path d="M135.615 244.069L135.911 230.503C135.911 230.046 136.087 229.605 136.403 229.274C136.719 228.943 137.151 228.747 137.609 228.726L160.768 228.217C161.042 228.22 161.312 228.285 161.557 228.408C161.801 228.531 162.015 228.709 162.181 228.927C162.347 229.144 162.461 229.397 162.514 229.666C162.568 229.935 162.559 230.212 162.489 230.477L159.018 245.239C158.933 245.636 158.713 245.991 158.395 246.243C158.077 246.495 157.682 246.63 157.276 246.623L137.292 245.935C136.822 245.909 136.382 245.698 136.068 245.349C135.754 244.999 135.591 244.539 135.615 244.069Z" fill="#2A3337"/>
<path d="M150.235 232.313L150.052 232.283C149.812 232.268 149.576 232.347 149.392 232.501C149.209 232.656 149.091 232.876 149.065 233.114C149.039 233.353 149.105 233.593 149.25 233.784C149.396 233.975 149.609 234.103 149.846 234.141C150.083 234.18 150.326 234.125 150.524 233.989C150.722 233.854 150.861 233.647 150.911 233.412C150.961 233.177 150.919 232.932 150.793 232.727C150.667 232.523 150.468 232.374 150.235 232.313Z" fill="white"/>
<path d="M160.01 229.74C160.01 229.784 155.058 229.902 148.947 230.006C142.836 230.11 137.884 230.163 137.881 230.119C137.878 230.074 142.834 229.959 148.944 229.852C155.055 229.745 160.01 229.698 160.01 229.74Z" fill="#2A3337"/>
<path d="M141.853 232.865C141.853 232.865 143.139 231.582 144.667 232.438C146.195 233.294 151.337 236.964 153.112 237.453C154.886 237.942 156.666 238.312 158.005 237.453C159.344 236.594 160.33 235.495 160.392 234.396C160.454 233.297 161.124 230.907 162.593 230.842L163.328 231.393C163.328 231.393 163.031 234.947 163.031 236.47C163.031 237.992 161.675 240.145 161.675 240.145L160.688 241.837L161.195 243.7C161.195 243.7 160.582 246.514 159.053 247.983C157.525 249.452 154.516 249.511 154.516 249.511L144.741 243.395L135.627 240.702C135.627 240.702 135.87 239.479 137.108 239.417C138.346 239.355 140.351 240.181 140.351 240.181L135.615 236.591C135.697 236.218 135.923 235.893 136.244 235.686C136.565 235.48 136.954 235.409 137.327 235.489C138.808 235.673 144.057 238.747 144.057 238.747L138.684 233.357C138.684 233.357 138.562 231.95 139.848 231.876C140.236 231.872 140.62 231.959 140.968 232.131C141.317 232.303 141.62 232.554 141.853 232.865Z" fill="#EC912A"/>
<path d="M149.447 238.829C149.33 238.779 149.219 238.717 149.116 238.642C148.905 238.515 148.606 238.325 148.227 238.085C147.495 237.605 146.485 236.93 145.413 236.13C144.489 235.456 143.61 234.72 142.783 233.929C142.469 233.633 142.229 233.358 142.072 233.171C141.985 233.08 141.908 232.981 141.841 232.875C141.942 232.954 142.034 233.043 142.117 233.142C142.285 233.316 142.537 233.568 142.857 233.861C143.702 234.625 144.586 235.345 145.505 236.018C146.574 236.817 147.578 237.499 148.289 238.008L149.136 238.601C149.248 238.665 149.352 238.742 149.447 238.829Z" fill="#EC912A"/>
<path d="M146.201 240.166C145.702 239.982 145.234 239.721 144.815 239.393C144.37 239.106 143.97 238.754 143.63 238.347C143.663 238.315 144.205 238.768 144.916 239.269C145.627 239.769 146.222 240.128 146.201 240.166Z" fill="#EC912A"/>
<path d="M144.738 242.607C143.871 242.221 143.024 241.788 142.203 241.312C141.357 240.882 140.537 240.406 139.744 239.885C140.61 240.271 141.456 240.704 142.277 241.179C143.123 241.609 143.945 242.085 144.738 242.607Z" fill="#EC912A"/>
<path opacity="0.15" d="M112.258 124.048L112.141 163.351C112.141 164.081 112.645 164.378 113.276 164.015L147.506 144.392C147.838 144.177 148.115 143.886 148.313 143.542C148.511 143.199 148.625 142.814 148.646 142.419V103.045C148.646 102.319 148.137 102.023 147.506 102.385L113.403 122.075C113.072 122.292 112.796 122.583 112.597 122.926C112.398 123.268 112.282 123.653 112.258 124.048Z" fill="#EC912A"/>
<path opacity="0.25" d="M115.292 125.58L115.193 158.335C115.193 158.938 115.612 159.188 116.135 158.886L144.656 142.532C144.932 142.352 145.161 142.109 145.324 141.823C145.488 141.538 145.582 141.217 145.598 140.888V108.076C145.598 107.473 145.174 107.223 144.656 107.53L116.248 123.936C115.97 124.115 115.739 124.357 115.573 124.643C115.407 124.929 115.31 125.25 115.292 125.58Z" fill="#EC912A"/>
<path opacity="0.15" d="M117.821 126.856L117.736 154.152C117.736 154.656 118.085 154.859 118.523 154.624L142.296 140.982C142.527 140.834 142.719 140.632 142.856 140.395C142.994 140.157 143.073 139.89 143.087 139.616V112.268C143.087 111.764 142.734 111.562 142.296 111.797L118.612 125.457C118.378 125.61 118.184 125.816 118.046 126.06C117.908 126.303 117.831 126.576 117.821 126.856Z" fill="#EC912A"/>
<g opacity="0.5">
<path d="M118.17 155.079C118.033 155.08 117.899 155.046 117.779 154.98C117.644 154.888 117.536 154.763 117.464 154.617C117.392 154.471 117.359 154.309 117.369 154.146L117.454 126.855C117.469 126.514 117.565 126.182 117.735 125.886C117.905 125.59 118.143 125.339 118.429 125.154L142.113 111.494C142.244 111.395 142.402 111.338 142.567 111.328C142.731 111.318 142.895 111.356 143.038 111.439C143.181 111.521 143.296 111.643 143.371 111.79C143.445 111.937 143.474 112.103 143.455 112.267V139.615C143.441 139.953 143.345 140.282 143.177 140.575C143.009 140.869 142.773 141.118 142.489 141.301L118.707 154.928C118.543 155.023 118.359 155.075 118.17 155.079ZM142.664 112.069C142.603 112.073 142.544 112.094 142.494 112.13L118.81 125.79C118.636 125.909 118.49 126.065 118.385 126.248C118.279 126.431 118.215 126.635 118.198 126.845L118.113 154.142C118.113 154.278 118.156 154.33 118.165 154.335C118.175 154.339 118.24 154.335 118.358 154.283L142.113 140.665C142.287 140.548 142.432 140.392 142.538 140.21C142.643 140.028 142.705 139.825 142.72 139.615V112.267C142.72 112.13 142.682 112.078 142.673 112.073L142.664 112.069Z" fill="#EC912A"/>
</g>
<path d="M118.174 154.901C118.069 154.901 117.965 154.873 117.873 154.82C117.764 154.747 117.677 154.646 117.621 154.527C117.565 154.409 117.541 154.278 117.553 154.147L117.637 126.855C117.653 126.548 117.741 126.249 117.895 125.983C118.049 125.716 118.264 125.491 118.523 125.324L142.202 111.664C142.309 111.587 142.435 111.541 142.566 111.531C142.697 111.521 142.829 111.548 142.946 111.608C143.056 111.68 143.144 111.78 143.201 111.897C143.258 112.015 143.282 112.146 143.271 112.277V139.615C143.256 139.922 143.168 140.221 143.014 140.486C142.86 140.752 142.644 140.976 142.386 141.142L118.617 154.769C118.483 154.849 118.331 154.894 118.174 154.901ZM142.668 111.886C142.574 111.89 142.483 111.92 142.404 111.97L118.707 125.626C118.504 125.761 118.335 125.941 118.213 126.151C118.09 126.362 118.017 126.598 118 126.841L117.915 154.137C117.907 154.204 117.916 154.27 117.941 154.332C117.965 154.394 118.005 154.449 118.057 154.491C118.119 154.515 118.187 154.522 118.253 154.512C118.319 154.502 118.381 154.475 118.434 154.434L142.202 140.812C142.405 140.678 142.574 140.499 142.695 140.289C142.817 140.079 142.888 139.844 142.904 139.601V112.267C142.912 112.201 142.904 112.134 142.879 112.072C142.854 112.01 142.814 111.956 142.762 111.914C142.728 111.895 142.689 111.885 142.649 111.886H142.668Z" fill="#EC912A"/>
<g opacity="0.1">
<path opacity="0.5" d="M117.821 126.856L117.736 154.152C117.736 154.656 118.085 154.859 118.523 154.624L142.296 140.982C142.527 140.834 142.719 140.632 142.856 140.395C142.994 140.157 143.073 139.89 143.087 139.616V112.268C143.087 111.764 142.734 111.562 142.296 111.797L118.612 125.457C118.378 125.61 118.184 125.816 118.046 126.06C117.908 126.303 117.831 126.576 117.821 126.856Z" fill="#EC912A"/>
</g>
<path opacity="0.2" d="M119.408 127.665L119.338 151.499C119.338 151.942 119.644 152.121 120.025 151.9L140.793 140.001C140.993 139.871 141.16 139.696 141.281 139.49C141.401 139.284 141.471 139.052 141.486 138.814V114.933C141.486 114.49 141.18 114.311 140.793 114.532L120.115 126.464C119.912 126.595 119.742 126.772 119.619 126.981C119.497 127.189 119.424 127.423 119.408 127.665Z" fill="#2A3337"/>
<path d="M142.45 124.731L141.367 122.8L147.415 119.3C147.668 119.17 147.962 119.142 148.234 119.223C148.507 119.304 148.739 119.486 148.88 119.733C149.022 119.98 149.064 120.271 148.996 120.548C148.928 120.824 148.757 121.064 148.517 121.217L142.45 124.731Z" fill="#EC912A"/>
<path d="M142.455 129.54L141.367 127.628L147.42 124.128C147.546 124.045 147.687 123.988 147.836 123.961C147.985 123.934 148.137 123.938 148.284 123.972C148.432 124.007 148.57 124.071 148.692 124.161C148.813 124.251 148.915 124.365 148.99 124.496C149.066 124.627 149.114 124.771 149.132 124.922C149.149 125.072 149.136 125.224 149.092 125.368C149.049 125.513 148.976 125.647 148.879 125.763C148.782 125.879 148.662 125.973 148.527 126.041L142.455 129.54Z" fill="#EC912A"/>
<path d="M142.455 134.354L141.367 132.437L147.401 128.923C147.527 128.84 147.668 128.783 147.817 128.756C147.966 128.729 148.118 128.733 148.266 128.767C148.413 128.802 148.551 128.866 148.673 128.956C148.794 129.046 148.896 129.16 148.971 129.291C149.047 129.421 149.095 129.566 149.113 129.716C149.13 129.867 149.117 130.019 149.074 130.163C149.03 130.308 148.958 130.442 148.86 130.558C148.763 130.674 148.643 130.768 148.508 130.836L142.455 134.354Z" fill="#EC912A"/>
<path d="M142.46 139.169L141.367 137.252L147.42 133.752C147.674 133.609 147.974 133.572 148.255 133.649C148.536 133.726 148.776 133.91 148.921 134.163C149.067 134.415 149.107 134.715 149.034 134.997C148.96 135.279 148.778 135.52 148.527 135.669L142.46 139.169Z" fill="#EC912A"/>
<g opacity="0.8">
<path d="M142.45 124.731L141.367 122.8L147.415 119.3C147.668 119.17 147.962 119.142 148.234 119.223C148.507 119.304 148.739 119.486 148.88 119.733C149.022 119.98 149.064 120.271 148.996 120.548C148.928 120.824 148.757 121.064 148.517 121.217L142.45 124.731Z" fill="white"/>
<path d="M142.455 129.54L141.367 127.628L147.42 124.128C147.546 124.045 147.687 123.988 147.836 123.961C147.985 123.934 148.137 123.938 148.284 123.972C148.432 124.007 148.57 124.071 148.692 124.161C148.813 124.251 148.915 124.365 148.99 124.496C149.066 124.627 149.114 124.771 149.132 124.922C149.149 125.072 149.136 125.224 149.092 125.368C149.049 125.513 148.976 125.647 148.879 125.763C148.782 125.879 148.662 125.973 148.527 126.041L142.455 129.54Z" fill="white"/>
<path d="M142.455 134.354L141.367 132.437L147.401 128.923C147.527 128.84 147.668 128.783 147.817 128.756C147.966 128.729 148.118 128.733 148.266 128.767C148.413 128.802 148.551 128.866 148.673 128.956C148.794 129.046 148.896 129.16 148.971 129.291C149.047 129.421 149.095 129.566 149.113 129.716C149.13 129.867 149.117 130.019 149.074 130.163C149.03 130.308 148.958 130.442 148.86 130.558C148.763 130.674 148.643 130.768 148.508 130.836L142.455 134.354Z" fill="white"/>
<path d="M142.46 139.169L141.367 137.252L147.42 133.752C147.674 133.609 147.974 133.572 148.255 133.649C148.536 133.726 148.776 133.91 148.921 134.163C149.067 134.415 149.107 134.715 149.034 134.997C148.96 135.279 148.778 135.52 148.527 135.669L142.46 139.169Z" fill="white"/>
</g>
<g opacity="0.2">
<path d="M142.45 124.731L141.348 122.814L146.492 119.842V122.395L142.45 124.731Z" fill="#EC912A"/>
<path d="M146.492 134.283V136.836L142.459 139.168L141.353 137.251L146.492 134.283Z" fill="#EC912A"/>
<path d="M142.455 134.355L141.353 132.443L146.492 129.471V132.024L142.455 134.355Z" fill="#EC912A"/>
<path d="M142.455 129.541L141.348 127.628L146.492 124.656V127.209L142.455 129.541Z" fill="#EC912A"/>
</g>
<path d="M128.762 148.443H126.553V155.434C126.553 155.727 126.669 156.009 126.877 156.216C127.085 156.424 127.366 156.54 127.66 156.54C127.953 156.54 128.235 156.424 128.442 156.216C128.65 156.009 128.767 155.727 128.767 155.434L128.762 148.443Z" fill="#EC912A"/>
<path d="M132.931 146.041H130.722V153.026C130.722 153.32 130.839 153.602 131.046 153.809C131.254 154.017 131.535 154.133 131.829 154.133C132.122 154.133 132.404 154.017 132.612 153.809C132.819 153.602 132.936 153.32 132.936 153.026L132.931 146.041Z" fill="#EC912A"/>
<path d="M137.099 143.635H134.885V150.625C134.885 150.919 135.002 151.2 135.21 151.408C135.417 151.615 135.699 151.732 135.992 151.732C136.286 151.732 136.568 151.615 136.775 151.408C136.983 151.2 137.099 150.919 137.099 150.625V143.635Z" fill="#EC912A"/>
<path d="M141.268 141.232H139.059V148.218C139.059 148.511 139.175 148.793 139.383 149.001C139.591 149.208 139.872 149.325 140.166 149.325C140.459 149.325 140.741 149.208 140.948 149.001C141.156 148.793 141.273 148.511 141.273 148.218L141.268 141.232Z" fill="#EC912A"/>
<g opacity="0.8">
<path d="M128.762 148.443H126.552V155.434C126.552 155.727 126.669 156.009 126.877 156.216C127.084 156.424 127.366 156.54 127.659 156.54C127.953 156.54 128.235 156.424 128.442 156.216C128.65 156.009 128.766 155.727 128.766 155.434L128.762 148.443Z" fill="white"/>
<path d="M132.931 146.041H130.722V153.026C130.722 153.32 130.838 153.602 131.046 153.809C131.253 154.017 131.535 154.133 131.829 154.133C132.122 154.133 132.404 154.017 132.611 153.809C132.819 153.602 132.936 153.32 132.936 153.026L132.931 146.041Z" fill="white"/>
<path d="M137.099 143.635H134.885V150.625C134.885 150.919 135.002 151.2 135.209 151.408C135.417 151.615 135.699 151.732 135.992 151.732C136.286 151.732 136.567 151.615 136.775 151.408C136.982 151.2 137.099 150.919 137.099 150.625V143.635Z" fill="white"/>
<path d="M141.268 141.232H139.059V148.218C139.059 148.511 139.175 148.793 139.383 149.001C139.59 149.208 139.872 149.325 140.166 149.325C140.459 149.325 140.741 149.208 140.948 149.001C141.156 148.793 141.272 148.511 141.272 148.218L141.268 141.232Z" fill="white"/>
</g>
<g opacity="0.2">
<path d="M128.762 148.443H126.552V154.383L128.762 153.107V148.443Z" fill="#EC912A"/>
<path d="M139.054 147.163L141.268 145.891V141.232H139.054V147.163Z" fill="#EC912A"/>
<path d="M137.1 143.635H134.89V149.575L137.1 148.298V143.635Z" fill="#EC912A"/>
<path d="M132.931 146.041H130.717V151.976L132.931 150.704V146.041Z" fill="#EC912A"/>
</g>
<path d="M124.235 153.186C124.101 153.089 123.994 152.958 123.926 152.807C123.859 152.655 123.832 152.489 123.849 152.324V131.325C123.866 130.864 124 130.415 124.24 130.02L119.794 127.453C119.554 127.851 119.42 128.303 119.403 128.767V148.852C119.428 149.315 119.561 149.765 119.793 150.166C120.025 150.567 120.348 150.908 120.736 151.16L124.235 153.186Z" fill="#EC912A"/>
<path opacity="0.3" d="M124.235 153.186C124.101 153.089 123.994 152.958 123.926 152.807C123.859 152.655 123.832 152.489 123.849 152.324V131.325C123.866 130.864 124 130.415 124.24 130.02L119.794 127.453C119.554 127.851 119.42 128.303 119.403 128.767V148.852C119.428 149.315 119.561 149.765 119.793 150.166C120.025 150.567 120.348 150.908 120.736 151.16L124.235 153.186Z" fill="#2A3337"/>
<path d="M125.182 129.018L143.355 118.533C144.095 118.109 144.688 118.453 144.688 119.301V140.29C144.664 140.753 144.531 141.203 144.299 141.605C144.067 142.006 143.744 142.346 143.355 142.598L125.178 153.093C124.443 153.517 123.845 153.173 123.845 152.325V131.326C123.871 130.864 124.005 130.413 124.238 130.012C124.47 129.611 124.794 129.271 125.182 129.018Z" fill="#EC912A"/>
<path opacity="0.3" d="M125.182 129.018L143.355 118.533C144.095 118.109 144.688 118.453 144.688 119.301V140.29C144.664 140.753 144.531 141.203 144.299 141.605C144.067 142.006 143.744 142.346 143.355 142.598L125.178 153.093C124.443 153.517 123.845 153.173 123.845 152.325V131.326C123.871 130.864 124.005 130.413 124.238 130.012C124.47 129.611 124.794 129.271 125.182 129.018Z" fill="white"/>
<path d="M144.259 118.419L140.792 116.417C140.379 116.207 139.923 116.098 139.459 116.098C138.996 116.098 138.539 116.207 138.126 116.417L120.731 126.46C120.337 126.705 120.012 127.047 119.789 127.454L124.235 130.021C124.457 129.61 124.782 129.265 125.177 129.018L143.355 118.532C143.484 118.438 143.634 118.379 143.792 118.359C143.95 118.339 144.111 118.36 144.259 118.419Z" fill="#EC912A"/>
<path opacity="0.15" d="M144.278 118.429L140.792 116.417C140.379 116.207 139.923 116.098 139.459 116.098C138.996 116.098 138.539 116.207 138.126 116.417L120.731 126.46C120.337 126.705 120.012 127.047 119.789 127.454L124.235 130.021C124.458 129.615 124.783 129.274 125.177 129.032L143.374 118.561C143.502 118.466 143.651 118.404 143.809 118.381C143.967 118.358 144.128 118.374 144.278 118.429Z" fill="#2A3337"/>
<path d="M126.812 149.342C126.703 149.345 126.596 149.317 126.501 149.262C126.387 149.185 126.295 149.079 126.235 148.955C126.176 148.831 126.151 148.693 126.162 148.555V132.22C126.179 131.894 126.273 131.577 126.437 131.296C126.601 131.014 126.83 130.775 127.104 130.599L141.235 122.441C141.348 122.362 141.48 122.314 141.618 122.303C141.755 122.292 141.893 122.319 142.017 122.38C142.131 122.457 142.222 122.564 142.282 122.688C142.341 122.812 142.367 122.949 142.356 123.086V139.422C142.341 139.748 142.247 140.066 142.083 140.349C141.919 140.632 141.69 140.871 141.414 141.047L127.283 149.215C127.14 149.298 126.978 149.342 126.812 149.342ZM141.716 122.653C141.615 122.658 141.518 122.689 141.433 122.743L127.302 130.901C127.079 131.045 126.893 131.239 126.758 131.468C126.624 131.697 126.546 131.955 126.53 132.22V148.569C126.52 148.642 126.529 148.717 126.557 148.785C126.584 148.853 126.628 148.914 126.685 148.96C126.754 148.986 126.828 148.993 126.9 148.983C126.972 148.972 127.041 148.943 127.1 148.899L141.254 140.698C141.471 140.553 141.651 140.36 141.781 140.134C141.911 139.907 141.987 139.654 142.003 139.394V123.072C142.013 122.999 142.003 122.925 141.976 122.857C141.949 122.788 141.905 122.728 141.848 122.681C141.807 122.662 141.761 122.652 141.716 122.653Z" fill="white"/>
<path d="M129.374 144.552C129.31 144.553 129.246 144.536 129.191 144.505C129.127 144.463 129.076 144.405 129.042 144.337C129.008 144.27 128.993 144.194 128.997 144.118L129.035 133.308C129.055 133.154 129.108 133.005 129.189 132.872C129.27 132.739 129.378 132.624 129.506 132.536L138.804 127.17C138.867 127.127 138.941 127.102 139.017 127.097C139.093 127.092 139.17 127.107 139.238 127.142C139.302 127.185 139.354 127.243 139.388 127.311C139.423 127.38 139.439 127.456 139.436 127.533V138.268C139.429 138.423 139.385 138.574 139.308 138.708C139.231 138.842 139.123 138.956 138.993 139.041L129.629 144.467C129.553 144.517 129.465 144.546 129.374 144.552ZM139.012 127.458C138.989 127.465 138.967 127.474 138.946 127.486L129.666 132.851C129.527 132.974 129.432 133.139 129.398 133.322L129.365 144.128C129.357 144.151 129.357 144.175 129.365 144.198C129.387 144.203 129.409 144.203 129.431 144.198L138.776 138.725C138.854 138.673 138.919 138.603 138.966 138.521C139.012 138.439 139.039 138.348 139.045 138.254V127.533C139.039 127.506 139.027 127.48 139.012 127.458Z" fill="white"/>
<path d="M115.931 137.619C115.806 137.691 115.667 137.738 115.523 137.757C115.38 137.776 115.234 137.766 115.094 137.729C114.954 137.691 114.822 137.626 114.708 137.538C114.593 137.449 114.496 137.339 114.424 137.214C114.351 137.088 114.305 136.95 114.286 136.806C114.267 136.662 114.277 136.516 114.314 136.376C114.352 136.236 114.417 136.105 114.505 135.99C114.593 135.875 114.703 135.779 114.829 135.706L120.641 132.376C120.73 132.335 120.829 132.317 120.926 132.327C121.024 132.336 121.118 132.371 121.197 132.428C121.424 132.578 121.613 132.778 121.749 133.014C121.885 133.249 121.964 133.513 121.979 133.785C121.989 133.882 121.973 133.979 121.932 134.068C121.892 134.157 121.828 134.233 121.748 134.289L115.931 137.619Z" fill="#EC912A"/>
<path d="M115.931 142.432C115.805 142.507 115.666 142.556 115.521 142.576C115.376 142.596 115.228 142.588 115.087 142.55C114.945 142.513 114.812 142.449 114.696 142.36C114.579 142.271 114.482 142.16 114.409 142.033C114.335 141.906 114.288 141.766 114.269 141.621C114.251 141.476 114.261 141.329 114.3 141.187C114.338 141.046 114.404 140.914 114.494 140.799C114.585 140.683 114.697 140.587 114.824 140.515L120.641 137.185C120.73 137.145 120.828 137.13 120.925 137.14C121.021 137.15 121.114 137.185 121.193 137.241C121.42 137.39 121.609 137.589 121.745 137.824C121.881 138.059 121.959 138.322 121.974 138.593C121.985 138.691 121.97 138.79 121.929 138.879C121.888 138.969 121.824 139.046 121.744 139.102L115.931 142.432Z" fill="#EC912A"/>
<path d="M115.931 147.241C115.679 147.367 115.388 147.392 115.119 147.311C114.849 147.23 114.62 147.049 114.479 146.805C114.338 146.562 114.295 146.273 114.359 145.999C114.423 145.724 114.59 145.485 114.824 145.329L120.642 141.999C120.731 141.958 120.829 141.942 120.927 141.952C121.025 141.962 121.118 141.998 121.197 142.055C121.424 142.204 121.613 142.403 121.749 142.638C121.885 142.873 121.964 143.136 121.979 143.407C121.989 143.504 121.973 143.602 121.933 143.691C121.892 143.779 121.828 143.855 121.748 143.911L115.931 147.241Z" fill="#EC912A"/>
<path d="M114.438 151.652C114.365 151.526 114.318 151.388 114.299 151.244C114.281 151.1 114.29 150.954 114.328 150.814C114.365 150.674 114.43 150.543 114.519 150.428C114.607 150.313 114.717 150.217 114.843 150.144L120.642 146.824C120.73 146.782 120.827 146.765 120.924 146.774C121.021 146.783 121.114 146.818 121.193 146.875C121.425 147.022 121.618 147.223 121.758 147.459C121.897 147.696 121.978 147.963 121.993 148.237C122.003 148.334 121.987 148.432 121.947 148.52C121.906 148.609 121.843 148.685 121.763 148.741L115.931 152.057C115.679 152.198 115.381 152.234 115.102 152.159C114.823 152.083 114.585 151.901 114.438 151.652Z" fill="#EC912A"/>
<path d="M126.67 119.031C126.67 118.737 126.554 118.456 126.346 118.248C126.139 118.04 125.857 117.924 125.563 117.924C125.27 117.924 124.988 118.04 124.781 118.248C124.573 118.456 124.457 118.737 124.457 119.031V125.729C124.462 125.83 124.495 125.927 124.552 126.01C124.61 126.094 124.689 126.159 124.782 126.2C125.024 126.323 125.292 126.387 125.563 126.387C125.835 126.387 126.103 126.323 126.345 126.2C126.438 126.159 126.517 126.094 126.575 126.01C126.632 125.927 126.665 125.83 126.67 125.729V119.031Z" fill="#EC912A"/>
<path d="M130.84 116.634C130.84 116.341 130.723 116.059 130.515 115.852C130.308 115.644 130.026 115.527 129.733 115.527C129.439 115.527 129.158 115.644 128.95 115.852C128.742 116.059 128.626 116.341 128.626 116.634V123.337C128.632 123.438 128.665 123.535 128.722 123.618C128.78 123.701 128.859 123.767 128.951 123.808C129.193 123.931 129.461 123.996 129.733 123.996C130.004 123.996 130.272 123.931 130.515 123.808C130.607 123.767 130.686 123.701 130.743 123.618C130.8 123.535 130.834 123.438 130.84 123.337V116.634Z" fill="#EC912A"/>
<path d="M135.008 114.232C135.008 113.938 134.892 113.657 134.684 113.449C134.476 113.242 134.195 113.125 133.901 113.125C133.608 113.125 133.326 113.242 133.119 113.449C132.911 113.657 132.794 113.938 132.794 114.232V120.935C132.804 121.032 132.839 121.124 132.896 121.203C132.953 121.281 133.03 121.343 133.119 121.382C133.362 121.506 133.63 121.57 133.901 121.57C134.173 121.57 134.441 121.506 134.683 121.382C134.772 121.343 134.849 121.281 134.907 121.203C134.964 121.124 134.999 121.032 135.008 120.935V114.232Z" fill="#EC912A"/>
<path d="M138.07 110.723C137.777 110.723 137.496 110.839 137.289 111.045C137.082 111.252 136.964 111.532 136.963 111.825V118.528C136.969 118.628 137.002 118.726 137.06 118.809C137.117 118.892 137.196 118.958 137.288 118.999C137.53 119.122 137.798 119.186 138.07 119.186C138.342 119.186 138.61 119.122 138.852 118.999C138.944 118.958 139.024 118.892 139.081 118.809C139.138 118.726 139.172 118.629 139.177 118.528L139.153 111.825C139.152 111.536 139.038 111.259 138.836 111.053C138.634 110.847 138.359 110.729 138.07 110.723Z" fill="#EC912A"/>
<g opacity="0.8">
<path d="M115.931 137.619C115.806 137.691 115.667 137.738 115.523 137.757C115.38 137.776 115.234 137.766 115.094 137.729C114.954 137.691 114.822 137.626 114.708 137.538C114.593 137.449 114.496 137.339 114.424 137.214C114.351 137.088 114.305 136.95 114.286 136.806C114.267 136.662 114.277 136.516 114.314 136.376C114.352 136.236 114.417 136.105 114.505 135.99C114.593 135.875 114.703 135.779 114.829 135.706L120.641 132.376C120.73 132.335 120.829 132.317 120.926 132.327C121.024 132.336 121.118 132.371 121.197 132.428C121.424 132.578 121.613 132.778 121.749 133.014C121.885 133.249 121.964 133.513 121.979 133.785C121.989 133.882 121.973 133.979 121.932 134.068C121.892 134.157 121.828 134.233 121.748 134.289L115.931 137.619Z" fill="white"/>
<path d="M115.931 142.432C115.805 142.507 115.666 142.556 115.521 142.576C115.376 142.596 115.228 142.588 115.087 142.55C114.945 142.513 114.812 142.449 114.696 142.36C114.579 142.271 114.482 142.16 114.409 142.033C114.335 141.906 114.288 141.766 114.269 141.621C114.251 141.476 114.261 141.329 114.3 141.187C114.338 141.046 114.404 140.914 114.494 140.799C114.585 140.683 114.697 140.587 114.824 140.515L120.641 137.185C120.73 137.145 120.828 137.13 120.925 137.14C121.021 137.15 121.114 137.185 121.193 137.241C121.42 137.39 121.609 137.589 121.745 137.824C121.881 138.059 121.959 138.322 121.974 138.593C121.985 138.691 121.97 138.79 121.929 138.879C121.888 138.969 121.824 139.046 121.744 139.102L115.931 142.432Z" fill="white"/>
<path d="M115.931 147.241C115.679 147.367 115.388 147.392 115.119 147.311C114.849 147.23 114.62 147.049 114.479 146.805C114.338 146.562 114.295 146.273 114.359 145.999C114.423 145.724 114.59 145.485 114.824 145.329L120.642 141.999C120.731 141.958 120.829 141.942 120.927 141.952C121.025 141.962 121.118 141.998 121.197 142.055C121.424 142.204 121.613 142.403 121.749 142.638C121.885 142.873 121.964 143.136 121.979 143.407C121.989 143.504 121.973 143.602 121.933 143.691C121.892 143.779 121.828 143.855 121.748 143.911L115.931 147.241Z" fill="white"/>
<path d="M114.438 151.652C114.365 151.526 114.318 151.388 114.299 151.244C114.281 151.1 114.29 150.954 114.328 150.814C114.365 150.674 114.43 150.543 114.519 150.428C114.607 150.313 114.717 150.217 114.843 150.144L120.642 146.824C120.73 146.782 120.827 146.765 120.924 146.774C121.021 146.783 121.114 146.818 121.193 146.875C121.425 147.022 121.618 147.223 121.758 147.459C121.897 147.696 121.978 147.963 121.993 148.237C122.003 148.334 121.987 148.432 121.947 148.52C121.906 148.609 121.843 148.685 121.763 148.741L115.931 152.057C115.679 152.198 115.381 152.234 115.102 152.159C114.823 152.083 114.585 151.901 114.438 151.652Z" fill="white"/>
<path d="M126.67 119.031C126.67 118.737 126.554 118.456 126.346 118.248C126.139 118.04 125.857 117.924 125.563 117.924C125.27 117.924 124.988 118.04 124.781 118.248C124.573 118.456 124.457 118.737 124.457 119.031V125.729C124.462 125.83 124.495 125.927 124.552 126.01C124.61 126.094 124.689 126.159 124.782 126.2C125.024 126.323 125.292 126.387 125.563 126.387C125.835 126.387 126.103 126.323 126.345 126.2C126.438 126.159 126.517 126.094 126.575 126.01C126.632 125.927 126.665 125.83 126.67 125.729V119.031Z" fill="white"/>
<path d="M130.84 116.634C130.84 116.341 130.723 116.059 130.515 115.852C130.308 115.644 130.026 115.527 129.733 115.527C129.439 115.527 129.158 115.644 128.95 115.852C128.742 116.059 128.626 116.341 128.626 116.634V123.337C128.632 123.438 128.665 123.535 128.722 123.618C128.78 123.701 128.859 123.767 128.951 123.808C129.193 123.931 129.461 123.996 129.733 123.996C130.004 123.996 130.272 123.931 130.515 123.808C130.607 123.767 130.686 123.701 130.743 123.618C130.8 123.535 130.834 123.438 130.84 123.337V116.634Z" fill="white"/>
<path d="M135.008 114.232C135.008 113.938 134.892 113.657 134.684 113.449C134.476 113.242 134.195 113.125 133.901 113.125C133.608 113.125 133.326 113.242 133.119 113.449C132.911 113.657 132.794 113.938 132.794 114.232V120.935C132.804 121.032 132.839 121.124 132.896 121.203C132.953 121.281 133.03 121.343 133.119 121.382C133.362 121.506 133.63 121.57 133.901 121.57C134.173 121.57 134.441 121.506 134.683 121.382C134.772 121.343 134.849 121.281 134.907 121.203C134.964 121.124 134.999 121.032 135.008 120.935V114.232Z" fill="white"/>
<path d="M138.07 110.723C137.777 110.723 137.496 110.839 137.289 111.045C137.082 111.252 136.964 111.532 136.963 111.825V118.528C136.969 118.628 137.002 118.726 137.06 118.809C137.117 118.892 137.196 118.958 137.288 118.999C137.53 119.122 137.798 119.186 138.07 119.186C138.342 119.186 138.61 119.122 138.852 118.999C138.944 118.958 139.024 118.892 139.081 118.809C139.138 118.726 139.172 118.629 139.177 118.528L139.153 111.825C139.152 111.536 139.038 111.259 138.836 111.053C138.634 110.847 138.359 110.729 138.07 110.723Z" fill="white"/>
</g>
</svg>
