<svg width="325" height="227" viewBox="0 0 325 227" fill="none" xmlns="http://www.w3.org/2000/svg">
<path d="M178.729 19.4057C178.313 20.0417 178.03 20.7407 177.878 21.4649L176.726 21.572V23.8012L177.878 23.9082C178.03 24.6324 178.307 25.3314 178.729 25.9674L177.992 26.8554L179.566 28.4297L180.454 27.6929C181.09 28.1085 181.789 28.3919 182.513 28.543L182.62 29.6954H184.85L184.957 28.543C185.681 28.3919 186.38 28.1085 187.016 27.6929L187.904 28.4297L189.478 26.8554L188.741 25.9674C189.157 25.3314 189.44 24.6324 189.591 23.9082L190.744 23.8012V21.572L189.591 21.4649C189.44 20.7407 189.157 20.0417 188.741 19.4057L189.478 18.5178L187.904 16.9435L187.016 17.6803C186.38 17.2646 185.681 16.9813 184.957 16.8301L184.85 15.6777H182.62L182.513 16.8301C181.789 16.9813 181.09 17.2646 180.454 17.6803L179.566 16.9435L177.992 18.5178L178.729 19.4057ZM185.87 20.5581C187.047 21.7357 187.047 23.6438 185.87 24.8213C184.692 25.9989 182.784 25.9989 181.606 24.8213C180.429 23.6438 180.429 21.7357 181.606 20.5581C182.784 19.3805 184.692 19.3805 185.87 20.5581Z" fill="white"/>
<path d="M270.429 52.6284C270.014 53.2644 269.73 53.9634 269.579 54.6876L268.427 54.7946V57.0238L269.579 57.1309C269.73 57.8551 270.007 58.5541 270.429 59.1901L269.692 60.078L271.267 61.6523L272.155 60.9155C272.791 61.3312 273.49 61.6145 274.214 61.7657L274.321 62.9181H276.55L276.657 61.7657C277.381 61.6145 278.08 61.3312 278.716 60.9155L279.604 61.6523L281.179 60.078L280.442 59.1901C280.858 58.5541 281.141 57.8551 281.292 57.1309L282.444 57.0238V54.7946L281.292 54.6876C281.141 53.9634 280.858 53.2644 280.442 52.6284L281.179 51.7404L279.604 50.1661L278.716 50.9029C278.08 50.4873 277.381 50.2039 276.657 50.0528L276.55 48.9004H274.321L274.214 50.0528C273.49 50.2039 272.791 50.4873 272.155 50.9029L271.267 50.1661L269.692 51.7404L270.429 52.6284ZM277.57 53.7808C278.748 54.9583 278.748 56.8664 277.57 58.044C276.393 59.2216 274.485 59.2216 273.307 58.044C272.13 56.8664 272.13 54.9583 273.307 53.7808C274.485 52.6032 276.393 52.6032 277.57 53.7808Z" fill="white"/>
<path d="M39.6788 51.351C39.2632 51.987 38.9798 52.686 38.8287 53.4102L37.6763 53.5173V55.7465L38.8287 55.8535C38.9798 56.5777 39.2632 57.2767 39.6788 57.9128L38.942 58.8007L40.5163 60.375L41.4042 59.6382C42.0403 60.0538 42.7393 60.3372 43.4634 60.4883L43.5705 61.6407H45.7997L45.9068 60.4883C46.631 60.3372 47.33 60.0538 47.966 59.6382L48.8539 60.375L50.4282 58.8007L49.6914 57.9128C50.107 57.2767 50.3904 56.5777 50.5416 55.8535L51.6939 55.7465V53.5173L50.5416 53.4102C50.3904 52.686 50.107 51.987 49.6914 51.351L50.4282 50.4631L48.8539 48.8888L47.966 49.6256C47.33 49.2099 46.631 48.9266 45.9068 48.7754L45.7997 47.623H43.5705L43.4634 48.7754C42.7393 48.9266 42.0403 49.2099 41.4042 49.6256L40.5163 48.8888L38.942 50.4631L39.6788 51.351ZM46.8199 52.5034C47.9975 53.681 47.9975 55.5891 46.8199 56.7667C45.6423 57.9442 43.7342 57.9442 42.5566 56.7667C41.3791 55.5891 41.3791 53.681 42.5566 52.5034C43.7342 51.3258 45.6423 51.3258 46.8199 52.5034Z" fill="white"/>
<path d="M279.548 173.555H165.725C163.691 173.555 162.035 171.899 162.035 169.865V4.07105C162.035 2.03704 163.691 0.380859 165.725 0.380859H279.548C281.582 0.380859 283.238 2.03704 283.238 4.07105V169.865C283.238 171.899 281.582 173.555 279.548 173.555ZM165.725 0.538291C163.779 0.538291 162.192 2.1252 162.192 4.07105V169.865C162.192 171.811 163.779 173.398 165.725 173.398H279.548C281.494 173.398 283.08 171.811 283.08 169.865V4.07105C283.08 2.1252 281.494 0.538291 279.548 0.538291H165.725Z" fill="white"/>
<path d="M148.294 173.555H34.4778C32.4438 173.555 30.7876 171.899 30.7876 169.865V4.07105C30.7876 2.03704 32.4438 0.380859 34.4778 0.380859H148.294C150.328 0.380859 151.985 2.03704 151.985 4.07105V169.865C151.985 171.899 150.328 173.555 148.294 173.555ZM34.4778 0.538291C32.5319 0.538291 30.945 2.1252 30.945 4.07105V169.865C30.945 171.811 32.5319 173.398 34.4778 173.398H148.294C150.24 173.398 151.827 171.811 151.827 169.865V4.07105C151.827 2.1252 150.24 0.538291 148.294 0.538291H34.4778Z" fill="white"/>
<path d="M314.863 197.977H0V198.134H314.863V197.977Z" fill="white"/>
<path d="M42.6515 220.992H32.5381V221.15H42.6515V220.992Z" fill="white"/>
<path d="M140.983 219.285H107.274V219.443H140.983V219.285Z" fill="white"/>
<path d="M66.1083 226.842H43.2808V226.999H66.1083V226.842Z" fill="white"/>
<path d="M265.454 219.203H238.256V219.361H265.454V219.203Z" fill="white"/>
<path d="M275.052 219.203H271.065V219.361H275.052V219.203Z" fill="white"/>
<path d="M233.061 223.127H199.125V223.284H233.061V223.127Z" fill="white"/>
<path d="M264.882 155.444C264.365 156.231 264.019 157.093 263.83 157.988L262.413 158.12V160.872L263.836 161.004C264.019 161.898 264.372 162.761 264.888 163.548L263.981 164.644L265.927 166.59L267.023 165.683C267.81 166.199 268.673 166.546 269.567 166.735L269.699 168.158H272.451L272.583 166.735C273.477 166.552 274.34 166.199 275.127 165.683L276.223 166.59L278.169 164.644L277.262 163.548C277.778 162.761 278.125 161.898 278.314 161.004L279.731 160.872V158.12L278.314 157.988C278.131 157.093 277.778 156.231 277.262 155.444L278.169 154.348L276.223 152.402L275.127 153.309C274.34 152.792 273.477 152.446 272.583 152.257L272.451 150.834H269.699L269.567 152.257C268.673 152.44 267.81 152.792 267.023 153.309L265.927 152.402L263.981 154.348L264.888 155.444H264.882ZM273.698 156.86C275.152 158.315 275.152 160.67 273.698 162.125C272.243 163.58 269.888 163.58 268.433 162.125C266.979 160.67 266.979 158.315 268.433 156.86C269.888 155.406 272.243 155.406 273.698 156.86Z" fill="white"/>
<path d="M44.3956 152.63C43.98 153.266 43.6966 153.965 43.5455 154.69L42.3931 154.797V157.026L43.5455 157.133C43.6966 157.857 43.98 158.556 44.3956 159.192L43.6588 160.08L45.2331 161.654L46.121 160.918C46.7571 161.333 47.4561 161.617 48.1802 161.768L48.2873 162.92H50.5165L50.6236 161.768C51.3478 161.617 52.0468 161.333 52.6828 160.918L53.5707 161.654L55.145 160.08L54.4082 159.192C54.8238 158.556 55.1072 157.857 55.2584 157.133L56.4107 157.026V154.797L55.2584 154.69C55.1072 153.965 54.8238 153.266 54.4082 152.63L55.145 151.742L53.5707 150.168L52.6828 150.905C52.0468 150.489 51.3478 150.206 50.6236 150.055L50.5165 148.902H48.2873L48.1802 150.055C47.4561 150.206 46.7571 150.483 46.121 150.905L45.2331 150.168L43.6588 151.742L44.3956 152.63ZM51.5367 153.783C52.7143 154.96 52.7143 156.868 51.5367 158.046C50.3591 159.224 48.451 159.224 47.2734 158.046C46.0958 156.868 46.0958 154.96 47.2734 153.783C48.451 152.605 50.3591 152.605 51.5367 153.783Z" fill="white"/>
<path d="M142.96 47.5849C144.949 47.5849 146.562 45.9722 146.562 43.9829C146.562 41.9935 144.949 40.3809 142.96 40.3809C140.971 40.3809 139.358 41.9935 139.358 43.9829C139.358 45.9722 140.971 47.5849 142.96 47.5849Z" fill="white"/>
<path d="M189.717 57.8622C191.07 57.8622 192.167 56.7654 192.167 55.4125C192.167 54.0596 191.07 52.9629 189.717 52.9629C188.364 52.9629 187.268 54.0596 187.268 55.4125C187.268 56.7654 188.364 57.8622 189.717 57.8622Z" fill="white"/>
<path d="M253.332 107.686C254.685 107.686 255.782 106.59 255.782 105.237C255.782 103.884 254.685 102.787 253.332 102.787C251.979 102.787 250.882 103.884 250.882 105.237C250.882 106.59 251.979 107.686 253.332 107.686Z" fill="white"/>
<path d="M207.18 165.634C207.931 165.634 208.54 165.025 208.54 164.274C208.54 163.523 207.931 162.914 207.18 162.914C206.428 162.914 205.819 163.523 205.819 164.274C205.819 165.025 206.428 165.634 207.18 165.634Z" fill="white"/>
<path d="M169.44 39.8591C170.191 39.8591 170.8 39.2501 170.8 38.4989C170.8 37.7477 170.191 37.1387 169.44 37.1387C168.689 37.1387 168.08 37.7477 168.08 38.4989C168.08 39.2501 168.689 39.8591 169.44 39.8591Z" fill="white"/>
<path d="M259.063 140.71C259.063 141.617 258.326 142.354 257.419 142.354C256.512 142.354 255.775 141.617 255.775 140.71C255.775 139.803 256.512 139.066 257.419 139.066C258.326 139.066 259.063 139.803 259.063 140.71Z" fill="white"/>
<path d="M167.796 169.633C168.704 169.633 169.44 168.897 169.44 167.989C169.44 167.082 168.704 166.346 167.796 166.346C166.889 166.346 166.153 167.082 166.153 167.989C166.153 168.897 166.889 169.633 167.796 169.633Z" fill="white"/>
<path d="M60.9512 134.759C60.9512 135.666 60.2144 136.402 59.3076 136.402C58.4008 136.402 57.6641 135.666 57.6641 134.759C57.6641 133.852 58.4008 133.115 59.3076 133.115C60.2144 133.115 60.9512 133.852 60.9512 134.759Z" fill="white"/>
<path d="M116.896 174.639C117.804 174.639 118.54 173.903 118.54 172.995C118.54 172.087 117.804 171.352 116.896 171.352C115.988 171.352 115.252 172.087 115.252 172.995C115.252 173.903 115.988 174.639 116.896 174.639Z" fill="white"/>
<path d="M169.44 168.316L169.346 168.291L58.7344 135.281L59.0807 134.909L143.029 44.2793L257.394 140.256L256.852 140.432L169.446 168.316H169.44ZM59.8868 134.96L169.434 167.655L256.109 140.004L143.08 45.1483L59.8868 134.966V134.96Z" fill="white"/>
<path d="M167.696 168.568L167.563 168.41L95.208 85.6771L189.938 55.041L190.076 55.211L257.293 140.287L256.858 140.425L167.708 168.562L167.696 168.568ZM96.3037 85.9857L167.897 167.844L256.222 139.966L189.711 55.7778L96.31 85.9794L96.3037 85.9857Z" fill="white"/>
<path d="M115.945 173.562L115.907 173.254C111.084 132.517 101.814 55.0355 101.272 53.3919L100.838 52.6992L101.65 52.97L230.366 89.5759L167.954 168.506L115.939 173.562H115.945ZM101.959 53.7131C103.35 62.0632 114.163 153.153 116.499 172.876L167.633 167.907L229.289 89.9223L101.959 53.7131Z" fill="white"/>
<path d="M207.815 164.539L207.645 164.527L111.285 156.598L111.203 156.441C104.515 143.374 82.733 100.641 83.1927 99.3311L83.2368 99.1989L83.369 99.1422L189.862 55.0488L190.007 55.1622L253.59 105.175L253.401 105.421L207.809 164.533L207.815 164.539ZM111.688 155.994L207.526 163.884L252.721 105.288L189.774 55.773L83.8413 99.6334C84.6411 102.618 100.749 134.615 111.694 155.994H111.688Z" fill="white"/>
<path d="M183.54 175.615L183.175 175.502L85.542 145.508L169.465 37.5605L193.905 76.6035L193.893 76.7106L183.54 175.615ZM86.5999 145.174L182.998 174.79L193.263 76.7483L169.415 38.65L86.6062 145.174H86.5999Z" fill="white"/>
<path d="M160.007 176.679C159.252 177.831 158.741 179.09 158.471 180.394L156.393 180.589V184.607L158.471 184.802C158.741 186.106 159.252 187.371 160.007 188.517L158.678 190.117L161.519 192.957L163.118 191.628C164.27 192.384 165.53 192.894 166.833 193.165L167.029 195.243H171.046L171.241 193.165C172.545 192.894 173.811 192.384 174.957 191.628L176.556 192.957L179.403 190.117L178.074 188.517C178.83 187.365 179.34 186.106 179.611 184.802L181.689 184.607V180.589L179.611 180.394C179.34 179.09 178.83 177.825 178.074 176.679L179.403 175.079L176.563 172.239L174.963 173.568C173.811 172.812 172.551 172.302 171.248 172.031L171.053 169.953H167.029L166.833 172.031C165.53 172.302 164.264 172.812 163.118 173.568L161.519 172.239L158.678 175.085L160.007 176.685V176.679ZM172.898 178.757C175.026 180.885 175.026 184.33 172.898 186.452C170.769 188.58 167.325 188.58 165.202 186.452C163.08 184.323 163.074 180.879 165.202 178.757C167.331 176.628 170.775 176.628 172.898 178.757Z" fill="white"/>
<path d="M54.8317 137.405C40.2661 126.657 19.7454 129.752 8.99773 144.317C0.700209 155.562 0.685095 170.34 7.79726 181.446L5.14956 190.927L15.4907 189.807C15.6354 189.918 15.7639 190.043 15.9114 190.151C30.477 200.899 50.9977 197.804 61.7453 183.239C72.493 168.673 69.3982 148.152 54.8326 137.405H54.8317Z" fill="white"/>
<path d="M72.2805 162.821H72.2738C72.1434 162.817 72.0404 162.708 72.0442 162.578C72.3561 152.046 66.9293 141.41 58.2197 135.48C58.1119 135.406 58.0836 135.26 58.1573 135.152C58.231 135.043 58.3785 135.017 58.4853 135.09C67.3244 141.108 72.8316 151.903 72.5158 162.592C72.5121 162.721 72.4071 162.822 72.2795 162.822L72.2805 162.821Z" fill="#EC912A"/>
<path d="M71.184 172.479C71.1557 172.479 71.1264 172.474 71.099 172.463C70.977 172.416 70.9165 172.28 70.9628 172.158C71.5338 170.678 71.7975 169.058 71.7266 167.475C71.7209 167.345 71.8221 167.234 71.9516 167.228C72.0981 167.211 72.1926 167.324 72.1983 167.453C72.272 169.102 71.9979 170.787 71.4043 172.327C71.3674 172.421 71.2786 172.479 71.184 172.479Z" fill="#EC912A"/>
<path d="M33.2438 165.386C33.7958 164.449 34.6002 163.415 35.6561 162.283C36.4312 161.455 37.0002 160.758 37.3632 160.193C37.7281 159.628 37.9096 158.987 37.9096 158.269C37.9096 157.249 37.5636 156.442 36.8708 155.849C36.1779 155.255 35.2563 154.959 34.1068 154.959C33.0028 154.959 32.0225 155.229 31.1661 155.766C30.3087 156.303 29.5875 157.056 29.0005 158.021L24.7393 155.084C25.7261 153.318 27.057 151.952 28.7368 150.987C30.4146 150.021 32.4053 149.539 34.7061 149.539C37.4067 149.539 39.5723 150.216 41.2039 151.567C42.8354 152.918 43.6511 154.794 43.6511 157.195C43.6511 158.326 43.4923 159.319 43.1757 160.173C42.859 161.029 42.4714 161.753 42.0139 162.345C41.5574 162.939 40.9637 163.622 40.2359 164.395C39.3672 165.305 38.7339 166.071 38.334 166.691C37.9351 167.311 37.7347 168.063 37.7347 168.946H32.4176C32.4176 167.511 32.6927 166.326 33.2447 165.387L33.2438 165.386ZM32.6813 177.928C32.0348 177.274 31.7125 176.478 31.7125 175.539C31.7125 174.599 32.0291 173.816 32.6634 173.187C33.2977 172.558 34.1077 172.242 35.0937 172.242C36.0796 172.242 36.8897 172.558 37.5239 173.187C38.1582 173.817 38.4749 174.601 38.4749 175.539C38.4749 176.476 38.1525 177.274 37.5069 177.928C36.8604 178.582 36.0569 178.909 35.0937 178.909C34.1304 178.909 33.327 178.582 32.6823 177.928H32.6813Z" fill="#EC912A"/>
<path d="M243.186 35.5915C243.738 34.6538 244.542 33.6197 245.598 32.4882C246.373 31.6601 246.942 30.9635 247.305 30.3982C247.67 29.8329 247.851 29.192 247.851 28.4736C247.851 27.4537 247.506 26.6474 246.813 26.0538C246.12 25.4601 245.198 25.1643 244.049 25.1643C242.945 25.1643 241.964 25.4337 241.108 25.9715C240.251 26.5084 239.529 27.2609 238.942 28.226L234.681 25.2891C235.668 23.5233 236.999 22.1574 238.679 21.1923C240.357 20.2262 242.347 19.7441 244.648 19.7441C247.349 19.7441 249.514 20.4209 251.146 21.7717C252.777 23.1235 253.593 24.9989 253.593 27.3998C253.593 28.5313 253.434 29.5238 253.118 30.3784C252.801 31.2338 252.413 31.9579 251.956 32.5506C251.499 33.1442 250.906 33.8267 250.178 34.5999C249.309 35.5102 248.676 36.2758 248.276 36.8959C247.877 37.516 247.677 38.2685 247.677 39.1513H242.36C242.36 37.7164 242.635 36.5311 243.187 35.5924L243.186 35.5915ZM242.623 48.1332C241.977 47.4791 241.654 46.6832 241.654 45.7436C241.654 44.804 241.971 44.0213 242.605 43.3918C243.24 42.7632 244.05 42.4475 245.036 42.4475C246.021 42.4475 246.832 42.7632 247.466 43.3918C248.1 44.0223 248.417 44.8059 248.417 45.7436C248.417 46.6813 248.094 47.4791 247.449 48.1332C246.802 48.7874 245.999 49.1144 245.036 49.1144C244.072 49.1144 243.269 48.7874 242.624 48.1332H242.623Z" fill="#EC912A"/>
<path d="M234.895 55.5059H88.7285V175.209H234.895V55.5059Z" fill="#2A3337"/>
<path d="M230.862 60.1426H93.5342V170.571H230.862V60.1426Z" fill="white"/>
<path opacity="0.2" d="M230.862 60.1425V170.572L234.895 175.208V55.5059L230.862 60.1425Z" fill="white"/>
<path d="M211.844 82.666H181.131V110.068H211.844V82.666Z" fill="#EC912A"/>
<g opacity="0.6">
<path d="M211.844 82.666H181.131V110.068H211.844V82.666Z" fill="white"/>
</g>
<path d="M210.857 83.8789H182.218V108.853H210.857V83.8789Z" fill="#EC912A"/>
<path opacity="0.2" d="M210.858 108.853V97.7573L204.996 92.7656L198.116 100.231L190.915 96.4777C190.842 96.4394 190.752 96.453 190.693 96.5107L182.219 102.724V108.853H210.858L210.858 108.853Z" fill="#2A3337"/>
<path opacity="0.2" d="M199.772 90.4703C199.772 92.1795 198.418 93.5656 196.748 93.5656C195.078 93.5656 193.725 92.18 193.725 90.4703C193.725 88.7606 195.078 87.375 196.748 87.375C198.418 87.375 199.772 88.7606 199.772 90.4703Z" fill="#2A3337"/>
<path d="M161.533 142.768H138.445V163.366H161.533V142.768Z" fill="#EC912A"/>
<g opacity="0.6">
<path d="M161.533 142.768H138.445V163.366H161.533V142.768Z" fill="white"/>
</g>
<path d="M160.791 143.68H139.262V162.454H160.791V143.68Z" fill="#EC912A"/>
<path opacity="0.2" d="M160.792 162.453V154.112L156.385 150.359L151.214 155.972L145.8 153.15C145.745 153.121 145.678 153.131 145.633 153.175L139.263 157.846V162.453L160.792 162.453Z" fill="#2A3337"/>
<path opacity="0.2" d="M152.458 148.635C152.458 149.92 151.441 150.962 150.185 150.962C148.93 150.962 147.912 149.92 147.912 148.635C147.912 147.35 148.93 146.309 150.185 146.309C151.441 146.309 152.458 147.35 152.458 148.635Z" fill="#2A3337"/>
<path d="M136.054 103.559H105.342V130.96H136.054V103.559Z" fill="#EC912A"/>
<g opacity="0.6">
<path d="M136.054 103.559H105.342V130.96H136.054V103.559Z" fill="white"/>
</g>
<path d="M135.068 104.773H106.429V129.748H135.068V104.773Z" fill="#EC912A"/>
<path opacity="0.2" d="M135.068 129.747V118.651L129.206 113.66L122.327 121.126L115.125 117.372C115.052 117.334 114.962 117.348 114.904 117.405L106.43 123.619V129.747H135.069H135.068Z" fill="#2A3337"/>
<path opacity="0.2" d="M123.982 111.363C123.982 113.072 122.628 114.458 120.958 114.458C119.289 114.458 117.935 113.072 117.935 111.363C117.935 109.654 119.289 108.268 120.958 108.268C122.628 108.268 123.982 109.653 123.982 111.363Z" fill="#2A3337"/>
<path d="M129.395 72.6094H106.728V95.2761H129.395V72.6094Z" fill="#EC912A"/>
<path d="M125.641 79.3521H110.6C110.527 79.3521 110.469 79.2933 110.469 79.221C110.469 79.1486 110.527 79.0898 110.6 79.0898H125.641C125.713 79.0898 125.772 79.1486 125.772 79.221C125.772 79.2933 125.713 79.3521 125.641 79.3521Z" fill="#2A3337"/>
<path d="M125.641 82.0962H110.6C110.527 82.0962 110.469 82.0375 110.469 81.9651C110.469 81.8927 110.527 81.834 110.6 81.834H125.641C125.713 81.834 125.772 81.8927 125.772 81.9651C125.772 82.0375 125.713 82.0962 125.641 82.0962Z" fill="#2A3337"/>
<path d="M125.641 84.8423H110.6C110.527 84.8423 110.469 84.7836 110.469 84.7112C110.469 84.6388 110.527 84.5801 110.6 84.5801H125.641C125.713 84.5801 125.772 84.6388 125.772 84.7112C125.772 84.7836 125.713 84.8423 125.641 84.8423Z" fill="#2A3337"/>
<path d="M125.641 87.5864H110.6C110.527 87.5864 110.469 87.5277 110.469 87.4553C110.469 87.383 110.527 87.3242 110.6 87.3242H125.641C125.713 87.3242 125.772 87.383 125.772 87.4553C125.772 87.5277 125.713 87.5864 125.641 87.5864Z" fill="#2A3337"/>
<path d="M200.058 78.2363H196.488V85.695H200.058V78.2363Z" fill="#2A3337"/>
<path d="M220.422 133.469H165.354V166.151H220.422V133.469Z" fill="#EC912A"/>
<path opacity="0.7" d="M220.422 133.469H165.354V166.151H220.422V133.469Z" fill="white"/>
<path d="M173.721 151.72L173.545 151.525C173.779 151.314 180.16 145.014 180.225 144.95L180.291 144.885L186.64 148.009L192.899 140.646L192.996 140.787L199.28 149.842L205.373 145.866L205.516 146.085L199.21 150.201L192.877 141.077L186.708 148.335L180.342 145.202C179.622 145.914 173.948 151.515 173.72 151.72L173.721 151.72Z" fill="#2A3337"/>
<path d="M175.624 154.488H172.644V161.092H175.624V154.488Z" fill="#EC912A"/>
<path d="M181.76 150.123H178.78V161.09H181.76V150.123Z" fill="#EC912A"/>
<path d="M188.013 151.227H185.033V161.091H188.013V151.227Z" fill="#EC912A"/>
<path d="M194.379 145.043H191.398V161.091H194.379V145.043Z" fill="#EC912A"/>
<path d="M200.811 153.553H197.831V161.091H200.811V153.553Z" fill="#EC912A"/>
<path d="M175.735 150.875C175.735 151.759 175.019 152.476 174.134 152.476C173.25 152.476 172.533 151.759 172.533 150.875C172.533 149.99 173.25 149.273 174.134 149.273C175.019 149.273 175.735 149.99 175.735 150.875Z" fill="#EC912A"/>
<path d="M181.872 145.043C181.872 145.927 181.155 146.644 180.271 146.644C179.386 146.644 178.669 145.927 178.669 145.043C178.669 144.158 179.386 143.441 180.271 143.441C181.155 143.441 181.872 144.158 181.872 145.043Z" fill="#EC912A"/>
<path d="M188.276 147.671C188.276 148.556 187.559 149.273 186.674 149.273C185.79 149.273 185.073 148.556 185.073 147.671C185.073 146.787 185.79 146.07 186.674 146.07C187.559 146.07 188.276 146.787 188.276 147.671Z" fill="#EC912A"/>
<path d="M194.489 140.861C194.489 141.745 193.772 142.462 192.888 142.462C192.004 142.462 191.287 141.745 191.287 140.861C191.287 139.977 192.004 139.26 192.888 139.26C193.772 139.26 194.489 139.977 194.489 140.861Z" fill="#EC912A"/>
<path d="M199.245 151.622C200.129 151.622 200.846 150.905 200.846 150.021C200.846 149.137 200.129 148.42 199.245 148.42C198.361 148.42 197.644 149.137 197.644 150.021C197.644 150.905 198.361 151.622 199.245 151.622Z" fill="#EC912A"/>
<path d="M207.181 149.773H204.201V161.092H207.181V149.773Z" fill="#EC912A"/>
<path opacity="0.3" d="M181.76 150.123H178.78V161.09H181.76V150.123Z" fill="#2A3337"/>
<path opacity="0.3" d="M194.379 145.043H191.398V161.091H194.379V145.043Z" fill="#2A3337"/>
<path opacity="0.3" d="M207.181 149.773H204.201V161.092H207.181V149.773Z" fill="#2A3337"/>
<path d="M213.774 153.553H210.794V161.091H213.774V153.553Z" fill="#EC912A"/>
<path d="M212.22 149.889L205.381 146.091L205.508 145.861L212.348 149.659L212.22 149.889Z" fill="#2A3337"/>
<path d="M207.403 145.976C207.403 146.86 206.687 147.577 205.802 147.577C204.918 147.577 204.201 146.86 204.201 145.976C204.201 145.092 204.918 144.375 205.802 144.375C206.687 144.375 207.403 145.092 207.403 145.976Z" fill="#EC912A"/>
<path d="M213.885 149.773C213.885 150.657 213.168 151.374 212.284 151.374C211.4 151.374 210.683 150.657 210.683 149.773C210.683 148.889 211.4 148.172 212.284 148.172C213.168 148.172 213.885 148.889 213.885 149.773Z" fill="#EC912A"/>
<path d="M113.155 100.811H110.847V106.775H113.155V100.811Z" fill="#2A3337"/>
<path d="M133.314 127.979H131.006V133.943H133.314V127.979Z" fill="#2A3337"/>
<path d="M176.318 69.6621H139.49V119.864H176.318V69.6621Z" fill="#EC912A"/>
<path opacity="0.7" d="M176.318 69.6621H139.49V119.864H176.318V69.6621Z" fill="white"/>
<path d="M162.926 73.8032H152.138C152.066 73.8032 152.007 73.7445 152.007 73.6721C152.007 73.5998 152.066 73.541 152.138 73.541H162.926C162.998 73.541 163.057 73.5998 163.057 73.6721C163.057 73.7445 162.998 73.8032 162.926 73.8032Z" fill="#2A3337"/>
<path d="M148.912 84.9458H144.613C144.54 84.9458 144.481 84.8871 144.481 84.8147C144.481 84.7423 144.54 84.6836 144.613 84.6836H148.912C148.984 84.6836 149.043 84.7423 149.043 84.8147C149.043 84.8871 148.984 84.9458 148.912 84.9458Z" fill="#2A3337"/>
<path d="M170.287 77.6157H165.988C165.915 77.6157 165.856 77.557 165.856 77.4846C165.856 77.4123 165.915 77.3535 165.988 77.3535H170.287C170.359 77.3535 170.418 77.4123 170.418 77.4846C170.418 77.557 170.359 77.6157 170.287 77.6157Z" fill="#2A3337"/>
<path d="M170.287 78.8794H165.988C165.915 78.8794 165.856 78.8207 165.856 78.7483C165.856 78.6759 165.915 78.6172 165.988 78.6172H170.287C170.359 78.6172 170.418 78.6759 170.418 78.7483C170.418 78.8207 170.359 78.8794 170.287 78.8794Z" fill="#2A3337"/>
<path d="M149.222 77.6157H144.922C144.85 77.6157 144.791 77.557 144.791 77.4846C144.791 77.4123 144.85 77.3535 144.922 77.3535H149.222C149.294 77.3535 149.353 77.4123 149.353 77.4846C149.353 77.557 149.294 77.6157 149.222 77.6157Z" fill="#2A3337"/>
<path d="M170.617 88.0025H144.613C144.54 88.0025 144.481 87.9437 144.481 87.8713C144.481 87.799 144.54 87.7402 144.613 87.7402H170.617C170.689 87.7402 170.748 87.799 170.748 87.8713C170.748 87.9437 170.689 88.0025 170.617 88.0025Z" fill="#2A3337"/>
<path d="M170.617 90.1196H144.613C144.54 90.1196 144.481 90.0609 144.481 89.9885C144.481 89.9162 144.54 89.8574 144.613 89.8574H170.617C170.689 89.8574 170.748 89.9162 170.748 89.9885C170.748 90.0609 170.689 90.1196 170.617 90.1196Z" fill="#2A3337"/>
<path d="M170.617 92.2368H144.613C144.54 92.2368 144.481 92.1781 144.481 92.1057C144.481 92.0333 144.54 91.9746 144.613 91.9746H170.617C170.689 91.9746 170.748 92.0333 170.748 92.1057C170.748 92.1781 170.689 92.2368 170.617 92.2368Z" fill="#2A3337"/>
<path d="M170.617 94.354H144.613C144.54 94.354 144.481 94.2953 144.481 94.2229C144.481 94.1505 144.54 94.0918 144.613 94.0918H170.617C170.689 94.0918 170.748 94.1505 170.748 94.2229C170.748 94.2953 170.689 94.354 170.617 94.354Z" fill="#2A3337"/>
<path d="M170.617 96.4693H144.613C144.54 96.4693 144.481 96.4105 144.481 96.3381C144.481 96.2658 144.54 96.207 144.613 96.207H170.617C170.689 96.207 170.748 96.2658 170.748 96.3381C170.748 96.4105 170.689 96.4693 170.617 96.4693Z" fill="#2A3337"/>
<path d="M170.617 98.5864H144.613C144.54 98.5864 144.481 98.5277 144.481 98.4553C144.481 98.383 144.54 98.3242 144.613 98.3242H170.617C170.689 98.3242 170.748 98.383 170.748 98.4553C170.748 98.5277 170.689 98.5864 170.617 98.5864Z" fill="#2A3337"/>
<path d="M170.617 100.704H144.613C144.54 100.704 144.481 100.645 144.481 100.573C144.481 100.5 144.54 100.441 144.613 100.441H170.617C170.689 100.441 170.748 100.5 170.748 100.573C170.748 100.645 170.689 100.704 170.617 100.704Z" fill="#2A3337"/>
<path d="M157.532 102.821H144.613C144.54 102.821 144.481 102.762 144.481 102.69C144.481 102.617 144.54 102.559 144.613 102.559H157.532C157.605 102.559 157.663 102.617 157.663 102.69C157.663 102.762 157.605 102.821 157.532 102.821Z" fill="#2A3337"/>
<path d="M171.179 116.334H144.613C144.54 116.334 144.481 116.276 144.481 116.203C144.481 116.131 144.54 116.072 144.613 116.072H171.179C171.251 116.072 171.31 116.131 171.31 116.203C171.31 116.276 171.251 116.334 171.179 116.334Z" fill="#2A3337"/>
<path d="M169.606 110.932H163.146C163.073 110.932 163.015 110.873 163.015 110.801C163.015 110.729 163.073 110.67 163.146 110.67H169.606C169.678 110.67 169.737 110.729 169.737 110.801C169.737 110.873 169.678 110.932 169.606 110.932Z" fill="#2A3337"/>
<path d="M162.146 113.432C161.368 113.432 160.576 113.201 159.882 112.761C159.425 112.471 158.833 111.97 158.61 111.23C158.356 110.389 158.677 109.359 159.408 108.668C159.997 108.111 160.832 107.738 161.889 107.557C161.963 107.544 162.028 107.593 162.04 107.665C162.052 107.736 162.004 107.804 161.933 107.816C160.928 107.987 160.139 108.338 159.588 108.859C158.927 109.483 158.635 110.406 158.86 111.154C159.06 111.818 159.602 112.274 160.021 112.54C160.924 113.112 161.999 113.307 162.97 113.074C163.992 112.829 164.853 112.102 165.216 111.175C165.595 110.206 165.394 109.067 164.716 108.341C164.221 107.81 163.472 107.477 162.606 107.402C161.743 107.328 160.877 107.512 160.22 107.682C160.148 107.7 160.078 107.658 160.06 107.588C160.042 107.517 160.084 107.446 160.154 107.428C160.832 107.253 161.724 107.064 162.628 107.141C163.559 107.221 164.369 107.584 164.908 108.162C165.654 108.961 165.876 110.21 165.46 111.271C165.066 112.277 164.136 113.065 163.032 113.329C162.742 113.398 162.445 113.432 162.146 113.432V113.432Z" fill="#EC912A"/>
<path d="M169.015 91.6013C168.237 91.6013 167.445 91.371 166.75 90.9305C166.292 90.6405 165.701 90.1396 165.478 89.4001C165.224 88.5589 165.545 87.5294 166.276 86.8377C166.865 86.2807 167.7 85.9073 168.757 85.7269C168.832 85.7138 168.896 85.7631 168.908 85.8344C168.92 85.9057 168.872 85.9734 168.801 85.986C167.796 86.157 167.007 86.5078 166.456 87.0286C165.795 87.6532 165.503 88.5762 165.728 89.3246C165.928 89.9875 166.47 90.4438 166.889 90.7097C167.792 91.2814 168.867 91.477 169.838 91.2441C170.86 90.9992 171.721 90.2718 172.083 89.3456C172.463 88.3769 172.263 87.2373 171.585 86.511C171.09 85.9807 170.34 85.6477 169.474 85.5727C168.609 85.4977 167.745 85.6829 167.088 85.8523C167.015 85.8706 166.946 85.8281 166.928 85.7579C166.91 85.6876 166.952 85.6162 167.022 85.5979C167.7 85.4233 168.592 85.2329 169.496 85.311C170.427 85.3913 171.237 85.7537 171.777 86.3316C172.522 87.1303 172.744 88.3801 172.328 89.4411C171.935 90.4459 171.005 91.2341 169.9 91.499C169.611 91.5682 169.314 91.6018 169.015 91.6018L169.015 91.6013Z" fill="#EC912A"/>
<path d="M146.601 81.2145C145.823 81.2145 145.03 80.9843 144.336 80.5432C143.878 80.2532 143.287 79.7524 143.064 79.0129C142.81 78.1717 143.131 77.1422 143.862 76.4505C144.451 75.8935 145.286 75.5201 146.343 75.3397C146.417 75.3281 146.482 75.3759 146.494 75.4472C146.506 75.5185 146.458 75.5862 146.387 75.5987C145.381 75.7697 144.593 76.1206 144.042 76.6413C143.381 77.2665 143.088 78.189 143.314 78.9374C143.514 79.6003 144.055 80.0566 144.475 80.3225C145.379 80.8946 146.454 81.0887 147.423 80.8569C148.446 80.612 149.307 79.8845 149.67 78.9584C150.049 77.9892 149.849 76.8496 149.17 76.1237C148.675 75.5935 147.926 75.2605 147.06 75.1855C146.197 75.11 145.33 75.2956 144.673 75.4655C144.604 75.4834 144.531 75.4414 144.513 75.3711C144.495 75.3009 144.537 75.2295 144.608 75.2112C145.285 75.0365 146.181 74.8462 147.083 74.9243C148.013 75.0045 148.823 75.3669 149.362 75.9449C150.108 76.7431 150.329 77.9929 149.914 79.0543C149.52 80.0592 148.59 80.8474 147.485 81.1123C147.196 81.1815 146.9 81.2156 146.6 81.2156L146.601 81.2145Z" fill="#EC912A"/>
<path d="M145.457 69.9792L144.099 68.1133L137.554 72.8784L138.913 74.7443L145.457 69.9792Z" fill="#2A3337"/>
<path d="M180.268 118.415L178.91 116.549L172.365 121.314L173.724 123.18L180.268 118.415Z" fill="#2A3337"/>
<path d="M188.605 129.544L186.306 129.752L187.035 137.814L189.334 137.607L188.605 129.544Z" fill="#2A3337"/>
<path d="M184.484 73.3432C184.477 73.3432 184.471 73.3432 184.463 73.3417C184.392 73.3301 184.343 73.263 184.355 73.1911C184.446 72.6211 184.85 72.1092 185.383 71.8874C185.915 71.6655 186.563 71.7389 187.033 72.0762C187.174 72.1774 187.296 72.2975 187.414 72.4139C187.528 72.5251 187.634 72.63 187.754 72.7181C187.97 72.877 188.286 72.9751 188.505 72.8382C188.665 72.7385 188.742 72.5413 188.823 72.3331C188.913 72.104 189.006 71.8674 189.219 71.7164C189.623 71.4295 190.062 71.6519 190.49 71.8669C190.846 72.0463 191.182 72.2172 191.485 72.1055C191.601 72.063 191.705 71.9781 191.815 71.8884C191.965 71.7662 192.121 71.6393 192.328 71.6021C192.67 71.5402 192.944 71.7426 193.21 71.9367C193.438 72.104 193.662 72.2639 193.88 72.2314C194.041 72.2109 194.181 72.0987 194.329 71.9797C194.484 71.8554 194.644 71.7269 194.851 71.6797C195.294 71.58 195.684 71.902 195.996 72.1627L196.045 72.2026C196.325 72.4354 196.741 72.6321 196.988 72.4213C197.043 72.374 197.127 72.3809 197.173 72.4354C197.22 72.4905 197.214 72.5733 197.159 72.6205C196.788 72.9378 196.254 72.717 195.877 72.4045L195.829 72.3641C195.534 72.1176 195.234 71.8622 194.91 71.9351C194.762 71.9686 194.632 72.0735 194.494 72.1842C194.323 72.3206 194.148 72.4616 193.914 72.4915C193.583 72.534 193.313 72.3384 193.055 72.148C192.824 71.9786 192.609 71.8192 192.375 71.8601C192.234 71.8853 192.111 71.9854 191.981 72.0919C191.859 72.1915 191.733 72.2943 191.575 72.352C191.17 72.5015 190.763 72.298 190.372 72.1013C189.983 71.9047 189.646 71.7353 189.371 71.9304C189.222 72.0363 189.147 72.2272 189.068 72.4291C188.974 72.6683 188.878 72.9148 188.645 73.0611C188.3 73.2771 187.867 73.1261 187.599 72.93C187.464 72.8308 187.346 72.7139 187.231 72.6011C187.114 72.4868 187.005 72.3788 186.881 72.2896C186.483 72.0043 185.936 71.9419 185.484 72.1302C185.034 72.3179 184.692 72.7511 184.615 73.2336C184.604 73.2981 184.549 73.3438 184.485 73.3438L184.484 73.3432Z" fill="#2A3337"/>
<path d="M184.484 75.4018C184.477 75.4018 184.471 75.4018 184.463 75.4003C184.392 75.3887 184.343 75.3216 184.355 75.2498C184.446 74.6797 184.85 74.1683 185.383 73.946C185.915 73.7241 186.563 73.7981 187.033 74.1348C187.175 74.236 187.297 74.3561 187.415 74.473C187.528 74.5837 187.634 74.6886 187.754 74.7767C187.971 74.9356 188.287 75.0347 188.506 74.8968C188.665 74.7972 188.742 74.6 188.824 74.3918C188.914 74.1626 189.007 73.926 189.22 73.775C189.623 73.4881 190.064 73.7105 190.49 73.925C190.847 74.1049 191.184 74.2748 191.485 74.1641C191.602 74.1217 191.705 74.0367 191.816 73.947C191.966 73.8248 192.121 73.6979 192.329 73.6607C192.67 73.5988 192.944 73.8007 193.21 73.9953C193.439 74.1626 193.662 74.3231 193.88 74.29C194.041 74.269 194.181 74.1568 194.329 74.0383C194.484 73.914 194.645 73.7855 194.852 73.7383C195.298 73.6381 195.684 73.9601 195.996 74.2203L196.045 74.2612C196.325 74.4945 196.742 74.6928 196.988 74.4799C197.044 74.4327 197.127 74.4395 197.173 74.494C197.221 74.5491 197.214 74.632 197.16 74.6792C196.787 74.997 196.254 74.7762 195.878 74.4631L195.829 74.4222C195.534 74.1762 195.226 73.9203 194.911 73.9942C194.763 74.0283 194.632 74.1327 194.494 74.2433C194.324 74.3797 194.148 74.5208 193.915 74.5507C193.583 74.5916 193.314 74.397 193.055 74.2072C192.825 74.0378 192.609 73.8783 192.376 73.9192C192.235 73.9444 192.112 74.0446 191.982 74.151C191.86 74.2507 191.733 74.3535 191.576 74.4112C191.168 74.5617 190.764 74.3571 190.373 74.1599C189.983 73.9633 189.646 73.7939 189.372 73.989C189.223 74.0949 189.148 74.2858 189.068 74.4883C188.975 74.7269 188.878 74.9739 188.645 75.1202C188.299 75.3373 187.866 75.1852 187.6 74.9891C187.464 74.89 187.347 74.7736 187.232 74.6608C187.115 74.5465 187.006 74.4384 186.882 74.3488C186.484 74.0635 185.936 74.001 185.485 74.1893C185.034 74.3771 184.692 74.8103 184.615 75.2922C184.605 75.3567 184.549 75.4024 184.486 75.4024L184.484 75.4018Z" fill="#2A3337"/>
<path d="M203.121 79.4132C203.104 79.4132 203.087 79.4101 203.071 79.4033C203.004 79.3755 202.972 79.2989 202.999 79.2318C203.409 78.2416 203.412 77.1051 203.007 76.1139C202.602 75.1222 201.805 74.3125 200.819 73.8924C200.753 73.864 200.721 73.787 200.75 73.7204C200.778 73.6537 200.857 73.6228 200.921 73.6511C201.97 74.0985 202.818 74.9596 203.249 76.0148C203.68 77.0695 203.677 78.2783 203.242 79.3325C203.221 79.3828 203.172 79.4132 203.121 79.4132Z" fill="#2A3337"/>
<path d="M203.043 79.5058C203.034 79.5058 203.026 79.5053 203.017 79.5032C202.976 79.4948 202.942 79.468 202.925 79.4308C202.591 78.7254 202.35 77.9802 202.208 77.2155C202.196 77.1442 202.242 77.076 202.313 77.0629C202.386 77.0493 202.453 77.0965 202.466 77.1678C202.593 77.8527 202.802 78.5214 203.088 79.1581C203.531 78.7637 203.992 78.3798 204.459 78.0153C204.515 77.9702 204.598 77.9812 204.643 78.0378C204.688 78.095 204.677 78.1773 204.62 78.2219C204.111 78.6189 203.61 79.0395 203.131 79.4712C203.107 79.4932 203.076 79.5047 203.043 79.5047V79.5058Z" fill="#2A3337"/>
<path d="M160.669 118.848H143.607V135.91H160.669V118.848Z" fill="#EC912A"/>
<path d="M157.843 123.956H146.521C146.449 123.956 146.39 123.897 146.39 123.824C146.39 123.752 146.449 123.693 146.521 123.693H157.843C157.915 123.693 157.974 123.752 157.974 123.824C157.974 123.897 157.915 123.956 157.843 123.956Z" fill="#2A3337"/>
<path d="M157.843 126.022H146.521C146.449 126.022 146.39 125.963 146.39 125.891C146.39 125.819 146.449 125.76 146.521 125.76H157.843C157.915 125.76 157.974 125.819 157.974 125.891C157.974 125.963 157.915 126.022 157.843 126.022Z" fill="#2A3337"/>
<path d="M157.843 128.088H146.521C146.449 128.088 146.39 128.03 146.39 127.957C146.39 127.885 146.449 127.826 146.521 127.826H157.843C157.915 127.826 157.974 127.885 157.974 127.957C157.974 128.03 157.915 128.088 157.843 128.088Z" fill="#2A3337"/>
<path d="M157.843 130.155H146.521C146.449 130.155 146.39 130.096 146.39 130.024C146.39 129.951 146.449 129.893 146.521 129.893H157.843C157.915 129.893 157.974 129.951 157.974 130.024C157.974 130.096 157.915 130.155 157.843 130.155Z" fill="#2A3337"/>
<path d="M207.715 106.289H190.652V123.351H207.715V106.289Z" fill="#EC912A"/>
<path opacity="0.7" d="M207.715 106.289H190.652V123.351H207.715V106.289Z" fill="white"/>
<path d="M204.888 111.397H193.566C193.494 111.397 193.435 111.338 193.435 111.266C193.435 111.194 193.494 111.135 193.566 111.135H204.888C204.961 111.135 205.02 111.194 205.02 111.266C205.02 111.338 204.961 111.397 204.888 111.397Z" fill="#2A3337"/>
<path d="M204.888 113.463H193.566C193.494 113.463 193.435 113.405 193.435 113.332C193.435 113.26 193.494 113.201 193.566 113.201H204.888C204.961 113.201 205.02 113.26 205.02 113.332C205.02 113.405 204.961 113.463 204.888 113.463Z" fill="#2A3337"/>
<path d="M204.888 115.53H193.566C193.494 115.53 193.435 115.471 193.435 115.399C193.435 115.326 193.494 115.268 193.566 115.268H204.888C204.961 115.268 205.02 115.326 205.02 115.399C205.02 115.471 204.961 115.53 204.888 115.53Z" fill="#2A3337"/>
<path d="M204.888 117.596H193.566C193.494 117.596 193.435 117.537 193.435 117.465C193.435 117.393 193.494 117.334 193.566 117.334H204.888C204.961 117.334 205.02 117.393 205.02 117.465C205.02 117.537 204.961 117.596 204.888 117.596Z" fill="#2A3337"/>
<path d="M131.991 138.98H114.928V156.043H131.991V138.98Z" fill="#EC912A"/>
<path opacity="0.7" d="M131.991 138.98H114.928V156.043H131.991V138.98Z" fill="white"/>
<path d="M129.164 144.088H117.842C117.77 144.088 117.711 144.03 117.711 143.957C117.711 143.885 117.77 143.826 117.842 143.826H129.164C129.236 143.826 129.295 143.885 129.295 143.957C129.295 144.03 129.236 144.088 129.164 144.088Z" fill="#2A3337"/>
<path d="M129.164 146.155H117.842C117.77 146.155 117.711 146.096 117.711 146.024C117.711 145.951 117.77 145.893 117.842 145.893H129.164C129.236 145.893 129.295 145.951 129.295 146.024C129.295 146.096 129.236 146.155 129.164 146.155Z" fill="#2A3337"/>
<path d="M129.164 148.221H117.842C117.77 148.221 117.711 148.162 117.711 148.09C117.711 148.018 117.77 147.959 117.842 147.959H129.164C129.236 147.959 129.295 148.018 129.295 148.09C129.295 148.162 129.236 148.221 129.164 148.221Z" fill="#2A3337"/>
<path d="M129.164 150.288H117.842C117.77 150.288 117.711 150.229 117.711 150.157C117.711 150.084 117.77 150.025 117.842 150.025H129.164C129.236 150.025 129.295 150.084 129.295 150.157C129.295 150.229 129.236 150.288 129.164 150.288Z" fill="#2A3337"/>
<path d="M227.372 114.395H210.31V131.457H227.372V114.395Z" fill="#EC912A"/>
<path opacity="0.7" d="M227.372 114.395H210.31V131.457H227.372V114.395Z" fill="white"/>
<path d="M224.547 119.502H213.224C213.152 119.502 213.093 119.444 213.093 119.371C213.093 119.299 213.152 119.24 213.224 119.24H224.547C224.619 119.24 224.678 119.299 224.678 119.371C224.678 119.444 224.619 119.502 224.547 119.502Z" fill="#2A3337"/>
<path d="M224.547 121.569H213.224C213.152 121.569 213.093 121.51 213.093 121.438C213.093 121.365 213.152 121.307 213.224 121.307H224.547C224.619 121.307 224.678 121.365 224.678 121.438C224.678 121.51 224.619 121.569 224.547 121.569Z" fill="#2A3337"/>
<path d="M224.547 123.635H213.224C213.152 123.635 213.093 123.577 213.093 123.504C213.093 123.432 213.152 123.373 213.224 123.373H224.547C224.619 123.373 224.678 123.432 224.678 123.504C224.678 123.577 224.619 123.635 224.547 123.635Z" fill="#2A3337"/>
<path d="M224.547 125.702H213.224C213.152 125.702 213.093 125.643 213.093 125.571C213.093 125.498 213.152 125.439 213.224 125.439H224.547C224.619 125.439 224.678 125.498 224.678 125.571C224.678 125.643 224.619 125.702 224.547 125.702Z" fill="#2A3337"/>
<path opacity="0.3" d="M88.7285 55.5059L93.534 60.1425H230.862L234.895 55.5059H88.7285Z" fill="white"/>
<path opacity="0.3" d="M88.7285 175.209L93.534 170.572H230.862L234.895 175.209H88.7285Z" fill="white"/>
<path d="M216.873 77.6161C216.806 77.6161 216.749 77.5652 216.742 77.497L216.732 77.3916C216.603 76.0134 216.609 75.9892 217.414 74.8208L217.492 74.7064C217.722 74.3729 218.01 74.0719 218.29 73.7803C218.664 73.3901 219.017 73.0219 219.243 72.5814C219.562 71.9599 219.534 71.2042 219.166 70.5061C218.722 69.6649 217.868 69.0702 216.936 68.9532C215.986 68.8331 214.956 69.2076 214.253 69.9313C213.696 70.5056 213.435 71.2131 213.539 71.8728C213.55 71.9442 213.501 72.0113 213.429 72.0228C213.359 72.0354 213.291 71.9851 213.28 71.9138C213.164 71.1717 213.45 70.3829 214.065 69.7494C214.824 68.9684 215.935 68.5646 216.969 68.6936C217.985 68.8211 218.915 69.4693 219.398 70.3845C219.807 71.1591 219.835 72.0034 219.477 72.7015C219.233 73.1761 218.85 73.5757 218.479 73.9617C218.207 74.2455 217.926 74.5391 217.708 74.8549L217.629 74.9692C217.124 75.7034 216.912 76.5027 216.993 77.367L217.003 77.4724C217.01 77.5448 216.957 77.6082 216.885 77.615H216.873V77.6161Z" fill="#2A3337"/>
<path d="M217.125 79.4811C217.358 79.4811 217.547 79.2921 217.547 79.0589C217.547 78.8257 217.358 78.6367 217.125 78.6367C216.892 78.6367 216.703 78.8257 216.703 79.0589C216.703 79.2921 216.892 79.4811 217.125 79.4811Z" fill="#2A3337"/>
<path d="M216.81 81.1097C215.255 81.1097 213.673 80.5684 212.284 79.5332C211.379 78.8582 210.209 77.695 209.771 75.9858C209.275 74.0506 209.909 71.6759 211.347 70.0763C212.52 68.771 214.19 67.8941 216.308 67.4698C216.381 67.4541 216.449 67.5023 216.462 67.5726C216.476 67.6439 216.43 67.7131 216.359 67.7268C214.298 68.1395 212.677 68.9891 211.542 70.251C210.159 71.7881 209.55 74.0658 210.025 75.9203C210.444 77.555 211.57 78.6726 212.441 79.3224C214.296 80.7064 216.505 81.1784 218.506 80.6141C220.618 80.0188 222.399 78.2451 223.152 75.9842C223.945 73.6059 223.525 70.809 222.109 69.0243C221.084 67.7315 219.536 66.9197 217.751 66.7387C215.985 66.5604 214.219 67.003 212.877 67.4095C212.811 67.4305 212.735 67.3917 212.713 67.3219C212.692 67.2527 212.731 67.1793 212.801 67.1583C214.165 66.745 215.963 66.2935 217.777 66.4781C219.632 66.6663 221.244 67.5128 222.315 68.8617C223.783 70.713 224.22 73.609 223.4 76.0676C222.62 78.4093 220.771 80.2485 218.576 80.8669C217.999 81.0294 217.406 81.1091 216.808 81.1091L216.81 81.1097Z" fill="#EC912A"/>
<path d="M215.496 87.9528C215.45 87.9528 215.404 87.9282 215.381 87.8852C215.346 87.8217 215.369 87.742 215.432 87.7074C218.235 86.1624 221.176 84.8156 224.173 83.7037C224.239 83.678 224.316 83.7132 224.341 83.7808C224.366 83.8485 224.332 83.924 224.264 83.9492C221.279 85.0563 218.351 86.3978 215.559 87.9366C215.539 87.9476 215.517 87.9528 215.496 87.9528Z" fill="#EC912A"/>
<path d="M216.482 89.6974C216.433 89.6974 216.387 89.6707 216.364 89.624C216.332 89.559 216.358 89.4808 216.423 89.4489C219.059 88.1566 221.801 87.0144 224.572 86.0541C224.641 86.0305 224.715 86.0667 224.739 86.1349C224.763 86.2036 224.726 86.278 224.658 86.3016C221.896 87.2582 219.164 88.3963 216.539 89.6838C216.52 89.6927 216.501 89.6969 216.482 89.6969V89.6974Z" fill="#EC912A"/>
<path d="M217.422 92.1699C217.373 92.1699 217.327 92.1431 217.304 92.0965C217.272 92.0314 217.298 91.9533 217.363 91.9213C219.997 90.6296 222.739 89.4873 225.512 88.5265C225.58 88.5035 225.655 88.5391 225.679 88.6073C225.703 88.676 225.666 88.7505 225.598 88.7741C222.835 89.7312 220.103 90.8693 217.479 92.1563C217.46 92.1652 217.441 92.1694 217.422 92.1694V92.1699Z" fill="#EC912A"/>
<path opacity="0.2" d="M88.7285 55.5059L93.534 60.1425V170.572L88.7285 175.208V55.5059Z" fill="white"/>
<path d="M221.2 171.866C219.264 171.654 217.097 171.504 217.097 171.504L215.175 171.263C215.202 171.391 215.242 171.515 215.293 171.635C215.403 171.856 215.455 172.101 215.444 172.347C215.383 172.818 214.883 173.081 214.426 173.166C213.944 173.25 213.448 173.208 212.988 173.042C212.527 172.877 212.117 172.595 211.798 172.224C211.504 171.86 211.307 171.428 211.225 170.968C211.143 170.508 211.178 170.034 211.327 169.591C211.219 169.346 211.16 169.082 211.153 168.814C211.106 167 213.258 165.474 213.258 165.474L212.599 165.295C212.599 165.295 210.503 165.583 209.4 168.927C209.244 169.43 208.909 169.859 208.458 170.133C208.322 170.225 208.166 170.285 208.003 170.309C207.84 170.333 207.673 170.319 207.516 170.269C206.711 169.982 206.706 169.327 207.366 167.241C208.025 165.154 209.358 163.336 210.752 162.851C211.395 162.607 212.055 162.41 212.726 162.262C212.726 162.262 206.862 160.316 206.499 160.175C205.439 159.779 204.733 158.969 204.935 158.244C205.062 157.773 205.576 157.278 206.819 157.707C207.898 158.074 219.443 160.458 219.443 160.458L224.488 161.81L228.468 163.604L225.675 170.576L225.204 170.882C224.026 171.669 222.609 172.018 221.2 171.866Z" fill="#EC912A"/>
<path d="M223.758 162.626C223.711 163.294 223.042 163.765 222.387 163.911C221.732 164.057 221.04 163.973 220.376 164.072C218.383 164.359 216.848 166.177 214.841 166.375C214.563 166.403 214.21 166.347 214.125 166.083C214.04 165.819 214.262 165.612 214.455 165.428L219.42 160.986" fill="#EC912A"/>
<path d="M219.415 160.986C219.201 161.103 219.003 161.247 218.826 161.415C218.468 161.707 217.955 162.14 217.323 162.677L215.124 164.59C214.921 164.773 214.709 164.957 214.493 165.146C214.276 165.334 213.979 165.508 213.923 165.96C213.919 166.072 213.951 166.182 214.012 166.276C214.074 166.369 214.162 166.442 214.266 166.483C214.436 166.553 214.621 166.58 214.803 166.563C215.132 166.533 215.455 166.467 215.769 166.366C217.022 165.942 217.988 165.179 218.958 164.717C219.403 164.491 219.879 164.332 220.371 164.246C220.842 164.171 221.29 164.18 221.709 164.147C222.052 164.153 222.393 164.085 222.707 163.946C223.021 163.806 223.301 163.6 223.527 163.342C223.612 163.248 223.675 163.137 223.713 163.017C223.75 162.897 223.761 162.769 223.744 162.644C223.67 162.865 223.558 163.07 223.414 163.252C223.186 163.469 222.915 163.637 222.62 163.744C222.324 163.852 222.009 163.898 221.695 163.878C221.237 163.875 220.779 163.896 220.324 163.94C219.794 164.017 219.279 164.176 218.798 164.411C217.78 164.882 216.805 165.631 215.642 166.017C215.36 166.109 215.07 166.17 214.775 166.201C214.497 166.224 214.257 166.125 214.304 165.979C214.351 165.833 214.53 165.612 214.747 165.423L215.369 164.858L217.512 162.885C218.119 162.319 218.605 161.858 218.925 161.533C219.245 161.208 219.434 161.005 219.415 160.986Z" fill="#2A3337"/>
<path d="M213.31 165.401C212.895 165.307 212.463 165.307 212.048 165.401C211.613 165.53 211.231 165.796 210.96 166.159C210.624 166.613 210.362 167.117 210.182 167.652C209.996 168.207 209.755 168.742 209.462 169.249C209.209 169.671 208.85 170.021 208.421 170.262C208.271 170.342 208.105 170.387 207.935 170.393C207.765 170.399 207.596 170.365 207.441 170.295C207.234 170.186 207.154 170.083 207.158 170.073C207.163 170.064 207.276 170.134 207.479 170.205C207.621 170.254 207.772 170.27 207.921 170.253C208.07 170.236 208.213 170.186 208.341 170.106C208.732 169.866 209.056 169.53 209.283 169.131C209.558 168.632 209.787 168.108 209.966 167.567C210.155 167.008 210.437 166.484 210.799 166.018C211.108 165.628 211.537 165.352 212.019 165.231C212.341 165.152 212.677 165.152 212.999 165.231C213.115 165.262 213.221 165.32 213.31 165.401Z" fill="#2A3337"/>
<path d="M206.089 160.012C206.488 160.108 206.878 160.236 207.257 160.393L210.041 161.378L212.844 162.32C213.24 162.425 213.626 162.565 213.998 162.739C213.587 162.699 213.183 162.614 212.792 162.485C212.057 162.287 211.054 161.985 209.965 161.609C208.877 161.232 207.893 160.85 207.196 160.553C206.807 160.418 206.435 160.236 206.089 160.012Z" fill="#2A3337"/>
<path d="M214.167 167.162C214.095 167.268 214.011 167.366 213.918 167.454C213.798 167.567 213.705 167.704 213.643 167.856C213.581 168.008 213.553 168.171 213.56 168.335C213.576 168.44 213.619 168.54 213.686 168.622C213.754 168.705 213.842 168.769 213.941 168.806C214.189 168.907 214.448 168.976 214.714 169.009C215.051 169.053 215.36 169.221 215.581 169.48C215.688 169.624 215.759 169.792 215.789 169.97C215.818 170.148 215.805 170.33 215.75 170.502C215.691 170.673 215.597 170.83 215.474 170.964C215.352 171.097 215.204 171.205 215.039 171.279C214.739 171.425 214.403 171.478 214.073 171.43C213.554 171.329 213.054 171.149 212.589 170.897C212.269 170.741 211.977 170.531 211.727 170.276C211.633 170.183 211.563 170.068 211.525 169.941C211.548 169.941 211.619 170.05 211.798 170.21C212.062 170.426 212.354 170.606 212.665 170.747C213.123 170.964 213.608 171.123 214.106 171.218C214.394 171.261 214.689 171.209 214.944 171.068C215.2 170.928 215.402 170.707 215.519 170.441C215.566 170.303 215.579 170.157 215.56 170.013C215.54 169.869 215.488 169.732 215.406 169.611C215.218 169.406 214.962 169.274 214.686 169.239C214.403 169.194 214.127 169.112 213.866 168.994C213.739 168.942 213.629 168.857 213.546 168.747C213.463 168.638 213.411 168.509 213.395 168.373C213.392 168.185 213.433 168 213.514 167.831C213.596 167.663 213.717 167.516 213.866 167.402C213.951 167.305 214.053 167.224 214.167 167.162Z" fill="#2A3337"/>
<path d="M214.874 171.119C214.874 171.119 215.01 171.119 215.194 171.265C215.319 171.372 215.417 171.507 215.48 171.659C215.543 171.812 215.57 171.977 215.557 172.141C215.529 172.388 215.438 172.623 215.29 172.823C215.143 173.023 214.946 173.181 214.718 173.281C214.166 173.516 213.544 173.531 212.98 173.323C212.421 173.137 211.935 172.778 211.595 172.296C211.322 171.905 211.16 171.448 211.124 170.973C211.096 170.655 211.13 170.335 211.223 170.031C211.289 169.819 211.355 169.71 211.369 169.715C211.287 170.121 211.263 170.536 211.299 170.949C211.352 171.386 211.514 171.802 211.77 172.16C212.091 172.597 212.538 172.925 213.051 173.102C213.553 173.291 214.107 173.291 214.61 173.102C214.806 173.022 214.98 172.894 215.113 172.729C215.246 172.564 215.336 172.368 215.373 172.16C215.391 172.016 215.377 171.871 215.334 171.734C215.29 171.596 215.216 171.47 215.119 171.364C214.987 171.18 214.864 171.138 214.874 171.119Z" fill="#2A3337"/>
<path d="M220.183 168.443C220.194 168.243 220.265 168.051 220.385 167.891C220.659 167.46 221.066 167.129 221.544 166.949V167.166C221.308 167.053 221.073 166.921 220.809 166.77C219.96 166.296 219.261 165.593 218.793 164.74C219.438 165.417 220.155 166.022 220.931 166.544C221.172 166.69 221.403 166.822 221.638 166.935L221.888 167.058L221.624 167.147C221.181 167.31 220.793 167.596 220.508 167.972C220.296 168.254 220.216 168.457 220.183 168.443Z" fill="#2A3337"/>
<path d="M210.197 165.164C210.244 165.117 210.588 165.485 210.625 166.069C210.663 166.653 210.39 167.072 210.338 167.011C210.286 166.949 210.423 166.577 210.38 166.069C210.338 165.56 210.14 165.202 210.197 165.164Z" fill="#2A3337"/>
<path d="M272.143 154.015C272.143 154.015 259.646 175.348 255.487 177.425C251.327 179.503 236.283 176.483 232.788 175.673C228.817 174.74 223.758 173.167 223.758 173.167L225.237 161.321L228.511 161.391C228.511 161.391 247.06 163.275 248.134 162.423C249.208 161.57 256.344 147.891 256.344 147.891C256.344 147.891 260.828 138.838 262.434 136.766C264.79 133.723 266.763 133.723 266.763 133.723L272.143 154.015Z" fill="#C7C7C7"/>
<path d="M257.13 197.256C257.46 180.327 258.982 145.913 258.982 145.913L266.763 133.76C268.526 133.274 270.325 132.928 272.142 132.724C275.119 132.394 275.623 132.112 275.623 132.112L277.79 128.697L295.647 127.637L298.374 132.696C298.374 132.696 309.552 138.522 311.04 139.342C312.529 140.162 302.825 180.322 302.825 180.322L304.71 197.279L257.13 197.256Z" fill="#C7C7C7"/>
<path d="M272.665 197.255C272.731 194.288 272.886 190.75 273.094 186.831C273.301 182.912 273.64 178.602 274.083 174.09C274.526 169.577 275.1 165.319 275.703 161.409C276.306 157.5 276.984 154.052 277.677 151.155C277.842 150.434 277.997 149.742 278.148 149.087C278.299 148.432 278.482 147.829 278.619 147.259C278.916 146.115 279.175 145.13 279.434 144.339L279.98 142.497C280.037 142.304 280.079 142.144 280.117 142.026C280.135 141.973 280.146 141.917 280.15 141.861C280.121 141.91 280.098 141.962 280.084 142.017C280.037 142.139 279.985 142.295 279.914 142.488C279.768 142.931 279.561 143.538 279.302 144.311C279.043 145.083 278.751 146.082 278.435 147.222C278.275 147.792 278.101 148.404 277.922 149.049C277.743 149.695 277.597 150.392 277.422 151.112C276.702 154.009 276.038 157.49 275.373 161.372C274.709 165.253 274.191 169.549 273.725 174.09C273.259 178.63 272.981 182.921 272.783 186.845C272.585 190.769 272.462 194.311 272.425 197.283" fill="#2A3337"/>
<path d="M258.982 145.922C258.916 146.305 258.88 146.692 258.873 147.081C258.822 147.825 258.77 148.904 258.718 150.237C258.61 152.907 258.52 156.591 258.412 160.661C258.304 164.73 258.167 168.414 258.04 171.08C257.974 172.37 257.917 173.435 257.88 174.236C257.842 174.621 257.834 175.008 257.856 175.395C257.939 175.016 257.991 174.632 258.011 174.245C258.092 173.501 258.186 172.427 258.28 171.094C258.473 168.433 258.652 164.744 258.751 160.67C258.85 156.596 258.911 152.912 258.958 150.246C258.958 148.955 258.991 147.891 259.001 147.085C259.022 146.698 259.016 146.309 258.982 145.922Z" fill="#2A3337"/>
<g opacity="0.3">
<path d="M259.603 174.947C259.709 174.423 259.943 173.933 260.285 173.522C260.627 173.11 261.066 172.791 261.563 172.592C262.567 172.201 263.636 172.003 264.714 172.008C278.796 171.383 292.59 176.129 303.306 185.286L303.852 189.055C300.456 190.491 296.518 189.526 293.151 188.004C289.783 186.483 286.584 184.485 282.957 183.765C279.816 183.157 276.433 183.567 273.537 182.225C271.709 181.377 270.206 179.869 268.285 179.266C266.575 178.715 264.7 178.918 262.948 178.513C261.195 178.108 259.382 176.723 259.603 174.947Z" fill="#2A3337"/>
</g>
<path d="M311.041 139.342C312.839 140.317 314.404 141.67 315.628 143.309C316.852 144.947 317.705 146.832 318.13 148.833C319.072 153.011 321.799 164.5 321.799 164.5C321.799 164.5 324.762 178.207 324.338 180.864C323.914 183.52 323.024 189.455 317.239 190.152C311.455 190.849 291.332 183.52 291.332 183.52L285.835 181.283L287.95 171.212L297.399 173.567L306.66 174.344L305.412 165.974L303.363 160.609C303.363 160.609 303.476 154.74 305.718 149.846C307.96 144.952 311.041 139.342 311.041 139.342Z" fill="#C7C7C7"/>
<path d="M276.547 166.435L269.246 151.659C269.001 151.165 268.622 150.75 268.154 150.461C267.685 150.171 267.145 150.018 266.594 150.02H248.252C248.097 150.019 247.944 150.059 247.809 150.135C247.674 150.211 247.561 150.321 247.481 150.454C247.401 150.587 247.357 150.738 247.354 150.893C247.35 151.049 247.387 151.202 247.46 151.338L259.877 174.33C260.049 174.646 260.304 174.911 260.614 175.095C260.924 175.279 261.278 175.376 261.638 175.375H280.668L276.547 166.435Z" fill="#2A3337"/>
<path d="M247.573 151.462C247.694 151.49 247.817 151.501 247.941 151.495H248.991H252.858L265.576 151.387C266.166 151.382 266.748 151.521 267.272 151.792C267.75 152.096 268.138 152.522 268.398 153.026C268.93 154.034 269.377 155.089 269.844 156.045L272.274 161.212C272.967 162.626 273.532 163.808 273.946 164.665L274.418 165.607C274.465 165.721 274.529 165.827 274.606 165.923C274.578 165.804 274.537 165.689 274.483 165.579C274.375 165.325 274.239 165.009 274.069 164.637C273.683 163.766 273.127 162.579 272.5 161.132L270.145 155.951C269.674 154.981 269.255 153.959 268.704 152.899C268.418 152.341 267.987 151.871 267.456 151.537C266.886 151.233 266.251 151.071 265.604 151.066C260.607 151.099 256.113 151.208 252.849 151.274L248.986 151.382L247.936 151.429C247.814 151.427 247.693 151.439 247.573 151.462Z" fill="#2A3337"/>
<path d="M258.883 154.698C258.796 154.73 258.717 154.781 258.654 154.848C258.59 154.916 258.543 154.997 258.516 155.085C258.489 155.174 258.483 155.268 258.499 155.359C258.514 155.45 258.55 155.537 258.605 155.612C258.707 155.767 258.857 155.885 259.031 155.951C259.205 156.016 259.396 156.024 259.575 155.974C259.694 155.948 259.804 155.891 259.894 155.808C259.983 155.725 260.049 155.62 260.084 155.503C260.093 155.322 260.044 155.142 259.943 154.991C259.842 154.84 259.695 154.725 259.523 154.665C259.31 154.624 259.09 154.635 258.883 154.698Z" fill="white"/>
<path d="M287.762 172.121L286.495 170.831C286.495 170.831 284.639 168.151 283.881 167.317C283.122 166.483 278.558 163.549 278.558 163.549C278.558 163.549 276.363 160.609 276.043 160.609C275.722 160.609 274.629 160.798 274.921 162.168C275.193 163.525 275.597 164.852 276.127 166.13L266.391 166.342C266.087 166.344 265.788 166.412 265.514 166.543C265.239 166.673 264.997 166.862 264.804 167.096C264.549 167.416 264.441 167.774 264.898 168C265.911 168.499 270.046 169.507 270.046 169.507L268.2 169.036C268.2 169.036 267.804 170.788 268.972 171.617C269.428 171.892 269.846 172.224 270.216 172.607C270.216 172.607 270.272 174.265 270.781 174.934C271.29 175.602 276.773 178.4 276.773 178.4C276.773 178.4 280.282 179.432 282.053 179.342C283.824 179.253 285.652 180.256 285.854 180.308C286.057 180.36 287.762 172.121 287.762 172.121Z" fill="#EC912A"/>
<path d="M275.171 166.158C275.171 166.257 276.401 166.304 277.908 166.464C279.415 166.624 280.659 166.704 280.668 166.596C280.678 166.487 279.463 166.29 277.941 166.125C276.42 165.96 275.167 166.068 275.171 166.158Z" fill="#2A3337"/>
<path d="M276.471 170.445C276.504 170.341 274.728 169.861 272.496 169.606C271.379 169.47 270.371 169.366 269.646 169.286C269.253 169.213 268.853 169.183 268.454 169.196C268.815 169.376 269.207 169.488 269.608 169.526C270.334 169.667 271.342 169.809 272.434 169.945C274.676 170.2 276.448 170.525 276.471 170.445Z" fill="#2A3337"/>
<path d="M276.471 173.605C276.471 173.506 275.058 173.463 273.339 173.167C271.619 172.87 270.267 172.451 270.234 172.545C270.202 172.639 271.525 173.209 273.282 173.487C275.039 173.765 276.476 173.694 276.471 173.605Z" fill="#2A3337"/>
<path d="M275.882 177.147C275.977 177.147 276.118 176.785 276.198 176.3C276.278 175.814 276.269 175.414 276.174 175.395C276.08 175.376 275.939 175.763 275.859 176.243C275.779 176.724 275.788 177.133 275.882 177.147Z" fill="#2A3337"/>
<path d="M276.758 172.907C276.853 172.907 276.904 172.587 277.074 172.252C277.244 171.918 277.451 171.682 277.394 171.602C277.338 171.522 276.97 171.678 276.763 172.106C276.556 172.535 276.664 172.921 276.758 172.907Z" fill="#2A3337"/>
<path d="M277.87 168.665C277.964 168.665 278.063 168.472 278.181 168.241C278.299 168.01 278.398 167.812 278.332 167.742C278.266 167.671 278.021 167.798 277.861 168.09C277.701 168.382 277.776 168.656 277.87 168.665Z" fill="#2A3337"/>
<path d="M280.164 141.853C280.358 141.761 280.543 141.654 280.72 141.533L282.255 140.619C282.915 140.228 283.716 139.762 284.611 139.206C285.626 138.611 286.593 137.937 287.503 137.19L287.248 137.147C287.991 138.588 288.348 140.196 288.285 141.815V142.202L288.577 141.952C291.441 139.531 294.008 137.303 295.793 135.612C296.688 134.769 297.395 134.072 297.87 133.572C298.128 133.326 298.364 133.058 298.577 132.771C298.292 132.986 298.024 133.222 297.776 133.478L295.628 135.438C293.805 137.077 291.219 139.272 288.355 141.693L288.638 141.829C288.704 140.152 288.327 138.487 287.545 137.001L287.446 136.822L287.291 136.959C286.401 137.701 285.456 138.375 284.465 138.975L282.166 140.454C281.521 140.864 281.012 141.203 280.678 141.448C280.489 141.559 280.316 141.695 280.164 141.853Z" fill="#2A3337"/>
<path d="M275.623 132.094C275.471 132.313 275.346 132.55 275.251 132.8C275.039 133.271 274.752 133.954 274.422 134.812C274.092 135.669 273.716 136.696 273.367 137.859C273.278 138.151 273.193 138.457 273.127 138.773C273.085 138.952 273.07 139.136 273.084 139.319C273.098 139.381 273.135 139.435 273.188 139.469C273.241 139.504 273.305 139.516 273.367 139.503C273.425 139.495 273.477 139.464 273.513 139.418L273.551 139.371L273.706 139.178L274.964 137.558L276.589 135.452L276.311 135.429C277.328 137.336 278.252 138.966 278.954 140.101C279.302 140.671 279.594 141.114 279.806 141.416C279.904 141.578 280.025 141.725 280.164 141.854C280.099 141.676 280.01 141.508 279.9 141.354C279.693 140.982 279.429 140.53 279.133 139.998C278.487 138.839 277.602 137.172 276.603 135.287L276.485 135.057L276.325 135.264C275.812 135.923 275.261 136.625 274.695 137.355L273.447 138.943L273.301 139.14L273.263 139.188L273.325 139.249L273.414 139.225C273.412 139.087 273.426 138.95 273.457 138.815C273.518 138.514 273.593 138.217 273.673 137.93C274.003 136.771 274.361 135.74 274.653 134.873L275.378 132.833C275.484 132.595 275.566 132.348 275.623 132.094Z" fill="#2A3337"/>
<path d="M318.384 173.403C317.842 173.175 317.272 173.025 316.688 172.956C315.288 172.721 313.864 172.657 312.449 172.767C311.037 172.882 309.645 173.169 308.304 173.625C307.738 173.784 307.199 174.023 306.702 174.336C307.268 174.211 307.826 174.053 308.374 173.865C309.714 173.484 311.089 173.235 312.477 173.121C313.868 173.014 315.265 173.043 316.65 173.205C317.224 173.307 317.802 173.374 318.384 173.403Z" fill="#2A3337"/>
<path d="M312.543 170.902C312.543 170.822 310.937 171.039 309.218 171.981C307.498 172.923 306.453 174.138 306.519 174.19C306.585 174.242 307.71 173.182 309.382 172.282C311.055 171.382 312.571 171.006 312.543 170.902Z" fill="#2A3337"/>
<path d="M304.648 161.02C304.636 161.098 304.636 161.177 304.648 161.255C304.648 161.434 304.695 161.66 304.733 161.943C304.818 162.569 304.94 163.45 305.096 164.562L306.485 174.091C306.485 174.171 306.485 174.265 306.485 174.364L306.636 174.218L296.744 173.276L287.964 171.057L287.79 171.015L287.752 171.189C287.583 171.985 287.404 172.838 287.225 173.695C286.678 176.305 286.146 178.843 285.642 181.26L285.614 181.397L285.741 181.448C291.789 183.95 297.99 186.067 304.304 187.788C306.66 188.424 308.544 188.877 309.877 189.169L311.379 189.494L311.77 189.569C311.816 189.576 311.862 189.576 311.907 189.569L311.78 189.522L311.394 189.418L309.9 189.041C308.6 188.707 306.711 188.227 304.361 187.562C298.089 185.78 291.927 183.633 285.906 181.133L286.009 181.316C286.518 178.905 287.05 176.366 287.602 173.756C287.781 172.899 287.96 172.046 288.124 171.25L287.917 171.378L296.702 173.582H296.73L306.66 174.477H306.82V174.322C306.82 174.227 306.82 174.128 306.82 174.048C306.193 170.082 305.68 166.827 305.317 164.543C305.129 163.431 304.987 162.555 304.884 161.933L304.757 161.25C304.728 161.17 304.691 161.093 304.648 161.02Z" fill="#2A3337"/>
<path d="M303.984 151.131C304.158 150.579 304.301 150.018 304.413 149.45C305.11 146.753 306.376 144.237 308.125 142.069C308.516 141.641 308.881 141.189 309.218 140.717C308.737 141.055 308.306 141.457 307.936 141.913C306.044 144.032 304.744 146.612 304.168 149.393C304.024 149.961 303.962 150.546 303.984 151.131Z" fill="#2A3337"/>
<g opacity="0.3">
<path d="M303.65 154.543C304.446 158.848 305.016 163.705 305.704 168.029C305.543 168.231 305.633 168.877 305.468 169.079C304.667 166.865 303.612 164.194 303.16 161.891C302.708 159.588 303.028 156.813 303.65 154.543Z" fill="#2A3337"/>
</g>
<g opacity="0.3">
<path d="M286.613 140.746L280.664 141.561C283.042 140.285 285.294 138.786 287.39 137.086C288.134 138.819 288.549 139.441 288.426 141.956C291.309 139.559 294.036 136.817 296.905 134.42C293.931 138.756 290.294 142.598 286.128 145.805C286.519 144.149 286.682 142.446 286.613 140.746Z" fill="#2A3337"/>
</g>
<path d="M289.486 89.2615C289.186 88.6746 288.713 88.1942 288.13 87.8858C287.548 87.5773 286.885 87.4557 286.231 87.5375C285.471 86.9316 284.532 86.5951 283.56 86.5806C282.588 86.5661 281.639 86.8745 280.861 87.4574C280.293 87.1048 279.645 86.9009 278.978 86.8647C278.31 86.8285 277.644 86.961 277.041 87.2501C276.447 87.5501 275.94 87.9964 275.567 88.547C275.193 89.0975 274.966 89.7341 274.907 90.3967C274.242 90.279 273.556 90.3664 272.941 90.6474C272.326 90.9283 271.811 91.3896 271.464 91.9699C271.145 92.5621 271.014 93.2378 271.09 93.9064C271.166 94.5749 271.444 95.2043 271.888 95.7099C271.144 95.9136 270.503 96.3887 270.092 97.0415C269.681 97.6943 269.529 98.4775 269.667 99.2366C269.805 99.9957 270.222 100.676 270.836 101.142C271.45 101.609 272.217 101.829 272.985 101.758L288.76 92.8508C289.242 92.4038 289.571 91.8169 289.701 91.1729C289.831 90.5289 289.756 89.8604 289.486 89.2615Z" fill="#2A3337"/>
<path d="M270.974 118.857C271.049 115.461 271.784 108.494 272.519 102.173C272.918 98.89 274.536 95.8769 277.052 93.7307C279.568 91.5846 282.799 90.462 286.104 90.5854H286.787C294.149 91.2919 297.672 97.8676 296.768 105.145L294.695 128.084L280.475 140.92L277.371 131.848L277.842 127.227C277.842 127.227 270.814 125.889 270.974 118.857Z" fill="#EC912A"/>
<path d="M277.804 127.213C281.092 127.335 284.347 126.518 287.187 124.857C287.187 124.857 284.832 129.841 277.767 128.965L277.804 127.213Z" fill="#2A3337"/>
<path d="M274.587 108.795C274.575 109.058 274.668 109.315 274.844 109.511C275.02 109.706 275.266 109.825 275.529 109.841C275.657 109.856 275.787 109.846 275.911 109.811C276.035 109.776 276.151 109.716 276.251 109.635C276.352 109.554 276.435 109.454 276.496 109.341C276.558 109.227 276.595 109.102 276.608 108.974C276.618 108.711 276.525 108.455 276.349 108.259C276.173 108.064 275.928 107.945 275.666 107.928C275.537 107.909 275.406 107.917 275.28 107.951C275.155 107.985 275.038 108.044 274.937 108.126C274.835 108.207 274.752 108.309 274.692 108.424C274.632 108.539 274.596 108.665 274.587 108.795Z" fill="#2A3337"/>
<path d="M273.923 105.664C274.041 105.8 274.827 105.263 275.92 105.306C277.013 105.348 277.804 105.913 277.908 105.777C278.011 105.64 277.851 105.48 277.512 105.216C277.051 104.873 276.495 104.683 275.92 104.67C275.356 104.648 274.798 104.805 274.328 105.117C273.984 105.372 273.862 105.603 273.923 105.664Z" fill="#2A3337"/>
<path d="M284.187 109.266C284.176 109.529 284.269 109.785 284.445 109.98C284.621 110.176 284.866 110.295 285.129 110.312C285.257 110.33 285.388 110.322 285.513 110.288C285.637 110.253 285.754 110.194 285.855 110.112C285.956 110.031 286.038 109.93 286.098 109.815C286.158 109.7 286.194 109.574 286.203 109.445C286.214 109.182 286.122 108.925 285.946 108.729C285.77 108.534 285.524 108.415 285.261 108.399C285.133 108.384 285.004 108.395 284.88 108.43C284.757 108.466 284.642 108.526 284.542 108.607C284.442 108.687 284.359 108.787 284.298 108.901C284.237 109.014 284.199 109.138 284.187 109.266Z" fill="#2A3337"/>
<path d="M284.62 106.238C284.743 106.37 285.529 105.833 286.617 105.875C287.705 105.918 288.501 106.483 288.605 106.346C288.666 106.29 288.549 106.05 288.209 105.786C287.75 105.444 287.195 105.253 286.622 105.239C286.053 105.223 285.494 105.388 285.025 105.71C284.681 105.941 284.559 106.177 284.62 106.238Z" fill="#2A3337"/>
<path d="M280.386 114.108C279.818 113.909 279.228 113.782 278.629 113.732C278.351 113.694 278.092 113.628 278.049 113.44C278.038 113.154 278.113 112.871 278.266 112.629C278.549 111.97 278.847 111.279 279.161 110.557C280.409 107.603 281.318 105.178 281.2 105.126C281.083 105.074 279.971 107.429 278.723 110.383C278.426 111.108 278.134 111.796 277.861 112.465C277.677 112.792 277.614 113.174 277.682 113.543C277.718 113.642 277.777 113.732 277.854 113.805C277.931 113.877 278.024 113.931 278.125 113.962C278.277 114.012 278.436 114.039 278.596 114.043C279.187 114.14 279.789 114.162 280.386 114.108Z" fill="#2A3337"/>
<path d="M283.579 114.967C283.4 114.967 283.358 116.121 282.317 116.922C281.276 117.722 280.023 117.543 280.009 117.708C280.009 117.784 280.282 117.944 280.814 117.977C281.504 118.011 282.184 117.803 282.736 117.388C283.265 116.99 283.618 116.402 283.721 115.749C283.768 115.259 283.645 114.962 283.579 114.967Z" fill="#2A3337"/>
<path d="M284.488 101.993C284.582 102.29 285.675 102.191 286.947 102.384C288.219 102.577 289.241 102.963 289.42 102.704C289.5 102.582 289.33 102.299 288.949 102.003C288.407 101.628 287.784 101.388 287.131 101.301C286.48 101.201 285.816 101.254 285.19 101.456C284.691 101.63 284.446 101.852 284.488 101.993Z" fill="#2A3337"/>
<path d="M274.431 102.555C274.615 102.804 275.373 102.555 276.278 102.597C277.182 102.639 277.936 102.818 278.12 102.569C278.204 102.446 278.091 102.197 277.766 101.952C277.326 101.66 276.809 101.504 276.28 101.504C275.752 101.504 275.235 101.66 274.794 101.952C274.464 102.201 274.351 102.432 274.431 102.555Z" fill="#2A3337"/>
<path d="M273.315 98.9748C273.315 98.9748 275.336 94.6366 277.512 93.6851C280.15 92.5311 281.163 95.3903 283.635 94.792C286.108 94.1938 288.643 93.0822 291.097 95.0652C293.786 97.232 292.444 98.6404 292.51 101.763C292.755 114.429 294.959 118.085 295.807 112.154C295.901 111.504 297.748 111.047 298.115 108.301C298.586 104.74 298.883 100.402 298.167 97.8396C297.564 95.6776 296.386 94.1561 294.238 92.451C290.847 89.7614 286.071 89.54 282.816 89.752C279.561 89.9639 273.216 93.4543 273.315 98.9748Z" fill="#2A3337"/>
<path d="M295.402 111.946C295.421 111.687 295.492 111.435 295.612 111.204C295.731 110.974 295.896 110.77 296.096 110.605C296.296 110.44 296.528 110.317 296.777 110.244C297.026 110.171 297.287 110.149 297.545 110.179C298.864 110.349 300.305 111.121 300.126 113.849C299.801 118.649 295.011 117.334 295.011 117.198C295.011 117.061 295.251 113.976 295.402 111.946Z" fill="#EC912A"/>
<path d="M296.184 115.464C296.184 115.464 296.264 115.526 296.405 115.601C296.6 115.699 296.824 115.719 297.032 115.658C297.56 115.502 298.04 114.715 298.125 113.863C298.165 113.453 298.111 113.039 297.969 112.652C297.933 112.499 297.859 112.356 297.756 112.236C297.653 112.117 297.522 112.024 297.376 111.965C297.281 111.933 297.177 111.936 297.084 111.972C296.99 112.008 296.912 112.075 296.862 112.162C296.792 112.294 296.815 112.389 296.787 112.398C296.759 112.407 296.688 112.308 296.745 112.115C296.778 111.998 296.851 111.897 296.952 111.828C297.091 111.737 297.26 111.703 297.423 111.734C297.619 111.786 297.797 111.887 297.943 112.028C298.088 112.169 298.194 112.345 298.252 112.539C298.432 112.967 298.501 113.434 298.455 113.896C298.36 114.838 297.8 115.733 297.088 115.884C296.956 115.913 296.819 115.913 296.687 115.883C296.555 115.853 296.432 115.793 296.325 115.709C296.189 115.577 296.17 115.469 296.184 115.464Z" fill="#2A3337"/>
<path d="M295.637 102.634C295.025 103.092 294.308 103.39 293.551 103.501C292.792 103.548 291.94 103.086 291.836 102.337C291.789 102.003 291.888 101.617 291.676 101.353C291.464 101.089 290.927 101.113 290.522 101.141C289.814 101.173 289.117 100.962 288.547 100.542C287.977 100.122 287.568 99.5182 287.39 98.8327C287.013 99.3556 286.174 99.3037 285.642 98.9363C285.153 98.5158 284.725 98.0291 284.37 97.4903C284.19 97.2212 283.947 97.0003 283.663 96.8467C283.378 96.6932 283.059 96.6117 282.736 96.6094C282.391 96.7123 282.035 96.7771 281.676 96.8026C281.04 96.7225 280.734 95.9735 280.682 95.3423C280.63 94.7112 280.56 93.9811 280.032 93.6231C279.505 93.2651 278.892 93.4488 278.303 93.5147C277.715 93.5807 276.961 93.4158 276.829 92.8459C276.811 92.692 276.823 92.5361 276.866 92.3872C276.909 92.2384 276.981 92.0996 277.079 91.9792C277.496 91.4117 278.092 91.0001 278.77 90.8098C279.449 90.6195 280.171 90.6613 280.823 90.9287C281.097 90.1369 281.598 89.4431 282.263 88.9335C282.928 88.424 283.728 88.1213 284.564 88.0631C285.4 88.0048 286.234 88.1937 286.964 88.606C287.693 89.0184 288.285 89.6361 288.666 90.3823C289.202 89.9429 289.834 89.6352 290.51 89.4839C291.187 89.3325 291.889 89.3418 292.562 89.5109C293.229 89.6911 293.845 90.0271 294.357 90.4914C294.87 90.9557 295.265 91.535 295.51 92.1817C296.108 92.0558 296.73 92.1027 297.302 92.3171C297.874 92.5315 298.374 92.9044 298.742 93.3923C299.091 93.8893 299.291 94.4764 299.316 95.0837C299.341 95.6909 299.191 96.2926 298.883 96.8167C299.735 97.3395 300.451 98.2298 300.433 99.219C300.414 100.208 299.406 101.174 298.445 100.877C298.614 101.278 298.63 101.727 298.489 102.139C298.348 102.551 298.061 102.896 297.682 103.11C297.289 103.301 296.84 103.343 296.418 103.228C295.997 103.114 295.631 102.851 295.388 102.488" fill="#2A3337"/>
<path d="M298.803 100.877C298.817 101.044 298.794 101.213 298.737 101.371C298.679 101.529 298.587 101.672 298.468 101.791C298.216 102.089 297.862 102.282 297.475 102.332C297.226 102.36 296.975 102.333 296.738 102.251C296.502 102.17 296.287 102.037 296.108 101.861H296.316C296.043 102.301 295.703 102.696 295.308 103.03C295.043 103.253 294.74 103.427 294.413 103.543C294.096 103.645 293.759 103.665 293.433 103.6C293.158 103.566 292.894 103.473 292.658 103.327C292.422 103.182 292.22 102.987 292.067 102.756C291.882 102.444 291.761 102.098 291.709 101.739C291.667 101.494 291.667 101.353 291.709 101.353C291.751 101.353 291.766 101.48 291.836 101.715C291.923 102.05 292.063 102.368 292.251 102.657C292.425 102.869 292.641 103.042 292.885 103.166C293.129 103.29 293.396 103.362 293.669 103.378C293.942 103.394 294.216 103.353 294.473 103.258C294.73 103.163 294.964 103.017 295.162 102.827C295.529 102.514 295.846 102.147 296.104 101.739L296.193 101.598L296.311 101.715C296.464 101.861 296.646 101.973 296.844 102.043C297.043 102.114 297.255 102.142 297.465 102.125C297.805 102.092 298.121 101.94 298.36 101.697C298.562 101.456 298.712 101.177 298.803 100.877Z" fill="#2A3337"/>
<path d="M285.209 115.724C285.129 115.724 285.115 115.215 284.738 114.782C284.361 114.348 283.848 114.259 283.857 114.179C283.866 114.099 283.994 114.108 284.215 114.155C284.498 114.224 284.753 114.379 284.945 114.598C285.141 114.813 285.263 115.086 285.294 115.375C285.294 115.597 285.242 115.728 285.209 115.724Z" fill="#2A3337"/>
<path d="M285.685 114.41C285.614 114.448 285.444 114.278 285.19 114.151C284.936 114.024 284.719 113.991 284.691 113.911C284.662 113.831 284.983 113.737 285.317 113.911C285.652 114.085 285.751 114.382 285.685 114.41Z" fill="#2A3337"/>
<path d="M276.815 87.3777C276.815 87.3306 276.292 87.6414 275.901 88.4375C275.661 88.8989 275.514 89.4031 275.468 89.9212C275.401 90.5757 275.579 91.2317 275.967 91.763C276.368 92.2693 276.887 92.6689 277.479 92.9265C277.936 93.1398 278.409 93.3192 278.892 93.4634C279.33 93.6291 279.785 93.746 280.249 93.812C279.853 93.5629 279.425 93.3695 278.977 93.2373C278.51 93.0642 278.052 92.8661 277.606 92.6438C277.071 92.3942 276.601 92.0252 276.231 91.5652C275.888 91.0955 275.721 90.5203 275.76 89.9401C275.79 89.4529 275.905 88.9748 276.099 88.527C276.29 88.1162 276.53 87.7302 276.815 87.3777Z" fill="white"/>
<path d="M273.739 90.5333C273.701 90.5333 273.668 90.8394 273.8 91.3058C273.985 91.9173 274.331 92.4675 274.804 92.8979C275.275 93.3314 275.854 93.6307 276.48 93.7646C276.951 93.8541 277.262 93.8022 277.262 93.7646C277.262 93.7269 276.975 93.6751 276.542 93.529C275.985 93.3423 275.473 93.0408 275.04 92.6441C274.607 92.2473 274.261 91.7641 274.026 91.2257C273.852 90.8112 273.796 90.5286 273.739 90.5333Z" fill="white"/>
</svg>
