<svg width="1441" height="764" viewBox="0 0 1441 764" fill="none" xmlns="http://www.w3.org/2000/svg">
<rect x="0.00146484" y="0.544922" width="1438.75" height="763.4" fill="#FDF4EA"/>
<path d="M2.52518 505.733C4.11648 506.443 5.76265 506.443 7.4637 506.443C9.32936 506.443 11.1401 506.443 13.0058 506.443C484.689 506.443 956.372 506.443 1428.05 506.443C1430.25 506.443 1432.44 506.388 1434.58 506.497C1438.26 506.661 1439.03 507.37 1439.14 510.972C1439.3 514.791 1439.19 518.666 1439.19 522.485C1437.71 524.395 1435.63 524.777 1433.38 524.886C1430.36 524.996 1427.34 524.996 1424.32 524.996C955.055 524.996 485.731 524.996 16.4628 524.941C11.9632 524.941 7.35395 525.65 3.01903 523.741C2.47031 523.359 1.92159 522.977 1.42773 522.485C1.42773 516.81 1.42773 511.135 1.42773 505.46C1.97646 505.133 2.30569 505.188 2.52518 505.733Z" fill="#FDF4EA"/>
<path d="M2.525 482.649C4.1163 483.359 5.76247 483.359 7.46351 483.359C9.32917 483.359 11.14 483.359 13.0056 483.359C484.689 483.359 956.371 483.359 1428.05 483.359C1430.25 483.359 1432.44 483.304 1434.58 483.413C1438.26 483.577 1439.03 484.286 1439.19 487.888C1439.36 491.38 1439.25 494.927 1439.25 498.419C1437.77 500.329 1435.68 500.711 1433.43 500.82C1430.41 500.93 1427.4 500.93 1424.38 500.93C955.109 500.93 485.786 500.93 16.5175 500.875C12.0179 500.875 7.40864 501.584 3.07372 499.675C2.525 499.293 1.97627 498.911 1.48242 498.419C1.48242 493.072 1.48242 487.724 1.48242 482.377C1.97627 482.049 2.30551 482.158 2.525 482.649Z" fill="#FDF4EA"/>
<path d="M2.525 459.622C4.1163 460.331 5.76247 460.331 7.46351 460.331C9.32917 460.331 11.14 460.331 13.0056 460.331C484.689 460.331 956.371 460.331 1428.05 460.331C1430.25 460.331 1432.44 460.277 1434.58 460.386C1438.26 460.55 1439.03 461.259 1439.19 464.86C1439.36 468.025 1439.25 471.19 1439.25 474.355C1437.77 476.265 1435.68 476.647 1433.43 476.756C1430.41 476.865 1427.4 476.865 1424.38 476.865C955.109 476.865 485.786 476.865 16.5175 476.811C12.0179 476.811 7.40864 477.52 3.07372 475.61C2.525 475.228 1.97627 474.846 1.48242 474.355C1.48242 469.335 1.48242 464.315 1.48242 459.295C1.97627 459.022 2.30551 459.131 2.525 459.622Z" fill="#FDF4EA"/>
<path d="M2.525 436.54C4.1163 437.249 5.76247 437.249 7.46351 437.249C9.32917 437.249 11.14 437.249 13.0056 437.249C484.689 437.249 956.371 437.249 1428.05 437.249C1430.25 437.249 1432.44 437.195 1434.58 437.304C1438.32 437.467 1438.97 438.122 1439.19 441.778C1439.3 444.616 1439.25 447.453 1439.25 450.291C1437.77 452.201 1435.68 452.583 1433.43 452.692C1430.41 452.801 1427.4 452.801 1424.38 452.801C955.109 452.801 485.786 452.801 16.5175 452.746C12.0179 452.746 7.40864 453.456 3.07372 451.546C2.525 451.164 1.97627 450.782 1.48242 450.291C1.48242 445.598 1.48242 440.96 1.48242 436.267C1.97627 435.994 2.30551 436.049 2.525 436.54Z" fill="#FDF4EA"/>
<path d="M2.525 413.513C4.1163 414.222 5.76247 414.222 7.46351 414.222C9.32917 414.222 11.14 414.222 13.0056 414.222C484.853 414.222 956.701 414.222 1428.55 414.222C1430.74 414.222 1432.94 414.113 1435.08 414.277C1438.21 414.495 1438.92 415.15 1439.14 418.205C1439.3 420.879 1439.19 423.553 1439.25 426.227C1437.77 428.137 1435.68 428.519 1433.43 428.628C1430.41 428.737 1427.4 428.737 1424.38 428.737C955.109 428.737 485.786 428.737 16.5175 428.682C12.0179 428.682 7.40864 429.392 3.07372 427.482C2.525 427.1 1.97627 426.718 1.48242 426.227C1.48242 421.861 1.48242 417.551 1.48242 413.185C1.97627 412.912 2.30551 413.022 2.525 413.513Z" fill="#FDF4EA"/>
<path d="M2.52518 390.43C4.11648 391.14 5.76265 391.14 7.4637 391.14C9.32936 391.14 11.1401 391.14 13.0058 391.14C484.853 391.14 956.701 391.14 1428.55 391.14C1430.74 391.14 1432.94 391.031 1435.08 391.194C1438.21 391.413 1438.92 392.067 1439.14 395.123C1439.3 397.47 1439.19 399.816 1439.19 402.162C1437.71 404.072 1435.63 404.454 1433.38 404.563C1430.36 404.672 1427.34 404.672 1424.32 404.672C955.055 404.672 485.731 404.672 16.4628 404.618C11.9632 404.618 7.35395 405.327 3.01903 403.417C2.47031 403.035 1.92159 402.653 1.42773 402.162C1.42773 398.179 1.42773 394.141 1.42773 390.157C1.97646 389.885 2.30569 389.939 2.52518 390.43Z" fill="#FDF4EA"/>
<path d="M2.52518 367.404C4.11648 368.113 5.76265 368.113 7.4637 368.113C9.32936 368.113 11.1401 368.113 13.0058 368.113C484.853 368.113 956.701 368.113 1428.55 368.113C1430.74 368.113 1432.94 368.004 1435.08 368.168C1438.21 368.386 1438.92 369.041 1439.14 372.096C1439.3 374.115 1439.19 376.08 1439.19 378.099C1437.71 380.009 1435.63 380.391 1433.38 380.5C1430.36 380.609 1427.34 380.609 1424.32 380.609C955.055 380.609 485.731 380.609 16.4628 380.554C11.9632 380.554 7.35395 381.264 3.01903 379.354C2.47031 378.972 1.92159 378.59 1.42773 378.099C1.42773 374.443 1.42773 370.732 1.42773 367.076C1.97646 366.803 2.30569 366.858 2.52518 367.404Z" fill="#FDF4EA"/>
<path d="M2.525 344.321C4.1163 345.031 5.76247 345.031 7.46351 345.031C9.32917 345.031 11.14 345.031 13.0056 345.031C484.853 345.031 956.701 345.031 1428.6 345.031C1430.8 345.031 1432.99 344.921 1435.13 345.085C1438.26 345.303 1438.92 345.958 1439.19 349.014C1439.3 350.651 1439.25 352.343 1439.25 354.034C1437.77 355.944 1435.68 356.326 1433.43 356.435C1430.41 356.544 1427.4 356.544 1424.38 356.544C955.109 356.544 485.786 356.544 16.5175 356.49C12.0179 356.49 7.40864 357.199 3.07372 355.289C2.525 354.907 1.97627 354.525 1.48242 354.034C1.48242 350.706 1.48242 347.377 1.48242 343.994C1.97627 343.721 2.30551 343.83 2.525 344.321Z" fill="#FDF4EA"/>
<path d="M2.525 321.294C4.1163 322.003 5.76247 322.003 7.46351 322.003C9.32917 322.003 11.14 322.003 13.0056 322.003C484.689 322.003 956.371 322.003 1428.05 322.003C1430.25 322.003 1432.44 321.949 1434.58 322.058C1438.32 322.222 1438.92 322.876 1439.19 326.532C1439.25 327.678 1439.25 328.879 1439.25 330.025C1437.77 331.935 1435.68 332.317 1433.43 332.426C1430.41 332.535 1427.4 332.535 1424.38 332.535C955.109 332.535 485.786 332.535 16.5175 332.48C12.0179 332.48 7.40864 333.19 3.07372 331.28C2.525 330.898 1.97627 330.516 1.48242 330.025C1.48242 327.024 1.48242 324.022 1.48242 321.021C1.97627 320.694 2.30551 320.803 2.525 321.294Z" fill="#FDF4EA"/>
<path d="M2.525 298.212C4.1163 298.921 5.76247 298.921 7.46351 298.921C9.32917 298.921 11.14 298.921 13.0056 298.921C484.689 298.921 956.426 298.921 1428.11 298.921C1430.14 298.921 1432.17 298.867 1434.15 298.921C1438.48 299.085 1438.92 299.521 1439.25 303.887C1439.3 304.542 1439.25 305.196 1439.25 305.906C1437.77 307.816 1435.68 308.198 1433.43 308.307C1430.41 308.416 1427.4 308.416 1424.38 308.416C955.109 308.416 485.786 308.416 16.5175 308.361C12.0179 308.361 7.40864 309.071 3.07372 307.161C2.525 306.779 1.97627 306.397 1.48242 305.906C1.48242 303.232 1.48242 300.558 1.48242 297.884C1.97627 297.612 2.30551 297.721 2.525 298.212Z" fill="#FDF4EA"/>
<path d="M2.525 275.184C4.1163 275.894 5.76247 275.894 7.46351 275.894C9.32917 275.894 11.14 275.894 13.0056 275.894C484.524 275.894 956.097 275.894 1427.62 275.894C1429.48 275.894 1431.29 275.894 1433.16 275.894C1438.75 276.003 1438.92 276.167 1439.25 281.896C1437.77 283.806 1435.68 284.188 1433.43 284.297C1430.41 284.406 1427.4 284.406 1424.38 284.406C955.109 284.406 485.786 284.406 16.5175 284.352C12.0179 284.352 7.40864 285.061 3.07372 283.151C2.525 282.769 1.97627 282.387 1.48242 281.896C1.48242 279.55 1.48242 277.204 1.48242 274.857C1.97627 274.584 2.30551 274.693 2.525 275.184Z" fill="#FDF4EA"/>
<path d="M2.525 252.102C4.1163 252.812 5.76247 252.812 7.46351 252.812C9.32917 252.812 11.14 252.812 13.0056 252.812C484.689 252.812 956.426 252.812 1428.11 252.812C1430.14 252.812 1432.17 252.757 1434.15 252.812C1438.43 252.976 1438.59 253.139 1439.25 257.777C1437.77 259.687 1435.68 260.069 1433.43 260.178C1430.41 260.288 1427.4 260.288 1424.38 260.288C955.109 260.288 485.786 260.288 16.5175 260.233C12.0179 260.233 7.40864 260.942 3.07372 259.033C2.525 258.651 1.97627 258.269 1.48242 257.777C1.48242 255.758 1.48242 253.794 1.48242 251.775C1.97627 251.502 2.30551 251.611 2.525 252.102Z" fill="#FDF4EA"/>
<path d="M2.525 229.075C4.1163 229.785 5.76247 229.785 7.46351 229.785C9.32917 229.785 11.14 229.785 13.0056 229.785C484.908 229.785 956.756 229.785 1428.66 229.785C1430.85 229.785 1433.05 229.839 1435.19 229.839C1437.88 229.839 1439.25 231.094 1439.25 233.823C1437.77 235.732 1435.68 236.114 1433.43 236.224C1430.41 236.333 1427.4 236.333 1424.38 236.333C955.109 236.333 485.786 236.333 16.5175 236.278C12.0179 236.278 7.40864 236.988 3.07372 235.078C2.525 234.696 1.97627 234.314 1.48242 233.823C1.48242 232.131 1.48242 230.494 1.48242 228.802C1.97627 228.475 2.30551 228.584 2.525 229.075Z" fill="#FDF4EA"/>
<path d="M2.525 205.992C4.1163 206.702 5.76247 206.702 7.46351 206.702C9.32917 206.702 11.14 206.702 13.0056 206.702C485.073 206.702 957.14 206.702 1429.26 206.702C1431.46 206.702 1433.65 206.702 1435.79 206.756C1437.71 206.811 1438.97 207.684 1439.25 209.648C1437.77 211.558 1435.68 211.94 1433.43 212.049C1430.41 212.159 1427.4 212.159 1424.38 212.159C955.109 212.159 485.786 212.159 16.5175 212.104C12.0179 212.104 7.40864 212.813 3.07372 210.903C2.525 210.521 1.97627 210.14 1.48242 209.648C1.48242 208.339 1.48242 206.975 1.48242 205.665C1.97627 205.447 2.30551 205.501 2.525 205.992Z" fill="#FDF4EA"/>
<path d="M2.525 182.964C4.1163 183.673 5.76247 183.673 7.46351 183.673C9.32917 183.673 11.14 183.673 13.0056 183.673C484.963 183.673 956.92 183.673 1428.88 183.673C1430.91 183.673 1432.88 183.673 1434.91 183.673C1436.67 183.673 1438.32 183.891 1439.25 185.638C1437.77 187.547 1435.68 187.929 1433.43 188.039C1430.41 188.148 1427.4 188.148 1424.38 188.148C955.109 188.148 485.786 188.148 16.5175 188.093C12.0179 188.093 7.40864 188.803 3.07372 186.893C2.525 186.511 1.97627 186.129 1.48242 185.638C1.48242 184.655 1.48242 183.619 1.48242 182.636C1.97627 182.364 2.30551 182.473 2.525 182.964Z" fill="#FDF4EA"/>
<path d="M2.52628 159.937C4.11758 160.646 5.76375 160.646 7.46479 160.646C9.33045 160.646 11.1412 160.646 13.0069 160.646C485.293 160.646 957.58 160.646 1429.87 160.646C1432.99 160.646 1436.29 159.992 1439.3 161.574C1437.82 163.484 1435.74 163.866 1433.49 163.975C1430.47 164.084 1427.45 164.084 1424.43 164.084C955.165 164.084 485.842 164.084 16.5736 164.03C12.0741 164.03 7.46479 164.739 3.12987 162.829C2.58115 162.447 2.03243 162.065 1.53857 161.574C1.53857 160.919 1.53857 160.264 1.53857 159.555C1.97755 159.337 2.30679 159.391 2.52628 159.937Z" fill="#FDF4EA"/>
<path d="M2.525 159.937C2.19576 159.828 1.81166 159.774 1.48242 159.664C1.48242 152.298 1.48242 144.986 1.48242 137.619C1.86653 137.674 2.30551 137.728 2.68961 137.783C6.03683 142.639 5.92708 154.972 2.57987 159.392C2.63474 159.555 2.63474 159.719 2.525 159.937Z" fill="#979797"/>
<path d="M1.48242 161.629C1.86653 161.683 2.25064 161.738 2.68961 161.793C6.03683 166.595 5.92708 177.999 2.57987 182.419C2.63474 182.583 2.63474 182.801 2.525 182.965C2.19576 182.856 1.86653 182.801 1.48242 182.692C1.48242 175.653 1.48242 168.668 1.48242 161.629Z" fill="#979797"/>
<path d="M1.48242 185.693C1.86653 185.748 2.25064 185.803 2.68961 185.857C5.98196 190.604 5.92708 201.081 2.57987 205.447C2.63474 205.611 2.63474 205.829 2.525 205.992C2.19576 205.883 1.86653 205.829 1.48242 205.72C1.48242 199.062 1.48242 192.405 1.48242 185.693Z" fill="#979797"/>
<path d="M1.48242 209.758C1.86653 209.812 2.25064 209.867 2.68961 209.922C5.98196 214.669 5.92708 224.164 2.57987 228.529C2.63474 228.693 2.63474 228.911 2.525 229.075C2.19576 228.966 1.86653 228.911 1.48242 228.802C1.48242 222.472 1.48242 216.088 1.48242 209.758Z" fill="#979797"/>
<path d="M1.48242 233.822C1.86653 233.877 2.25064 233.931 2.68961 233.986C5.92708 238.679 5.87221 247.3 2.57987 251.611C2.63474 251.775 2.63474 251.993 2.525 252.157C2.19576 252.048 1.86653 251.993 1.48242 251.884C1.48242 245.827 1.48242 239.825 1.48242 233.822Z" fill="#979797"/>
<path d="M1.48242 257.887C1.86653 257.941 2.25064 257.996 2.68961 258.05C5.92708 262.689 5.87221 270.383 2.57987 274.639C2.63474 274.803 2.63474 275.021 2.525 275.185C2.19576 275.075 1.86653 275.021 1.48242 274.912C1.48242 269.237 1.48242 263.562 1.48242 257.887Z" fill="#979797"/>
<path d="M1.48242 281.896C1.86653 281.951 2.25064 282.006 2.68961 282.06C5.87221 286.644 5.81734 293.41 2.57987 297.666C2.63474 297.83 2.63474 298.048 2.525 298.212C2.19576 298.103 1.86653 298.048 1.48242 297.939C1.48242 292.592 1.48242 287.244 1.48242 281.896Z" fill="#979797"/>
<path d="M1.48242 305.959C1.86653 306.014 2.25064 306.068 2.68961 306.123C5.87221 310.652 5.81734 316.491 2.57987 320.747C2.63474 320.91 2.63474 321.129 2.525 321.292C2.19576 321.183 1.86653 321.129 1.48242 321.02C1.48242 315.999 1.48242 310.979 1.48242 305.959Z" fill="#979797"/>
<path d="M1.48242 330.025C1.86653 330.08 2.25064 330.135 2.68961 330.189C5.81734 334.664 5.76247 339.629 2.57987 343.776C2.63474 343.94 2.63474 344.158 2.525 344.322C2.19576 344.213 1.86653 344.158 1.48242 344.049C1.48242 339.411 1.48242 334.718 1.48242 330.025Z" fill="#979797"/>
<path d="M1.48242 354.09C1.86653 354.144 2.25064 354.199 2.68961 354.254C5.70759 358.564 5.65272 362.821 2.57987 366.859C2.63474 367.022 2.63474 367.241 2.525 367.404C2.19576 367.295 1.86653 367.241 1.48242 367.131C1.48242 362.766 1.48242 358.455 1.48242 354.09Z" fill="#979797"/>
<path d="M1.48242 378.152C1.86653 378.207 2.25064 378.261 2.68961 378.316C5.65272 382.572 5.59785 385.956 2.57987 389.884C2.63474 390.048 2.63474 390.266 2.525 390.43C2.19576 390.321 1.86653 390.266 1.48242 390.157C1.48242 386.174 1.48242 382.136 1.48242 378.152Z" fill="#979797"/>
<path d="M1.48242 402.217C1.86653 402.271 2.25064 402.326 2.68961 402.381C5.54298 406.528 5.4881 409.092 2.57987 412.967C2.63474 413.13 2.63474 413.349 2.525 413.512C2.19576 413.403 1.86653 413.349 1.48242 413.239C1.48242 409.529 1.48242 405.873 1.48242 402.217Z" fill="#979797"/>
<path d="M1.48242 426.227C1.86653 426.281 2.25064 426.336 2.68961 426.39C5.4881 429.61 5.65272 432.829 2.57987 435.994C2.63474 436.158 2.63474 436.376 2.525 436.54C2.19576 436.431 1.86653 436.376 1.48242 436.267C1.48242 432.938 1.48242 429.61 1.48242 426.227Z" fill="#979797"/>
<path d="M1.48242 450.291C1.86653 450.346 2.25064 450.4 2.68961 450.455C5.32349 453.347 5.4881 456.239 2.57987 459.022C2.63474 459.186 2.63474 459.404 2.525 459.567C2.19576 459.458 1.86653 459.404 1.48242 459.295C1.48242 456.348 1.48242 453.292 1.48242 450.291Z" fill="#979797"/>
<path d="M1.48242 474.355C1.86653 474.41 2.25064 474.465 2.68961 474.519C5.21374 477.084 5.37836 479.594 2.57987 482.104C2.63474 482.268 2.63474 482.486 2.525 482.65C2.19576 482.541 1.86653 482.486 1.48242 482.377C1.48242 479.703 1.48242 477.029 1.48242 474.355Z" fill="#979797"/>
<path d="M1.48242 498.42C1.86653 498.474 2.25064 498.529 2.68961 498.584C5.04913 500.821 5.104 503.004 2.57987 505.186C2.63474 505.35 2.63474 505.568 2.525 505.732C2.19576 505.623 1.86653 505.568 1.48242 505.459C1.48242 503.113 1.48242 500.766 1.48242 498.42Z" fill="#979797"/>
<path d="M1.48242 522.484C1.86653 522.539 2.25063 522.594 2.68961 522.648C4.5004 524.558 4.55527 526.413 2.57987 528.214C2.63474 528.378 2.63474 528.596 2.525 528.76C2.19576 528.651 1.86653 528.596 1.48242 528.487C1.48242 526.468 1.48242 524.503 1.48242 522.484Z" fill="#979797"/>
<path d="M1439.25 546.494C1439.36 547.476 1439.47 548.459 1439.52 549.495C1439.63 550.969 1438.81 551.569 1437.38 551.569C1436.23 551.514 1435.02 551.569 1433.87 551.569C958.457 551.569 482.988 551.569 7.57379 551.569C5.87274 551.569 4.22657 551.569 2.52553 551.514C2.25117 546.603 2.25117 546.603 6.64096 546.549C8.17738 546.549 9.65894 546.549 11.1954 546.549C485.073 546.549 958.896 546.549 1432.77 546.549C1434.91 546.549 1437.11 546.494 1439.25 546.494Z" fill="black"/>
<path d="M1439.25 570.559C1439.36 574.487 1439.36 574.487 1435.85 574.597C1434.69 574.651 1433.49 574.597 1432.33 574.597C958.073 574.597 483.811 574.597 9.54924 574.597C7.18973 574.597 4.83022 574.597 2.4707 574.542C2.4707 570.722 2.4707 570.722 5.54356 570.613C7.2446 570.559 8.89077 570.613 10.5918 570.613C484.634 570.613 958.677 570.613 1432.66 570.613C1434.91 570.613 1437.11 570.559 1439.25 570.559Z" fill="black"/>
<path d="M1439.25 594.623C1439.63 596.26 1439.69 597.679 1437.38 597.624C1436.23 597.624 1435.02 597.624 1433.87 597.624C958.457 597.624 482.988 597.624 7.57369 597.624C5.87264 597.624 4.22647 597.624 2.52543 597.57C2.30594 596.205 2.03158 594.787 4.06186 594.678C5.92752 594.568 7.7383 594.623 9.60396 594.623C483.976 594.623 958.347 594.623 1432.72 594.623C1434.91 594.623 1437.11 594.623 1439.25 594.623Z" fill="black"/>
<path d="M1439.25 618.688C1439.36 619.561 1439.41 620.488 1438.26 620.597C1436.78 620.761 1435.24 620.706 1433.76 620.706C958.347 620.706 482.933 620.706 7.51864 620.706C5.8176 620.706 4.17143 620.652 2.47039 620.652C2.30577 619.397 2.85449 618.797 4.11656 618.742C5.98222 618.687 7.79301 618.688 9.65867 618.688C483.975 618.688 958.347 618.688 1432.66 618.688C1434.91 618.688 1437.11 618.688 1439.25 618.688Z" fill="black"/>
<path d="M1439.25 642.752C1439.03 643.516 1438.48 643.734 1437.77 643.734C1436.07 643.734 1434.42 643.789 1432.72 643.789C958.347 643.789 483.976 643.789 9.54924 643.789C7.18973 643.789 4.83022 643.734 2.4707 643.734C2.90968 642.806 3.78764 642.807 4.61073 642.807C6.47639 642.807 8.28717 642.807 10.1528 642.807C484.305 642.807 958.512 642.807 1432.66 642.807C1434.91 642.752 1437.11 642.752 1439.25 642.752Z" fill="black"/>
<path d="M2.57959 159.391C2.63446 152.188 2.68933 144.986 2.68933 137.783C4.71961 137.728 6.69502 137.619 8.7253 137.619C483.426 137.619 958.072 137.619 1432.77 137.619C1440.24 137.619 1439.47 136.473 1439.58 144.167C1439.63 148.369 1439.52 152.516 1439.58 156.718C1439.63 158.791 1438.92 159.828 1436.67 159.664C1435.52 159.555 1434.31 159.664 1433.16 159.664C958.292 159.664 483.426 159.664 8.61555 159.664C6.58527 159.61 4.555 159.446 2.57959 159.391Z" fill="black"/>
<path d="M2.57959 182.419C2.63446 175.544 2.63446 168.668 2.68933 161.793C5.21346 161.738 7.73759 161.629 10.2617 161.629C484.249 161.629 958.237 161.629 1432.22 161.629C1434.58 161.629 1436.94 161.629 1439.3 161.629C1439.96 167.795 1439.47 173.961 1439.58 180.127C1439.63 182.092 1438.7 182.801 1436.83 182.692C1435.68 182.637 1434.47 182.692 1433.32 182.692C958.401 182.692 483.536 182.692 8.61555 182.692C6.58527 182.692 4.555 182.528 2.57959 182.419Z" fill="black"/>
<path d="M2.57959 205.502C2.63446 198.953 2.63446 192.405 2.68933 185.912C5.21346 185.857 7.73759 185.748 10.2617 185.748C484.249 185.748 958.237 185.748 1432.22 185.748C1434.58 185.748 1436.94 185.748 1439.3 185.748C1439.96 191.587 1439.47 197.426 1439.58 203.264C1439.63 205.229 1438.7 205.938 1436.83 205.829C1435.68 205.774 1434.47 205.829 1433.32 205.829C958.401 205.829 483.536 205.829 8.61555 205.829C6.58527 205.72 4.555 205.556 2.57959 205.502Z" fill="black"/>
<path d="M2.57959 228.529C2.63446 222.308 2.63446 216.142 2.68933 209.922C5.21346 209.867 7.73759 209.758 10.2617 209.758C484.249 209.758 958.237 209.758 1432.22 209.758C1434.58 209.758 1436.94 209.758 1439.3 209.758C1439.96 215.269 1439.47 220.78 1439.58 226.237C1439.63 228.202 1438.7 228.911 1436.83 228.802C1435.68 228.747 1434.47 228.802 1433.32 228.802C958.401 228.802 483.536 228.802 8.61555 228.802C6.58527 228.802 4.555 228.638 2.57959 228.529Z" fill="black"/>
<path d="M2.57959 251.611C2.63446 245.718 2.63446 239.879 2.68933 233.986C5.21346 233.931 7.73759 233.822 10.2617 233.822C484.249 233.822 958.237 233.822 1432.22 233.822C1434.58 233.822 1436.94 233.822 1439.3 233.822C1439.96 239.006 1439.47 244.136 1439.58 249.319C1439.63 251.284 1438.7 251.993 1436.83 251.884C1435.68 251.83 1434.47 251.884 1433.32 251.884C958.401 251.884 483.536 251.884 8.61555 251.884C6.58527 251.83 4.555 251.666 2.57959 251.611Z" fill="black"/>
<path d="M2.57959 274.639C2.63446 269.128 2.63446 263.562 2.68933 258.05C5.21346 257.996 7.73759 257.887 10.2617 257.887C484.249 257.887 958.237 257.887 1432.22 257.887C1434.58 257.887 1436.94 257.887 1439.3 257.887C1439.96 262.689 1439.47 267.545 1439.58 272.402C1439.63 274.366 1438.7 275.075 1436.83 274.966C1435.68 274.912 1434.47 274.966 1433.32 274.966C958.401 274.966 483.536 274.966 8.61555 274.966C6.58527 274.912 4.555 274.748 2.57959 274.639Z" fill="black"/>
<path d="M2.57959 297.719C2.63446 292.535 2.63446 287.297 2.68933 282.113C5.21346 282.058 7.73759 281.949 10.2617 281.949C484.249 281.949 958.237 281.949 1432.22 281.949C1434.58 281.949 1436.94 281.949 1439.3 281.949C1439.96 286.424 1439.47 290.953 1439.58 295.427C1439.63 297.392 1438.7 298.101 1436.83 297.992C1435.68 297.937 1434.47 297.992 1433.32 297.992C958.401 297.992 483.536 297.992 8.61555 297.992C6.58527 297.937 4.555 297.774 2.57959 297.719Z" fill="black"/>
<path d="M2.57959 320.747C2.63446 315.89 2.63446 311.034 2.68933 306.123C5.21346 306.068 7.73759 305.959 10.2617 305.959C484.249 305.959 958.237 305.959 1432.22 305.959C1434.58 305.959 1436.94 305.959 1439.3 305.959C1439.91 310.106 1439.47 314.308 1439.58 318.455C1439.63 320.419 1438.7 321.129 1436.83 321.02C1435.68 320.965 1434.47 321.02 1433.32 321.02C958.401 321.02 483.536 321.02 8.61555 321.02C6.58527 321.02 4.555 320.856 2.57959 320.747Z" fill="black"/>
<path d="M2.57959 343.831C2.63446 339.302 2.63446 334.773 2.68933 330.244C5.21346 330.189 7.73759 330.08 10.2617 330.08C484.249 330.08 958.237 330.08 1432.22 330.08C1434.58 330.08 1436.94 330.08 1439.3 330.08C1439.96 333.9 1439.47 337.72 1439.58 341.594C1439.63 343.558 1438.7 344.268 1436.83 344.158C1435.68 344.104 1434.47 344.158 1433.32 344.158C958.401 344.158 483.536 344.158 8.61555 344.158C6.58527 344.049 4.555 343.886 2.57959 343.831Z" fill="black"/>
<path d="M2.57959 366.859C2.63446 362.657 2.63446 358.455 2.68933 354.254C5.21346 354.199 7.73759 354.09 10.2617 354.09C484.249 354.09 958.237 354.09 1432.22 354.09C1434.58 354.09 1436.94 354.09 1439.3 354.09C1439.91 357.582 1439.47 361.074 1439.58 364.567C1439.63 366.531 1438.7 367.241 1436.83 367.131C1435.68 367.077 1434.47 367.131 1433.32 367.131C958.401 367.131 483.536 367.131 8.61555 367.131C6.58527 367.131 4.555 366.968 2.57959 366.859Z" fill="black"/>
<path d="M2.57959 389.939C2.63446 386.065 2.63446 382.19 2.68933 378.371C5.21346 378.316 7.73759 378.207 10.2617 378.207C484.249 378.207 958.237 378.207 1432.22 378.207C1434.58 378.207 1436.94 378.207 1439.3 378.207C1439.91 381.372 1439.47 384.537 1439.58 387.702C1439.63 389.666 1438.7 390.376 1436.83 390.266C1435.68 390.212 1434.47 390.266 1433.32 390.266C958.401 390.266 483.536 390.266 8.61555 390.266C6.58527 390.157 4.555 389.994 2.57959 389.939Z" fill="black"/>
<path d="M2.57959 412.967C2.63446 409.42 2.63446 405.927 2.68933 402.381C5.21346 402.326 7.73759 402.217 10.2617 402.217C484.249 402.217 958.237 402.217 1432.22 402.217C1434.58 402.217 1436.94 402.217 1439.3 402.217C1439.74 405.709 1440.89 409.965 1438.92 412.421C1437 414.822 1432.61 413.239 1429.32 413.239C956.426 413.294 483.536 413.294 10.6458 413.294C7.95708 413.185 5.26834 413.076 2.57959 412.967Z" fill="black"/>
<path d="M2.57959 436.049C2.63446 432.829 2.63446 429.664 2.68933 426.445C5.21346 426.39 7.73759 426.281 10.2617 426.281C484.249 426.281 958.237 426.281 1432.22 426.281C1434.58 426.281 1436.94 426.281 1439.3 426.281C1440.29 436.322 1440.29 436.322 1430.3 436.322C957.085 436.322 483.865 436.322 10.6458 436.322C7.95708 436.267 5.26834 436.103 2.57959 436.049Z" fill="black"/>
<path d="M2.57959 459.077C2.63446 456.239 2.63446 453.347 2.68933 450.509C5.21346 450.455 7.73759 450.346 10.2617 450.346C484.249 450.346 958.237 450.346 1432.22 450.346C1434.58 450.346 1436.94 450.346 1439.3 450.346C1440.18 459.404 1440.18 459.404 1431.35 459.404C957.633 459.404 483.92 459.404 10.152 459.404C7.57298 459.295 5.10372 459.186 2.57959 459.077Z" fill="black"/>
<path d="M2.57959 482.159C2.63446 479.649 2.63446 477.084 2.68933 474.574C5.21346 474.519 7.73759 474.41 10.2617 474.41C484.249 474.41 958.237 474.41 1432.22 474.41C1434.58 474.41 1436.94 474.41 1439.3 474.41C1440.07 482.432 1440.07 482.432 1432.33 482.432C958.127 482.432 483.865 482.432 9.65813 482.432C7.24374 482.377 4.9391 482.213 2.57959 482.159Z" fill="black"/>
<path d="M2.57959 505.186C2.63446 503.004 2.63446 500.821 2.68933 498.584C5.21346 498.529 7.73759 498.42 10.2617 498.42C484.249 498.42 958.237 498.42 1432.22 498.42C1434.58 498.42 1436.94 498.42 1439.3 498.42C1439.36 498.747 1439.52 499.075 1439.52 499.402C1439.8 506.987 1439.52 505.459 1433.87 505.459C958.621 505.459 483.371 505.459 8.1217 505.459C6.25604 505.405 4.39038 505.295 2.57959 505.186Z" fill="black"/>
<path d="M2.57959 528.269C2.63446 526.413 2.63446 524.558 2.68933 522.703C5.21346 522.648 7.73759 522.539 10.2617 522.539C484.414 522.539 958.566 522.539 1432.72 522.539C1434.91 522.539 1437.11 522.539 1439.25 522.539C1439.8 528.541 1439.8 528.596 1433.82 528.596C1299.1 528.596 1164.34 528.596 1029.63 528.596C689.801 528.596 349.922 528.596 10.0971 528.596C7.57298 528.487 5.10372 528.323 2.57959 528.269Z" fill="black"/>
<path fill-rule="evenodd" clip-rule="evenodd" d="M0.988131 133.227L1.18127 133.201C1.23642 133.329 1.29997 133.455 1.37303 133.581C3.56665 135.217 6.05216 135.047 8.48048 134.881H8.4806H8.48072H8.48084H8.48096H8.48108H8.4812H8.48132H8.48144H8.48156H8.48168H8.4818H8.48191H8.48203H8.48215H8.48227H8.48239H8.48251H8.48264H8.48276H8.48289H8.48302H8.48314H8.48326H8.48339H8.48351H8.48364H8.48377H8.48389H8.48402H8.48416H8.48429H8.48442H8.48455H8.48469H8.48482H8.48496H8.4851H8.48523H8.48538H8.48551H8.48565H8.4858H8.48594H8.48608H8.48623H8.48636H8.48649H8.48663H8.48675H8.48687H8.48701H8.48713H8.48726H8.48739H8.48751H8.48764H8.48778H8.4879H8.48804H8.48817H8.48831H8.48844H8.48858H8.48871H8.48885H8.48899H8.48913H8.48927H8.48942H8.48956H8.4897H8.48984H8.48999H8.49014H8.49028H8.49043H8.49058H8.49072H8.49087H8.49103H8.49119H8.49135H8.49151H8.49168H8.49184H8.492H8.49218H8.49234H8.49251H8.49268H8.49285H8.49302H8.49319H8.49337H8.49354H8.49372H8.49389H8.49406H8.49424H8.49442H8.49459H8.49476H8.49493H8.4951H8.49528H8.49545H8.49562H8.4958H8.49598H8.49616H8.49634H8.49653H8.49671H8.4969H8.49708H8.49726H8.49745H8.49764H8.49783H8.49802H8.49821H8.49841H8.4986H8.4988H8.49899H8.4992H8.49939C9.22332 134.831 9.9421 134.782 10.6465 134.782C483.372 134.836 956.097 134.836 1428.82 134.836H1431.84C1438.59 134.782 1438.7 134.673 1438.7 128.179V4.91108C1438.7 4.51508 1438.73 4.11589 1438.75 3.71582V3.71555V3.71528V3.715V3.71473V3.71445V3.71417V3.71388V3.7136V3.71331V3.71302V3.71273V3.71244V3.71215V3.71185V3.71156V3.71126V3.71096V3.71066V3.71035V3.71004V3.70973V3.70942V3.70911V3.70879V3.70848V3.70815V3.70783V3.70751C1438.83 2.45646 1438.91 1.19701 1438.21 0H1.4279L1.42776 0.00021868L1.42776 0C-0.434276 0.402541 -0.0567284 1.54746 0.269455 2.53662C0.385438 2.88834 0.494927 3.22037 0.494927 3.49232C0.385182 46.7644 0.385182 90.0364 0.385182 133.308C0.5756 133.281 0.779503 133.254 0.983522 133.227H0.983632L0.988131 133.227Z" fill="black"/>
</svg>
