<svg width="1440" height="625" viewBox="0 0 1440 625" fill="none" xmlns="http://www.w3.org/2000/svg">
<g clip-path="url(#clip0_547_3990)" filter="url(#filter0_d_547_3990)">
<path d="M278.952 185.025L281.521 185.71L285.019 186.98L287.972 188.269L290.386 189.73L292.26 191.364L293.589 193.017L294.378 194.842L289.562 170.776L288.778 169.105L287.449 167.452L285.58 165.972L283.166 164.511L280.213 163.222L276.72 162.106L274.15 161.421L269.936 160.484L-69.7129 97.9219L-69.0387 117.807L274.737 184.088L278.952 185.025ZM814.691 190.01L819.746 188.913L824.988 187.964L830.416 187.162L836.037 186.663L841.663 186.318L847.475 186.121L853.293 186.078L859.122 186.343L864.955 186.763L870.794 187.337L876.639 188.064L882.311 189.107L885.794 189.915L890.746 191.136L895.339 192.523L899.575 194.077L903.27 195.804L906.603 197.543L909.395 199.454L911.825 201.378L913.714 203.475L915.059 205.59L915.859 207.723L916.114 209.875L917.431 184.366L917.176 182.215L916.376 180.081L915.032 177.966L913.147 176.024L910.718 174.1L907.749 172.348L904.416 170.61L900.544 169.043L896.309 167.489L891.716 166.102L886.764 164.881L883.286 164.227L877.619 163.339L871.775 162.611L865.936 162.037L859.92 161.624L853.916 161.519L847.916 161.568L842.103 161.765L836.296 162.116L830.675 162.615L825.241 163.263L820 164.212L814.945 165.309L810.077 166.555L805.577 167.942L801.447 169.471L797.684 171.142L795.359 172.301L792.334 174.255L620.381 294.751L604.891 304.536L587.206 313.932L567.496 322.626L546.131 330.758L523.105 338.174L498.594 344.716L472.962 350.369L446.39 355.128L419.242 358.981L391.694 361.767L364.291 363.467L337.028 363.929L310.455 363.286L284.754 361.534L260.282 358.506L244.733 355.792L222.741 350.827L203.08 344.858L186.305 338.173L172.414 330.773L161.233 322.819L152.766 314.463L146.832 305.714L143.436 296.723L150.921 324.403L154.328 333.702L160.267 342.605L168.745 351.269L179.931 359.378L193.826 366.932L210.431 373.931L229.916 380.061L251.549 385.192L266.917 387.912L291.207 390.946L316.55 392.865L342.76 393.52L369.66 393.071L396.881 391.376L424.065 388.602L450.85 384.762L477.053 379.861L502.317 374.066L526.459 367.383L549.299 359.818L570.477 351.538L589.813 342.549L607.13 333.011L622.427 322.924L792.267 199.104L795.292 197.15L797.617 195.991L801.38 194.32L805.511 192.791L810.01 191.404L814.691 190.01ZM339.194 282.987L339.832 280.342L341.015 277.678L342.924 274.99L345.383 272.437L348.388 269.866L352.119 267.271L356.4 264.81L404.261 238.958L417.992 230.931L425.812 225.573L435.547 217.681L443.102 209.862L448.482 202.272L451.869 194.904L453.269 187.912L452.857 181.135L449.681 157.168L450.082 163.636L448.677 170.474L445.279 177.534L439.707 184.822L431.96 192.338L422.038 200.082L414.213 205.286L400.295 213.166L351.681 238.272L347.4 240.732L343.664 243.173L340.478 245.751L338.018 248.303L336.104 250.837L334.734 253.353L334.091 255.844L333.993 258.317L338.904 285.158L339.194 282.987ZM1013.97 317.674L1016.05 314.671L1075.92 245.972L1081.99 237.432L1084.71 231.784L1086.61 223.54L1089.91 197.501L1088.01 205.591L1085.28 211.084L1079.2 219.316L1018.9 286.178L1016.82 289.027L1015.46 292.005L1014.84 294.958L1011.99 323.76L1012.62 320.652L1013.97 317.674ZM999.671 421.559L969.775 414.084L942.395 405.753L917.715 396.558L895.562 386.815L876.117 376.517L859.387 365.818L845.377 354.873L833.91 343.841L825.167 332.717L818.973 321.662L815.327 310.673L814.053 299.914L813.572 328.635L814.856 339.703L818.513 350.999L824.717 362.364L833.47 373.796L844.766 385.142L858.606 396.402L875.159 407.261L894.25 417.879L916.051 427.943L940.373 437.304L967.4 445.956L996.756 453.603L1471.14 563.76L1469.86 526.147L999.671 421.559Z" fill="url(#paint0_linear_547_3990)"/>
<path d="M1071.15 330.55L1063.27 328.965L1058.32 327.744L1051.52 325.66L1045.08 323.409L1039.18 320.985L1034 318.383L1029.36 315.608L1025.26 312.815L1021.71 310.003L1019.06 307.006L1016.96 303.991L1015.59 300.951L1014.75 297.893L1014.65 294.81L1015.46 291.85L1016.82 289.026L1019.09 286.171L1079.38 219.309L1085.46 211.078L1088.01 205.59L1090.1 197.494L1089.65 189.639L1087.21 182.005L1082.95 174.433L1076.71 167.391L1068.66 160.565L1059.16 154.096L1048.23 147.985L1035.85 142.232L1022.39 136.978L1007.5 132.082L991.531 127.839L974.668 123.935L956.549 120.537L937.718 117.626L918.183 115.356L905.052 114.258L885.734 113.061L866.251 112.332L846.97 112.214L827.892 112.707L809.011 113.656L790.514 115.209L772.396 117.212L754.844 119.813L737.853 122.859L721.24 126.354L705.557 130.435L690.616 134.955L676.791 140.207L663.703 145.744L652.095 152.002L463.599 261.947L458.954 264.419L455.732 265.918L450.355 268.261L444.6 270.153L438.482 272.058L432.171 273.661L425.673 275.116L418.984 276.269L412.107 277.274L405.22 277.97L398.323 278.358L391.42 278.592L384.694 278.666L377.952 278.277L371.568 277.722L365.356 276.853L359.683 275.81L354.181 274.454L351.056 273.479L346.634 271.777L343.115 269.89L339.954 267.837L337.519 265.759L335.806 263.502L334.632 261.072L334.004 258.624L334.102 256.152L334.926 253.655L336.114 251.145L338.029 248.611L340.67 246.052L343.679 243.635L347.41 241.04L351.697 238.734L400.306 213.473L414.229 205.748L422.236 200.538L432.162 192.948L439.727 185.438L445.295 177.996L448.692 170.936L450.097 164.098L449.696 157.63L447.302 151.383L443.289 145.655L437.646 140.136L430.384 135.135L421.498 130.498L411.174 126.372L399.225 122.611L386.021 119.354L371.198 116.616L-35.6569 51.0856L-36.3835 51.1102L-36.9337 50.9745L-37.8419 51.0053L-38.7554 50.882L-39.6636 50.9128L-40.7535 50.9497L-41.6618 50.9805L-42.7517 51.0175L-43.8363 51.2086L-44.9262 51.2455L-46.0109 51.4366L-47.0955 51.6277L-48.1802 51.8188L-49.2649 52.0099L-50.1679 52.1949L-51.2526 52.386L-52.1503 52.7251L-71.0615 58.1504L-69.713 97.9214L269.931 160.329L274.145 161.267L276.714 161.951L280.207 163.067L282.984 164.516L285.393 165.824L287.448 167.452L288.777 169.104L289.562 170.775L289.988 172.613L289.687 174.475L289.023 176.349L287.638 178.403L285.708 180.474L283.409 182.404L280.389 184.513L276.824 186.64L272.527 188.638L221.66 211.659L205.557 219.459L195.739 224.885L182.387 233.362L170.857 241.933L161.159 250.904L153.464 259.961L147.773 269.105L144.085 278.336L142.759 287.486L143.794 296.556L147.008 305.553L152.943 314.303L161.409 322.658L172.591 330.613L186.662 338.006L203.262 344.851L222.918 350.667L244.909 355.631L260.459 358.345L284.93 361.373L310.632 363.125L337.386 363.762L364.462 363.152L392.052 361.6L419.418 358.82L446.566 354.967L473.138 350.208L498.77 344.555L523.276 337.859L546.307 330.597L567.854 322.459L587.377 313.617L605.068 304.375L620.557 294.59L792.329 174.101L795.536 172.14L797.86 170.981L801.623 169.31L805.754 167.781L810.253 166.394L814.945 165.309L819.999 164.211L825.241 163.262L830.675 162.615L836.296 162.116L842.103 161.764L847.916 161.567L853.916 161.518L859.92 161.623L865.754 162.043L871.775 162.61L877.619 163.338L883.292 164.38L886.769 165.034L891.902 166.249L896.496 167.637L900.726 169.036L904.422 170.763L907.754 172.502L910.723 174.253L913.152 176.177L915.037 178.12L916.382 180.235L917.176 182.214L917.431 184.366L917.141 186.536L916.124 188.731L914.562 190.945L912.451 193.023L839.582 253.675L829.894 262.955L824.659 269.46L818.807 279.226L815.337 289.53L814.058 300.067L815.332 310.827L818.978 321.815L825.172 332.871L833.915 343.995L845.387 355.181L859.392 365.972L876.304 376.664L895.748 386.962L917.72 396.712L942.582 405.9L969.961 414.232L999.671 421.558L1469.68 526.153L1465.6 405.915L1071.15 330.55Z" fill="white"/>
<path d="M1000.99 417.655L971.465 410.323L944.455 402.133L919.961 393.087L898.176 383.485L879.1 373.329L862.744 362.926L849.108 352.277L838.014 341.541L829.65 330.868L823.84 320.416L820.402 310.193L819.336 300.197L820.46 290.437L823.774 280.91L829.278 271.618L834.166 265.588L843.501 256.629L916.188 195.983L916.364 195.823L918.658 193.739C918.834 193.578 919.011 193.418 919.182 193.104L920.744 190.89C920.915 190.576 921.091 190.415 921.081 190.107L922.097 187.912C922.269 187.597 922.258 187.289 922.429 186.975L922.719 184.804C922.709 184.496 922.699 184.188 922.688 183.879L922.433 181.727C922.423 181.419 922.231 181.117 922.22 180.809L921.421 178.675C921.41 178.367 921.223 178.219 921.031 177.917L919.686 175.802C919.499 175.654 919.494 175.5 919.302 175.197L917.418 173.255C917.231 173.107 917.044 172.959 917.039 172.805L914.609 170.881C914.423 170.733 914.423 170.733 914.236 170.585L911.267 168.834C911.08 168.686 911.08 168.686 910.898 168.692L907.566 166.953C907.384 166.959 907.379 166.805 907.197 166.811L903.325 165.245C903.143 165.251 903.138 165.097 902.956 165.103L898.721 163.549C898.721 163.549 898.539 163.555 898.534 163.401L893.941 162.013L893.759 162.02L888.626 160.805L884.962 160.003L879.107 158.967L873.081 158.245C873.081 158.245 867.061 157.678 866.879 157.684C866.879 157.684 860.864 157.27 860.682 157.277C860.682 157.277 854.677 157.172 854.496 157.178C854.496 157.178 848.496 157.227 848.314 157.233L842.32 157.436C842.32 157.436 836.512 157.787 836.331 157.794L830.528 158.299L824.918 159.106L819.495 160.062L814.44 161.159L814.258 161.165L809.39 162.411L809.209 162.417L804.709 163.804C804.528 163.81 804.528 163.81 804.351 163.971L800.22 165.5C800.039 165.506 800.039 165.506 799.862 165.666L796.1 167.337C795.918 167.343 795.924 167.497 795.742 167.503L793.417 168.663C793.235 168.669 793.241 168.823 793.059 168.829L790.034 170.783L789.857 170.944L618.081 291.279L602.949 300.898L585.617 309.973L566.27 318.654L545.081 326.626L522.231 333.883L498.084 340.412L472.634 346.059L446.243 350.812L419.277 354.658L392.092 357.432L364.871 359.126L337.972 359.575L311.58 358.927L286.061 357.168L261.776 354.288L246.413 351.722L224.79 346.899L205.679 341.066L189.454 334.517L176.119 327.407L165.498 319.896L157.592 311.985L152.229 303.987L149.227 295.909L148.4 287.604L149.571 279.23L152.922 270.783L158.271 262.268L165.618 253.685L174.968 245.189L186.14 236.785L199.139 228.628L208.781 223.362L224.884 215.563L275.569 192.547L279.861 190.395C280.042 190.389 280.037 190.235 280.219 190.229L283.784 188.102C283.965 188.096 283.96 187.942 284.142 187.935L287.162 185.827C287.338 185.666 287.338 185.666 287.515 185.506L289.99 183.416C290.166 183.256 290.343 183.095 290.343 183.095L292.273 181.024C292.449 180.863 292.626 180.703 292.621 180.549L294.006 178.496C294.182 178.335 294.353 178.021 294.343 177.713L295.189 175.832C295.36 175.517 295.349 175.209 295.339 174.901L295.639 173.039C295.629 172.73 295.618 172.422 295.603 171.96L295.358 170.116C295.348 169.808 295.156 169.506 294.964 169.203L294.18 167.532C293.988 167.23 293.796 166.928 293.609 166.78L292.28 165.128C292.093 164.98 291.901 164.677 291.714 164.529L289.845 163.05C289.658 162.902 289.471 162.754 289.284 162.606L286.871 161.144C286.684 160.996 286.502 161.002 286.315 160.854L283.362 159.565C283.18 159.572 282.993 159.424 282.993 159.424L279.5 158.307C279.319 158.314 279.319 158.314 279.132 158.166L276.562 157.481C276.381 157.487 276.381 157.487 276.194 157.339L271.979 156.402L-64.9185 94.5182L-66.0526 61.0675L-50.5667 56.5299L-49.6637 56.3449L-48.7607 56.16L-47.8577 55.975L-47.1363 55.7963L-46.2333 55.6113L-45.3303 55.4264L-44.4272 55.2414L-43.519 55.2106L-42.6108 55.1798L-41.7025 55.149L-40.7943 55.1183L-39.886 55.0875L-39.1594 55.0628L-38.4328 55.0382L-37.7062 55.0136L-37.3429 55.0012L-36.6111 55.1308L370.239 120.507L384.699 123.258L397.716 126.366L409.114 129.992L419.069 133.976L427.4 138.323L434.107 143.034L439.184 147.955L442.631 153.085L444.631 158.419L445 163.962L443.746 169.869L440.685 176.146L435.642 182.953L428.425 189.988L418.856 197.412L411.207 202.455L397.466 210.175L348.852 235.281L344.57 237.741C344.389 237.747 344.394 237.901 344.212 237.907L340.476 240.349C340.3 240.509 340.3 240.509 340.123 240.67L336.937 243.247C336.761 243.407 336.761 243.407 336.584 243.567L334.125 246.12C333.949 246.28 333.772 246.441 333.777 246.595L331.863 249.129C331.686 249.289 331.692 249.443 331.52 249.758L330.151 252.274C329.974 252.434 329.985 252.742 329.814 253.057L329.171 255.548C329.181 255.856 329.01 256.171 329.015 256.325L328.917 258.797C328.928 259.106 328.938 259.414 328.949 259.722L329.577 262.17C329.588 262.478 329.78 262.781 329.785 262.935L330.953 265.21C331.145 265.512 331.151 265.666 331.343 265.968L333.056 268.225C333.243 268.373 333.43 268.521 333.622 268.823L336.056 270.901C336.243 271.049 336.43 271.197 336.617 271.345L339.597 273.405C339.783 273.553 339.965 273.547 340.152 273.695L343.853 275.576C344.04 275.724 344.221 275.717 344.221 275.717L348.462 277.426C348.644 277.419 348.649 277.574 348.83 277.567L352.137 278.536C352.318 278.53 352.318 278.529 352.505 278.677L357.825 280.04C358.007 280.034 358.007 280.034 358.194 280.182L364.048 281.218C364.23 281.212 364.23 281.212 364.412 281.206L370.624 282.076L370.806 282.07L377.19 282.625L377.372 282.619C377.372 282.619 384.108 282.853 384.29 282.847L391.203 282.921L398.287 282.681L405.361 282.133L412.43 281.43L419.488 280.419L426.359 279.26L433.038 277.799L439.349 276.196L445.649 274.285L445.831 274.279L451.581 272.232C451.581 272.232 451.763 272.226 451.757 272.072L457.139 269.883C457.139 269.883 457.321 269.877 457.315 269.722L460.72 268.218C460.72 268.218 460.901 268.212 460.896 268.058C460.896 268.058 465.722 265.579 465.717 265.425L654.576 155.468L666.008 149.37L678.551 143.852L692.205 138.913L706.783 134.407L722.284 130.332L738.533 126.848L755.343 123.809L772.719 121.368L790.655 119.371L809.333 117.812L828.033 116.869L846.929 116.383L866.029 116.507L885.325 117.087L904.643 118.284L917.592 119.389L936.764 121.671L955.589 124.428L973.345 127.838L990.027 131.748L1005.63 136.003L1020.16 140.758L1033.42 145.864L1045.43 151.476L1056 157.445L1065.12 163.617L1072.61 170L1078.47 176.591L1082.52 183.399L1084.76 190.268L1084.99 197.205L1083.24 204.363L1080.85 209.074L1075.11 216.831L1015.18 283.68C1015.19 283.834 1015.01 283.841 1015.01 283.995L1012.93 286.843C1012.75 287.004 1012.58 287.318 1012.58 287.472L1011.23 290.45C1011.06 290.765 1011.06 290.919 1010.89 291.234L1010.26 294.187C1010.27 294.495 1010.1 294.81 1010.11 294.964L1010.21 298.047C1010.22 298.355 1010.23 298.509 1010.24 298.818L1010.89 301.882C1010.9 302.191 1011.09 302.339 1011.1 302.647L1012.47 305.687C1012.48 305.841 1012.67 306.143 1012.86 306.291L1014.96 309.306C1015.15 309.454 1015.15 309.608 1015.34 309.756L1018.17 312.747C1018.35 312.895 1018.36 313.049 1018.54 313.043L1021.92 316.015C1022.1 316.163 1022.1 316.163 1022.29 316.311L1026.39 319.105C1026.57 319.253 1026.57 319.253 1026.75 319.246L1031.39 322.021C1031.58 322.015 1031.58 322.169 1031.76 322.163L1036.94 324.765C1037.12 324.759 1037.13 324.913 1037.31 324.907L1043.21 327.331L1043.4 327.479L1049.84 329.73C1049.84 329.73 1050.02 329.723 1050.03 329.878L1057.19 331.95L1062.32 333.165L1070.02 334.756L1461.18 409.461L1464.96 521.066L1000.99 417.655Z" fill="#E2D9D0"/>
</g>
<defs>
<filter id="filter0_d_547_3990" x="-95.2705" y="-19.6562" width="1590.54" height="672.312" filterUnits="userSpaceOnUse" color-interpolation-filters="sRGB">
<feFlood flood-opacity="0" result="BackgroundImageFix"/>
<feColorMatrix in="SourceAlpha" type="matrix" values="0 0 0 0 0 0 0 0 0 0 0 0 0 0 0 0 0 0 127 0" result="hardAlpha"/>
<feOffset dy="4"/>
<feGaussianBlur stdDeviation="12"/>
<feComposite in2="hardAlpha" operator="out"/>
<feColorMatrix type="matrix" values="0 0 0 0 0.958333 0 0 0 0 0.958333 0 0 0 0 0.958333 0 0 0 0.25 0"/>
<feBlend mode="normal" in2="BackgroundImageFix" result="effect1_dropShadow_547_3990"/>
<feBlend mode="normal" in="SourceGraphic" in2="effect1_dropShadow_547_3990" result="shape"/>
</filter>
<linearGradient id="paint0_linear_547_3990" x1="-60.9406" y1="356.658" x2="1462.24" y2="305.015" gradientUnits="userSpaceOnUse">
<stop offset="0.1299" stop-color="#D0D0D0"/>
<stop offset="1" stop-color="#EC912A"/>
</linearGradient>
<clipPath id="clip0_547_3990">
<rect width="1524" height="573" fill="white" transform="translate(-71.2705 51.9844) rotate(-1.94183)"/>
</clipPath>
</defs>
</svg>
