<svg width="140" height="29" viewBox="0 0 140 29" fill="none" xmlns="http://www.w3.org/2000/svg">
<rect width="140" height="29" fill="#F5F5F5"/>
<g clip-path="url(#clip0_0_1)">
<rect width="1440" height="6493" transform="translate(-80 -22)" fill="black"/>
<rect x="-80" y="-22" width="1440" height="72" fill="black"/>
<g clip-path="url(#clip1_0_1)">
<path d="M132.089 23.9636L130.861 20.5689H123.345L122.117 23.9636H119.253L125.178 8.29355C125.482 7.44488 126.133 6.99023 127.103 6.99023C128.073 6.99023 128.725 7.42972 129.073 8.29355L134.968 23.9636H132.089ZM124.224 18.0835H129.983L127.118 10.0818L124.224 18.0835Z" fill="#EFA108"/>
<path d="M140 7.15625H137.272V23.9629H140V7.15625Z" fill="#EFA108"/>
<path d="M14.5789 9.82361L9.12319 6.67141C8.36545 6.23192 7.441 6.23192 6.68326 6.67141L3.83416 8.30813H7.24399C7.56224 8.30813 7.81987 8.56576 7.81987 8.88401C7.81987 9.20226 7.56224 9.4599 7.24399 9.4599H1.83373L1.22754 9.82361C0.954752 9.97516 0.712275 10.1873 0.530418 10.4298H9.1535C9.47175 10.4298 9.72938 10.6874 9.72938 11.0057C9.72938 11.3239 9.47175 11.5816 9.1535 11.5816H0.0303096C0.0151548 11.6877 0 11.8089 0 11.9301V12.3848H7.24399C7.56224 12.3848 7.81987 12.6424 7.81987 12.9607C7.81987 13.2789 7.56224 13.5365 7.24399 13.5365H0V14.4913H10.8357C11.1539 14.4913 11.4116 14.7489 11.4116 15.0672C11.4116 15.3854 11.1539 15.6431 10.8357 15.6431H0V16.613H7.24399C7.56224 16.613 7.81987 16.8706 7.81987 17.1888C7.81987 17.5071 7.56224 17.7647 7.24399 17.7647H0V18.2345C0 18.3558 0.0151548 18.4618 0.0303096 18.5831H9.1535C9.47175 18.5831 9.72938 18.8407 9.72938 19.159C9.72938 19.4772 9.47175 19.7348 9.1535 19.7348H0.515263C0.712275 19.9773 0.939597 20.1895 1.22754 20.3562L1.84889 20.7048H7.25915C7.5774 20.7048 7.83503 20.9624 7.83503 21.2806C7.83503 21.5989 7.5774 21.8565 7.25915 21.8565H3.83416L6.68326 23.4932C7.441 23.9327 8.36545 23.9327 9.12319 23.4932L14.5789 20.341C15.3367 19.9016 15.8065 19.0983 15.8065 18.2194V11.9301C15.8065 11.0663 15.3367 10.2479 14.5789 9.82361Z" fill="#EFA108"/>
<g clip-path="url(#clip2_0_1)">
<path d="M46.6164 23.4929L45.3888 20.0982H37.8721L36.6445 23.4929H33.7803L39.7058 7.82284C40.0089 6.97418 40.6605 6.51953 41.6305 6.51953C42.6004 6.51953 43.252 6.95902 43.6006 7.82284L49.4958 23.4929H46.6164ZM38.751 17.6128H44.5099L41.6456 9.61111L38.751 17.6128Z" fill="white"/>
<path d="M54.1937 20.9614H63.0289V23.4771H52.9661C52.1326 23.4771 51.4658 22.8254 51.4658 21.9767V6.68555H54.1937V20.9614Z" fill="white"/>
<path d="M68.3177 6.68555H65.5898V23.4922H68.3177V6.68555Z" fill="white"/>
<path d="M84.2002 18.7033C84.2002 20.0975 83.6698 21.2493 82.6241 22.1586C81.5784 23.0679 80.169 23.5074 78.4111 23.5074H73.0463C72.1976 23.5074 71.5156 22.8406 71.5156 21.9767V8.21618C71.5156 7.36751 72.1824 6.68555 73.0463 6.68555H77.9564C79.6386 6.68555 80.9874 7.12504 81.9573 7.98886C82.9575 8.83753 83.4425 9.95898 83.4425 11.3381C83.4425 12.7778 82.7908 13.8992 81.4723 14.7631C83.2909 15.5663 84.2002 16.8696 84.2002 18.7033ZM77.8352 9.0497H74.2435V13.7628H77.8352C79.6234 13.7628 80.654 12.7626 80.654 11.4442C80.654 10.0651 79.6234 9.0497 77.8352 9.0497ZM78.4868 21.1281C80.3357 21.1281 81.4269 20.0824 81.4269 18.6124C81.4269 17.203 80.3357 16.1421 78.4868 16.1421H74.2586V21.1432H78.4868V21.1281Z" fill="white"/>
<path d="M99.8701 23.4922H96.8543L93.3536 17.7485H93.202H89.474V23.4922H86.7461V8.21618C86.7461 7.35236 87.4129 6.68555 88.2767 6.68555H93.096C94.9448 6.68555 96.4452 7.21596 97.5818 8.2768C98.7335 9.32248 99.3246 10.6561 99.3246 12.308C99.3246 14.5054 98.097 16.3543 96.0663 17.2181L99.8701 23.4922ZM89.474 9.11031V15.445H92.8989C95.1419 15.445 96.5361 14.1417 96.5361 12.2777C96.5361 10.4439 95.1267 9.11031 92.8989 9.11031H89.474Z" fill="white"/>
<path d="M103.189 8.95992C104.644 7.33836 106.523 6.53516 108.766 6.53516C111.009 6.53516 112.888 7.33836 114.343 8.95992C115.828 10.5512 116.571 12.6122 116.571 15.1128C116.571 17.583 115.828 19.6289 114.343 21.2505C112.888 22.8417 111.009 23.6601 108.766 23.6601C106.523 23.6601 104.644 22.8569 103.189 21.2505C101.734 19.6289 100.992 17.5982 100.992 15.1128C100.992 12.6122 101.734 10.5512 103.189 8.95992ZM112.388 19.3713C113.313 18.2801 113.782 16.8556 113.782 15.1128C113.782 13.3245 113.313 11.9 112.388 10.8088C111.464 9.71766 110.266 9.17209 108.781 9.17209C107.296 9.17209 106.099 9.73282 105.174 10.8391C104.25 11.9303 103.78 13.3548 103.78 15.1128C103.78 16.8556 104.25 18.2801 105.174 19.3713C106.129 20.4624 107.326 21.008 108.781 21.008C110.251 21.008 111.464 20.4624 112.388 19.3713Z" fill="white"/>
<path d="M31.9464 20.4472C31.9464 20.72 31.8554 20.9777 31.7039 21.1747L30.8097 21.6899L28.1122 23.2509C27.2181 23.7661 26.1269 23.7661 25.2328 23.2509L20.2317 20.3715C19.3376 19.8562 18.792 18.9166 18.792 17.8861V12.1121C18.792 11.0816 19.3376 10.1268 20.2317 9.61156L25.2328 6.73215C26.1269 6.21689 27.2181 6.21689 28.1122 6.73215L30.8552 8.30825L31.6887 8.7932C31.8554 9.00537 31.9464 9.27816 31.9464 9.5661C31.9464 10.2632 31.3856 10.8239 30.6885 10.8239C30.643 10.8239 30.5976 10.8239 30.5521 10.8239L29.6731 10.3238L27.6879 9.18723C27.0514 8.82351 26.2785 8.82351 25.642 9.18723L22.126 11.1877C21.4895 11.5514 21.1107 12.2182 21.1107 12.9608V17.0374C21.1107 17.7648 21.5047 18.4317 22.126 18.8105L25.6571 20.8413C26.2936 21.205 27.0665 21.205 27.703 20.8413L29.7034 19.6743L30.5066 19.2045C30.5673 19.1894 30.6279 19.1894 30.6885 19.1894C31.3856 19.1894 31.9464 19.7653 31.9464 20.4472Z" fill="white"/>
</g>
</g>
</g>
<defs>
<clipPath id="clip0_0_1">
<rect width="1440" height="6493" fill="white" transform="translate(-80 -22)"/>
</clipPath>
<clipPath id="clip1_0_1">
<rect width="140" height="17.625" fill="white" transform="translate(0 6.33789)"/>
</clipPath>
<clipPath id="clip2_0_1">
<rect width="97.7787" height="17.3068" fill="white" transform="translate(18.792 6.33789)"/>
</clipPath>
</defs>
</svg>
