<svg width="325" height="227" viewBox="0 0 325 227" fill="none" xmlns="http://www.w3.org/2000/svg">
<path d="M178.729 19.0249C178.313 19.6609 178.03 20.3599 177.878 21.0841L176.726 21.1911V23.4203L177.878 23.5274C178.03 24.2516 178.307 24.9506 178.729 25.5866L177.992 26.4745L179.566 28.0488L180.454 27.312C181.09 27.7276 181.789 28.011 182.513 28.1622L182.62 29.3146H184.85L184.957 28.1622C185.681 28.011 186.38 27.7276 187.016 27.312L187.904 28.0488L189.478 26.4745L188.741 25.5866C189.157 24.9506 189.44 24.2516 189.591 23.5274L190.744 23.4203V21.1911L189.591 21.0841C189.44 20.3599 189.157 19.6609 188.741 19.0249L189.478 18.1369L187.904 16.5626L187.016 17.2994C186.38 16.8838 185.681 16.6004 184.957 16.4493L184.85 15.2969H182.62L182.513 16.4493C181.789 16.6004 181.09 16.8838 180.454 17.2994L179.566 16.5626L177.992 18.1369L178.729 19.0249ZM185.87 20.1772C187.047 21.3548 187.047 23.2629 185.87 24.4405C184.692 25.6181 182.784 25.6181 181.606 24.4405C180.429 23.2629 180.429 21.3548 181.606 20.1772C182.784 18.9997 184.692 18.9997 185.87 20.1772Z" fill="white"/>
<path d="M270.429 52.2475C270.014 52.8835 269.73 53.5825 269.579 54.3067L268.427 54.4138V56.643L269.579 56.75C269.73 57.4742 270.007 58.1732 270.429 58.8092L269.692 59.6972L271.267 61.2715L272.155 60.5347C272.791 60.9503 273.49 61.2337 274.214 61.3848L274.321 62.5372H276.55L276.657 61.3848C277.381 61.2337 278.08 60.9503 278.716 60.5347L279.604 61.2715L281.179 59.6972L280.442 58.8092C280.858 58.1732 281.141 57.4742 281.292 56.75L282.444 56.643V54.4138L281.292 54.3067C281.141 53.5825 280.858 52.8835 280.442 52.2475L281.179 51.3596L279.604 49.7853L278.716 50.5221C278.08 50.1064 277.381 49.8231 276.657 49.6719L276.55 48.5195H274.321L274.214 49.6719C273.49 49.8231 272.791 50.1064 272.155 50.5221L271.267 49.7853L269.692 51.3596L270.429 52.2475ZM277.57 53.3999C278.748 54.5775 278.748 56.4856 277.57 57.6631C276.393 58.8407 274.485 58.8407 273.307 57.6631C272.13 56.4856 272.13 54.5775 273.307 53.3999C274.485 52.2223 276.393 52.2223 277.57 53.3999Z" fill="white"/>
<path d="M39.6788 50.9702C39.2632 51.6062 38.9798 52.3052 38.8287 53.0294L37.6763 53.1364V55.3656L38.8287 55.4727C38.9798 56.1969 39.2632 56.8959 39.6788 57.5319L38.942 58.4198L40.5163 59.9941L41.4042 59.2573C42.0403 59.673 42.7393 59.9563 43.4634 60.1075L43.5705 61.2599H45.7997L45.9068 60.1075C46.631 59.9563 47.33 59.673 47.966 59.2573L48.8539 59.9941L50.4282 58.4198L49.6914 57.5319C50.107 56.8959 50.3904 56.1969 50.5416 55.4727L51.6939 55.3656V53.1364L50.5416 53.0294C50.3904 52.3052 50.107 51.6062 49.6914 50.9702L50.4282 50.0822L48.8539 48.5079L47.966 49.2447C47.33 48.8291 46.631 48.5457 45.9068 48.3946L45.7997 47.2422H43.5705L43.4634 48.3946C42.7393 48.5457 42.0403 48.8291 41.4042 49.2447L40.5163 48.5079L38.942 50.0822L39.6788 50.9702ZM46.8199 52.1226C47.9975 53.3001 47.9975 55.2082 46.8199 56.3858C45.6423 57.5634 43.7342 57.5634 42.5566 56.3858C41.3791 55.2082 41.3791 53.3001 42.5566 52.1226C43.7342 50.945 45.6423 50.945 46.8199 52.1226Z" fill="white"/>
<path d="M279.548 173.174H165.725C163.691 173.174 162.035 171.518 162.035 169.484V3.69019C162.035 1.65618 163.691 0 165.725 0H279.548C281.582 0 283.238 1.65618 283.238 3.69019V169.484C283.238 171.518 281.582 173.174 279.548 173.174ZM165.725 0.157431C163.779 0.157431 162.192 1.74434 162.192 3.69019V169.484C162.192 171.43 163.779 173.017 165.725 173.017H279.548C281.494 173.017 283.081 171.43 283.081 169.484V3.69019C283.081 1.74434 281.494 0.157431 279.548 0.157431H165.725Z" fill="white"/>
<path d="M148.294 173.174H34.4778C32.4438 173.174 30.7876 171.518 30.7876 169.484V3.69019C30.7876 1.65618 32.4438 0 34.4778 0H148.294C150.328 0 151.985 1.65618 151.985 3.69019V169.484C151.985 171.518 150.328 173.174 148.294 173.174ZM34.4778 0.157431C32.5319 0.157431 30.945 1.74434 30.945 3.69019V169.484C30.945 171.43 32.5319 173.017 34.4778 173.017H148.294C150.24 173.017 151.827 171.43 151.827 169.484V3.69019C151.827 1.74434 150.24 0.157431 148.294 0.157431H34.4778Z" fill="white"/>
<path d="M314.863 197.596H0V197.753H314.863V197.596Z" fill="white"/>
<path d="M42.6512 220.611H32.5378V220.769H42.6512V220.611Z" fill="white"/>
<path d="M140.983 218.904H107.274V219.062H140.983V218.904Z" fill="white"/>
<path d="M66.1083 226.461H43.2808V226.618H66.1083V226.461Z" fill="white"/>
<path d="M265.454 218.822H238.257V218.98H265.454V218.822Z" fill="white"/>
<path d="M275.052 218.822H271.065V218.98H275.052V218.822Z" fill="white"/>
<path d="M233.062 222.746H199.126V222.904H233.062V222.746Z" fill="white"/>
<path d="M264.881 155.063C264.365 155.85 264.019 156.713 263.83 157.607L262.413 157.739V160.491L263.836 160.623C264.019 161.517 264.371 162.38 264.888 163.167L263.981 164.263L265.927 166.209L267.022 165.302C267.81 165.818 268.672 166.165 269.567 166.354L269.699 167.777H272.451L272.583 166.354C273.477 166.171 274.34 165.818 275.127 165.302L276.223 166.209L278.169 164.263L277.262 163.167C277.778 162.38 278.124 161.517 278.313 160.623L279.73 160.491V157.739L278.313 157.607C278.131 156.713 277.778 155.85 277.262 155.063L278.169 153.967L276.223 152.021L275.127 152.928C274.34 152.412 273.477 152.065 272.583 151.876L272.451 150.453H269.699L269.567 151.876C268.672 152.059 267.81 152.412 267.022 152.928L265.927 152.021L263.981 153.967L264.888 155.063H264.881ZM273.698 156.48C275.152 157.934 275.152 160.289 273.698 161.744C272.243 163.199 269.888 163.199 268.433 161.744C266.978 160.289 266.978 157.934 268.433 156.48C269.888 155.025 272.243 155.025 273.698 156.48Z" fill="white"/>
<path d="M44.3956 152.249C43.98 152.885 43.6966 153.584 43.5455 154.309L42.3931 154.416V156.645L43.5455 156.752C43.6966 157.476 43.98 158.175 44.3956 158.811L43.6588 159.699L45.2331 161.273L46.121 160.537C46.7571 160.952 47.4561 161.236 48.1802 161.387L48.2873 162.539H50.5165L50.6236 161.387C51.3478 161.236 52.0468 160.952 52.6828 160.537L53.5707 161.273L55.145 159.699L54.4082 158.811C54.8238 158.175 55.1072 157.476 55.2584 156.752L56.4107 156.645V154.416L55.2584 154.309C55.1072 153.584 54.8238 152.885 54.4082 152.249L55.145 151.362L53.5707 149.787L52.6828 150.524C52.0468 150.108 51.3478 149.825 50.6236 149.674L50.5165 148.521H48.2873L48.1802 149.674C47.4561 149.825 46.7571 150.102 46.121 150.524L45.2331 149.787L43.6588 151.362L44.3956 152.249ZM51.5367 153.402C52.7143 154.579 52.7143 156.488 51.5367 157.665C50.3591 158.843 48.451 158.843 47.2734 157.665C46.0958 156.488 46.0958 154.579 47.2734 153.402C48.451 152.224 50.3591 152.224 51.5367 153.402Z" fill="white"/>
<path d="M142.96 47.2041C144.949 47.2041 146.562 45.5914 146.562 43.602C146.562 41.6127 144.949 40 142.96 40C140.97 40 139.358 41.6127 139.358 43.602C139.358 45.5914 140.97 47.2041 142.96 47.2041Z" fill="white"/>
<path d="M189.717 57.4813C191.07 57.4813 192.167 56.3846 192.167 55.0317C192.167 53.6788 191.07 52.582 189.717 52.582C188.364 52.582 187.267 53.6788 187.267 55.0317C187.267 56.3846 188.364 57.4813 189.717 57.4813Z" fill="white"/>
<path d="M253.332 107.306C254.685 107.306 255.781 106.209 255.781 104.856C255.781 103.503 254.685 102.406 253.332 102.406C251.979 102.406 250.882 103.503 250.882 104.856C250.882 106.209 251.979 107.306 253.332 107.306Z" fill="white"/>
<path d="M207.179 165.254C207.931 165.254 208.54 164.645 208.54 163.893C208.54 163.142 207.931 162.533 207.179 162.533C206.428 162.533 205.819 163.142 205.819 163.893C205.819 164.645 206.428 165.254 207.179 165.254Z" fill="white"/>
<path d="M169.44 39.4782C170.191 39.4782 170.8 38.8692 170.8 38.118C170.8 37.3668 170.191 36.7578 169.44 36.7578C168.689 36.7578 168.08 37.3668 168.08 38.118C168.08 38.8692 168.689 39.4782 169.44 39.4782Z" fill="white"/>
<path d="M259.062 140.329C259.062 141.236 258.325 141.973 257.418 141.973C256.512 141.973 255.775 141.236 255.775 140.329C255.775 139.422 256.512 138.686 257.418 138.686C258.325 138.686 259.062 139.422 259.062 140.329Z" fill="white"/>
<path d="M167.796 169.252C168.704 169.252 169.44 168.516 169.44 167.608C169.44 166.701 168.704 165.965 167.796 165.965C166.889 165.965 166.153 166.701 166.153 167.608C166.153 168.516 166.889 169.252 167.796 169.252Z" fill="white"/>
<path d="M60.9507 134.378C60.9507 135.285 60.214 136.022 59.3072 136.022C58.4004 136.022 57.6636 135.285 57.6636 134.378C57.6636 133.471 58.4004 132.734 59.3072 132.734C60.214 132.734 60.9507 133.471 60.9507 134.378Z" fill="white"/>
<path d="M116.896 174.258C117.804 174.258 118.539 173.522 118.539 172.614C118.539 171.707 117.804 170.971 116.896 170.971C115.988 170.971 115.252 171.707 115.252 172.614C115.252 173.522 115.988 174.258 116.896 174.258Z" fill="white"/>
<path d="M169.44 167.935L169.345 167.91L58.7341 134.9L59.0805 134.528L143.029 43.8984L257.394 139.875L256.852 140.051L169.446 167.935H169.44ZM59.8865 134.579L169.434 167.274L256.109 139.623L143.08 44.7675L59.8865 134.585V134.579Z" fill="white"/>
<path d="M167.695 168.187L167.563 168.03L95.2078 85.2963L189.937 54.6602L190.076 54.8302L257.293 139.906L256.858 140.045L167.708 168.181L167.695 168.187ZM96.3035 85.6049L167.897 167.463L256.222 139.585L189.711 55.3969L96.3098 85.5986L96.3035 85.6049Z" fill="white"/>
<path d="M115.945 173.182L115.907 172.873C111.083 132.136 101.814 54.6546 101.272 53.0111L100.838 52.3184L101.65 52.5891L230.366 89.1951L167.954 168.125L115.938 173.182H115.945ZM101.959 53.3322C103.35 61.6824 114.163 152.772 116.499 172.495L167.633 167.527L229.289 89.5414L101.959 53.3322Z" fill="white"/>
<path d="M207.815 164.158L207.645 164.146L111.285 156.217L111.203 156.06C104.515 142.993 82.733 100.26 83.1927 98.9503L83.2368 98.818L83.369 98.7613L189.862 54.668L190.007 54.7813L253.59 104.794L253.401 105.04L207.809 164.152L207.815 164.158ZM111.688 155.613L207.526 163.503L252.721 104.907L189.774 55.3922L83.8413 99.2525C84.6411 102.237 100.749 134.234 111.694 155.613H111.688Z" fill="white"/>
<path d="M183.54 175.234L183.174 175.121L85.5417 145.127L169.465 37.1797L193.905 76.2227L193.892 76.3297L183.54 175.234ZM86.5997 144.793L182.998 174.409L193.263 76.3675L169.415 38.2691L86.606 144.793H86.5997Z" fill="white"/>
<path d="M160.007 176.298C159.252 177.45 158.741 178.71 158.471 180.013L156.393 180.208V184.226L158.471 184.421C158.741 185.725 159.252 186.99 160.007 188.137L158.678 189.736L161.519 192.576L163.118 191.247C164.27 192.003 165.53 192.513 166.833 192.784L167.029 194.862H171.046L171.241 192.784C172.545 192.513 173.811 192.003 174.957 191.247L176.556 192.576L179.403 189.736L178.074 188.137C178.83 186.984 179.34 185.725 179.611 184.421L181.689 184.226V180.208L179.611 180.013C179.34 178.71 178.83 177.444 178.074 176.298L179.403 174.698L176.563 171.858L174.963 173.187C173.811 172.431 172.551 171.921 171.248 171.65L171.053 169.572H167.029L166.833 171.65C165.53 171.921 164.264 172.431 163.118 173.187L161.519 171.858L158.678 174.705L160.007 176.304V176.298ZM172.898 178.376C175.026 180.504 175.026 183.949 172.898 186.071C170.769 188.2 167.325 188.2 165.202 186.071C163.08 183.943 163.074 180.498 165.202 178.376C167.331 176.247 170.775 176.247 172.898 178.376Z" fill="white"/>
<path d="M54.8317 137.024C40.2661 126.276 19.7454 129.371 8.99773 143.937C0.700209 155.181 0.685095 169.959 7.79726 181.066L5.14956 190.547L15.4907 189.426C15.6354 189.537 15.7639 189.662 15.9114 189.771C30.477 200.518 50.9977 197.423 61.7453 182.858C72.493 168.292 69.3982 147.772 54.8326 137.024H54.8317Z" fill="white"/>
<path d="M72.2802 162.44H72.2736C72.1431 162.436 72.0401 162.328 72.0439 162.197C72.3558 151.665 66.9291 141.029 58.2194 135.099C58.1117 135.026 58.0833 134.879 58.157 134.771C58.2308 134.663 58.3782 134.636 58.485 134.709C67.3242 140.727 72.8313 151.522 72.5156 162.211C72.5118 162.34 72.4069 162.441 72.2793 162.441L72.2802 162.44Z" fill="#EC912A"/>
<path d="M71.1838 172.098C71.1554 172.098 71.1261 172.094 71.0987 172.082C70.9768 172.035 70.9163 171.899 70.9626 171.777C71.5335 170.297 71.7972 168.677 71.7263 167.094C71.7207 166.964 71.8218 166.853 71.9513 166.847C72.0978 166.83 72.1924 166.943 72.198 167.072C72.2718 168.721 71.9977 170.406 71.404 171.946C71.3672 172.04 71.2783 172.098 71.1838 172.098Z" fill="#EC912A"/>
<path d="M33.2438 165.006C33.7958 164.068 34.6002 163.034 35.6561 161.902C36.4312 161.074 37.0002 160.378 37.3632 159.812C37.7281 159.247 37.9096 158.606 37.9096 157.888C37.9096 156.868 37.5636 156.061 36.8708 155.468C36.1779 154.874 35.2563 154.578 34.1068 154.578C33.0028 154.578 32.0225 154.848 31.1661 155.386C30.3087 155.923 29.5875 156.675 29.0005 157.64L24.7393 154.703C25.7261 152.937 27.057 151.571 28.7368 150.606C30.4146 149.64 32.4053 149.158 34.7061 149.158C37.4067 149.158 39.5723 149.835 41.2039 151.186C42.8354 152.538 43.6511 154.413 43.6511 156.814C43.6511 157.945 43.4923 158.938 43.1757 159.792C42.859 160.648 42.4714 161.372 42.0139 161.965C41.5574 162.558 40.9637 163.241 40.2359 164.014C39.3672 164.924 38.7339 165.69 38.334 166.31C37.9351 166.93 37.7347 167.683 37.7347 168.565H32.4176C32.4176 167.13 32.6927 165.945 33.2447 165.006L33.2438 165.006ZM32.6813 177.547C32.0348 176.893 31.7125 176.097 31.7125 175.158C31.7125 174.218 32.0291 173.435 32.6634 172.806C33.2977 172.177 34.1077 171.862 35.0937 171.862C36.0796 171.862 36.8897 172.177 37.5239 172.806C38.1582 173.436 38.4749 174.22 38.4749 175.158C38.4749 176.095 38.1525 176.893 37.5069 177.547C36.8604 178.201 36.0569 178.528 35.0937 178.528C34.1304 178.528 33.327 178.201 32.6823 177.547H32.6813Z" fill="#EC912A"/>
<path d="M243.186 35.2106C243.738 34.2729 244.542 33.2388 245.598 32.1073C246.373 31.2793 246.942 30.5826 247.305 30.0173C247.67 29.4521 247.852 28.8112 247.852 28.0928C247.852 27.0728 247.506 26.2665 246.813 25.6729C246.12 25.0793 245.198 24.7834 244.049 24.7834C242.945 24.7834 241.965 25.0528 241.108 25.5907C240.251 26.1276 239.53 26.88 238.943 27.8451L234.681 24.9082C235.668 23.1424 236.999 21.7765 238.679 20.8114C240.357 19.8454 242.347 19.3633 244.648 19.3633C247.349 19.3633 249.514 20.0401 251.146 21.3909C252.778 22.7426 253.593 24.618 253.593 27.019C253.593 28.1504 253.434 29.143 253.118 29.9975C252.801 30.853 252.414 31.577 251.956 32.1697C251.5 32.7633 250.906 33.4458 250.178 34.219C249.309 35.1293 248.676 35.895 248.276 36.5151C247.877 37.1352 247.677 37.8876 247.677 38.7705H242.36C242.36 37.3356 242.635 36.1502 243.187 35.2116L243.186 35.2106ZM242.623 47.7524C241.977 47.0983 241.655 46.3023 241.655 45.3627C241.655 44.4232 241.971 43.6405 242.606 43.0109C243.24 42.3823 244.05 42.0666 245.036 42.0666C246.022 42.0666 246.832 42.3823 247.466 43.0109C248.1 43.6414 248.417 44.425 248.417 45.3627C248.417 46.3004 248.095 47.0983 247.449 47.7524C246.802 48.4065 245.999 48.7336 245.036 48.7336C244.073 48.7336 243.269 48.4065 242.624 47.7524H242.623Z" fill="#EC912A"/>
<path d="M234.895 55.125H88.7285V174.828H234.895V55.125Z" fill="#2A3337"/>
<path d="M230.862 59.7617H93.5339V170.19H230.862V59.7617Z" fill="white"/>
<path opacity="0.2" d="M230.862 59.7617V170.191L234.895 174.827V55.125L230.862 59.7617Z" fill="white"/>
<path d="M211.843 82.2852H181.131V109.687H211.843V82.2852Z" fill="#EC912A"/>
<g opacity="0.6">
<path d="M211.843 82.2852H181.131V109.687H211.843V82.2852Z" fill="white"/>
</g>
<path d="M210.857 83.498H182.218V108.472H210.857V83.498Z" fill="#EC912A"/>
<path opacity="0.2" d="M210.858 108.472V97.3765L204.996 92.3848L198.116 99.8503L190.915 96.0968C190.842 96.0585 190.752 96.0722 190.693 96.1299L182.219 102.344V108.472H210.858L210.858 108.472Z" fill="#2A3337"/>
<path opacity="0.2" d="M199.772 90.0894C199.772 91.7986 198.418 93.1847 196.748 93.1847C195.078 93.1847 193.725 91.7991 193.725 90.0894C193.725 88.3797 195.078 86.9941 196.748 86.9941C198.418 86.9941 199.772 88.3797 199.772 90.0894Z" fill="#2A3337"/>
<path d="M161.533 142.387H138.445V162.986H161.533V142.387Z" fill="#EC912A"/>
<g opacity="0.6">
<path d="M161.533 142.387H138.445V162.986H161.533V142.387Z" fill="white"/>
</g>
<path d="M160.791 143.299H139.262V162.073H160.791V143.299Z" fill="#EC912A"/>
<path opacity="0.2" d="M160.792 162.072V153.731L156.385 149.979L151.214 155.591L145.8 152.769C145.745 152.74 145.678 152.75 145.633 152.794L139.263 157.465V162.072L160.792 162.072Z" fill="#2A3337"/>
<path opacity="0.2" d="M152.458 148.254C152.458 149.539 151.441 150.581 150.185 150.581C148.93 150.581 147.912 149.539 147.912 148.254C147.912 146.969 148.93 145.928 150.185 145.928C151.441 145.928 152.458 146.969 152.458 148.254Z" fill="#2A3337"/>
<path d="M136.054 103.178H105.342V130.579H136.054V103.178Z" fill="#EC912A"/>
<g opacity="0.6">
<path d="M136.054 103.178H105.342V130.579H136.054V103.178Z" fill="white"/>
</g>
<path d="M135.067 104.393H106.428V129.367H135.067V104.393Z" fill="#EC912A"/>
<path opacity="0.2" d="M135.068 129.366V118.27L129.206 113.279L122.326 120.745L115.125 116.991C115.051 116.953 114.962 116.967 114.903 117.024L106.429 123.238V129.366H135.068H135.068Z" fill="#2A3337"/>
<path opacity="0.2" d="M123.981 110.982C123.981 112.691 122.628 114.077 120.958 114.077C119.288 114.077 117.934 112.691 117.934 110.982C117.934 109.273 119.288 107.887 120.958 107.887C122.628 107.887 123.981 109.272 123.981 110.982Z" fill="#2A3337"/>
<path d="M129.395 72.2285H106.728V94.8952H129.395V72.2285Z" fill="#EC912A"/>
<path d="M125.641 78.9712H110.6C110.527 78.9712 110.469 78.9125 110.469 78.8401C110.469 78.7677 110.527 78.709 110.6 78.709H125.641C125.713 78.709 125.772 78.7677 125.772 78.8401C125.772 78.9125 125.713 78.9712 125.641 78.9712Z" fill="#2A3337"/>
<path d="M125.641 81.7153H110.6C110.527 81.7153 110.469 81.6566 110.469 81.5842C110.469 81.5119 110.527 81.4531 110.6 81.4531H125.641C125.713 81.4531 125.772 81.5119 125.772 81.5842C125.772 81.6566 125.713 81.7153 125.641 81.7153Z" fill="#2A3337"/>
<path d="M125.641 84.4614H110.6C110.527 84.4614 110.469 84.4027 110.469 84.3303C110.469 84.258 110.527 84.1992 110.6 84.1992H125.641C125.713 84.1992 125.772 84.258 125.772 84.3303C125.772 84.4027 125.713 84.4614 125.641 84.4614Z" fill="#2A3337"/>
<path d="M125.641 87.2056H110.6C110.527 87.2056 110.469 87.1468 110.469 87.0745C110.469 87.0021 110.527 86.9434 110.6 86.9434H125.641C125.713 86.9434 125.772 87.0021 125.772 87.0745C125.772 87.1468 125.713 87.2056 125.641 87.2056Z" fill="#2A3337"/>
<path d="M200.058 77.8555H196.488V85.3142H200.058V77.8555Z" fill="#2A3337"/>
<path d="M220.422 133.088H165.354V165.77H220.422V133.088Z" fill="#EC912A"/>
<path opacity="0.7" d="M220.422 133.088H165.354V165.77H220.422V133.088Z" fill="white"/>
<path d="M173.721 151.339L173.546 151.144C173.779 150.933 180.161 144.633 180.225 144.569L180.292 144.504L186.641 147.628L192.899 140.266L192.996 140.406L199.28 149.461L205.373 145.485L205.516 145.704L199.21 149.82L192.877 140.696L186.708 147.955L180.343 144.822C179.622 145.533 173.948 151.134 173.72 151.339L173.721 151.339Z" fill="#2A3337"/>
<path d="M175.624 154.107H172.644V160.711H175.624V154.107Z" fill="#EC912A"/>
<path d="M181.76 149.742H178.78V160.709H181.76V149.742Z" fill="#EC912A"/>
<path d="M188.014 150.846H185.033V160.71H188.014V150.846Z" fill="#EC912A"/>
<path d="M194.379 144.662H191.399V160.71H194.379V144.662Z" fill="#EC912A"/>
<path d="M200.812 153.172H197.831V160.71H200.812V153.172Z" fill="#EC912A"/>
<path d="M175.736 150.494C175.736 151.378 175.019 152.095 174.135 152.095C173.251 152.095 172.534 151.378 172.534 150.494C172.534 149.61 173.251 148.893 174.135 148.893C175.019 148.893 175.736 149.61 175.736 150.494Z" fill="#EC912A"/>
<path d="M181.872 144.662C181.872 145.546 181.155 146.263 180.271 146.263C179.387 146.263 178.67 145.546 178.67 144.662C178.67 143.777 179.387 143.061 180.271 143.061C181.155 143.061 181.872 143.777 181.872 144.662Z" fill="#EC912A"/>
<path d="M188.276 147.291C188.276 148.175 187.559 148.892 186.675 148.892C185.791 148.892 185.074 148.175 185.074 147.291C185.074 146.406 185.791 145.689 186.675 145.689C187.559 145.689 188.276 146.406 188.276 147.291Z" fill="#EC912A"/>
<path d="M194.49 140.48C194.49 141.364 193.773 142.081 192.889 142.081C192.004 142.081 191.287 141.364 191.287 140.48C191.287 139.596 192.004 138.879 192.889 138.879C193.773 138.879 194.49 139.596 194.49 140.48Z" fill="#EC912A"/>
<path d="M199.245 151.241C200.13 151.241 200.847 150.524 200.847 149.64C200.847 148.756 200.13 148.039 199.245 148.039C198.361 148.039 197.644 148.756 197.644 149.64C197.644 150.524 198.361 151.241 199.245 151.241Z" fill="#EC912A"/>
<path d="M207.181 149.393H204.201V160.711H207.181V149.393Z" fill="#EC912A"/>
<path opacity="0.3" d="M181.76 149.742H178.78V160.709H181.76V149.742Z" fill="#2A3337"/>
<path opacity="0.3" d="M194.379 144.662H191.399V160.71H194.379V144.662Z" fill="#2A3337"/>
<path opacity="0.3" d="M207.181 149.393H204.201V160.711H207.181V149.393Z" fill="#2A3337"/>
<path d="M213.775 153.172H210.794V160.71H213.775V153.172Z" fill="#EC912A"/>
<path d="M212.221 149.508L205.381 145.71L205.509 145.48L212.348 149.278L212.221 149.508Z" fill="#2A3337"/>
<path d="M207.404 145.595C207.404 146.48 206.687 147.196 205.803 147.196C204.918 147.196 204.201 146.48 204.201 145.595C204.201 144.711 204.918 143.994 205.803 143.994C206.687 143.994 207.404 144.711 207.404 145.595Z" fill="#EC912A"/>
<path d="M213.886 149.392C213.886 150.276 213.169 150.993 212.285 150.993C211.401 150.993 210.684 150.276 210.684 149.392C210.684 148.508 211.401 147.791 212.285 147.791C213.169 147.791 213.886 148.508 213.886 149.392Z" fill="#EC912A"/>
<path d="M113.156 100.43H110.847V106.394H113.156V100.43Z" fill="#2A3337"/>
<path d="M133.314 127.598H131.006V133.562H133.314V127.598Z" fill="#2A3337"/>
<path d="M176.317 69.2812H139.49V119.484H176.317V69.2812Z" fill="#EC912A"/>
<path opacity="0.7" d="M176.317 69.2812H139.49V119.484H176.317V69.2812Z" fill="white"/>
<path d="M162.925 73.4224H152.137C152.065 73.4224 152.006 73.3636 152.006 73.2913C152.006 73.2189 152.065 73.1602 152.137 73.1602H162.925C162.998 73.1602 163.056 73.2189 163.056 73.2913C163.056 73.3636 162.998 73.4224 162.925 73.4224Z" fill="#2A3337"/>
<path d="M148.912 84.565H144.613C144.54 84.565 144.481 84.5062 144.481 84.4338C144.481 84.3615 144.54 84.3027 144.613 84.3027H148.912C148.984 84.3027 149.043 84.3615 149.043 84.4338C149.043 84.5062 148.984 84.565 148.912 84.565Z" fill="#2A3337"/>
<path d="M170.287 77.2349H165.987C165.915 77.2349 165.856 77.1761 165.856 77.1038C165.856 77.0314 165.915 76.9727 165.987 76.9727H170.287C170.359 76.9727 170.418 77.0314 170.418 77.1038C170.418 77.1761 170.359 77.2349 170.287 77.2349Z" fill="#2A3337"/>
<path d="M170.287 78.4986H165.987C165.915 78.4986 165.856 78.4398 165.856 78.3674C165.856 78.2951 165.915 78.2363 165.987 78.2363H170.287C170.359 78.2363 170.418 78.2951 170.418 78.3674C170.418 78.4398 170.359 78.4986 170.287 78.4986Z" fill="#2A3337"/>
<path d="M149.221 77.2349H144.922C144.85 77.2349 144.791 77.1761 144.791 77.1038C144.791 77.0314 144.85 76.9727 144.922 76.9727H149.221C149.294 76.9727 149.352 77.0314 149.352 77.1038C149.352 77.1761 149.294 77.2349 149.221 77.2349Z" fill="#2A3337"/>
<path d="M170.616 87.6216H144.612C144.54 87.6216 144.481 87.5629 144.481 87.4905C144.481 87.4181 144.54 87.3594 144.612 87.3594H170.616C170.689 87.3594 170.747 87.4181 170.747 87.4905C170.747 87.5629 170.689 87.6216 170.616 87.6216Z" fill="#2A3337"/>
<path d="M170.616 89.7388H144.612C144.54 89.7388 144.481 89.68 144.481 89.6077C144.481 89.5353 144.54 89.4766 144.612 89.4766H170.616C170.689 89.4766 170.747 89.5353 170.747 89.6077C170.747 89.68 170.689 89.7388 170.616 89.7388Z" fill="#2A3337"/>
<path d="M170.616 91.856H144.612C144.54 91.856 144.481 91.7972 144.481 91.7249C144.481 91.6525 144.54 91.5938 144.612 91.5938H170.616C170.689 91.5938 170.747 91.6525 170.747 91.7249C170.747 91.7972 170.689 91.856 170.616 91.856Z" fill="#2A3337"/>
<path d="M170.616 93.9732H144.612C144.54 93.9732 144.481 93.9144 144.481 93.842C144.481 93.7697 144.54 93.7109 144.612 93.7109H170.616C170.689 93.7109 170.747 93.7697 170.747 93.842C170.747 93.9144 170.689 93.9732 170.616 93.9732Z" fill="#2A3337"/>
<path d="M170.616 96.0884H144.612C144.54 96.0884 144.481 96.0297 144.481 95.9573C144.481 95.8849 144.54 95.8262 144.612 95.8262H170.616C170.689 95.8262 170.747 95.8849 170.747 95.9573C170.747 96.0297 170.689 96.0884 170.616 96.0884Z" fill="#2A3337"/>
<path d="M170.616 98.2056H144.612C144.54 98.2056 144.481 98.1468 144.481 98.0745C144.481 98.0021 144.54 97.9434 144.612 97.9434H170.616C170.689 97.9434 170.747 98.0021 170.747 98.0745C170.747 98.1468 170.689 98.2056 170.616 98.2056Z" fill="#2A3337"/>
<path d="M170.616 100.323H144.612C144.54 100.323 144.481 100.264 144.481 100.192C144.481 100.119 144.54 100.061 144.612 100.061H170.616C170.689 100.061 170.747 100.119 170.747 100.192C170.747 100.264 170.689 100.323 170.616 100.323Z" fill="#2A3337"/>
<path d="M157.532 102.44H144.612C144.54 102.44 144.481 102.381 144.481 102.309C144.481 102.236 144.54 102.178 144.612 102.178H157.532C157.604 102.178 157.663 102.236 157.663 102.309C157.663 102.381 157.604 102.44 157.532 102.44Z" fill="#2A3337"/>
<path d="M171.179 115.954H144.613C144.54 115.954 144.481 115.895 144.481 115.823C144.481 115.75 144.54 115.691 144.613 115.691H171.179C171.251 115.691 171.31 115.75 171.31 115.823C171.31 115.895 171.251 115.954 171.179 115.954Z" fill="#2A3337"/>
<path d="M169.606 110.551H163.146C163.073 110.551 163.014 110.493 163.014 110.42C163.014 110.348 163.073 110.289 163.146 110.289H169.606C169.678 110.289 169.737 110.348 169.737 110.42C169.737 110.493 169.678 110.551 169.606 110.551Z" fill="#2A3337"/>
<path d="M162.146 113.051C161.368 113.051 160.576 112.82 159.882 112.38C159.425 112.09 158.833 111.59 158.609 110.849C158.356 110.008 158.677 108.978 159.408 108.287C159.997 107.73 160.832 107.357 161.889 107.176C161.963 107.163 162.028 107.212 162.04 107.284C162.052 107.355 162.004 107.423 161.933 107.435C160.927 107.606 160.139 107.957 159.587 108.478C158.927 109.103 158.635 110.025 158.86 110.773C159.06 111.437 159.602 111.893 160.021 112.159C160.924 112.731 161.998 112.926 162.97 112.693C163.992 112.449 164.852 111.721 165.215 110.794C165.595 109.825 165.394 108.686 164.716 107.96C164.221 107.43 163.472 107.097 162.606 107.021C161.743 106.947 160.877 107.131 160.219 107.301C160.148 107.319 160.077 107.277 160.059 107.207C160.042 107.136 160.084 107.065 160.154 107.047C160.831 106.872 161.724 106.683 162.628 106.76C163.559 106.84 164.368 107.203 164.908 107.781C165.654 108.58 165.876 109.829 165.46 110.89C165.066 111.896 164.135 112.684 163.031 112.948C162.742 113.017 162.445 113.051 162.146 113.051V113.051Z" fill="#EC912A"/>
<path d="M169.015 91.2204C168.237 91.2204 167.444 90.9902 166.749 90.5496C166.292 90.2596 165.7 89.7588 165.478 89.0193C165.224 88.1781 165.545 87.1486 166.276 86.4568C166.865 85.8999 167.7 85.5265 168.756 85.346C168.832 85.3329 168.896 85.3822 168.907 85.4536C168.919 85.5249 168.872 85.5925 168.8 85.6051C167.795 85.7761 167.006 86.127 166.456 86.6477C165.794 87.2723 165.502 88.1954 165.728 88.9438C165.928 89.6067 166.469 90.0629 166.889 90.3288C167.791 90.9005 168.867 91.0961 169.837 90.8633C170.86 90.6183 171.721 89.8909 172.083 88.9647C172.463 87.9961 172.262 86.8565 171.584 86.1301C171.089 85.5999 170.339 85.2669 169.473 85.1919C168.609 85.1169 167.744 85.302 167.087 85.4714C167.014 85.4897 166.945 85.4473 166.927 85.377C166.909 85.3067 166.951 85.2354 167.022 85.217C167.699 85.0424 168.592 84.852 169.496 84.9302C170.427 85.0104 171.237 85.3728 171.776 85.9507C172.522 86.7495 172.743 87.9992 172.327 89.0602C171.934 90.065 171.004 90.8533 169.899 91.1181C169.61 91.1874 169.313 91.2209 169.014 91.2209L169.015 91.2204Z" fill="#EC912A"/>
<path d="M146.6 80.8337C145.822 80.8337 145.03 80.6034 144.335 80.1624C143.878 79.8724 143.286 79.3715 143.063 78.6321C142.81 77.7908 143.13 76.7613 143.861 76.0696C144.45 75.5126 145.285 75.1392 146.342 74.9588C146.417 74.9473 146.481 74.995 146.493 75.0663C146.505 75.1376 146.457 75.2053 146.386 75.2179C145.381 75.3889 144.592 75.7397 144.041 76.2605C143.38 76.8856 143.088 77.8081 143.313 78.5565C143.513 79.2194 144.055 79.6757 144.475 79.9416C145.378 80.5138 146.454 80.7078 147.423 80.476C148.446 80.2311 149.306 79.5037 149.669 78.5775C150.048 77.6083 149.848 76.4687 149.17 75.7429C148.675 75.2126 147.925 74.8796 147.06 74.8046C146.197 74.7291 145.33 74.9148 144.673 75.0847C144.604 75.1025 144.531 75.0606 144.513 74.9903C144.495 74.92 144.537 74.8487 144.607 74.8303C145.284 74.6557 146.181 74.4653 147.082 74.5434C148.012 74.6237 148.822 74.9861 149.362 75.564C150.108 76.3622 150.329 77.612 149.914 78.6735C149.52 79.6783 148.589 80.4666 147.485 80.7314C147.196 80.8006 146.899 80.8347 146.6 80.8347L146.6 80.8337Z" fill="#EC912A"/>
<path d="M145.457 69.5983L144.099 67.7324L137.554 72.4975L138.913 74.3634L145.457 69.5983Z" fill="#2A3337"/>
<path d="M180.268 118.034L178.909 116.168L172.365 120.933L173.724 122.799L180.268 118.034Z" fill="#2A3337"/>
<path d="M188.605 129.163L186.306 129.371L187.035 137.434L189.334 137.226L188.605 129.163Z" fill="#2A3337"/>
<path d="M184.484 72.9624C184.477 72.9624 184.471 72.9624 184.463 72.9608C184.392 72.9493 184.343 72.8821 184.355 72.8103C184.446 72.2402 184.85 71.7283 185.383 71.5065C185.915 71.2847 186.563 71.3581 187.033 71.6953C187.174 71.7965 187.296 71.9166 187.414 72.033C187.528 72.1442 187.634 72.2491 187.754 72.3372C187.97 72.4961 188.286 72.5942 188.505 72.4573C188.665 72.3577 188.742 72.1605 188.823 71.9523C188.913 71.7231 189.006 71.4866 189.219 71.3355C189.623 71.0487 190.062 71.271 190.49 71.486C190.846 71.6654 191.182 71.8364 191.485 71.7247C191.601 71.6822 191.705 71.5972 191.815 71.5075C191.965 71.3854 192.121 71.2584 192.328 71.2212C192.67 71.1593 192.944 71.3618 193.21 71.5558C193.438 71.7231 193.662 71.8831 193.88 71.8505C194.041 71.8301 194.181 71.7179 194.329 71.5988C194.484 71.4745 194.644 71.346 194.851 71.2988C195.294 71.1992 195.684 71.5212 195.996 71.7818L196.045 71.8217C196.325 72.0546 196.741 72.2512 196.988 72.0404C197.043 71.9932 197.127 72 197.173 72.0545C197.22 72.1096 197.214 72.1925 197.159 72.2397C196.788 72.557 196.254 72.3362 195.877 72.0236L195.829 71.9832C195.534 71.7367 195.234 71.4813 194.91 71.5542C194.762 71.5878 194.632 71.6927 194.494 71.8033C194.323 71.9397 194.148 72.0808 193.914 72.1107C193.583 72.1531 193.313 71.9575 193.055 71.7672C192.824 71.5978 192.609 71.4383 192.375 71.4792C192.234 71.5044 192.111 71.6046 191.981 71.711C191.859 71.8107 191.733 71.9135 191.575 71.9712C191.17 72.1206 190.763 71.9171 190.372 71.7205C189.983 71.5238 189.646 71.3544 189.371 71.5495C189.222 71.6554 189.147 71.8463 189.068 72.0483C188.974 72.2874 188.878 72.5339 188.645 72.6802C188.3 72.8963 187.867 72.7452 187.599 72.5491C187.464 72.45 187.346 72.333 187.231 72.2203C187.114 72.1059 187.005 71.9979 186.881 71.9088C186.483 71.6234 185.936 71.561 185.484 71.7493C185.034 71.9371 184.692 72.3703 184.615 72.8528C184.604 72.9173 184.549 72.9629 184.485 72.9629L184.484 72.9624Z" fill="#2A3337"/>
<path d="M184.484 75.021C184.477 75.021 184.47 75.021 184.463 75.0194C184.392 75.0079 184.343 74.9407 184.354 74.8689C184.446 74.2988 184.85 73.7875 185.383 73.5651C185.915 73.3433 186.563 73.4172 187.033 73.7539C187.174 73.8551 187.297 73.9752 187.415 74.0922C187.527 74.2028 187.634 74.3077 187.754 74.3958C187.971 74.5548 188.287 74.6539 188.506 74.5159C188.665 74.4163 188.742 74.2191 188.823 74.0109C188.914 73.7817 189.006 73.5452 189.219 73.3941C189.623 73.1073 190.064 73.3296 190.49 73.5441C190.847 73.724 191.183 73.8939 191.485 73.7833C191.601 73.7408 191.705 73.6558 191.815 73.5662C191.965 73.444 192.121 73.3171 192.329 73.2798C192.67 73.2179 192.944 73.4198 193.21 73.6144C193.438 73.7817 193.662 73.9422 193.88 73.9092C194.041 73.8882 194.181 73.7759 194.329 73.6574C194.484 73.5331 194.645 73.4046 194.851 73.3574C195.298 73.2573 195.684 73.5793 195.996 73.8394L196.045 73.8803C196.325 74.1137 196.742 74.3119 196.988 74.099C197.044 74.0518 197.127 74.0586 197.173 74.1132C197.22 74.1682 197.214 74.2511 197.159 74.2983C196.787 74.6161 196.254 74.3953 195.878 74.0822L195.828 74.0413C195.534 73.7953 195.226 73.5394 194.911 73.6134C194.763 73.6475 194.632 73.7518 194.494 73.8625C194.324 73.9988 194.148 74.1399 193.915 74.1698C193.583 74.2107 193.314 74.0161 193.055 73.8263C192.824 73.6569 192.609 73.4975 192.375 73.5384C192.234 73.5635 192.112 73.6637 191.982 73.7702C191.859 73.8698 191.733 73.9726 191.576 74.0303C191.168 74.1808 190.763 73.9763 190.373 73.7791C189.983 73.5824 189.646 73.413 189.371 73.6081C189.222 73.7141 189.147 73.905 189.068 74.1074C188.974 74.346 188.878 74.593 188.645 74.7394C188.299 74.9565 187.866 74.8044 187.6 74.6082C187.464 74.5091 187.346 74.3927 187.232 74.2799C187.115 74.1656 187.006 74.0576 186.881 73.9679C186.484 73.6826 185.936 73.6202 185.485 73.8085C185.034 73.9962 184.692 74.4294 184.615 74.9114C184.605 74.9759 184.549 75.0215 184.486 75.0215L184.484 75.021Z" fill="#2A3337"/>
<path d="M203.121 79.0324C203.104 79.0324 203.087 79.0292 203.071 79.0224C203.004 78.9946 202.972 78.9181 202.999 78.8509C203.409 77.8608 203.412 76.7243 203.007 75.7331C202.602 74.7413 201.805 73.9316 200.819 73.5115C200.753 73.4832 200.721 73.4061 200.75 73.3395C200.778 73.2729 200.857 73.2419 200.921 73.2703C201.97 73.7176 202.818 74.5788 203.249 75.634C203.68 76.6886 203.677 77.8975 203.242 78.9516C203.221 79.002 203.172 79.0324 203.121 79.0324Z" fill="#2A3337"/>
<path d="M203.043 79.1249C203.034 79.1249 203.026 79.1244 203.017 79.1223C202.976 79.1139 202.942 79.0872 202.924 79.0499C202.591 78.3445 202.349 77.5993 202.208 76.8346C202.195 76.7633 202.241 76.6951 202.313 76.682C202.386 76.6684 202.453 76.7156 202.466 76.7869C202.593 77.4719 202.802 78.1405 203.087 78.7772C203.531 78.3828 203.992 77.9989 204.459 77.6344C204.514 77.5893 204.598 77.6003 204.643 77.657C204.687 77.7142 204.677 77.7965 204.62 77.8411C204.111 78.2381 203.61 78.6587 203.13 79.0903C203.106 79.1123 203.075 79.1239 203.043 79.1239V79.1249Z" fill="#2A3337"/>
<path d="M160.669 118.467H143.607V135.529H160.669V118.467Z" fill="#EC912A"/>
<path d="M157.843 123.575H146.521C146.449 123.575 146.39 123.516 146.39 123.444C146.39 123.371 146.449 123.312 146.521 123.312H157.843C157.915 123.312 157.974 123.371 157.974 123.444C157.974 123.516 157.915 123.575 157.843 123.575Z" fill="#2A3337"/>
<path d="M157.843 125.641H146.521C146.449 125.641 146.39 125.582 146.39 125.51C146.39 125.438 146.449 125.379 146.521 125.379H157.843C157.915 125.379 157.974 125.438 157.974 125.51C157.974 125.582 157.915 125.641 157.843 125.641Z" fill="#2A3337"/>
<path d="M157.843 127.708H146.521C146.449 127.708 146.39 127.649 146.39 127.576C146.39 127.504 146.449 127.445 146.521 127.445H157.843C157.915 127.445 157.974 127.504 157.974 127.576C157.974 127.649 157.915 127.708 157.843 127.708Z" fill="#2A3337"/>
<path d="M157.843 129.774H146.521C146.449 129.774 146.39 129.715 146.39 129.643C146.39 129.57 146.449 129.512 146.521 129.512H157.843C157.915 129.512 157.974 129.57 157.974 129.643C157.974 129.715 157.915 129.774 157.843 129.774Z" fill="#2A3337"/>
<path d="M207.715 105.908H190.653V122.971H207.715V105.908Z" fill="#EC912A"/>
<path opacity="0.7" d="M207.715 105.908H190.653V122.971H207.715V105.908Z" fill="white"/>
<path d="M204.889 111.016H193.567C193.494 111.016 193.436 110.957 193.436 110.885C193.436 110.813 193.494 110.754 193.567 110.754H204.889C204.961 110.754 205.02 110.813 205.02 110.885C205.02 110.957 204.961 111.016 204.889 111.016Z" fill="#2A3337"/>
<path d="M204.889 113.083H193.567C193.495 113.083 193.436 113.024 193.436 112.951C193.436 112.879 193.495 112.82 193.567 112.82H204.889C204.962 112.82 205.02 112.879 205.02 112.951C205.02 113.024 204.962 113.083 204.889 113.083Z" fill="#2A3337"/>
<path d="M204.889 115.149H193.567C193.495 115.149 193.436 115.09 193.436 115.018C193.436 114.945 193.495 114.887 193.567 114.887H204.889C204.962 114.887 205.02 114.945 205.02 115.018C205.02 115.09 204.962 115.149 204.889 115.149Z" fill="#2A3337"/>
<path d="M204.889 117.215H193.567C193.495 117.215 193.436 117.157 193.436 117.084C193.436 117.012 193.495 116.953 193.567 116.953H204.889C204.962 116.953 205.02 117.012 205.02 117.084C205.02 117.157 204.962 117.215 204.889 117.215Z" fill="#2A3337"/>
<path d="M131.99 138.6H114.928V155.662H131.99V138.6Z" fill="#EC912A"/>
<path opacity="0.7" d="M131.99 138.6H114.928V155.662H131.99V138.6Z" fill="white"/>
<path d="M129.164 143.708H117.842C117.77 143.708 117.711 143.649 117.711 143.576C117.711 143.504 117.77 143.445 117.842 143.445H129.164C129.236 143.445 129.295 143.504 129.295 143.576C129.295 143.649 129.236 143.708 129.164 143.708Z" fill="#2A3337"/>
<path d="M129.164 145.774H117.842C117.77 145.774 117.711 145.715 117.711 145.643C117.711 145.57 117.77 145.512 117.842 145.512H129.164C129.236 145.512 129.295 145.57 129.295 145.643C129.295 145.715 129.236 145.774 129.164 145.774Z" fill="#2A3337"/>
<path d="M129.164 147.84H117.842C117.77 147.84 117.711 147.782 117.711 147.709C117.711 147.637 117.77 147.578 117.842 147.578H129.164C129.236 147.578 129.295 147.637 129.295 147.709C129.295 147.782 129.236 147.84 129.164 147.84Z" fill="#2A3337"/>
<path d="M129.164 149.907H117.842C117.77 149.907 117.711 149.848 117.711 149.776C117.711 149.703 117.77 149.645 117.842 149.645H129.164C129.236 149.645 129.295 149.703 129.295 149.776C129.295 149.848 129.236 149.907 129.164 149.907Z" fill="#2A3337"/>
<path d="M227.372 114.014H210.31V131.076H227.372V114.014Z" fill="#EC912A"/>
<path opacity="0.7" d="M227.372 114.014H210.31V131.076H227.372V114.014Z" fill="white"/>
<path d="M224.546 119.122H213.224C213.152 119.122 213.093 119.063 213.093 118.99C213.093 118.918 213.152 118.859 213.224 118.859H224.546C224.619 118.859 224.678 118.918 224.678 118.99C224.678 119.063 224.619 119.122 224.546 119.122Z" fill="#2A3337"/>
<path d="M224.546 121.188H213.224C213.152 121.188 213.093 121.129 213.093 121.057C213.093 120.985 213.152 120.926 213.224 120.926H224.546C224.619 120.926 224.677 120.985 224.677 121.057C224.677 121.129 224.619 121.188 224.546 121.188Z" fill="#2A3337"/>
<path d="M224.546 123.254H213.224C213.152 123.254 213.093 123.196 213.093 123.123C213.093 123.051 213.152 122.992 213.224 122.992H224.546C224.619 122.992 224.677 123.051 224.677 123.123C224.677 123.196 224.619 123.254 224.546 123.254Z" fill="#2A3337"/>
<path d="M224.546 125.321H213.224C213.152 125.321 213.093 125.262 213.093 125.19C213.093 125.117 213.152 125.059 213.224 125.059H224.546C224.619 125.059 224.677 125.117 224.677 125.19C224.677 125.262 224.619 125.321 224.546 125.321Z" fill="#2A3337"/>
<path opacity="0.3" d="M88.7285 55.125L93.534 59.7617H230.862L234.895 55.125H88.7285Z" fill="white"/>
<path opacity="0.3" d="M88.7285 174.828L93.534 170.191H230.862L234.895 174.828H88.7285Z" fill="white"/>
<path d="M216.873 77.2352C216.806 77.2352 216.749 77.1844 216.742 77.1162L216.732 77.0108C216.603 75.6325 216.609 75.6084 217.414 74.4399L217.492 74.3256C217.722 73.992 218.01 73.691 218.29 73.3994C218.664 73.0092 219.017 72.6411 219.243 72.2005C219.562 71.579 219.534 70.8233 219.166 70.1253C218.722 69.2841 217.868 68.6893 216.936 68.5724C215.986 68.4523 214.956 68.8267 214.253 69.5505C213.696 70.1247 213.435 70.8322 213.539 71.492C213.55 71.5633 213.501 71.6304 213.429 71.642C213.359 71.6546 213.291 71.6042 213.28 71.5329C213.164 70.7908 213.45 70.002 214.065 69.3685C214.824 68.5876 215.935 68.1838 216.969 68.3128C217.985 68.4402 218.915 69.0884 219.398 70.0036C219.807 70.7782 219.835 71.6226 219.477 72.3206C219.233 72.7952 218.85 73.1949 218.479 73.5809C218.207 73.8646 217.926 74.1583 217.708 74.474L217.629 74.5883C217.124 75.3226 216.912 76.1218 216.993 76.9861L217.003 77.0915C217.01 77.1639 216.957 77.2274 216.885 77.2342H216.873V77.2352Z" fill="#2A3337"/>
<path d="M217.125 79.1002C217.358 79.1002 217.547 78.9112 217.547 78.678C217.547 78.4449 217.358 78.2559 217.125 78.2559C216.892 78.2559 216.703 78.4449 216.703 78.678C216.703 78.9112 216.892 79.1002 217.125 79.1002Z" fill="#2A3337"/>
<path d="M216.81 80.7288C215.255 80.7288 213.673 80.1876 212.284 79.1523C211.379 78.4774 210.209 77.3141 209.771 75.6049C209.275 73.6697 209.909 71.295 211.347 69.6955C212.52 68.3901 214.19 67.5132 216.308 67.0889C216.381 67.0732 216.449 67.1215 216.462 67.1917C216.476 67.2631 216.43 67.3323 216.359 67.3459C214.298 67.7587 212.677 68.6083 211.542 69.8701C210.159 71.4073 209.55 73.6849 210.025 75.5394C210.444 77.1741 211.57 78.2917 212.441 78.9415C214.296 80.3255 216.505 80.7975 218.506 80.2332C220.618 79.638 222.399 77.8643 223.152 75.6034C223.945 73.225 223.525 70.4281 222.109 68.6434C221.084 67.3506 219.536 66.5388 217.751 66.3579C215.985 66.1795 214.219 66.6222 212.877 67.0286C212.811 67.0496 212.735 67.0108 212.713 66.941C212.692 66.8718 212.731 66.7984 212.801 66.7774C214.165 66.3642 215.963 65.9126 217.777 66.0972C219.632 66.2855 221.244 67.1319 222.315 68.4808C223.783 70.3321 224.22 73.2281 223.4 75.6868C222.62 78.0284 220.771 79.8677 218.576 80.486C217.999 80.6486 217.406 80.7283 216.808 80.7283L216.81 80.7288Z" fill="#EC912A"/>
<path d="M215.496 87.572C215.45 87.572 215.404 87.5473 215.381 87.5043C215.346 87.4409 215.369 87.3611 215.432 87.3265C218.235 85.7815 221.176 84.4347 224.173 83.3229C224.239 83.2972 224.316 83.3323 224.341 83.4C224.366 83.4676 224.332 83.5432 224.264 83.5683C221.279 84.6754 218.351 86.017 215.559 87.5557C215.539 87.5667 215.517 87.572 215.496 87.572Z" fill="#EC912A"/>
<path d="M216.481 89.3166C216.433 89.3166 216.386 89.2898 216.363 89.2432C216.331 89.1781 216.358 89.1 216.423 89.068C219.059 87.7758 221.8 86.6335 224.572 85.6732C224.641 85.6496 224.715 85.6858 224.739 85.754C224.762 85.8227 224.726 85.8972 224.658 85.9208C221.896 86.8774 219.164 88.0154 216.539 89.3029C216.52 89.3119 216.501 89.3161 216.481 89.3161V89.3166Z" fill="#EC912A"/>
<path d="M217.422 91.789C217.373 91.789 217.327 91.7623 217.304 91.7156C217.272 91.6506 217.298 91.5724 217.363 91.5404C219.997 90.2487 222.739 89.1065 225.512 88.1457C225.58 88.1226 225.655 88.1583 225.679 88.2265C225.703 88.2952 225.666 88.3696 225.598 88.3932C222.835 89.3503 220.103 90.4884 217.479 91.7754C217.46 91.7843 217.441 91.7885 217.422 91.7885V91.789Z" fill="#EC912A"/>
<path opacity="0.2" d="M88.7285 55.125L93.534 59.7617V170.191L88.7285 174.827V55.125Z" fill="white"/>
<path d="M221.2 171.485C219.264 171.273 217.097 171.123 217.097 171.123L215.175 170.882C215.202 171.01 215.242 171.135 215.293 171.255C215.403 171.475 215.455 171.72 215.444 171.966C215.383 172.437 214.883 172.701 214.426 172.785C213.944 172.869 213.448 172.827 212.988 172.662C212.527 172.496 212.117 172.215 211.798 171.843C211.504 171.48 211.307 171.047 211.225 170.587C211.143 170.127 211.178 169.653 211.327 169.21C211.219 168.965 211.16 168.701 211.153 168.433C211.106 166.62 213.258 165.093 213.258 165.093L212.599 164.914C212.599 164.914 210.503 165.202 209.4 168.546C209.244 169.049 208.909 169.478 208.458 169.752C208.322 169.844 208.166 169.905 208.003 169.928C207.84 169.952 207.673 169.938 207.516 169.889C206.711 169.601 206.706 168.946 207.366 166.86C208.025 164.773 209.358 162.955 210.752 162.47C211.395 162.226 212.055 162.029 212.726 161.881C212.726 161.881 206.862 159.936 206.499 159.794C205.439 159.399 204.733 158.588 204.935 157.863C205.062 157.392 205.576 156.897 206.819 157.326C207.898 157.693 219.443 160.077 219.443 160.077L224.488 161.429L228.468 163.223L225.675 170.195L225.204 170.501C224.026 171.289 222.609 171.637 221.2 171.485Z" fill="#EC912A"/>
<path d="M223.757 162.245C223.71 162.914 223.042 163.385 222.387 163.531C221.732 163.677 221.04 163.592 220.375 163.691C218.383 163.978 216.847 165.796 214.841 165.994C214.563 166.022 214.21 165.966 214.125 165.702C214.04 165.438 214.261 165.231 214.455 165.047L219.419 160.605" fill="#EC912A"/>
<path d="M219.415 160.605C219.201 160.722 219.003 160.866 218.826 161.034C218.468 161.326 217.955 161.76 217.323 162.296L215.124 164.209C214.921 164.393 214.709 164.576 214.493 164.765C214.276 164.953 213.979 165.127 213.923 165.58C213.919 165.691 213.951 165.802 214.012 165.895C214.074 165.989 214.162 166.061 214.266 166.102C214.436 166.172 214.621 166.199 214.803 166.183C215.132 166.152 215.455 166.086 215.769 165.985C217.022 165.561 217.988 164.798 218.958 164.336C219.403 164.11 219.879 163.951 220.371 163.865C220.842 163.79 221.29 163.799 221.709 163.766C222.052 163.773 222.393 163.704 222.707 163.565C223.021 163.426 223.301 163.219 223.527 162.961C223.612 162.867 223.675 162.757 223.713 162.636C223.75 162.516 223.761 162.388 223.744 162.264C223.67 162.484 223.558 162.689 223.414 162.871C223.186 163.088 222.915 163.256 222.62 163.364C222.324 163.471 222.009 163.517 221.695 163.498C221.237 163.494 220.779 163.515 220.324 163.559C219.794 163.636 219.279 163.795 218.798 164.03C217.78 164.501 216.805 165.25 215.642 165.636C215.36 165.728 215.07 165.789 214.775 165.82C214.497 165.843 214.257 165.744 214.304 165.598C214.351 165.452 214.53 165.231 214.747 165.043L215.369 164.477L217.512 162.504C218.119 161.938 218.605 161.477 218.925 161.152C219.245 160.827 219.434 160.624 219.415 160.605Z" fill="#2A3337"/>
<path d="M213.31 165.018C212.894 164.924 212.463 164.924 212.048 165.018C211.613 165.147 211.231 165.413 210.959 165.776C210.624 166.23 210.361 166.734 210.182 167.269C209.996 167.824 209.755 168.359 209.462 168.866C209.209 169.289 208.85 169.638 208.421 169.879C208.271 169.96 208.104 170.005 207.935 170.01C207.765 170.016 207.596 169.982 207.441 169.912C207.234 169.803 207.153 169.7 207.158 169.69C207.163 169.681 207.276 169.752 207.478 169.822C207.62 169.871 207.772 169.887 207.921 169.87C208.07 169.853 208.213 169.803 208.34 169.723C208.731 169.483 209.055 169.147 209.283 168.748C209.558 168.249 209.786 167.726 209.966 167.185C210.155 166.625 210.437 166.101 210.799 165.635C211.108 165.245 211.537 164.969 212.019 164.848C212.341 164.769 212.677 164.769 212.999 164.848C213.114 164.88 213.221 164.938 213.31 165.018Z" fill="#2A3337"/>
<path d="M206.089 159.631C206.488 159.727 206.878 159.855 207.257 160.012L210.041 160.997L212.844 161.939C213.24 162.044 213.626 162.185 213.998 162.358C213.588 162.318 213.183 162.233 212.792 162.104C212.057 161.906 211.054 161.604 209.966 161.228C208.878 160.851 207.893 160.469 207.196 160.173C206.807 160.037 206.435 159.855 206.089 159.631Z" fill="#2A3337"/>
<path d="M214.167 166.781C214.095 166.887 214.011 166.985 213.918 167.073C213.798 167.186 213.704 167.323 213.643 167.475C213.581 167.627 213.553 167.79 213.56 167.954C213.575 168.06 213.619 168.159 213.686 168.242C213.753 168.324 213.841 168.388 213.941 168.425C214.188 168.527 214.448 168.595 214.714 168.628C215.051 168.672 215.36 168.84 215.58 169.099C215.688 169.243 215.759 169.412 215.788 169.589C215.818 169.767 215.805 169.949 215.75 170.121C215.69 170.292 215.597 170.449 215.474 170.583C215.352 170.716 215.204 170.824 215.039 170.898C214.739 171.044 214.403 171.097 214.073 171.049C213.554 170.948 213.054 170.769 212.589 170.517C212.268 170.36 211.977 170.15 211.727 169.895C211.632 169.802 211.563 169.687 211.525 169.56C211.548 169.56 211.619 169.669 211.798 169.829C212.062 170.045 212.353 170.226 212.665 170.366C213.123 170.584 213.607 170.742 214.106 170.837C214.394 170.88 214.689 170.828 214.944 170.687C215.199 170.547 215.401 170.326 215.519 170.06C215.565 169.922 215.579 169.776 215.56 169.632C215.54 169.488 215.487 169.351 215.406 169.231C215.217 169.025 214.962 168.893 214.685 168.859C214.402 168.814 214.127 168.731 213.866 168.614C213.739 168.561 213.629 168.476 213.546 168.367C213.463 168.257 213.411 168.128 213.395 167.992C213.391 167.804 213.432 167.619 213.514 167.45C213.596 167.282 213.716 167.135 213.866 167.021C213.951 166.924 214.053 166.843 214.167 166.781Z" fill="#2A3337"/>
<path d="M214.874 170.738C214.874 170.738 215.01 170.738 215.194 170.884C215.319 170.991 215.417 171.126 215.48 171.278C215.543 171.431 215.57 171.596 215.557 171.76C215.529 172.007 215.438 172.242 215.29 172.442C215.143 172.643 214.946 172.8 214.718 172.9C214.166 173.135 213.544 173.15 212.98 172.942C212.421 172.757 211.935 172.397 211.595 171.915C211.322 171.524 211.16 171.067 211.124 170.592C211.096 170.274 211.13 169.954 211.223 169.65C211.289 169.438 211.355 169.329 211.369 169.334C211.287 169.74 211.263 170.156 211.299 170.568C211.352 171.005 211.514 171.421 211.77 171.779C212.091 172.216 212.538 172.545 213.051 172.721C213.553 172.91 214.107 172.91 214.61 172.721C214.806 172.641 214.98 172.513 215.113 172.348C215.246 172.184 215.336 171.988 215.373 171.779C215.391 171.636 215.377 171.49 215.334 171.353C215.29 171.215 215.216 171.089 215.119 170.983C214.987 170.799 214.864 170.757 214.874 170.738Z" fill="#2A3337"/>
<path d="M220.182 168.062C220.194 167.862 220.265 167.67 220.385 167.511C220.659 167.079 221.065 166.749 221.544 166.569V166.785C221.308 166.672 221.073 166.54 220.809 166.39C219.96 165.915 219.261 165.212 218.793 164.359C219.438 165.037 220.155 165.642 220.931 166.163C221.171 166.309 221.402 166.441 221.638 166.554L221.887 166.677L221.624 166.766C221.18 166.929 220.793 167.215 220.507 167.591C220.295 167.873 220.215 168.076 220.182 168.062Z" fill="#2A3337"/>
<path d="M210.197 164.783C210.244 164.736 210.588 165.104 210.625 165.688C210.663 166.272 210.39 166.691 210.338 166.63C210.286 166.569 210.423 166.196 210.38 165.688C210.338 165.179 210.14 164.821 210.197 164.783Z" fill="#2A3337"/>
<path d="M272.143 153.634C272.143 153.634 259.646 174.967 255.487 177.044C251.327 179.122 236.283 176.102 232.788 175.292C228.817 174.36 223.758 172.786 223.758 172.786L225.237 160.94L228.511 161.01C228.511 161.01 247.06 162.895 248.134 162.042C249.208 161.189 256.344 147.511 256.344 147.511C256.344 147.511 260.828 138.457 262.434 136.385C264.79 133.342 266.763 133.342 266.763 133.342L272.143 153.634Z" fill="#C7C7C7"/>
<path d="M257.13 196.875C257.46 179.946 258.982 145.532 258.982 145.532L266.763 133.379C268.526 132.893 270.325 132.547 272.142 132.343C275.119 132.013 275.623 131.731 275.623 131.731L277.79 128.316L295.647 127.256L298.374 132.315C298.374 132.315 309.552 138.141 311.04 138.961C312.529 139.781 302.825 179.941 302.825 179.941L304.71 196.898L257.13 196.875Z" fill="#C7C7C7"/>
<path d="M272.665 196.874C272.731 193.907 272.886 190.369 273.094 186.45C273.301 182.531 273.64 178.221 274.083 173.709C274.526 169.196 275.1 164.938 275.703 161.028C276.306 157.119 276.984 153.671 277.677 150.774C277.842 150.053 277.997 149.361 278.148 148.706C278.299 148.051 278.482 147.448 278.619 146.879C278.916 145.734 279.175 144.749 279.434 143.958L279.98 142.116C280.037 141.923 280.079 141.763 280.117 141.645C280.135 141.592 280.146 141.537 280.15 141.48C280.121 141.529 280.098 141.581 280.084 141.636C280.037 141.758 279.985 141.914 279.914 142.107C279.768 142.55 279.561 143.157 279.302 143.93C279.043 144.702 278.751 145.701 278.435 146.841C278.275 147.411 278.101 148.023 277.922 148.668C277.743 149.314 277.597 150.011 277.422 150.732C276.702 153.628 276.038 157.109 275.373 160.991C274.709 164.872 274.191 169.168 273.725 173.709C273.259 178.249 272.981 182.541 272.783 186.464C272.585 190.388 272.462 193.93 272.425 196.902" fill="#2A3337"/>
<path d="M258.982 145.541C258.916 145.924 258.88 146.311 258.873 146.7C258.822 147.444 258.77 148.523 258.718 149.856C258.61 152.526 258.52 156.21 258.412 160.28C258.304 164.349 258.167 168.033 258.04 170.699C257.974 171.99 257.917 173.054 257.88 173.855C257.842 174.24 257.834 174.627 257.856 175.014C257.939 174.636 257.991 174.251 258.011 173.864C258.092 173.12 258.186 172.046 258.28 170.713C258.473 168.052 258.652 164.364 258.751 160.289C258.85 156.215 258.911 152.531 258.958 149.865C258.958 148.574 258.991 147.51 259.001 146.704C259.022 146.317 259.016 145.928 258.982 145.541Z" fill="#2A3337"/>
<g opacity="0.3">
<path d="M259.603 174.566C259.709 174.042 259.943 173.552 260.285 173.141C260.627 172.73 261.066 172.41 261.563 172.211C262.567 171.821 263.636 171.622 264.714 171.627C278.796 171.003 292.59 175.749 303.306 184.905L303.852 188.674C300.456 190.11 296.518 189.145 293.151 187.623C289.783 186.102 286.584 184.105 282.957 183.384C279.816 182.776 276.433 183.186 273.537 181.844C271.709 180.996 270.206 179.488 268.285 178.886C266.575 178.334 264.7 178.537 262.948 178.132C261.195 177.727 259.382 176.342 259.603 174.566Z" fill="#2A3337"/>
</g>
<path d="M311.041 138.961C312.839 139.936 314.404 141.289 315.628 142.928C316.852 144.567 317.705 146.451 318.13 148.452C319.072 152.63 321.799 164.119 321.799 164.119C321.799 164.119 324.762 177.826 324.338 180.483C323.914 183.139 323.024 189.074 317.239 189.771C311.455 190.469 291.332 183.139 291.332 183.139L285.835 180.902L287.95 170.831L297.399 173.186L306.66 173.964L305.412 165.593L303.363 160.228C303.363 160.228 303.476 154.359 305.718 149.465C307.96 144.571 311.041 138.961 311.041 138.961Z" fill="#C7C7C7"/>
<path d="M276.547 166.054L269.246 151.278C269.001 150.784 268.622 150.37 268.154 150.08C267.685 149.79 267.145 149.637 266.594 149.639H248.252C248.097 149.638 247.944 149.678 247.809 149.754C247.674 149.83 247.561 149.94 247.481 150.073C247.401 150.206 247.357 150.358 247.354 150.513C247.35 150.668 247.387 150.821 247.46 150.958L259.877 173.949C260.049 174.266 260.304 174.53 260.614 174.714C260.924 174.898 261.278 174.995 261.638 174.994H280.668L276.547 166.054Z" fill="#2A3337"/>
<path d="M247.573 151.081C247.693 151.109 247.817 151.12 247.94 151.114H248.991H252.858L265.576 151.006C266.166 151.001 266.748 151.14 267.272 151.411C267.75 151.715 268.138 152.141 268.397 152.645C268.93 153.653 269.377 154.708 269.844 155.664L272.274 160.832C272.966 162.245 273.532 163.427 273.946 164.284L274.417 165.226C274.465 165.34 274.529 165.446 274.606 165.542C274.578 165.423 274.537 165.308 274.483 165.198C274.375 164.944 274.238 164.628 274.069 164.256C273.682 163.385 273.127 162.198 272.5 160.752L270.145 155.57C269.674 154.6 269.255 153.578 268.704 152.518C268.418 151.96 267.986 151.49 267.455 151.157C266.886 150.852 266.25 150.69 265.604 150.686C260.607 150.719 256.113 150.827 252.849 150.893L248.986 151.001L247.936 151.048C247.814 151.047 247.692 151.058 247.573 151.081Z" fill="#2A3337"/>
<path d="M258.883 154.317C258.796 154.349 258.718 154.4 258.654 154.468C258.59 154.535 258.543 154.616 258.516 154.705C258.489 154.793 258.483 154.887 258.499 154.978C258.514 155.069 258.551 155.156 258.605 155.231C258.708 155.386 258.857 155.505 259.031 155.57C259.206 155.635 259.396 155.643 259.575 155.593C259.695 155.567 259.805 155.51 259.894 155.427C259.983 155.344 260.049 155.239 260.084 155.122C260.094 154.941 260.044 154.761 259.943 154.61C259.842 154.459 259.695 154.345 259.524 154.284C259.311 154.243 259.091 154.254 258.883 154.317Z" fill="white"/>
<path d="M287.762 171.741L286.495 170.45C286.495 170.45 284.639 167.77 283.881 166.936C283.122 166.102 278.558 163.168 278.558 163.168C278.558 163.168 276.363 160.229 276.043 160.229C275.722 160.229 274.629 160.417 274.921 161.788C275.193 163.144 275.597 164.471 276.127 165.749L266.391 165.961C266.087 165.963 265.788 166.032 265.514 166.162C265.239 166.292 264.997 166.481 264.804 166.715C264.549 167.035 264.441 167.393 264.898 167.619C265.911 168.118 270.046 169.126 270.046 169.126L268.2 168.655C268.2 168.655 267.804 170.408 268.972 171.237C269.428 171.511 269.846 171.843 270.216 172.226C270.216 172.226 270.272 173.884 270.781 174.553C271.29 175.222 276.773 178.02 276.773 178.02C276.773 178.02 280.282 179.051 282.053 178.962C283.824 178.872 285.652 179.875 285.854 179.927C286.057 179.979 287.762 171.741 287.762 171.741Z" fill="#EC912A"/>
<path d="M275.171 165.777C275.171 165.876 276.401 165.923 277.908 166.083C279.415 166.243 280.659 166.323 280.668 166.215C280.678 166.107 279.462 165.909 277.941 165.744C276.419 165.579 275.166 165.687 275.171 165.777Z" fill="#2A3337"/>
<path d="M276.471 170.064C276.504 169.96 274.729 169.48 272.496 169.225C271.379 169.089 270.371 168.985 269.646 168.905C269.253 168.832 268.854 168.802 268.454 168.816C268.816 168.995 269.207 169.107 269.608 169.145C270.334 169.287 271.342 169.428 272.435 169.564C274.677 169.819 276.448 170.144 276.471 170.064Z" fill="#2A3337"/>
<path d="M276.471 173.224C276.471 173.125 275.058 173.082 273.339 172.786C271.619 172.489 270.267 172.07 270.234 172.164C270.202 172.258 271.525 172.828 273.282 173.106C275.039 173.384 276.476 173.313 276.471 173.224Z" fill="#2A3337"/>
<path d="M275.882 176.767C275.976 176.767 276.118 176.404 276.198 175.919C276.278 175.434 276.268 175.033 276.174 175.014C276.08 174.995 275.939 175.382 275.859 175.862C275.779 176.343 275.788 176.752 275.882 176.767Z" fill="#2A3337"/>
<path d="M276.759 172.526C276.853 172.526 276.905 172.206 277.074 171.871C277.244 171.537 277.451 171.301 277.395 171.221C277.338 171.141 276.971 171.297 276.763 171.725C276.556 172.154 276.664 172.54 276.759 172.526Z" fill="#2A3337"/>
<path d="M277.87 168.282C277.964 168.282 278.063 168.089 278.181 167.858C278.299 167.627 278.398 167.43 278.332 167.359C278.266 167.288 278.021 167.415 277.861 167.708C277.701 168 277.776 168.273 277.87 168.282Z" fill="#2A3337"/>
<path d="M280.164 141.472C280.358 141.38 280.543 141.273 280.72 141.152L282.255 140.238C282.915 139.847 283.716 139.381 284.611 138.825C285.626 138.23 286.593 137.556 287.503 136.809L287.248 136.767C287.991 138.207 288.348 139.815 288.285 141.435V141.821L288.577 141.571C291.441 139.15 294.008 136.922 295.793 135.231C296.688 134.388 297.395 133.691 297.87 133.191C298.128 132.945 298.364 132.677 298.577 132.391C298.292 132.605 298.024 132.841 297.776 133.097L295.628 135.057C293.805 136.696 291.219 138.891 288.355 141.312L288.638 141.449C288.704 139.771 288.327 138.106 287.545 136.621L287.446 136.442L287.291 136.578C286.401 137.321 285.456 137.994 284.465 138.594L282.166 140.073C281.521 140.483 281.012 140.822 280.678 141.067C280.489 141.178 280.316 141.315 280.164 141.472Z" fill="#2A3337"/>
<path d="M275.623 131.711C275.471 131.93 275.346 132.168 275.251 132.417C275.039 132.889 274.752 133.572 274.422 134.429C274.092 135.286 273.716 136.313 273.367 137.476C273.278 137.768 273.193 138.075 273.127 138.39C273.085 138.569 273.07 138.753 273.084 138.937C273.098 138.998 273.135 139.052 273.188 139.086C273.241 139.121 273.305 139.133 273.367 139.12C273.425 139.112 273.477 139.082 273.513 139.036L273.551 138.988L273.706 138.795L274.964 137.175L276.589 135.069L276.311 135.046C277.328 136.954 278.252 138.583 278.954 139.719C279.302 140.288 279.594 140.731 279.806 141.033C279.904 141.195 280.025 141.342 280.164 141.471C280.099 141.293 280.01 141.126 279.9 140.971C279.693 140.599 279.429 140.147 279.133 139.615C278.487 138.456 277.602 136.789 276.603 134.905L276.485 134.674L276.325 134.881C275.812 135.54 275.261 136.242 274.695 136.972L273.447 138.56L273.301 138.758L273.263 138.805L273.325 138.866L273.414 138.842C273.412 138.705 273.426 138.567 273.457 138.433C273.518 138.131 273.593 137.834 273.673 137.547C274.003 136.388 274.361 135.357 274.653 134.49L275.378 132.45C275.484 132.212 275.566 131.965 275.623 131.711Z" fill="#2A3337"/>
<path d="M318.384 173.022C317.842 172.794 317.271 172.644 316.688 172.575C315.288 172.34 313.864 172.276 312.449 172.386C311.037 172.501 309.645 172.789 308.303 173.244C307.738 173.403 307.199 173.642 306.702 173.955C307.268 173.83 307.826 173.673 308.374 173.484C309.714 173.103 311.088 172.854 312.477 172.74C313.867 172.634 315.265 172.662 316.65 172.825C317.223 172.927 317.802 172.993 318.384 173.022Z" fill="#2A3337"/>
<path d="M312.543 170.521C312.543 170.441 310.937 170.658 309.218 171.6C307.499 172.542 306.453 173.757 306.519 173.809C306.585 173.861 307.711 172.801 309.383 171.901C311.055 171.002 312.572 170.625 312.543 170.521Z" fill="#2A3337"/>
<path d="M304.648 160.639C304.636 160.717 304.636 160.796 304.648 160.874C304.648 161.053 304.695 161.279 304.733 161.562C304.818 162.188 304.94 163.069 305.096 164.181L306.485 173.71C306.485 173.79 306.485 173.884 306.485 173.983L306.636 173.837L296.744 172.895L287.964 170.676L287.79 170.634L287.752 170.808C287.583 171.604 287.404 172.457 287.225 173.314C286.678 175.924 286.146 178.463 285.642 180.879L285.614 181.016L285.741 181.067C291.789 183.569 297.99 185.686 304.304 187.408C306.66 188.043 308.544 188.496 309.877 188.788L311.379 189.113L311.77 189.188C311.816 189.195 311.862 189.195 311.907 189.188L311.78 189.141L311.394 189.037L309.9 188.661C308.6 188.326 306.711 187.846 304.361 187.181C298.089 185.399 291.927 183.253 285.906 180.752L286.009 180.936C286.518 178.524 287.05 175.985 287.602 173.375C287.781 172.518 287.96 171.666 288.124 170.87L287.917 170.997L296.702 173.201H296.73L306.66 174.096H306.82V173.941C306.82 173.846 306.82 173.748 306.82 173.668C306.193 169.701 305.68 166.447 305.317 164.162C305.129 163.05 304.987 162.174 304.884 161.552L304.757 160.869C304.728 160.789 304.691 160.712 304.648 160.639Z" fill="#2A3337"/>
<path d="M303.984 150.751C304.158 150.198 304.301 149.637 304.413 149.069C305.11 146.372 306.376 143.856 308.125 141.688C308.516 141.26 308.881 140.808 309.217 140.336C308.737 140.674 308.306 141.076 307.936 141.532C306.044 143.651 304.744 146.231 304.168 149.012C304.024 149.58 303.962 150.165 303.984 150.751Z" fill="#2A3337"/>
<g opacity="0.3">
<path d="M303.65 154.162C304.446 158.467 305.016 163.324 305.703 167.648C305.543 167.85 305.633 168.496 305.468 168.698C304.667 166.484 303.612 163.814 303.16 161.51C302.708 159.207 303.028 156.432 303.65 154.162Z" fill="#2A3337"/>
</g>
<g opacity="0.3">
<path d="M286.613 140.365L280.664 141.18C283.042 139.904 285.294 138.405 287.39 136.705C288.134 138.439 288.549 139.06 288.426 141.576C291.309 139.178 294.036 136.437 296.905 134.039C293.931 138.375 290.294 142.217 286.128 145.424C286.519 143.768 286.682 142.066 286.613 140.365Z" fill="#2A3337"/>
</g>
<path d="M289.486 88.8806C289.186 88.2937 288.713 87.8134 288.13 87.5049C287.548 87.1964 286.885 87.0748 286.231 87.1566C285.471 86.5508 284.532 86.2142 283.56 86.1997C282.588 86.1852 281.639 86.4936 280.861 87.0765C280.293 86.7239 279.645 86.5201 278.978 86.4839C278.31 86.4476 277.644 86.5802 277.041 86.8693C276.447 87.1692 275.94 87.6156 275.567 88.1661C275.193 88.7166 274.966 89.3532 274.907 90.0158C274.242 89.8981 273.556 89.9855 272.941 90.2665C272.326 90.5475 271.811 91.0087 271.464 91.5891C271.145 92.1813 271.014 92.857 271.09 93.5255C271.166 94.194 271.444 94.8234 271.888 95.3291C271.144 95.5328 270.503 96.0079 270.092 96.6607C269.681 97.3135 269.529 98.0967 269.667 98.8558C269.805 99.6149 270.222 100.295 270.836 100.762C271.45 101.228 272.217 101.448 272.985 101.377L288.76 92.4699C289.242 92.0229 289.571 91.4361 289.701 90.7921C289.831 90.1481 289.756 89.4795 289.486 88.8806Z" fill="#2A3337"/>
<path d="M270.974 118.476C271.049 115.08 271.784 108.113 272.519 101.792C272.918 98.5091 274.536 95.496 277.052 93.3499C279.568 91.2037 282.799 90.0811 286.104 90.2045H286.787C294.149 90.9111 297.672 97.4867 296.768 104.764L294.695 127.704L280.475 140.539L277.371 131.467L277.842 126.846C277.842 126.846 270.814 125.509 270.974 118.476Z" fill="#EC912A"/>
<path d="M277.804 126.832C281.092 126.955 284.347 126.138 287.187 124.477C287.187 124.477 284.832 129.46 277.766 128.584L277.804 126.832Z" fill="#2A3337"/>
<path d="M274.587 108.414C274.575 108.677 274.668 108.934 274.844 109.13C275.02 109.325 275.266 109.444 275.529 109.46C275.657 109.475 275.787 109.465 275.911 109.43C276.035 109.395 276.151 109.335 276.251 109.254C276.352 109.173 276.435 109.073 276.496 108.96C276.558 108.846 276.595 108.721 276.608 108.593C276.618 108.33 276.525 108.074 276.349 107.879C276.173 107.683 275.928 107.564 275.666 107.547C275.537 107.528 275.406 107.536 275.28 107.57C275.155 107.604 275.038 107.663 274.937 107.745C274.835 107.826 274.752 107.928 274.692 108.043C274.632 108.158 274.596 108.284 274.587 108.414Z" fill="#2A3337"/>
<path d="M273.923 105.283C274.04 105.42 274.827 104.883 275.92 104.925C277.013 104.967 277.804 105.533 277.908 105.396C278.011 105.259 277.851 105.099 277.512 104.836C277.051 104.493 276.494 104.302 275.92 104.289C275.355 104.267 274.798 104.424 274.328 104.737C273.984 104.991 273.861 105.222 273.923 105.283Z" fill="#2A3337"/>
<path d="M284.187 108.885C284.176 109.148 284.269 109.404 284.445 109.6C284.621 109.795 284.866 109.914 285.129 109.931C285.257 109.949 285.387 109.941 285.512 109.907C285.637 109.872 285.754 109.813 285.854 109.731C285.955 109.65 286.038 109.549 286.098 109.434C286.158 109.319 286.194 109.193 286.203 109.064C286.214 108.801 286.122 108.544 285.946 108.348C285.769 108.153 285.523 108.034 285.261 108.018C285.133 108.003 285.004 108.014 284.88 108.05C284.757 108.085 284.641 108.145 284.541 108.226C284.441 108.307 284.358 108.406 284.297 108.52C284.237 108.633 284.199 108.757 284.187 108.885Z" fill="#2A3337"/>
<path d="M284.62 105.857C284.743 105.989 285.529 105.452 286.617 105.494C287.705 105.537 288.501 106.102 288.605 105.965C288.666 105.909 288.549 105.669 288.209 105.405C287.75 105.063 287.195 104.872 286.622 104.859C286.053 104.842 285.494 105.007 285.025 105.33C284.681 105.56 284.559 105.796 284.62 105.857Z" fill="#2A3337"/>
<path d="M280.386 113.728C279.818 113.528 279.228 113.401 278.629 113.351C278.351 113.313 278.092 113.247 278.049 113.059C278.038 112.773 278.113 112.49 278.266 112.249C278.549 111.589 278.847 110.898 279.161 110.176C280.409 107.223 281.318 104.797 281.2 104.745C281.083 104.693 279.971 107.048 278.723 110.002C278.426 110.727 278.134 111.415 277.861 112.084C277.677 112.411 277.614 112.793 277.682 113.162C277.718 113.262 277.777 113.351 277.854 113.424C277.931 113.496 278.024 113.55 278.125 113.582C278.277 113.631 278.436 113.658 278.596 113.662C279.187 113.759 279.789 113.781 280.386 113.728Z" fill="#2A3337"/>
<path d="M283.579 114.584C283.4 114.584 283.358 115.738 282.317 116.539C281.276 117.34 280.023 117.161 280.009 117.325C280.009 117.401 280.282 117.561 280.814 117.594C281.504 117.628 282.184 117.42 282.736 117.005C283.265 116.607 283.618 116.019 283.721 115.366C283.768 114.876 283.645 114.579 283.579 114.584Z" fill="#2A3337"/>
<path d="M284.488 101.612C284.582 101.909 285.675 101.81 286.947 102.003C288.219 102.196 289.241 102.583 289.42 102.324C289.5 102.201 289.33 101.918 288.949 101.622C288.407 101.247 287.784 101.007 287.131 100.92C286.48 100.82 285.816 100.874 285.19 101.075C284.691 101.25 284.446 101.471 284.488 101.612Z" fill="#2A3337"/>
<path d="M274.431 102.174C274.615 102.423 275.373 102.174 276.278 102.216C277.182 102.259 277.936 102.438 278.12 102.188C278.204 102.065 278.091 101.816 277.766 101.571C277.326 101.279 276.809 101.123 276.28 101.123C275.752 101.123 275.235 101.279 274.794 101.571C274.464 101.821 274.351 102.051 274.431 102.174Z" fill="#2A3337"/>
<path d="M273.315 98.594C273.315 98.594 275.336 94.2557 277.512 93.3043C280.15 92.1502 281.163 95.0094 283.635 94.4112C286.108 93.813 288.643 92.7013 291.097 94.6844C293.786 96.8511 292.444 98.2595 292.51 101.383C292.755 114.049 294.959 117.704 295.807 111.774C295.901 111.124 297.748 110.667 298.115 107.92C298.586 104.359 298.883 100.021 298.167 97.4588C297.564 95.2967 296.386 93.7753 294.238 92.0701C290.847 89.3805 286.071 89.1591 282.816 89.3711C279.561 89.5831 273.216 93.0734 273.315 98.594Z" fill="#2A3337"/>
<path d="M295.402 111.565C295.421 111.306 295.493 111.054 295.612 110.823C295.731 110.593 295.896 110.389 296.096 110.224C296.297 110.059 296.528 109.936 296.777 109.863C297.026 109.79 297.287 109.768 297.545 109.799C298.864 109.968 300.305 110.741 300.126 113.468C299.801 118.268 295.011 116.954 295.011 116.817C295.011 116.68 295.251 113.595 295.402 111.565Z" fill="#EC912A"/>
<path d="M296.184 115.084C296.184 115.084 296.264 115.145 296.405 115.22C296.6 115.318 296.824 115.338 297.032 115.277C297.56 115.121 298.04 114.335 298.125 113.482C298.165 113.072 298.111 112.658 297.969 112.271C297.933 112.118 297.859 111.975 297.756 111.855C297.653 111.736 297.522 111.643 297.376 111.584C297.281 111.552 297.177 111.555 297.084 111.591C296.99 111.627 296.912 111.694 296.862 111.782C296.792 111.913 296.815 112.008 296.787 112.017C296.759 112.027 296.688 111.928 296.745 111.734C296.778 111.618 296.851 111.516 296.952 111.447C297.091 111.356 297.26 111.322 297.423 111.353C297.619 111.405 297.797 111.506 297.943 111.647C298.088 111.789 298.194 111.964 298.252 112.158C298.432 112.587 298.501 113.053 298.455 113.515C298.36 114.457 297.8 115.352 297.088 115.503C296.956 115.532 296.819 115.532 296.687 115.502C296.555 115.472 296.432 115.413 296.325 115.328C296.189 115.197 296.17 115.088 296.184 115.084Z" fill="#2A3337"/>
<path d="M295.637 102.253C295.025 102.711 294.308 103.009 293.551 103.12C292.792 103.167 291.94 102.705 291.836 101.956C291.789 101.622 291.888 101.236 291.676 100.972C291.464 100.708 290.927 100.732 290.522 100.76C289.814 100.793 289.117 100.581 288.547 100.161C287.977 99.7406 287.568 99.1373 287.39 98.4519C287.013 98.9747 286.174 98.9229 285.642 98.5555C285.153 98.1349 284.725 97.6482 284.37 97.1094C284.19 96.8404 283.947 96.6194 283.663 96.4659C283.378 96.3123 283.059 96.2309 282.736 96.2286C282.391 96.3315 282.035 96.3962 281.676 96.4217C281.04 96.3416 280.734 95.5927 280.682 94.9615C280.63 94.3303 280.56 93.6002 280.032 93.2422C279.505 92.8842 278.892 93.0679 278.303 93.1339C277.715 93.1998 276.961 93.035 276.829 92.465C276.811 92.3112 276.823 92.1552 276.866 92.0064C276.909 91.8575 276.981 91.7187 277.079 91.5983C277.496 91.0308 278.092 90.6192 278.77 90.4289C279.449 90.2386 280.171 90.2805 280.823 90.5479C281.097 89.756 281.598 89.0622 282.263 88.5527C282.928 88.0431 283.728 87.7404 284.564 87.6822C285.4 87.624 286.234 87.8128 286.964 88.2252C287.693 88.6375 288.285 89.2553 288.666 90.0015C289.202 89.562 289.834 89.2543 290.51 89.103C291.187 88.9517 291.889 88.9609 292.562 89.1301C293.229 89.3102 293.845 89.6463 294.357 90.1106C294.87 90.5748 295.265 91.1541 295.51 91.8008C296.108 91.6749 296.73 91.7219 297.302 91.9363C297.874 92.1506 298.374 92.5236 298.742 93.0114C299.091 93.5084 299.291 94.0956 299.316 94.7028C299.341 95.3101 299.191 95.9117 298.883 96.4358C299.735 96.9587 300.451 97.8489 300.433 98.8381C300.414 99.8273 299.406 100.793 298.445 100.496C298.614 100.897 298.63 101.346 298.489 101.758C298.348 102.17 298.061 102.515 297.682 102.729C297.289 102.92 296.84 102.962 296.418 102.848C295.997 102.733 295.631 102.47 295.388 102.107" fill="#2A3337"/>
<path d="M298.803 100.496C298.817 100.664 298.794 100.832 298.737 100.99C298.679 101.148 298.587 101.291 298.468 101.41C298.216 101.708 297.862 101.901 297.475 101.952C297.226 101.98 296.975 101.952 296.738 101.87C296.502 101.789 296.287 101.656 296.108 101.481H296.316C296.043 101.921 295.703 102.315 295.308 102.649C295.043 102.872 294.74 103.046 294.413 103.162C294.096 103.265 293.759 103.284 293.433 103.219C293.158 103.185 292.894 103.092 292.658 102.947C292.422 102.801 292.22 102.606 292.067 102.376C291.882 102.063 291.761 101.717 291.709 101.358C291.667 101.113 291.667 100.972 291.709 100.972C291.751 100.972 291.766 101.099 291.836 101.335C291.923 101.669 292.063 101.987 292.251 102.277C292.425 102.488 292.641 102.661 292.885 102.785C293.129 102.909 293.396 102.981 293.669 102.997C293.942 103.013 294.216 102.972 294.473 102.877C294.73 102.783 294.964 102.636 295.162 102.446C295.529 102.133 295.846 101.766 296.104 101.358L296.193 101.217L296.311 101.335C296.464 101.48 296.646 101.592 296.844 101.662C297.043 101.733 297.255 101.761 297.465 101.744C297.805 101.711 298.121 101.559 298.36 101.316C298.562 101.075 298.712 100.796 298.803 100.496Z" fill="#2A3337"/>
<path d="M285.209 115.343C285.129 115.343 285.115 114.834 284.738 114.401C284.361 113.967 283.848 113.878 283.857 113.798C283.866 113.718 283.994 113.727 284.215 113.774C284.498 113.843 284.753 113.998 284.945 114.217C285.141 114.432 285.263 114.705 285.294 114.994C285.294 115.216 285.242 115.348 285.209 115.343Z" fill="#2A3337"/>
<path d="M285.684 114.029C285.614 114.067 285.444 113.898 285.19 113.77C284.935 113.643 284.719 113.61 284.69 113.53C284.662 113.45 284.983 113.356 285.317 113.53C285.651 113.704 285.75 114.001 285.684 114.029Z" fill="#2A3337"/>
<path d="M276.815 86.9968C276.815 86.9497 276.292 87.2606 275.901 88.0566C275.661 88.5181 275.514 89.0222 275.468 89.5404C275.401 90.1949 275.579 90.8508 275.967 91.3821C276.368 91.8884 276.887 92.2881 277.479 92.5456C277.936 92.7589 278.409 92.9384 278.892 93.0826C279.33 93.2482 279.785 93.3651 280.249 93.4311C279.853 93.182 279.425 92.9886 278.977 92.8565C278.51 92.6834 278.052 92.4852 277.606 92.263C277.071 92.0134 276.601 91.6444 276.231 91.1843C275.888 90.7147 275.721 90.1394 275.76 89.5592C275.79 89.0721 275.905 88.5939 276.099 88.1461C276.29 87.7353 276.53 87.3494 276.815 86.9968Z" fill="white"/>
<path d="M273.739 90.1524C273.701 90.1524 273.668 90.4586 273.8 90.9249C273.985 91.5365 274.331 92.0866 274.804 92.517C275.275 92.9505 275.854 93.2498 276.48 93.3837C276.951 93.4732 277.262 93.4214 277.262 93.3837C277.262 93.346 276.975 93.2942 276.542 93.1482C275.985 92.9614 275.473 92.66 275.04 92.2632C274.607 91.8665 274.261 91.3833 274.026 90.8448C273.852 90.4303 273.796 90.1477 273.739 90.1524Z" fill="white"/>
</svg>
