<svg width="72" height="139" viewBox="0 0 72 139" fill="none" xmlns="http://www.w3.org/2000/svg">
<g clip-path="url(#clip0_547_4019)">
<path d="M35.9999 138.097L7.23608 129.252" stroke="url(#paint0_linear_547_4019)" stroke-miterlimit="10"/>
<rect x="34.4297" y="71.1719" width="3.80905" height="68.7922" fill="#EC912A" stroke="#EC912A" stroke-width="2"/>
<path d="M36 71.8467C55.8823 71.8467 72 55.7633 72 35.9234C72 16.0834 55.8823 1.12865e-07 36 7.2709e-08C16.1178 3.25529e-08 -3.24836e-08 16.0834 -7.25542e-08 35.9234C-1.12625e-07 55.7633 16.1178 71.8467 36 71.8467Z" fill="url(#paint1_linear_547_4019)"/>
<path d="M45.968 40.36C46.512 40.36 46.784 40.632 46.784 41.176L46.784 45.544C46.784 46.088 46.512 46.36 45.968 46.36L44.24 46.36C44.048 46.36 43.952 46.456 43.952 46.648L43.952 54.184C43.952 54.728 43.68 55 43.136 55L38 55C37.456 55 37.184 54.728 37.184 54.184L37.184 46.648C37.184 46.456 37.088 46.36 36.896 46.36L22.4 46.36C21.856 46.36 21.584 46.088 21.584 45.544L21.584 42.088C21.584 41.768 21.648 41.432 21.776 41.08L30.32 22.024C30.544 21.608 30.864 21.4 31.28 21.4L36.752 21.4C37.232 21.4 37.472 21.592 37.472 21.976L37.376 22.36L29.504 40.024C29.408 40.248 29.488 40.36 29.744 40.36L36.896 40.36C37.088 40.36 37.184 40.264 37.184 40.072L37.184 34.408C37.184 33.864 37.456 33.592 38 33.592L43.136 33.592C43.68 33.592 43.952 33.864 43.952 34.408L43.952 40.072C43.952 40.264 44.048 40.36 44.24 40.36L45.968 40.36Z" fill="#EC912B"/>
</g>
<defs>
<linearGradient id="paint0_linear_547_4019" x1="7.01339" y1="133.706" x2="36.2548" y2="133.706" gradientUnits="userSpaceOnUse">
<stop stop-color="white" stop-opacity="0"/>
<stop offset="0.6091" stop-color="#E0DCD3" stop-opacity="0.6091"/>
<stop offset="1" stop-color="#CFCABB"/>
</linearGradient>
<linearGradient id="paint1_linear_547_4019" x1="35.9881" y1="71.8226" x2="35.9881" y2="7.26849e-08" gradientUnits="userSpaceOnUse">
<stop stop-color="#E1E2E5"/>
<stop offset="1" stop-color="white"/>
</linearGradient>
<clipPath id="clip0_547_4019">
<rect width="72" height="139" fill="white"/>
</clipPath>
</defs>
</svg>
