<svg width="72" height="139" viewBox="0 0 72 139" fill="none" xmlns="http://www.w3.org/2000/svg">
<g clip-path="url(#clip0_547_4003)">
<path d="M36.0001 138.097L7.23633 129.252" stroke="url(#paint0_linear_547_4003)" stroke-miterlimit="10"/>
<rect x="34.4302" y="71.1719" width="3.80905" height="68.7922" fill="#EC912A" stroke="#EC912A" stroke-width="2"/>
<path d="M36 71.8467C55.8823 71.8467 72 55.7633 72 35.9234C72 16.0834 55.8823 1.12865e-07 36 7.2709e-08C16.1178 3.25529e-08 -3.24836e-08 16.0834 -7.25542e-08 35.9234C-1.12625e-07 55.7633 16.1178 71.8467 36 71.8467Z" fill="url(#paint1_linear_547_4003)"/>
<path d="M24.976 55C24.432 55 24.16 54.728 24.16 54.184L24.16 50.152C24.16 49.8 24.304 49.464 24.592 49.144C25.904 47.832 27.296 46.376 28.768 44.776C30.24 43.144 31.232 42.056 31.744 41.512C33.216 39.848 34.32 38.632 35.056 37.864C37.968 34.632 39.424 32.232 39.424 30.664C39.424 29.544 39.024 28.632 38.224 27.928C37.424 27.192 36.384 26.824 35.104 26.824C33.824 26.824 32.784 27.192 31.984 27.928C31.184 28.632 30.784 29.576 30.784 30.76L30.784 31.72C30.784 32.264 30.512 32.536 29.968 32.536L24.784 32.536C24.24 32.536 23.968 32.264 23.968 31.72L23.968 29.704C24.064 27.976 24.608 26.456 25.6 25.144C26.592 23.8 27.904 22.776 29.536 22.072C31.2 21.368 33.056 21.016 35.104 21.016C37.376 21.016 39.344 21.448 41.008 22.312C42.704 23.144 44 24.28 44.896 25.72C45.824 27.16 46.288 28.76 46.288 30.52C46.288 31.864 45.952 33.24 45.28 34.648C44.608 36.056 43.6 37.576 42.256 39.208C40.976 40.776 38.768 43.192 35.632 46.456C35.6 46.488 34.848 47.288 33.376 48.856C33.28 48.92 33.248 49 33.28 49.096C33.312 49.16 33.392 49.192 33.52 49.192L46.096 49.192C46.64 49.192 46.912 49.464 46.912 50.008L46.912 54.184C46.912 54.728 46.64 55 46.096 55L24.976 55Z" fill="#EC912B"/>
</g>
<defs>
<linearGradient id="paint0_linear_547_4003" x1="7.01363" y1="133.706" x2="36.255" y2="133.706" gradientUnits="userSpaceOnUse">
<stop stop-color="white" stop-opacity="0"/>
<stop offset="0.6091" stop-color="#E0DCD3" stop-opacity="0.6091"/>
<stop offset="1" stop-color="#CFCABB"/>
</linearGradient>
<linearGradient id="paint1_linear_547_4003" x1="35.9881" y1="71.8226" x2="35.9881" y2="7.26849e-08" gradientUnits="userSpaceOnUse">
<stop stop-color="#E1E2E5"/>
<stop offset="1" stop-color="white"/>
</linearGradient>
<clipPath id="clip0_547_4003">
<rect width="72" height="139" fill="white"/>
</clipPath>
</defs>
</svg>
