<svg width="72" height="139" viewBox="0 0 72 139" fill="none" xmlns="http://www.w3.org/2000/svg">
<g clip-path="url(#clip0_547_4011)">
<path d="M36.0001 138.097L7.23633 129.252" stroke="url(#paint0_linear_547_4011)" stroke-miterlimit="10"/>
<rect x="34.4299" y="71.1719" width="3.80905" height="68.7922" fill="#EC912A" stroke="#EC912A" stroke-width="2"/>
<path d="M36 71.8467C55.8823 71.8467 72 55.7633 72 35.9234C72 16.0834 55.8823 1.12865e-07 36 7.2709e-08C16.1178 3.25529e-08 -3.24836e-08 16.0834 -7.25542e-08 35.9234C-1.12625e-07 55.7633 16.1178 71.8467 36 71.8467Z" fill="url(#paint1_linear_547_4011)"/>
<path d="M44.896 38.968C45.536 40.44 45.856 42.136 45.856 44.056C45.856 45.752 45.568 47.352 44.992 48.856C44.192 50.904 42.896 52.504 41.104 53.656C39.312 54.808 37.184 55.384 34.72 55.384C32.288 55.384 30.144 54.776 28.288 53.56C26.464 52.344 25.152 50.696 24.352 48.616C23.968 47.624 23.712 46.36 23.584 44.824C23.584 44.28 23.856 44.008 24.4 44.008L29.584 44.008C30.096 44.008 30.384 44.28 30.448 44.824C30.512 45.592 30.672 46.296 30.928 46.936C31.216 47.768 31.68 48.424 32.32 48.904C32.992 49.352 33.776 49.576 34.672 49.576C36.464 49.576 37.696 48.792 38.368 47.224C38.816 46.264 39.04 45.144 39.04 43.864C39.04 42.488 38.784 41.256 38.272 40.168C37.568 38.664 36.352 37.912 34.624 37.912C34.048 37.912 33.312 38.216 32.416 38.824C32.224 38.92 32.064 38.968 31.936 38.968C31.68 38.968 31.456 38.856 31.264 38.632L28.72 35.224C28.592 35.064 28.528 34.872 28.528 34.648C28.528 34.456 28.624 34.264 28.816 34.072L36.304 27.544C36.4 27.48 36.432 27.416 36.4 27.352C36.368 27.256 36.288 27.208 36.16 27.208L25.072 27.208C24.528 27.208 24.256 26.936 24.256 26.392L24.256 22.216C24.256 21.672 24.528 21.4 25.072 21.4L44.608 21.4C45.152 21.4 45.424 21.672 45.424 22.216L45.424 26.92C45.424 27.304 45.28 27.64 44.992 27.928L38.704 33.64C38.512 33.832 38.576 33.96 38.896 34.024C41.68 34.568 43.68 36.216 44.896 38.968Z" fill="#EC912B"/>
</g>
<defs>
<linearGradient id="paint0_linear_547_4011" x1="7.01363" y1="133.706" x2="36.255" y2="133.706" gradientUnits="userSpaceOnUse">
<stop stop-color="white" stop-opacity="0"/>
<stop offset="0.6091" stop-color="#E0DCD3" stop-opacity="0.6091"/>
<stop offset="1" stop-color="#CFCABB"/>
</linearGradient>
<linearGradient id="paint1_linear_547_4011" x1="35.9881" y1="71.8226" x2="35.9881" y2="7.26849e-08" gradientUnits="userSpaceOnUse">
<stop stop-color="#E1E2E5"/>
<stop offset="1" stop-color="white"/>
</linearGradient>
<clipPath id="clip0_547_4011">
<rect width="72" height="139" fill="white"/>
</clipPath>
</defs>
</svg>
