<svg width="72" height="139" viewBox="0 0 72 139" fill="none" xmlns="http://www.w3.org/2000/svg">
<g clip-path="url(#clip0_547_4027)">
<path d="M35.9999 138.097L7.23608 129.252" stroke="url(#paint0_linear_547_4027)" stroke-miterlimit="10"/>
<rect x="34.4297" y="71.1719" width="3.80905" height="68.7922" fill="#EC912A" stroke="#EC912A" stroke-width="2"/>
<path d="M36 71.8467C55.8823 71.8467 72 55.7633 72 35.9234C72 16.0834 55.8823 1.12865e-07 36 7.2709e-08C16.1178 3.25529e-08 -3.24836e-08 16.0834 -7.25542e-08 35.9234C-1.12625e-07 55.7633 16.1178 71.8467 36 71.8467Z" fill="url(#paint1_linear_547_4027)"/>
<path d="M46.568 39.688C47.048 41.256 47.288 42.776 47.288 44.248C47.288 45.88 47.032 47.352 46.52 48.664C45.784 50.712 44.488 52.344 42.632 53.56C40.776 54.744 38.6 55.336 36.104 55.336C33.672 55.336 31.528 54.76 29.672 53.608C27.848 52.424 26.552 50.824 25.784 48.808C25.496 48.168 25.272 47.368 25.112 46.408L25.112 46.216C25.112 45.768 25.368 45.544 25.88 45.544L31.208 45.544C31.656 45.544 31.96 45.768 32.12 46.216C32.152 46.312 32.232 46.536 32.36 46.888C32.648 47.72 33.112 48.36 33.752 48.808C34.424 49.256 35.208 49.48 36.104 49.48C36.936 49.48 37.656 49.288 38.264 48.904C38.872 48.488 39.336 47.944 39.656 47.272C39.912 46.696 40.04 46.392 40.04 46.36C40.264 45.72 40.376 45.064 40.376 44.392C40.44 43.496 40.296 42.616 39.944 41.752C39.72 40.92 39.272 40.28 38.6 39.832C37.928 39.384 37.096 39.16 36.104 39.16C35.304 39.16 34.568 39.304 33.896 39.592C33.256 39.88 32.76 40.328 32.408 40.936C32.184 41.352 31.864 41.56 31.448 41.56L25.928 41.56C25.384 41.56 25.112 41.288 25.112 40.744L25.112 22.216C25.112 21.672 25.384 21.4 25.928 21.4L45.272 21.4C45.816 21.4 46.088 21.672 46.088 22.216L46.088 26.392C46.088 26.936 45.816 27.208 45.272 27.208L32.168 27.208C32.104 27.208 32.04 27.24 31.976 27.304C31.912 27.368 31.88 27.432 31.88 27.496L31.832 34.456C31.832 34.584 31.864 34.664 31.928 34.696C31.992 34.728 32.072 34.712 32.168 34.648C33.64 33.752 35.288 33.304 37.112 33.304C39.352 33.304 41.304 33.88 42.968 35.032C44.664 36.152 45.864 37.704 46.568 39.688Z" fill="#EC912B"/>
</g>
<defs>
<linearGradient id="paint0_linear_547_4027" x1="7.01339" y1="133.706" x2="36.2548" y2="133.706" gradientUnits="userSpaceOnUse">
<stop stop-color="white" stop-opacity="0"/>
<stop offset="0.6091" stop-color="#E0DCD3" stop-opacity="0.6091"/>
<stop offset="1" stop-color="#CFCABB"/>
</linearGradient>
<linearGradient id="paint1_linear_547_4027" x1="35.9881" y1="71.8226" x2="35.9881" y2="7.26849e-08" gradientUnits="userSpaceOnUse">
<stop stop-color="#E1E2E5"/>
<stop offset="1" stop-color="white"/>
</linearGradient>
<clipPath id="clip0_547_4027">
<rect width="72" height="139" fill="white"/>
</clipPath>
</defs>
</svg>
