<svg width="56" height="56" viewBox="0 0 56 56" fill="none" xmlns="http://www.w3.org/2000/svg">
<g id="Icon">
<rect id="Vector" x="51.7998" y="4.19922" width="8.4" height="47.6" rx="1.4" transform="rotate(90 51.7998 4.19922)" fill="#EC912A"/>
<path id="Vector_2" fill-rule="evenodd" clip-rule="evenodd" d="M32.2002 16.8004C32.2002 16.0272 31.5734 15.4004 30.8002 15.4004H5.6002C4.827 15.4004 4.2002 16.0272 4.2002 16.8004V50.4004C4.2002 51.1736 4.827 51.8004 5.6002 51.8004H30.8002C31.5734 51.8004 32.2002 51.1736 32.2002 50.4004V16.8004ZM26.5998 22.4004H9.79982V25.2004H26.5998V22.4004ZM9.79982 32.2004H26.5998V35.0004H9.79982V32.2004ZM26.5998 42.0004H9.79982V44.8004H26.5998V42.0004Z" fill="#EC912A"/>
<rect id="Vector_3" x="35" y="15.4004" width="16.8" height="36.4" rx="1.4" fill="#EC912A"/>
</g>
</svg>
