<svg width="26" height="36" viewBox="0 0 26 36" fill="none" xmlns="http://www.w3.org/2000/svg">
<path d="M25.0852 20.2913C25.6405 20.2913 25.9182 20.569 25.9182 21.1243V25.5833C25.9182 26.1387 25.6405 26.4163 25.0852 26.4163H23.3212C23.1252 26.4163 23.0272 26.5143 23.0272 26.7103V34.4033C23.0272 34.9587 22.7495 35.2363 22.1942 35.2363H16.9512C16.3958 35.2363 16.1182 34.9587 16.1182 34.4033V26.7103C16.1182 26.5143 16.0202 26.4163 15.8242 26.4163H1.02617C0.470839 26.4163 0.193172 26.1387 0.193172 25.5833V22.0553C0.193172 21.7287 0.258505 21.3857 0.389172 21.0263L9.11117 1.57333C9.33984 1.14866 9.66651 0.936326 10.0912 0.936326H15.6772C16.1672 0.936326 16.4122 1.13233 16.4122 1.52433L16.3142 1.91633L8.27817 19.9483C8.18017 20.177 8.26184 20.2913 8.52317 20.2913H15.8242C16.0202 20.2913 16.1182 20.1933 16.1182 19.9973V14.2153C16.1182 13.66 16.3958 13.3823 16.9512 13.3823H22.1942C22.7495 13.3823 23.0272 13.66 23.0272 14.2153V19.9973C23.0272 20.1933 23.1252 20.2913 23.3212 20.2913H25.0852Z" fill="white"/>
</svg>
