<svg width="23" height="36" viewBox="0 0 23 36" fill="none" xmlns="http://www.w3.org/2000/svg">
<path d="M21.9492 18.634C22.6025 20.1367 22.9292 21.868 22.9292 23.828C22.9292 25.5593 22.6352 27.1927 22.0472 28.728C21.2305 30.8187 19.9075 32.452 18.0782 33.628C16.2488 34.804 14.0765 35.392 11.5612 35.392C9.07851 35.392 6.88984 34.7713 4.99517 33.53C3.13317 32.2887 1.79384 30.6063 0.977172 28.483C0.585172 27.4703 0.323839 26.18 0.193172 24.612C0.193172 24.0567 0.470839 23.779 1.02617 23.779H6.31817C6.84084 23.779 7.13484 24.0567 7.20017 24.612C7.26551 25.396 7.42884 26.1147 7.69017 26.768C7.98417 27.6173 8.45784 28.287 9.11117 28.777C9.79717 29.2343 10.5975 29.463 11.5122 29.463C13.3415 29.463 14.5992 28.6627 15.2852 27.062C15.7425 26.082 15.9712 24.9387 15.9712 23.632C15.9712 22.2273 15.7098 20.9697 15.1872 19.859C14.4685 18.3237 13.2272 17.556 11.4632 17.556C10.8752 17.556 10.1238 17.8663 9.20917 18.487C9.01317 18.585 8.84984 18.634 8.71917 18.634C8.45784 18.634 8.22917 18.5197 8.03317 18.291L5.43617 14.812C5.30551 14.6487 5.24017 14.4527 5.24017 14.224C5.24017 14.028 5.33817 13.832 5.53417 13.636L13.1782 6.972C13.2762 6.90667 13.3088 6.84133 13.2762 6.776C13.2435 6.678 13.1618 6.629 13.0312 6.629H1.71217C1.15684 6.629 0.879172 6.35133 0.879172 5.796V1.533C0.879172 0.977665 1.15684 0.699998 1.71217 0.699998H21.6552C22.2105 0.699998 22.4882 0.977665 22.4882 1.533V6.335C22.4882 6.727 22.3412 7.07 22.0472 7.364L15.6282 13.195C15.4322 13.391 15.4975 13.5217 15.8242 13.587C18.6662 14.1423 20.7078 15.8247 21.9492 18.634Z" fill="white"/>
</svg>
