<svg width="23" height="36" viewBox="0 0 23 36" fill="none" xmlns="http://www.w3.org/2000/svg">
<path d="M21.52 18.389C22.304 19.859 22.696 21.7373 22.696 24.024C22.696 25.9187 22.3857 27.6173 21.765 29.12C20.9157 31.0473 19.5927 32.5663 17.796 33.677C15.9993 34.7877 13.876 35.343 11.426 35.343C8.91067 35.343 6.73833 34.7713 4.909 33.628C3.07967 32.452 1.75667 30.835 0.94 28.777C0.352 27.3397 0.0580002 25.739 0.0580002 23.975V9.226C0.0580002 7.462 0.515333 5.91033 1.43 4.571C2.37733 3.199 3.684 2.15366 5.35 1.435C7.016 0.683666 8.927 0.308 11.083 0.308C13.2063 0.308 15.0847 0.683666 16.718 1.435C18.3513 2.15366 19.609 3.18266 20.491 4.522C21.4057 5.82867 21.863 7.34767 21.863 9.079V10.206C21.863 10.7613 21.5853 11.039 21.03 11.039H15.787C15.5257 11.039 15.3133 10.99 15.15 10.892C15.0193 10.794 14.954 10.6633 14.954 10.5V10.01C14.954 8.932 14.5947 8.03367 13.876 7.315C13.1573 6.59633 12.2263 6.237 11.083 6.237C9.87433 6.237 8.878 6.61267 8.094 7.364C7.34267 8.08266 6.967 9.01366 6.967 10.157V14.665C6.967 14.7957 6.99967 14.8773 7.065 14.91C7.13033 14.9427 7.212 14.91 7.31 14.812C8.682 13.7013 10.446 13.146 12.602 13.146C14.562 13.146 16.3097 13.6033 17.845 14.518C19.413 15.4 20.638 16.6903 21.52 18.389ZM15.052 27.209C15.542 26.3597 15.787 25.3307 15.787 24.122C15.787 22.8153 15.5257 21.7373 15.003 20.888C14.1863 19.5813 12.994 18.928 11.426 18.928C9.662 18.928 8.437 19.5977 7.751 20.937C7.261 21.7863 7.016 22.8807 7.016 24.22C7.016 25.396 7.22833 26.3923 7.653 27.209C8.37167 28.6463 9.613 29.365 11.377 29.365C13.0757 29.365 14.3007 28.6463 15.052 27.209Z" fill="white"/>
</svg>
