<svg width="23" height="36" viewBox="0 0 23 36" fill="none" xmlns="http://www.w3.org/2000/svg">
<path d="M22.059 19.369C22.549 20.9697 22.794 22.5213 22.794 24.024C22.794 25.69 22.5327 27.1927 22.01 28.532C21.2587 30.6227 19.9357 32.2887 18.041 33.53C16.1463 34.7387 13.925 35.343 11.377 35.343C8.89433 35.343 6.70567 34.755 4.811 33.579C2.949 32.3703 1.626 30.737 0.842 28.679C0.548 28.0257 0.319333 27.209 0.156 26.229V26.033C0.156 25.5757 0.417333 25.347 0.94 25.347H6.379C6.83633 25.347 7.14667 25.5757 7.31 26.033C7.34267 26.131 7.42433 26.3597 7.555 26.719C7.849 27.5683 8.32267 28.2217 8.976 28.679C9.662 29.1363 10.4623 29.365 11.377 29.365C12.2263 29.365 12.9613 29.169 13.582 28.777C14.2027 28.3523 14.6763 27.797 15.003 27.111C15.2643 26.523 15.395 26.2127 15.395 26.18C15.6237 25.5267 15.738 24.857 15.738 24.171C15.8033 23.2563 15.6563 22.358 15.297 21.476C15.0683 20.6267 14.611 19.9733 13.925 19.516C13.239 19.0587 12.3897 18.83 11.377 18.83C10.5603 18.83 9.809 18.977 9.123 19.271C8.46967 19.565 7.96333 20.0223 7.604 20.643C7.37533 21.0677 7.04867 21.28 6.624 21.28H0.989C0.433667 21.28 0.156 21.0023 0.156 20.447V1.533C0.156 0.977665 0.433667 0.699998 0.989 0.699998H20.736C21.2913 0.699998 21.569 0.977665 21.569 1.533V5.796C21.569 6.35133 21.2913 6.629 20.736 6.629H7.359C7.29367 6.629 7.22833 6.66166 7.163 6.727C7.09767 6.79233 7.065 6.85766 7.065 6.923L7.016 14.028C7.016 14.1587 7.04867 14.2403 7.114 14.273C7.17933 14.3057 7.261 14.2893 7.359 14.224C8.86167 13.3093 10.544 12.852 12.406 12.852C14.6927 12.852 16.6853 13.44 18.384 14.616C20.1153 15.7593 21.3403 17.3437 22.059 19.369Z" fill="white"/>
</svg>
