<svg width="13" height="35" viewBox="0 0 13 35" fill="none" xmlns="http://www.w3.org/2000/svg">
<path d="M5.09317 0.895998C5.38717 0.765331 5.73017 0.699998 6.12217 0.699998H11.6592C12.2145 0.699998 12.4922 0.977665 12.4922 1.533V34.167C12.4922 34.7223 12.2145 35 11.6592 35H6.41617C5.86084 35 5.58317 34.7223 5.58317 34.167V7.462C5.58317 7.364 5.55051 7.28233 5.48517 7.217C5.41984 7.15167 5.33817 7.13533 5.24017 7.168L0.928172 8.05H0.732172C0.242172 8.05 -0.00282807 7.805 -0.00282807 7.315V3.591C-0.00282807 3.101 0.209505 2.79067 0.634172 2.66L5.09317 0.895998Z" fill="white"/>
</svg>
