<svg width="24" height="35" viewBox="0 0 24 35" fill="none" xmlns="http://www.w3.org/2000/svg">
<path d="M1.61417 35C1.05884 35 0.781172 34.7223 0.781172 34.167V30.051C0.781172 29.6917 0.928172 29.3487 1.22217 29.022C2.56151 27.6827 3.98251 26.1963 5.48517 24.563C6.98784 22.897 8.00051 21.7863 8.52317 21.231C10.0258 19.5323 11.1528 18.291 11.9042 17.507C14.8768 14.2077 16.3632 11.7577 16.3632 10.157C16.3632 9.01366 15.9548 8.08266 15.1382 7.364C14.3215 6.61267 13.2598 6.237 11.9532 6.237C10.6465 6.237 9.58484 6.61267 8.76817 7.364C7.95151 8.08266 7.54317 9.04633 7.54317 10.255V11.235C7.54317 11.7903 7.26551 12.068 6.71017 12.068H1.41817C0.862839 12.068 0.585172 11.7903 0.585172 11.235V9.177C0.683172 7.413 1.23851 5.86133 2.25117 4.522C3.26384 3.15 4.60317 2.10466 6.26917 1.386C7.96784 0.667332 9.86251 0.308 11.9532 0.308C14.2725 0.308 16.2815 0.748999 17.9802 1.631C19.7115 2.48033 21.0345 3.64 21.9492 5.11C22.8965 6.58 23.3702 8.21333 23.3702 10.01C23.3702 11.382 23.0272 12.7867 22.3412 14.224C21.6552 15.6613 20.6262 17.213 19.2542 18.879C17.9475 20.4797 15.6935 22.946 12.4922 26.278C12.4595 26.3107 11.6918 27.1273 10.1892 28.728C10.0912 28.7933 10.0585 28.875 10.0912 28.973C10.1238 29.0383 10.2055 29.071 10.3362 29.071H23.1742C23.7295 29.071 24.0072 29.3487 24.0072 29.904V34.167C24.0072 34.7223 23.7295 35 23.1742 35H1.61417Z" fill="white"/>
</svg>
