<svg width="24" height="36" viewBox="0 0 24 36" fill="none" xmlns="http://www.w3.org/2000/svg">
<path d="M22.52 20.1443C23.2387 21.5817 23.598 23.2803 23.598 25.2403C23.598 27.135 23.2223 28.801 22.471 30.2383C21.589 31.9043 20.2497 33.2273 18.453 34.2073C16.689 35.1547 14.5983 35.6283 12.181 35.6283C9.86167 35.6283 7.80367 35.171 6.007 34.2563C4.243 33.309 2.90367 31.937 1.989 30.1403C1.205 28.605 0.813 26.9553 0.813 25.1913C0.813 23.362 1.18867 21.6633 1.94 20.0953C2.56067 18.952 3.39367 18.0047 4.439 17.2533C4.635 17.09 4.635 16.9593 4.439 16.8613C3.557 16.208 2.80567 15.3913 2.185 14.4113C1.401 13.1047 1.009 11.6183 1.009 9.95233C1.009 7.92699 1.548 6.14666 2.626 4.61133C3.57333 3.23933 4.88 2.17766 6.546 1.42633C8.24467 0.674992 10.1393 0.299325 12.23 0.299325C14.6147 0.299325 16.6727 0.740325 18.404 1.62233C20.168 2.50433 21.491 3.81099 22.373 5.54233C23.1243 6.97966 23.5 8.46599 23.5 10.0013C23.5 11.602 23.0917 13.0393 22.275 14.3133C21.6217 15.2607 20.8377 16.0937 19.923 16.8123C19.727 16.9103 19.727 17.041 19.923 17.2043C21.0663 17.923 21.932 18.903 22.52 20.1443ZM8.359 8.33533C8.03233 8.98866 7.869 9.80533 7.869 10.7853C7.869 11.798 8.09767 12.6637 8.555 13.3823C8.91433 14.003 9.40433 14.4767 10.025 14.8033C10.6783 15.0973 11.4133 15.2443 12.23 15.2443C14.0267 15.2443 15.3007 14.6073 16.052 13.3333C16.4767 12.6147 16.689 11.749 16.689 10.7363C16.689 9.82166 16.5257 9.05399 16.199 8.43333C15.4477 6.96333 14.1247 6.22833 12.23 6.22833C11.348 6.22833 10.564 6.42433 9.878 6.81633C9.22467 7.17566 8.71833 7.68199 8.359 8.33533ZM15.758 28.0823C16.3787 27.135 16.689 25.959 16.689 24.5543C16.689 23.607 16.5257 22.7577 16.199 22.0063C15.8397 21.2223 15.317 20.618 14.631 20.1933C13.9777 19.7687 13.1773 19.5563 12.23 19.5563C10.466 19.5563 9.192 20.3567 8.408 21.9573C8.04867 22.7413 7.869 23.6397 7.869 24.6523C7.869 25.959 8.13033 27.0533 8.653 27.9353C9.437 29.1767 10.6293 29.7973 12.23 29.7973C13.798 29.7973 14.974 29.2257 15.758 28.0823Z" fill="white"/>
</svg>
