<svg width="24" height="35" viewBox="0 0 24 35" fill="none" xmlns="http://www.w3.org/2000/svg">
<path d="M6.37 35C6.076 35 5.86367 34.902 5.733 34.706C5.635 34.51 5.635 34.2813 5.733 34.02L16.17 6.972C16.2353 6.74333 16.17 6.629 15.974 6.629H6.909C6.713 6.629 6.615 6.727 6.615 6.923V8.883C6.615 9.43833 6.33733 9.716 5.782 9.716H1.813C1.25767 9.716 0.98 9.43833 0.98 8.883L1.029 1.533C1.029 0.977665 1.30667 0.699998 1.862 0.699998H22.785C23.3403 0.699998 23.618 0.977665 23.618 1.533V6.09C23.618 6.41666 23.5527 6.75967 23.422 7.119L12.936 34.363C12.8053 34.7877 12.495 35 12.005 35H6.37Z" fill="white"/>
</svg>
