<svg width="56" height="56" viewBox="0 0 56 56" fill="none" xmlns="http://www.w3.org/2000/svg">
<g id="Icon">
<path id="Vector" fill-rule="evenodd" clip-rule="evenodd" d="M17.8976 27.1188C13.5567 25.3444 10.5 21.0804 10.5 16.0992C10.5 9.52447 15.8253 4.19922 22.4 4.19922C28.9748 4.19922 34.3 9.52447 34.3 16.0992C34.3 21.0805 31.2432 25.3445 26.9023 27.1188C31.0801 28.1009 34.7426 30.4197 37.4137 33.5992H30.6773L30.4459 33.6056C28.3015 33.724 26.5996 35.4786 26.5996 37.6257V46.1992H2.7998C2.7998 36.9237 9.24289 29.1531 17.8976 27.1188ZM28.6867 18.9729C27.9616 21.8103 25.3707 23.7992 22.3995 23.7992C19.4283 23.7992 16.8374 21.8103 16.1123 18.9729L19.2551 18.1992C19.614 19.6218 20.911 20.6205 22.3995 20.6205C23.888 20.6205 25.1851 19.6218 25.5439 18.1992L28.6867 18.9729Z" fill="#EC912A"/>
<path id="Vector_2" fill-rule="evenodd" clip-rule="evenodd" d="M29.4004 37.9148C29.4004 37.0784 30.0784 36.4004 30.9148 36.4004H50.2859C51.1224 36.4004 51.8004 37.0784 51.8004 37.9148V49.2376C51.8004 50.074 51.1223 50.752 50.2859 50.752H45.1182C44.4363 50.7586 42.6219 52.0596 41.5109 52.9076C40.9844 53.3095 40.24 53.2808 39.7337 52.8537C38.7282 52.0057 37.0812 50.7584 36.0848 50.752H30.9148C30.0784 50.752 29.4004 50.074 29.4004 49.2376V37.9148ZM35.3231 45.0113C36.1558 45.0113 36.8308 44.3688 36.8308 43.5762C36.8308 42.7835 36.1558 42.141 35.3231 42.141C34.4904 42.141 33.8154 42.7835 33.8154 43.5762C33.8154 44.3688 34.4904 45.0113 35.3231 45.0113ZM40.6005 45.0113C41.4331 45.0113 42.1082 44.3688 42.1082 43.5762C42.1082 42.7835 41.4331 42.141 40.6005 42.141C39.7678 42.141 39.0928 42.7835 39.0928 43.5762C39.0928 44.3688 39.7678 45.0113 40.6005 45.0113ZM47.3845 43.5762C47.3845 44.3688 46.7095 45.0113 45.8768 45.0113C45.0442 45.0113 44.3691 44.3688 44.3691 43.5762C44.3691 42.7835 45.0442 42.141 45.8768 42.141C46.7095 42.141 47.3845 42.7835 47.3845 43.5762Z" fill="#EC912A"/>
</g>
</svg>
