<svg width="56" height="56" viewBox="0 0 56 56" fill="none" xmlns="http://www.w3.org/2000/svg">
<g id="Icon">
<path id="Vector" fill-rule="evenodd" clip-rule="evenodd" d="M11.1998 16.7996C11.1998 17.2115 11.1405 17.6096 11.03 17.9858L18.3939 22.2373C17.9131 23.0371 17.5294 23.9018 17.259 24.8152L9.37544 20.2637C8.69979 20.7279 7.88153 20.9996 6.9998 20.9996C4.68021 20.9996 2.7998 19.1192 2.7998 16.7996C2.7998 14.48 4.68021 12.5996 6.9998 12.5996C9.3194 12.5996 11.1998 14.48 11.1998 16.7996ZM26.5996 39.113C27.0583 39.1702 27.5256 39.1996 27.9998 39.1996C28.4739 39.1996 28.941 39.1702 29.3996 39.113V46.4385C31.031 47.0151 32.1998 48.5709 32.1998 50.3996C32.1998 52.7192 30.3194 54.5996 27.9998 54.5996C25.6802 54.5996 23.7998 52.7192 23.7998 50.3996C23.7998 48.571 24.9684 47.0153 26.5996 46.4387V39.113ZM38.7406 24.8152C38.4702 23.9018 38.0865 23.0371 37.6057 22.2373L44.9696 17.9858C44.8591 17.6096 44.7998 17.2115 44.7998 16.7996C44.7998 14.48 46.6802 12.5996 48.9998 12.5996C51.3194 12.5996 53.1998 14.48 53.1998 16.7996C53.1998 19.1192 51.3194 20.9996 48.9998 20.9996C48.1181 20.9996 47.2998 20.7279 46.6242 20.2637L38.7406 24.8152Z" fill="#EC912A"/>
<path id="Vector_2" fill-rule="evenodd" clip-rule="evenodd" d="M29.3996 13.8442C32.205 13.2074 34.2992 10.6985 34.2992 7.70039C34.2992 4.221 31.4786 1.40039 27.9992 1.40039C24.5198 1.40039 21.6992 4.221 21.6992 7.70039C21.6992 10.6988 23.7938 13.2079 26.5996 13.8444V19.7165C22.6268 20.383 19.5996 23.8382 19.5996 28.0004C19.5996 29.8144 20.1747 31.4942 21.1524 32.8673L15.2534 38.7663C14.2823 38.1544 13.1323 37.8004 11.8996 37.8004C8.42022 37.8004 5.59961 40.621 5.59961 44.1004C5.59961 47.5798 8.42022 50.4004 11.8996 50.4004C15.379 50.4004 18.1996 47.5798 18.1996 44.1004C18.1996 42.8675 17.8455 41.7174 17.2334 40.7461L23.1323 34.8473C24.5055 35.8252 26.1854 36.4004 27.9996 36.4004C29.8138 36.4004 31.4936 35.8253 32.8668 34.8474L38.7658 40.7464C38.1539 41.7176 37.7998 42.8676 37.7998 44.1004C37.7998 47.5798 40.6204 50.4004 44.0998 50.4004C47.5792 50.4004 50.3998 47.5798 50.3998 44.1004C50.3998 40.621 47.5792 37.8004 44.0998 37.8004C42.867 37.8004 41.7169 38.1545 40.7457 38.7665L34.8467 32.8675C35.8245 31.4943 36.3996 29.8145 36.3996 28.0004C36.3996 23.8382 33.3724 20.383 29.3996 19.7165V13.8442Z" fill="#EC912A"/>
</g>
</svg>
