<svg width="46" height="54" viewBox="0 0 46 54" fill="none" xmlns="http://www.w3.org/2000/svg">
<path fill-rule="evenodd" clip-rule="evenodd" d="M22.7859 0.550781L27.3566 2.76704L29.2431 3.74685C29.9087 4.08172 30.5182 4.35428 31.6165 4.76729L32.9064 5.23762C34.604 5.86339 35.7994 6.06373 36.2935 6.12617L36.4533 6.14447L36.7114 6.1561L36.9279 6.17063L45.2218 6.83187V32.1728C45.2218 44.3106 27.4971 53.7439 22.9996 53.7439C17.7841 53.7439 1.20976 44.0468 0.785636 32.6189L0.777344 32.1728V6.79264L6.72303 6.38062C7.50016 6.32144 8.22482 6.26277 8.80029 6.20997L9.39007 6.1497C9.81246 6.09269 11.2118 5.86803 13.4182 5.16932L14.0892 4.92119C15.7216 4.29985 17.0077 3.68145 17.7475 3.30208L18.4462 2.92835L22.7859 0.550781ZM22.9121 5.02417L20.5711 6.28666L20.1016 6.54448C19.9127 6.64474 19.6903 6.75939 19.431 6.88863L18.5826 7.29888C17.602 7.75884 16.5252 8.21594 15.3715 8.64752C15.0705 8.76011 14.767 8.86987 14.4612 8.97656C13.1379 9.39162 11.9059 9.70659 10.8319 9.92218L10.3815 10.0085C9.88532 10.0989 9.52718 10.1499 9.3126 10.1739L9.14607 10.1894L4.48105 10.5286V32.2099L4.48984 32.6021C4.67702 36.7793 7.84036 40.748 12.7833 44.466C16.5695 47.3139 21.0862 49.7089 22.9996 49.7089C24.8495 49.7089 29.3774 47.2971 33.1546 44.4703C38.1384 40.7404 41.3209 36.7819 41.5092 32.6024L41.5181 32.2099V10.545L37.0431 10.1927L36.8099 10.1835L36.617 10.1709L36.1774 10.1261C36.0165 10.1063 35.8413 10.0813 35.6523 10.0505C34.657 9.88848 33.5218 9.608 32.2633 9.18101L30.949 8.72253L30.0249 8.37935C29.1187 8.03008 28.2797 7.66817 27.5143 7.30512L26.7261 6.91805L26.1639 6.62393L26.018 6.54414L25.7083 6.36596L25.4312 6.2163L22.9121 5.02417ZM36.8103 13.1376C36.8103 13.1376 34.4859 13.1376 30.7037 11.7649C26.634 10.3952 24.1614 8.88511 24.1614 8.88511L23 8.33545L21.9807 8.88511C21.9807 8.88511 19.3659 10.3952 15.44 11.7649C11.514 13.0002 9.33329 13.1376 9.33329 13.1376L7.4444 13.275V32.2088C7.4444 39.2081 21.2548 46.7527 23 46.7527C24.597 46.7527 38.5555 39.2081 38.5555 32.2088V13.275L36.8103 13.1376ZM14.7113 28.6419L21.9794 34.9541L32.8831 22.0563L30.2668 19.7231L21.5439 30.0145L16.892 26.0354L14.7113 28.6419Z" fill="#EC912A"/>
</svg>
