<svg width="56" height="56" viewBox="0 0 56 56" fill="none" xmlns="http://www.w3.org/2000/svg">
<g id="Icon">
<path id="Vector" fill-rule="evenodd" clip-rule="evenodd" d="M5.5998 5.59961C4.05341 5.59961 2.7998 6.85321 2.7998 8.39961V30.7996C2.7998 32.346 4.05341 33.5996 5.5998 33.5996H41.9998C43.5462 33.5996 44.7998 32.346 44.7998 30.7996V8.39961C44.7998 6.85321 43.5462 5.59961 41.9998 5.59961H5.5998ZM32.1994 33.5997H15.3994C17.2358 33.5997 20.2767 36.0086 22.1521 37.6665C23.1037 38.5077 24.5432 38.5639 25.5346 37.7701C27.6067 36.1109 30.9494 33.5997 32.1994 33.5997Z" fill="#EC912A"/>
<path id="Vector_2" fill-rule="evenodd" clip-rule="evenodd" d="M13.5103 22.4003L14.1725 20.4599H18.0687L18.7155 22.4003H20.9485L16.9445 11.4355H15.2659L11.2773 22.4003H13.5103ZM17.4992 18.6575H14.7734L16.1594 14.6689L17.4992 18.6575ZM36.3998 12.6003H23.7998V14.0003H36.3998V12.6003ZM36.3998 19.6003H23.7998V21.0003H36.3998V19.6003ZM11.2002 26.6001H36.4002V28.0001H11.2002V26.6001Z" fill="white"/>
<path id="Vector_3" fill-rule="evenodd" clip-rule="evenodd" d="M19.5996 38.3963C20.5331 39.0776 21.4292 39.8282 22.1521 40.4673C23.1037 41.3085 24.5432 41.3647 25.5346 40.5709C27.5884 38.9264 30.8904 36.4448 32.1658 36.4011H44.7998C46.3462 36.4011 47.5998 35.1475 47.5998 33.6011V23.8008H50.9596C52.1967 23.8008 53.1996 24.8037 53.1996 26.0408V44.2935C53.1996 45.5306 52.1967 46.5335 50.9596 46.5335H21.8396C20.6025 46.5335 19.5996 45.5306 19.5996 44.2935V38.3963ZM29.6797 46.5335H43.1197C42.1221 46.5335 39.4587 48.5623 37.8002 49.9094C37.003 50.5569 35.8362 50.5116 35.0715 49.826C33.5703 48.4803 31.1454 46.5335 29.6797 46.5335Z" fill="#EC912A"/>
</g>
</svg>
