<svg width="56" height="56" viewBox="0 0 56 56" fill="none" xmlns="http://www.w3.org/2000/svg">
<g id="Icon">
<g id="Vector">
<path id="Vector_2" fill-rule="evenodd" clip-rule="evenodd" d="M33.7999 21.2764V5.38362C33.3491 5.23149 32.8871 5.09242 32.4242 4.96362C30.5799 4.47082 28.6386 4.19922 26.6319 4.19922C25.7742 4.19922 24.9314 4.25242 24.0998 4.34855C22.066 4.57815 20.1163 5.08589 18.2823 5.82042C18.2823 5.82042 33.3939 20.722 33.7999 21.2764ZM45.9708 15.2951C46.2106 15.7105 46.4365 16.1333 46.6484 16.5561L35.3662 27.7943C35.4792 27.1195 35.3662 5.93848 35.3662 5.93848C37.1834 6.70568 38.9185 7.72674 40.5229 8.99514C41.1781 9.51221 41.8137 10.0713 42.4194 10.6742C43.8372 12.0835 45.0132 13.645 45.9708 15.2951ZM27.9017 17.8334L16.6224 6.59326C16.1912 6.80793 15.7674 7.03286 15.3549 7.2718C13.6936 8.22286 12.1284 9.39793 10.7144 10.8063C10.103 11.4121 9.54771 12.0477 9.02971 12.6973C7.75571 14.2951 6.73184 16.0265 5.95997 17.8371C5.95997 17.8371 27.2213 17.7251 27.9017 17.8334ZM21.3381 19.4317H5.38553C5.23153 19.8778 5.09526 20.338 4.96833 20.8009C4.47086 22.6405 4.2002 24.5734 4.2002 26.5717C4.2002 27.4257 4.2534 28.2666 4.35046 29.0936C4.58006 31.1226 5.0878 33.0649 5.8298 34.8868C5.8298 34.8868 20.7799 19.8293 21.3381 19.4317ZM6.53712 36.5311L17.8127 25.291C17.7045 25.9642 17.8171 46.7629 17.8192 47.1471L17.8192 47.1476L17.8192 47.1485L17.8192 47.1494L17.8192 47.1497L17.8193 47.1525C15.9983 46.3862 14.267 45.3698 12.6626 44.0986C12.0074 43.5778 11.3709 43.0234 10.7661 42.4195C9.34739 41.0093 8.16765 39.4478 7.21472 37.7949C6.97672 37.3786 6.74619 36.9614 6.53712 36.5311ZM38.5789 35.4848C35.8196 37.3316 33.9266 40.3721 33.6388 43.8675L25.1895 35.4496C25.576 35.5142 32.5857 35.5049 38.5789 35.4848ZM42.798 33.7776H31.8594C32.4185 33.3754 47.3714 18.3188 47.3714 18.3188C48.1125 20.1435 48.6165 22.0876 48.8489 24.1139C48.945 24.9418 49.0001 25.7836 49.0001 26.6386C49.0001 28.6378 48.7275 30.5651 48.2273 32.4066C48.1022 32.8676 47.9631 33.3278 47.8119 33.7776H46.8032C46.1534 33.6604 45.4842 33.5991 44.8006 33.5991C44.117 33.5991 43.4478 33.6604 42.798 33.7776ZM33.6833 46.1671C33.7482 46.6998 33.8505 47.221 33.9874 47.7279C32.4293 48.2769 30.7937 48.6572 29.0959 48.8494C28.268 48.9465 27.4234 48.9997 26.5684 48.9997C24.5618 48.9997 22.6232 48.7309 20.7762 48.2297C20.3142 48.1055 19.854 47.9674 19.4014 47.8143V31.9197C19.7332 32.3817 30.0752 42.6035 33.6833 46.1671Z" fill="#EC912A"/>
</g>
<g id="Vector_3">
<circle id="&#230;&#164;&#173;&#229;&#156;&#134;&#229;&#189;&#162;" cx="44.8004" cy="44.8004" r="8.4" fill="#EC912A"/>
<path id="&#229;&#189;&#162;&#231;&#138;&#182;&#231;&#187;&#147;&#229;&#144;&#136;" fill-rule="evenodd" clip-rule="evenodd" d="M49.1519 42.1622L48.162 41.1722L43.2122 46.1221L40.7372 43.6471L39.7472 44.637L43.2121 48.1019L43.2121 48.1018L43.2122 48.1019L49.1519 42.1622Z" fill="#FAFBFF"/>
</g>
</g>
</svg>
